<svg width="100" height="100" viewBox="0 0 100 100" fill="none" xmlns="http://www.w3.org/2000/svg">
<path d="M88.3839 79.17C88.9746 69.7548 89.2853 59.9978 89.2853 50C89.2853 45.9508 89.2346 41.9412 89.1346 37.9777C89.0646 35.1934 88.161 32.4874 86.5132 30.2421C80.231 21.6841 75.2267 16.3637 66.9789 9.99835C64.7124 8.24907 61.9311 7.3 59.0688 7.23742C56.1986 7.17471 53.2014 7.14285 49.9996 7.14285C40.3071 7.14285 32.4885 7.43478 24.3974 7.99107C17.5143 8.46435 12.0477 13.9439 11.6154 20.8297C11.0245 30.2452 10.7139 40.0022 10.7139 50C10.7139 59.9978 11.0245 69.7548 11.6154 79.17C12.0477 86.0564 17.5143 91.5357 24.3974 92.0086C32.4885 92.565 40.3071 92.8571 49.9996 92.8571C59.6921 92.8571 67.5107 92.565 75.6017 92.0086C82.4846 91.5357 87.9517 86.0564 88.3839 79.17Z" stroke="white" stroke-width="3"/>
<path d="M28.5713 7.727V48.5206C28.5713 51.7025 32.4182 53.2959 34.6681 51.0461L42.857 42.8571L51.0459 51.0461C53.2958 53.2959 57.1427 51.7025 57.1427 48.5206V7.20028C54.8614 7.16214 52.4926 7.14285 49.9999 7.14285C41.9792 7.14285 35.2418 7.34278 28.5713 7.727Z" stroke="white" stroke-width="3" stroke-linejoin="round"/>
<path d="M34 13.3768V39.6915C34 41.7441 36.4236 42.7719 37.841 41.3206L43 36.0382L48.159 41.3206C49.5764 42.7719 52 41.7441 52 39.6915V13.037C50.5627 13.0124 49.0704 13 47.5 13C42.447 13 38.2024 13.129 34 13.3768Z" fill="#F6B642"/>
</svg>
