<svg width="194" height="141" viewBox="0 0 194 141" fill="none" xmlns="http://www.w3.org/2000/svg">
<path d="M52.8587 32.1507C28.2779 37.9184 25.0781 46.5267 15.1459 56.359C15.5717 51.8619 12.3719 39.1425 22.1244 34.0267C27.7923 31.0531 37.7909 34.2995 44.277 30.614C48.6543 28.126 46.0931 24.3208 44.144 21.6066C42.3345 25.3054 34.4381 23.3163 34.4381 18.0675C34.4352 16.4198 35.1956 14.8637 36.4973 13.8536C37.799 12.8435 39.4952 12.4933 41.0905 12.9052C41.004 5.86689 51.1557 -4.81695 58.8193 4.88233C57.1961 6.1729 52.6591 5.80036 49.7586 2.95312C51.7544 8.50126 46.0266 14.0827 46.5788 15.5928C52.2533 24.3407 49.0601 26.8221 52.8587 32.1507Z" fill="#21222F" stroke="#21222F" stroke-width="0.5"/>
<path fill-rule="evenodd" clip-rule="evenodd" d="M55.0074 34.2596C50.3041 30.2681 50.7698 27.6071 50.2842 22.9837C49.9981 20.2561 46.0466 15.9121 46.4657 15.0007C47.417 13.005 51.3552 9.16651 49.7919 2.84668C54.9808 7.73623 59.9302 4.37009 59.1053 4.73598C60.2429 5.85359 62.232 10.8496 62.5114 10.8695C69.9355 11.3818 71.7516 11.9472 64.1545 15.5662C65.2921 18.7394 68.8844 28.2058 70.1085 30.9067C69.4898 34.0666 63.2897 36.5081 55.0074 34.2596Z" fill="white"/>
<path d="M62.0457 35.2707C57.0896 36.1754 54.6548 34.2529 54.1626 33.6874C48.1022 26.6957 53.1447 25.7045 46.8449 16.1316C45.082 13.4706 52.0271 10.4837 49.6589 3.13269C49.2331 1.8022 54.2291 7.69628 58.8991 4.88229" stroke="#21222F" stroke-width="0.912857" stroke-linecap="round" stroke-linejoin="round"/>
<path fill-rule="evenodd" clip-rule="evenodd" d="M74.6987 26.6825C10.1366 23.8552 -29.1461 117.222 26.7811 132.709C27.8189 134.592 28.0384 132.882 27.9319 137.885C78.0183 147.431 98.6076 127.906 134.112 122.139C138.981 91.178 138.469 29.4832 74.6987 26.6825Z" fill="#B7E4DB"/>
<ellipse cx="73.433" cy="51.6603" rx="0.67855" ry="0.811599" transform="rotate(-34.54 73.433 51.6603)" fill="#21222F"/>
<ellipse cx="70.8996" cy="40.1987" rx="0.67855" ry="0.811599" transform="rotate(-44.82 70.8996 40.1987)" fill="#21222F"/>
<path fill-rule="evenodd" clip-rule="evenodd" d="M104.881 54.3168C107.835 54.3833 111.533 58.0688 105.978 64.3952C106.231 65.9187 108.167 67.8279 106.085 72.458C111.214 82.1506 94.1105 97.8039 91.4495 87.7587C89.7931 89.7544 87.2984 92.2291 85.3692 94.165C79.3549 84.9367 75.6557 74.3936 74.5856 63.4306C86.4003 52.494 95.9466 45.7351 111.174 42.6284C126.036 42.7947 110.07 51.9086 104.881 54.3168Z" fill="white"/>
<ellipse cx="52.1017" cy="11.4588" rx="0.964606" ry="1.15087" transform="rotate(-32.82 52.1017 11.4588)" fill="#21222F"/>
<ellipse cx="58.2764" cy="9.44465" rx="0.67855" ry="0.811599" transform="rotate(-32.82 58.2764 9.44465)" fill="#21222F"/>
<path d="M89.2875 45.123C92.0013 43.8433 94.8957 42.9884 97.8692 42.5884" stroke="#21222F" stroke-width="0.5" stroke-linecap="round" stroke-linejoin="round"/>
<path d="M89.4471 41.0717C90.4902 40.7489 91.5617 40.5262 92.647 40.4065" stroke="#21222F" stroke-width="0.5" stroke-linecap="round" stroke-linejoin="round"/>
<path fill-rule="evenodd" clip-rule="evenodd" d="M148.069 20.6221C171.878 19.8638 193.166 15.4266 193.665 17.5487C194.277 20.1698 176.308 27.5274 168.172 36.1756L162.89 32.071L156.703 35.6367L157.415 27.8401L148.069 20.6221Z" fill="#F6B642"/>
<path d="M119.902 30.6008C123.182 29.1439 137.824 24.3076 146.146 23.1035" stroke="#21222F" stroke-width="0.608571" stroke-linecap="round" stroke-linejoin="round"/>
<path d="M142.048 33.1687C146.04 31.918 150.537 30.0819 154.362 29.0774" stroke="#21222F" stroke-width="0.54" stroke-linecap="round" stroke-linejoin="round"/>
<path d="M156.481 35.364C156.463 35.5311 156.583 35.6813 156.75 35.6995C156.917 35.7178 157.068 35.5971 157.086 35.4301L156.481 35.364ZM157.615 27.78L157.536 27.486C157.415 27.5185 157.326 27.6221 157.312 27.747L157.615 27.78ZM188.9 19.7251C189.062 19.6817 189.159 19.5149 189.115 19.3525C189.072 19.1902 188.905 19.0938 188.743 19.1372L188.9 19.7251ZM148.918 20.8027C148.779 20.7082 148.59 20.7443 148.495 20.8833C148.401 21.0223 148.437 21.2115 148.576 21.306L148.918 20.8027ZM167.917 35.923C168.046 36.0309 168.238 36.014 168.346 35.8852C168.454 35.7563 168.437 35.5644 168.308 35.4565L167.917 35.923ZM157.086 35.4301L157.917 27.813L157.312 27.747L156.481 35.364L157.086 35.4301ZM157.693 28.0739L188.9 19.7251L188.743 19.1372L157.536 27.486L157.693 28.0739ZM148.576 21.306C155.264 25.8515 161.719 30.73 167.917 35.923L168.308 35.4565C162.094 30.2504 155.623 25.3597 148.918 20.8027L148.576 21.306Z" fill="#21222F"/>
<path d="M161.38 38.9295C163.057 37.8819 164.841 37.0166 166.702 36.3484" stroke="#21222F" stroke-width="0.5" stroke-linecap="round" stroke-linejoin="round"/>
<path d="M119.982 96.9889C119.95 96.8238 119.791 96.7152 119.626 96.7463C119.461 96.7775 119.352 96.9366 119.384 97.1018L119.982 96.9889ZM120.61 124.293C120.595 124.46 120.718 124.608 120.886 124.623C121.053 124.639 121.201 124.515 121.216 124.348L120.61 124.293ZM61.685 22.0173C61.8347 21.941 61.8942 21.7577 61.8179 21.608C61.7415 21.4583 61.5583 21.3988 61.4086 21.4752L61.685 22.0173ZM52.4356 16.9243C52.3444 16.7832 52.156 16.7427 52.0149 16.834C51.8738 16.9253 51.8334 17.1136 51.9246 17.2547L52.4356 16.9243ZM75.1016 64.2959C75.0873 64.1285 74.9399 64.0044 74.7725 64.0188C74.605 64.0331 74.4809 64.1805 74.4953 64.3479L75.1016 64.2959ZM84.6197 93.9681C84.7094 94.1102 84.8973 94.1526 85.0394 94.0629C85.1815 93.9732 85.2239 93.7852 85.1342 93.6431L84.6197 93.9681ZM105.835 53.5761C105.687 53.6554 105.631 53.8398 105.71 53.988C105.79 54.1361 105.974 54.1919 106.122 54.1125L105.835 53.5761ZM107.123 43.5796L107.049 43.2843L107.049 43.2844L107.123 43.5796ZM47.4969 84.4159C47.3408 84.4783 47.265 84.6554 47.3274 84.8114C47.3898 84.9674 47.5669 85.0433 47.7229 84.9809L47.4969 84.4159ZM83.898 60.9808C83.7685 61.0879 83.7504 61.2797 83.8575 61.4092C83.9646 61.5387 84.1564 61.5568 84.2859 61.4497L83.898 60.9808ZM105.604 64.4454C105.507 64.5826 105.539 64.7725 105.676 64.8696C105.813 64.9667 106.003 64.9343 106.1 64.7971L105.604 64.4454ZM88.7202 67.7322C88.5755 67.8177 88.5276 68.0043 88.6132 68.149C88.6987 68.2936 88.8853 68.3415 89.03 68.256L88.7202 67.7322ZM105.729 72.5955C105.677 72.7551 105.764 72.9271 105.923 72.9797C106.083 73.0323 106.255 72.9455 106.307 72.7859L105.729 72.5955ZM96.667 74.1991C96.5191 74.2788 96.4638 74.4634 96.5436 74.6113C96.6233 74.7592 96.8079 74.8145 96.9558 74.7347L96.667 74.1991ZM92.9663 90.027L92.8005 90.2821L92.8019 90.283L92.9663 90.027ZM94.8623 85.3171L95.0623 85.5463L95.0627 85.546L94.8623 85.3171ZM85.2628 94.2779L85.0588 94.0521L85.0576 94.0532L85.2628 94.2779ZM73.4746 106.106L73.67 106.339L73.6702 106.339L73.4746 106.106ZM48.8271 119.814C48.66 119.832 48.5396 119.982 48.5581 120.15C48.5766 120.317 48.727 120.437 48.894 120.418L48.8271 119.814ZM62.6151 73.8732C62.6289 73.7057 62.5043 73.5588 62.3368 73.545C62.1693 73.5312 62.0223 73.6558 62.0086 73.8233L62.6151 73.8732ZM73.085 105.694C73.1808 105.832 73.3704 105.866 73.5085 105.771C73.6465 105.675 73.6807 105.485 73.5849 105.347L73.085 105.694ZM83.7456 102.249C83.6876 102.091 83.5128 102.01 83.355 102.068C83.1973 102.126 83.1164 102.301 83.1744 102.459L83.7456 102.249ZM87.2474 118.171C87.2569 118.339 87.4007 118.467 87.5684 118.457C87.7362 118.448 87.8645 118.304 87.855 118.136L87.2474 118.171ZM27.3095 49.242C27.1779 49.1375 26.9865 49.1595 26.882 49.2911C26.7775 49.4228 26.7995 49.6142 26.9312 49.7186L27.3095 49.242ZM41.4515 72.0998C41.4521 72.2679 41.5889 72.4036 41.7569 72.4029C41.925 72.4023 42.0607 72.2655 42.06 72.0975L41.4515 72.0998ZM64.6025 31.5832C64.539 31.4276 64.3613 31.3531 64.2057 31.4166C64.0502 31.4802 63.9756 31.6578 64.0392 31.8134L64.6025 31.5832ZM69.832 57.5565C69.8467 57.7239 69.9944 57.8476 70.1618 57.8329C70.3292 57.8181 70.453 57.6705 70.4382 57.5031L69.832 57.5565ZM73.495 28.951C73.429 28.7965 73.2502 28.7247 73.0956 28.7908C72.9411 28.8568 72.8693 29.0356 72.9354 29.1901L73.495 28.951ZM75.2641 35.2973L75.0816 35.5407C75.184 35.6175 75.3237 35.622 75.4308 35.5519C75.538 35.4817 75.5897 35.352 75.5603 35.2273L75.2641 35.2973ZM63.6689 30.6406L63.9516 30.7538L63.9555 30.7429L63.6689 30.6406ZM50.6767 31.2127L50.9274 31.0403C50.9198 31.0292 50.9114 31.0186 50.9023 31.0085L50.6767 31.2127ZM50.5961 30.4617C50.5488 30.3004 50.3797 30.2081 50.2184 30.2555C50.0572 30.3028 49.9648 30.4719 50.0122 30.6332L50.5961 30.4617ZM67.3194 25.2022C67.3837 25.3575 67.5617 25.4312 67.717 25.3669C67.8722 25.3025 67.946 25.1245 67.8816 24.9693L67.3194 25.2022ZM64.4473 15.5023C64.39 15.3443 64.2155 15.2627 64.0575 15.3199C63.8995 15.3772 63.8179 15.5517 63.8751 15.7097L64.4473 15.5023ZM62.1962 11.1257C62.2495 11.285 62.4219 11.371 62.5813 11.3177C62.7407 11.2644 62.8267 11.092 62.7734 10.9326L62.1962 11.1257ZM59.1053 4.79578L58.8578 4.9728C58.8608 4.97692 58.8638 4.98096 58.867 4.98493L59.1053 4.79578ZM41.2169 13.3641L41.0756 13.6336C41.1632 13.6796 41.2677 13.68 41.3557 13.6349C41.4437 13.5898 41.5043 13.5047 41.5182 13.4068L41.2169 13.3641ZM35.416 22.0123L35.6462 21.8133L35.6455 21.8126L35.416 22.0123ZM43.7382 21.5799L43.9589 21.3704C43.899 21.3073 43.815 21.2729 43.7281 21.2758C43.6411 21.2787 43.5596 21.3186 43.5041 21.3856L43.7382 21.5799ZM44.5165 30.7071L44.3003 30.493L44.3003 30.493L44.5165 30.7071ZM9.28101 54.1526C9.29327 54.3202 9.43907 54.4461 9.60667 54.4338C9.77428 54.4216 9.90022 54.2758 9.88796 54.1082L9.28101 54.1526ZM57.1399 9.76431C57.0219 9.64469 56.8292 9.64342 56.7096 9.76146C56.59 9.8795 56.5887 10.0722 56.7068 10.1918L57.1399 9.76431ZM65.2921 15.3L65.4011 15.5841L65.402 15.5838L65.2921 15.3ZM55.0986 14.1407C54.9506 14.061 54.7661 14.1163 54.6863 14.2642C54.6066 14.4122 54.6619 14.5967 54.8099 14.6764L55.0986 14.1407ZM119.384 97.1018C119.712 98.8443 120.21 103.549 120.531 108.878C120.85 114.204 120.991 120.122 120.61 124.293L121.216 124.348C121.601 120.13 121.458 114.174 121.138 108.841C120.818 103.51 120.318 98.7721 119.982 96.9889L119.384 97.1018ZM61.4086 21.4752C59.6611 22.3662 58.0741 22.2101 56.5992 21.3572C55.1038 20.4926 53.7169 18.9056 52.4356 16.9243L51.9246 17.2547C53.2245 19.2649 54.6749 20.9476 56.2945 21.8841C57.9346 22.8324 59.7404 23.0089 61.685 22.0173L61.4086 21.4752ZM74.4953 64.3479C75.9455 81.2625 82.9855 91.3802 84.6197 93.9681L85.1342 93.6431C83.5086 91.0687 76.5386 81.0561 75.1016 64.2959L74.4953 64.3479ZM106.122 54.1125C111.053 51.4713 114.16 49.3599 115.901 47.7049C116.769 46.8789 117.319 46.1468 117.574 45.4997C117.835 44.8387 117.793 44.2464 117.448 43.7649C117.118 43.3044 116.546 42.998 115.863 42.8001C115.173 42.6003 114.326 42.4991 113.391 42.4806C111.519 42.4436 109.244 42.7372 107.049 43.2843L107.196 43.8748C109.352 43.3376 111.572 43.0533 113.379 43.089C114.283 43.1069 115.072 43.2048 115.694 43.3847C116.322 43.5666 116.739 43.8206 116.953 44.1194C117.152 44.3971 117.211 44.7627 117.008 45.2765C116.8 45.8041 116.323 46.4636 115.481 47.2638C113.801 48.8614 110.753 50.9419 105.835 53.5761L106.122 54.1125ZM107.049 43.2844C93.6937 46.6299 81.9564 55.6788 71.9883 64.4923C69.4947 66.6971 67.1093 68.8895 64.8364 70.9758C62.5626 73.0629 60.4022 75.0429 58.3544 76.8271C54.2508 80.4025 50.6317 83.1616 47.4969 84.4159L47.7229 84.9809C50.9645 83.6839 54.6531 80.8592 58.7542 77.2859C60.8089 75.4957 62.9751 73.5102 65.2479 71.4241C67.5216 69.3371 69.9028 67.1486 72.3914 64.9482C82.3524 56.141 93.9952 47.1817 107.197 43.8747L107.049 43.2844ZM84.2859 61.4497C86.6309 59.5097 89.8135 57.8135 93.1093 56.5967C96.4059 55.3796 99.792 54.6509 102.538 54.6284C103.912 54.6171 105.109 54.7828 106.051 55.1402C106.989 55.4966 107.657 56.036 108.012 56.7671C108.368 57.4996 108.436 58.4742 108.074 59.7487C107.712 61.025 106.925 62.5801 105.604 64.4454L106.1 64.7971C107.444 62.9005 108.272 61.2818 108.66 59.9148C109.048 58.5461 109.001 57.4081 108.56 56.501C108.118 55.5927 107.306 54.9657 106.267 54.5712C105.23 54.1778 103.951 54.0082 102.533 54.0198C99.6966 54.0431 96.239 54.7925 92.8986 56.0258C89.5573 57.2593 86.3095 58.9858 83.898 60.9808L84.2859 61.4497ZM89.03 68.256C93.7749 65.4498 97.2984 64.0281 99.8828 63.5402C102.465 63.0527 104.064 63.504 105.028 64.3785C106.001 65.2609 106.404 66.6399 106.442 68.1673C106.48 69.6891 106.154 71.3067 105.729 72.5955L106.307 72.7859C106.748 71.4503 107.09 69.7616 107.05 68.152C107.01 66.548 106.587 64.9704 105.437 63.9277C104.278 62.8772 102.456 62.435 99.7699 62.9422C97.0854 63.449 93.4916 64.9104 88.7202 67.7322L89.03 68.256ZM96.9558 74.7347C99.5331 73.3453 101.525 72.6528 103.02 72.4722C104.512 72.292 105.47 72.6235 106.051 73.2317C106.641 73.8486 106.906 74.816 106.862 76.0418C106.817 77.2626 106.466 78.6956 105.877 80.1841C104.697 83.1628 102.59 86.2993 100.216 88.3142C97.8299 90.3398 95.2841 91.1537 93.1307 89.771L92.8019 90.283C95.3052 91.8905 98.1613 90.8568 100.61 88.7782C103.071 86.689 105.232 83.4649 106.443 80.4081C107.048 78.8789 107.422 77.3755 107.47 76.0638C107.517 74.7572 107.241 73.5961 106.491 72.8112C105.733 72.0176 104.554 71.674 102.947 71.868C101.344 72.0617 99.2754 72.7928 96.667 74.1991L96.9558 74.7347ZM93.1321 89.7719C92.8891 89.6139 92.7899 89.4087 92.7831 89.1492C92.7757 88.869 92.8781 88.5171 93.0809 88.112C93.4849 87.3051 94.2257 86.4063 94.9212 85.6708C95.6194 84.9324 96.236 84.3959 96.3702 84.3041C96.3766 84.2997 96.3745 84.3015 96.3667 84.3057C96.3632 84.3076 96.3515 84.3137 96.3345 84.3199C96.3273 84.3225 96.2741 84.3429 96.203 84.335C96.1615 84.3304 96.0963 84.314 96.0363 84.261C95.9732 84.2052 95.9459 84.1353 95.9376 84.0791C95.9243 83.9893 95.9563 83.9225 95.9592 83.9158C95.968 83.8961 95.9767 83.8828 95.9792 83.879C95.981 83.8762 95.9825 83.8741 95.9834 83.8729C95.9842 83.8717 95.9848 83.871 95.9849 83.8708C95.9851 83.8706 95.9843 83.8717 95.9822 83.8742C95.9801 83.8766 95.9772 83.88 95.9733 83.8843C95.9655 83.893 95.9549 83.9045 95.941 83.9189C95.9133 83.9479 95.8752 83.9861 95.8253 84.0346C95.6252 84.2289 95.255 84.5687 94.6618 85.0881L95.0627 85.546C95.6586 85.0243 96.0379 84.6764 96.2493 84.4711C96.3498 84.3735 96.4261 84.2951 96.4662 84.2433C96.4738 84.2334 96.4978 84.2026 96.5157 84.1622C96.5204 84.1515 96.5532 84.0816 96.5396 83.9897C96.5311 83.9324 96.5033 83.8616 96.4396 83.8052C96.3789 83.7516 96.3128 83.7349 96.2701 83.7301C96.1966 83.722 96.14 83.7431 96.1283 83.7473C96.1069 83.755 96.0899 83.7636 96.0799 83.7689C96.0594 83.7799 96.0406 83.7922 96.0267 83.8017C95.8356 83.9324 95.182 84.5092 94.479 85.2527C93.7733 85.999 92.982 86.9504 92.5368 87.8395C92.315 88.2824 92.1635 88.7399 92.1747 89.1652C92.1864 89.6113 92.3783 90.0077 92.8005 90.2821L93.1321 89.7719ZM94.6622 85.0878C92.9336 86.5961 91.1682 88.2633 89.5181 89.8394C87.8656 91.4178 86.3319 92.9016 85.0588 94.0521L85.4668 94.5037C86.7482 93.3458 88.2913 91.8527 89.9384 90.2795C91.5879 88.7039 93.3449 87.0449 95.0623 85.5463L94.6622 85.0878ZM85.0576 94.0532C83.9735 95.0433 81.7483 97.3974 79.4437 99.7939C77.1278 102.202 74.7306 104.655 73.2791 105.873L73.6702 106.339C75.1524 105.096 77.5749 102.615 79.8824 100.216C82.2013 97.8042 84.4033 95.475 85.468 94.5026L85.0576 94.0532ZM73.2792 105.873C67.4185 110.782 61.7508 114.221 57.3185 116.457C55.1023 117.575 53.1965 118.391 51.7315 118.941C50.2559 119.494 49.2513 119.767 48.8271 119.814L48.894 120.418C49.4012 120.362 50.4688 120.064 51.9452 119.51C53.4322 118.953 55.3582 118.127 57.5926 117C62.0613 114.746 67.7692 111.282 73.67 106.339L73.2792 105.873ZM62.0086 73.8233C61.5342 79.5862 63.0146 85.6931 65.2508 91.2793C67.4881 96.8685 70.4907 101.958 73.085 105.694L73.5849 105.347C71.0102 101.639 68.0322 96.5902 65.8158 91.0531C63.5981 85.5131 62.1514 79.506 62.6151 73.8732L62.0086 73.8233ZM83.1744 102.459C85.2306 108.055 86.9842 113.525 87.2474 118.171L87.855 118.136C87.5861 113.389 85.8005 107.842 83.7456 102.249L83.1744 102.459ZM26.9312 49.7186C28.5056 50.9683 32.1388 54.4737 35.381 58.7287C37.001 60.8548 38.5176 63.1605 39.6301 65.4584C40.7441 67.7593 41.4434 70.0328 41.4515 72.0998L42.06 72.0975C42.0515 69.9036 41.3122 67.5362 40.1778 65.1932C39.0421 62.8473 37.5006 60.5063 35.865 58.3598C32.5962 54.0698 28.9283 50.5269 27.3095 49.242L26.9312 49.7186ZM64.0392 31.8134C66.8519 38.6962 69.1353 49.6478 69.832 57.5565L70.4382 57.5031C69.7379 49.5523 67.4444 38.5375 64.6025 31.5832L64.0392 31.8134ZM72.9354 29.1901C73.7886 31.1872 74.4686 33.2538 74.968 35.3672L75.5603 35.2273C75.0529 33.0799 74.3619 30.9801 73.495 28.951L72.9354 29.1901ZM75.4467 35.0538C75.279 34.9281 74.9663 34.7633 74.5772 34.578C74.1791 34.3883 73.6748 34.1652 73.1046 33.9229C71.9636 33.438 70.549 32.8721 69.1702 32.3361C67.791 31.7999 66.4455 31.2928 65.4422 30.9253C64.9408 30.7416 64.5234 30.5924 64.2295 30.4917C64.0831 30.4415 63.9644 30.4024 63.8803 30.377C63.8394 30.3646 63.8007 30.3537 63.769 30.3465C63.7552 30.3434 63.7308 30.3382 63.704 30.3359C63.6931 30.335 63.6619 30.3325 63.6238 30.3386C63.6049 30.3416 63.567 30.3493 63.5248 30.3721C63.4799 30.3965 63.4149 30.4472 63.3824 30.5382L63.9555 30.7429C63.9232 30.8332 63.8588 30.8833 63.8148 30.9072C63.7735 30.9296 63.7368 30.9368 63.7194 30.9396C63.6844 30.9452 63.6575 30.9427 63.6521 30.9423C63.6363 30.9409 63.6279 30.9386 63.6348 30.9401C63.6447 30.9424 63.6667 30.9482 63.7044 30.9596C63.7775 30.9817 63.8877 31.0179 64.0322 31.0674C64.3202 31.1661 64.733 31.3137 65.2329 31.4967C66.2321 31.8627 67.5738 32.3684 68.9496 32.9033C70.3257 33.4383 71.7338 34.0016 72.8666 34.483C73.4332 34.7238 73.9285 34.9431 74.3156 35.1274C74.7117 35.3161 74.9699 35.4569 75.0816 35.5407L75.4467 35.0538ZM63.3864 30.5274C62.3642 33.0796 61.5179 35.0495 60.7077 36.4089C59.8874 37.7852 59.1588 38.4398 58.4115 38.5354C57.6646 38.6309 56.751 38.1865 55.5079 36.9396C54.2791 35.707 52.7993 33.7634 50.9274 31.0403L50.4259 31.385C52.2994 34.1103 53.8057 36.0942 55.077 37.3693C56.334 38.6302 57.4343 39.2739 58.4887 39.139C59.5425 39.0043 60.4022 38.1101 61.2304 36.7205C62.0688 35.3139 62.9313 33.3006 63.9514 30.7537L63.3864 30.5274ZM50.9023 31.0085C50.7604 30.8516 50.6557 30.6647 50.5961 30.4617L50.0122 30.6332C50.0976 30.9241 50.2476 31.1919 50.451 31.4168L50.9023 31.0085ZM67.8816 24.9693C66.8072 22.376 65.5839 18.6381 64.4473 15.5023L63.8751 15.7097C65.0003 18.8139 66.2385 22.5933 67.3194 25.2022L67.8816 24.9693ZM62.7734 10.9326C62.0067 8.64055 60.8461 6.4998 59.3437 4.60663L58.867 4.98493C60.3254 6.82266 61.452 8.90072 62.1962 11.1257L62.7734 10.9326ZM59.3528 4.61877C56.7243 0.943598 52.5546 -0.142772 48.8134 1.35077C45.0787 2.84175 41.8284 6.87499 40.9156 13.3215L41.5182 13.4068C42.4082 7.1205 45.5542 3.30717 49.0391 1.91597C52.5175 0.527341 56.3906 1.52319 58.8578 4.9728L59.3528 4.61877ZM41.3582 13.0947C39.0551 11.887 36.516 13.091 35.0771 15.0615C33.6283 17.0455 33.1965 19.9253 35.1864 22.2121L35.6455 21.8126C33.8901 19.7953 34.2399 17.2399 35.5686 15.4204C36.907 13.5874 39.1411 12.6193 41.0756 13.6336L41.3582 13.0947ZM35.1858 22.2113C36.2276 23.4166 37.9829 23.8447 39.6568 23.7211C41.3318 23.5975 43.0249 22.9155 43.9723 21.7743L43.5041 21.3856C42.6952 22.3598 41.1818 22.9983 39.612 23.1142C38.0413 23.2301 36.5135 22.8167 35.6462 21.8133L35.1858 22.2113ZM43.5175 21.7894C44.5317 22.8577 45.6981 24.0422 46.1341 25.4573C46.3483 26.1522 46.3848 26.9027 46.1279 27.7263C45.8697 28.5543 45.3093 29.4742 44.3003 30.493L44.7327 30.9212C45.7893 29.8544 46.4139 28.8534 46.7089 27.9075C47.0052 26.9572 46.9631 26.0807 46.7157 25.278C46.2288 23.6979 44.9404 22.4043 43.9589 21.3704L43.5175 21.7894ZM44.3003 30.493C43.5252 31.2758 42.3838 31.7271 40.9359 31.958C39.4894 32.1886 37.7735 32.1936 35.8848 32.1143C32.1299 31.9566 27.6952 31.4623 23.5659 31.8301C19.4245 32.199 15.5124 33.4383 12.8055 36.8C10.1033 40.1559 8.65314 45.5644 9.28101 54.1526L9.88796 54.1082C9.26517 45.5896 10.7163 40.3649 13.2795 37.1817C15.8381 34.0042 19.5554 32.7983 23.6199 32.4363C27.6964 32.0732 32.0437 32.5621 35.8593 32.7223C37.7559 32.802 39.5223 32.7996 41.0318 32.5589C42.5399 32.3185 43.8281 31.8348 44.7327 30.9212L44.3003 30.493ZM56.7068 10.1918C56.8484 10.3353 57.0596 10.4403 57.2847 10.524C57.5177 10.6106 57.8019 10.687 58.1208 10.7564C58.7588 10.8954 59.5668 11.0129 60.4456 11.1237C62.2155 11.3468 64.2761 11.5438 65.9401 11.8337C66.7717 11.9785 67.4833 12.1434 67.997 12.3388C68.2542 12.4367 68.4469 12.5367 68.5772 12.6356C68.7089 12.7354 68.7506 12.8135 68.7612 12.8628C68.7701 12.9039 68.769 12.9788 68.6795 13.1072C68.587 13.24 68.4154 13.4053 68.1311 13.6015C67.5638 13.993 66.6172 14.4606 65.1823 15.0162L65.402 15.5838C66.8492 15.0234 67.8495 14.5352 68.4767 14.1024C68.7897 13.8864 69.0273 13.6725 69.1787 13.4553C69.3332 13.2338 69.4108 12.9881 69.3561 12.7344C69.3031 12.4888 69.1389 12.2978 68.945 12.1508C68.75 12.0028 68.4977 11.8782 68.2134 11.77C67.6439 11.5534 66.886 11.3807 66.0445 11.2341C64.3623 10.9411 62.2626 10.7393 60.5217 10.5199C59.6451 10.4094 58.86 10.2946 58.2503 10.1618C57.9452 10.0954 57.6919 10.0261 57.4966 9.95349C57.2934 9.87797 57.1854 9.8104 57.1399 9.76431L56.7068 10.1918ZM65.1831 15.0159C64.0625 15.4459 62.1341 15.5514 60.1574 15.3769C58.1844 15.2028 56.2421 14.757 55.0986 14.1407L54.8099 14.6764C56.0612 15.3508 58.1003 15.8063 60.1039 15.9831C62.1037 16.1596 64.1468 16.0654 65.4011 15.5841L65.1831 15.0159Z" fill="#21222F"/>
</svg>
