<svg width="468" height="468" viewBox="0 0 468 468" fill="none" xmlns="http://www.w3.org/2000/svg">
<path d="M100.365 354.943C88.3982 334.459 72.519 317.011 65.017 319.901C54.8637 323.814 68.6393 355.189 76.5391 368.892C89.8186 391.887 105.862 407.483 112.554 403.884C122.281 398.465 106.39 365.255 100.365 354.943Z" fill="#F6B642"/>
<path d="M182.644 306.683C169.454 283.865 153.455 268.447 146.859 272.285C140.22 276.115 145.567 297.685 158.713 320.5C171.859 343.315 187.902 358.692 194.496 354.898C201.137 351.068 195.79 329.498 182.644 306.683Z" fill="#F6B642"/>
<path d="M317.847 133.02C316.599 124.909 309.736 116.532 303.32 112.477C302.651 112.032 301.984 111.63 301.315 111.23C286.788 121.292 260.226 137.566 229.032 142.513C226.626 142.913 223.685 142.333 221.857 143.983C216.11 149.107 214.952 167.022 200.737 167.422C198.773 172.416 196.993 177.227 195.076 181.327C197.4 178.072 214.381 181.158 218.694 182.129C222.925 183.065 241.174 188.038 240.397 191.934C243.605 185.024 242.358 178.03 240.264 170.719C265.709 165.819 300.959 147.815 317.847 133.02Z" fill="#F6B642"/>
<path d="M194.541 354.898C190.486 357.262 182.911 352.36 174.623 343C174.768 346.229 175.684 349.378 177.295 352.182C182.911 362.698 182.645 388.634 188.883 386.814C190.622 386.278 192.671 377.454 194.499 367.34C195.445 362.454 196.695 357.632 198.243 352.9C197.468 353.296 195.318 354.381 194.541 354.898Z" fill="#015D61"/>
<path d="M220.478 131.417C221.296 133.796 222.501 136.024 224.044 138.011C227.963 137.433 232.32 136.244 233.132 134.447C233.274 134.144 233.394 133.831 233.49 133.511C232.465 136.764 226.538 134.58 220.478 131.417Z" fill="#015D61"/>
<path d="M225.735 107.486C217.847 99.1973 192.135 105.702 174.712 118.315C157.199 130.97 162.235 142.824 184.916 137.388C183.58 137.789 169.051 142.155 159.56 153.066C145.611 169.109 157.733 175.259 173.366 172.051C192.037 168.218 208.08 152.889 213.516 142.281C216.013 136.032 217.706 129.491 218.556 122.815C212.051 117.512 216.017 112.699 219.581 116.354C221.498 118.315 223.636 117.379 221.275 110.972C223.655 109.496 226.512 109.023 225.735 107.486Z" fill="#015D61"/>
<path d="M285.227 366.575C284.403 355.994 284.523 345.361 285.583 334.8C277.128 337.187 268.159 337.049 259.782 334.4C259.96 341.799 257.643 345.541 259.56 350.132C260.711 352.706 262.344 355.034 264.371 356.993C272.75 365.461 279.925 390.415 285.405 386.851C286.921 385.866 286.341 376.824 285.227 366.575Z" fill="#015D61"/>
<path d="M436.385 332.931C439.593 321.834 450.289 325.22 456.172 318.535C457.241 328.742 451.625 338.991 441.465 339.48L436.385 332.931Z" fill="#015D61"/>
<path d="M201.404 179.902C201.003 181.97 200.375 183.987 199.532 185.918C192.268 182.307 193.962 179.946 201.404 179.902Z" fill="#015D61"/>
<path d="M240.442 191.88C240.262 192.727 239.059 193.263 237.054 193.518C237.812 192.137 238.481 190.888 239.059 189.641C240.084 190.506 240.573 191.265 240.442 191.88Z" fill="#015D61"/>
<path d="M260.404 260.248L255.724 273.661C255.546 268.447 255.369 263.323 255.277 258.287L260.404 260.248Z" fill="#015D61"/>
<path d="M198.24 352.893C196.697 357.625 195.447 362.447 194.496 367.333C192.69 377.451 190.623 386.287 188.88 386.807C182.653 388.679 182.887 362.705 177.292 352.175C175.678 349.374 174.761 346.224 174.62 342.992" stroke="#015D61" stroke-width="1.5" stroke-linecap="round" stroke-linejoin="round"/>
<path d="M352.472 185.204C351.582 183.765 350.389 182.539 348.973 181.613C347.558 180.687 345.957 180.083 344.282 179.845C342.606 179.607 340.9 179.74 339.283 180.234C337.666 180.729 336.176 181.573 334.922 182.707C334.426 181.014 333.543 179.459 332.35 178.161C331.154 176.864 329.675 175.859 328.028 175.226C326.383 174.592 324.612 174.346 322.854 174.507C321.097 174.668 319.403 175.232 317.898 176.155C316.597 176.956 315.467 178.006 314.573 179.245C313.677 180.484 313.036 181.887 312.685 183.374C310.834 181.979 308.606 181.175 306.292 181.069C303.977 180.962 301.684 181.557 299.714 182.776C297.744 183.994 296.188 185.78 295.249 187.899C294.311 190.018 294.037 192.37 294.458 194.648C292.954 194.254 291.386 194.166 289.849 194.388C288.309 194.61 286.832 195.139 285.501 195.942C283.999 196.864 282.73 198.119 281.79 199.61C280.849 201.1 280.264 202.787 280.079 204.539C279.894 206.292 280.114 208.063 280.723 209.717C281.329 211.372 282.309 212.864 283.584 214.08C282.021 214.695 280.613 215.646 279.457 216.863C278.301 218.081 277.423 219.536 276.89 221.128C276.354 222.72 276.174 224.409 276.361 226.078C276.546 227.747 277.096 229.355 277.968 230.79C279.188 232.805 281.01 234.388 283.175 235.315C285.342 236.242 287.745 236.466 290.045 235.959L352.254 197.817C353.819 196.874 355.722 190.453 352.472 185.204Z" stroke="#015D61" stroke-width="1.5" stroke-linecap="round" stroke-linejoin="round"/>
<path d="M305.281 202.894C306.751 204.279 307.698 206.129 307.965 208.131C308.232 210.133 307.801 212.166 306.744 213.887C305.686 215.608 304.069 216.913 302.164 217.581C300.257 218.25 298.179 218.241 296.279 217.557" stroke="#015D61" stroke-width="1.5" stroke-linecap="round" stroke-linejoin="round"/>
<path d="M332.998 195.053C332.75 196.856 331.955 198.538 330.714 199.87C329.474 201.202 327.853 202.118 326.074 202.494C324.293 202.869 322.44 202.685 320.767 201.967C319.096 201.25 317.688 200.033 316.733 198.483C316.328 197.814 316.014 197.095 315.797 196.345" stroke="#015D61" stroke-width="1.5" stroke-linecap="round" stroke-linejoin="round"/>
<path d="M334.915 182.707C333.717 183.837 332.722 185.165 331.974 186.631" stroke="#015D61" stroke-width="1.5" stroke-linecap="round" stroke-linejoin="round"/>
<path d="M287.643 213.328C286.26 213.398 284.893 213.651 283.578 214.082" stroke="#015D61" stroke-width="1.5" stroke-linecap="round" stroke-linejoin="round"/>
<path d="M312.678 183.376C312.385 184.829 312.338 186.319 312.535 187.787" stroke="#015D61" stroke-width="1.5" stroke-linecap="round" stroke-linejoin="round"/>
<path d="M298.868 196.717C297.532 195.771 296.036 195.071 294.452 194.651" stroke="#015D61" stroke-width="1.5" stroke-linecap="round" stroke-linejoin="round"/>
<path d="M368.337 210.96C365.031 205.515 358.207 204.544 357.018 205.436L294.763 243.627C292.982 244.696 290.537 251.166 293.918 256.637C294.798 258.067 295.979 259.288 297.379 260.213C298.78 261.139 300.367 261.745 302.028 261.991C303.69 262.234 305.384 262.113 306.994 261.633C308.601 261.153 310.087 260.327 311.342 259.211C312.055 261.666 313.572 263.812 315.645 265.307C317.718 266.802 320.231 267.56 322.787 267.464C325.342 267.366 327.792 266.418 329.746 264.769C331.7 263.121 333.045 260.866 333.572 258.364C335.411 259.773 337.634 260.594 339.948 260.718C342.262 260.844 344.56 260.266 346.542 259.061C348.522 257.856 350.092 256.083 351.047 253.97C351.999 251.857 352.292 249.505 351.887 247.223C354.355 247.848 356.962 247.635 359.298 246.62C361.633 245.602 363.566 243.837 364.79 241.605C366.013 239.37 366.46 236.794 366.06 234.276C365.66 231.762 364.436 229.45 362.581 227.705C364.16 227.106 365.59 226.166 366.767 224.953C367.942 223.739 368.838 222.281 369.388 220.683C369.935 219.085 370.127 217.385 369.945 215.705C369.764 214.024 369.214 212.405 368.337 210.96Z" stroke="#015D61" stroke-width="1.5" stroke-linecap="round" stroke-linejoin="round"/>
<path d="M331.126 245.052C330.667 243.5 329.792 242.106 328.594 241.02C327.396 239.934 325.924 239.199 324.335 238.895C322.747 238.591 321.106 238.731 319.592 239.298C318.078 239.866 316.749 240.837 315.752 242.11C314.777 243.367 314.147 244.858 313.925 246.432" stroke="#015D61" stroke-width="1.5" stroke-linecap="round" stroke-linejoin="round"/>
<path d="M350.692 223.938C348.976 223.346 347.118 223.297 345.373 223.798C343.629 224.3 342.08 225.327 340.941 226.739C339.801 228.152 339.123 229.882 339.003 231.693C338.882 233.505 339.321 235.31 340.262 236.862C340.665 237.536 341.161 238.151 341.734 238.689" stroke="#015D61" stroke-width="1.5" stroke-linecap="round" stroke-linejoin="round"/>
<path d="M362.588 227.717C361.018 228.297 359.359 228.599 357.686 228.609" stroke="#015D61" stroke-width="1.5" stroke-linecap="round" stroke-linejoin="round"/>
<path d="M313.808 255.996C313.141 257.185 312.311 258.273 311.342 259.232" stroke="#015D61" stroke-width="1.5" stroke-linecap="round" stroke-linejoin="round"/>
<path d="M351.894 247.235C350.459 246.823 349.102 246.18 347.876 245.33" stroke="#015D61" stroke-width="1.5" stroke-linecap="round" stroke-linejoin="round"/>
<path d="M333.705 253.602C333.918 255.191 333.874 256.801 333.579 258.376" stroke="#015D61" stroke-width="1.5" stroke-linecap="round" stroke-linejoin="round"/>
<path d="M294.763 243.627L288.124 247.635" stroke="#015D61" stroke-width="1.5" stroke-linecap="round" stroke-linejoin="round"/>
<path d="M290.041 235.961L283.489 239.927" stroke="#015D61" stroke-width="1.5" stroke-linecap="round" stroke-linejoin="round"/>
<path d="M255.505 267.467L184.738 310.424" stroke="#015D61" stroke-width="1.5" stroke-linecap="round" stroke-linejoin="round"/>
<path d="M254.077 257.795L180.236 302.672" stroke="#015D61" stroke-width="1.5" stroke-linecap="round" stroke-linejoin="round"/>
<path d="M316.911 133.822C332.76 132.357 348.695 135.501 362.798 142.877C376.902 150.253 388.576 161.546 396.413 175.399C420.084 216.08 407.684 268.62 368.737 292.734C344.376 307.818 337.615 299.843 290.308 313.326" stroke="#015D61" stroke-width="1.5" stroke-linecap="round" stroke-linejoin="round"/>
<path d="M195.007 354.552C216.647 343.266 235.987 333.401 255.905 325.265" stroke="#015D61" stroke-width="1.5" stroke-linecap="round" stroke-linejoin="round"/>
<path d="M197.482 234.311C182.467 246.343 166.021 258.065 146.814 272.236" stroke="#015D61" stroke-width="1.5" stroke-linecap="round" stroke-linejoin="round"/>
<path d="M262.01 164.348C252.671 178.389 242.192 191.639 230.682 203.964" stroke="#015D61" stroke-width="1.5" stroke-linecap="round" stroke-linejoin="round"/>
<path d="M301.27 111.274C308.8 115.507 316.466 124.198 317.847 133.02C300.957 147.815 265.709 165.819 240.264 170.719C242.358 178.03 243.605 185.026 240.397 191.934C241.174 188.042 223.191 183.133 218.694 182.129C214.304 181.149 197.381 178.102 195.076 181.327C196.993 177.227 198.776 172.414 200.737 167.422C214.952 167.022 216.087 149.081 221.857 143.983C223.676 142.377 226.537 142.915 229.032 142.513C260.208 137.442 286.788 121.301 301.315 111.23L301.27 111.274Z" stroke="#015D61" stroke-width="1.5" stroke-linecap="round" stroke-linejoin="round"/>
<path d="M197.627 189.259C210.385 189.056 222.949 192.393 233.925 198.9" stroke="#015D61" stroke-width="1.5" stroke-linecap="round" stroke-linejoin="round"/>
<path d="M233.284 133.986C231.831 136.527 226.215 134.412 220.478 131.412C221.295 133.791 222.5 136.02 224.044 138.006" stroke="#015D61" stroke-width="1.5" stroke-linecap="round" stroke-linejoin="round"/>
<path d="M227.381 142.679C224.276 141.916 225.106 140.405 224.044 138.011C232.421 136.773 233.872 135.231 233.528 131.033C233.025 124.935 229.445 111.648 225.736 107.486" stroke="#015D61" stroke-width="1.5" stroke-linecap="round" stroke-linejoin="round"/>
<path d="M240.264 170.719C237.679 171.211 235.184 171.566 232.865 171.791" stroke="#015D61" stroke-width="1.5" stroke-linecap="round" stroke-linejoin="round"/>
<path d="M221.28 110.963C223.641 117.379 221.514 118.315 219.585 116.345C216.019 112.692 212.055 117.515 218.56 122.806C217.712 129.484 216.02 136.027 213.525 142.279C208.089 152.886 192.046 168.216 173.375 172.048C157.732 175.257 145.611 169.107 159.569 153.064C169.06 142.146 183.589 137.779 184.925 137.386C162.244 142.822 157.213 130.974 174.721 118.313C192.149 105.707 217.856 99.1949 225.744 107.483C226.498 109.009 223.57 109.547 221.28 110.963Z" stroke="#015D61" stroke-width="1.5" stroke-linecap="round" stroke-linejoin="round"/>
<path d="M200.737 167.422C203.091 161.054 206.124 154.959 209.784 149.241C211.231 147.076 212.469 144.779 213.481 142.38" stroke="#015D61" stroke-width="1.5" stroke-linecap="round" stroke-linejoin="round"/>
<path d="M230.75 203.894C233.84 199.343 236.623 194.592 239.083 189.671" stroke="#015D61" stroke-width="1.5" stroke-linecap="round" stroke-linejoin="round"/>
<path d="M327.562 109.091C334.29 107.486 339.829 110.518 339.37 113.102C339.267 113.619 339.054 114.109 338.748 114.539C338.439 114.969 338.046 115.329 337.589 115.596" stroke="#015D61" stroke-width="1.5" stroke-linecap="round" stroke-linejoin="round"/>
<path d="M326.938 104.991C334.023 103.297 341.064 106.863 338.034 110.607" stroke="#015D61" stroke-width="1.5" stroke-linecap="round" stroke-linejoin="round"/>
<path d="M317.089 129.811C321.282 125.025 326.662 121.429 332.687 119.384" stroke="#015D61" stroke-width="1.5" stroke-linecap="round" stroke-linejoin="round"/>
<path d="M327.294 113.902C333.846 112.566 338.161 115.149 337.901 117.69C337.58 120.81 331.349 125.534 326.091 122.504" stroke="#015D61" stroke-width="1.5" stroke-linecap="round" stroke-linejoin="round"/>
<path d="M321.769 102.628C321.858 102.539 324.577 98.7527 323.374 97.5476C322.349 96.5227 307.553 108.688 303.409 112.566" stroke="#015D61" stroke-width="1.5" stroke-linecap="round" stroke-linejoin="round"/>
<path d="M330.28 104.544C342.045 98.8861 345.204 92.0603 342.981 93.3122C335.564 97.0258 327.945 100.328 320.164 103.206C314.141 105.497 308.483 108.65 303.365 112.566" stroke="#015D61" stroke-width="1.5" stroke-linecap="round" stroke-linejoin="round"/>
<path d="M285.584 334.8C284.533 345.361 284.414 355.994 285.228 366.575C286.363 376.822 286.92 385.868 285.406 386.851C279.921 390.41 272.735 365.478 264.371 356.993C262.34 355.037 260.707 352.708 259.56 350.132C257.639 345.534 259.968 341.785 259.78 334.363" stroke="#015D61" stroke-width="1.5" stroke-linecap="round" stroke-linejoin="round"/>
<path d="M182.644 306.683C195.807 329.488 201.142 351.075 194.496 354.887C187.907 358.682 171.859 343.301 158.713 320.489C145.567 297.676 140.225 276.12 146.859 272.28C153.493 268.44 169.47 283.856 182.644 306.683Z" stroke="#015D61" stroke-width="1.5" stroke-linecap="round" stroke-linejoin="round"/>
<path d="M115.007 391.323C111.674 370.583 91.644 336.078 75.381 323.617C66.9804 317.11 60.9642 318.261 61.6522 329.175C62.9579 349.884 86.0186 389.837 103.232 401.56C112.788 408.066 116.897 403.095 115.007 391.323Z" stroke="#015D61" stroke-width="1.5" stroke-linecap="round" stroke-linejoin="round"/>
<path d="M112.996 403.65L126.227 395.996C127.501 394.997 128.368 393.567 128.663 391.976C128.959 390.385 128.663 388.74 127.832 387.35C133.097 395.28 143.428 387.092 139.284 380.22C143.129 386.772 155.217 382.541 150.247 372.601C151.373 374.061 152.979 375.074 154.78 375.465C156.581 375.858 158.463 375.6 160.094 374.739C165.476 371.304 163.48 364.623 160.14 353.75C153.894 335.074 143.986 317.831 130.996 303.03C127.874 299.312 124.299 295.996 120.356 293.165C114.12 289.297 107.104 292.196 109.517 302.719C107.532 299.412 105.204 297.25 101.271 298.306C100.278 298.582 99.3619 299.085 98.5955 299.773C97.829 300.463 97.2325 301.319 96.8529 302.279C96.4732 303.236 96.3206 304.27 96.4072 305.297C96.4935 306.325 96.8167 307.317 97.3511 308.199C97.3511 308.199 92.7343 302.363 87.5021 306.507C86.2027 307.52 85.3273 308.981 85.0469 310.602C84.7666 312.226 85.1012 313.895 85.9858 315.285C85.5646 314.54 85.0001 313.89 84.3253 313.366C83.6504 312.842 82.8787 312.458 82.0541 312.233C81.2297 312.009 80.3693 311.952 79.5222 312.062C78.6751 312.172 77.8587 312.451 77.1195 312.879L64.666 320.044" stroke="#015D61" stroke-width="1.5" stroke-linecap="round" stroke-linejoin="round"/>
<path d="M436.385 332.93C430.888 335.965 425.619 339.391 420.611 343.18C405.902 354.54 391.555 368.803 393.467 371.299C395.379 373.796 412.767 363.552 427.512 352.182C432.454 348.297 437.101 344.052 441.416 339.48" stroke="#015D61" stroke-width="1.5" stroke-linecap="round" stroke-linejoin="round"/>
<path d="M436.385 332.931C439.593 321.834 450.289 325.22 456.172 318.535C457.241 328.742 451.625 338.991 441.465 339.48L436.385 332.931Z" stroke="#015D61" stroke-width="1.5" stroke-linecap="round" stroke-linejoin="round"/>
<path d="M422.459 341.783L429.343 350.71" stroke="#015D61" stroke-width="1.5" stroke-linecap="round" stroke-linejoin="round"/>
<path d="M446.858 119.473L441.02 132.552H451.713L445.831 145.632" stroke="#015D61" stroke-width="1.5" stroke-linecap="round" stroke-linejoin="round"/>
<path d="M239.059 442.51L215.353 443.222" stroke="#015D61" stroke-width="1.5" stroke-linecap="round" stroke-linejoin="round"/>
<path d="M227.563 454.72L226.85 431.012" stroke="#015D61" stroke-width="1.5" stroke-linecap="round" stroke-linejoin="round"/>
<path d="M201.404 179.902C201.003 181.97 200.375 183.987 199.532 185.918C192.268 182.307 193.962 179.946 201.404 179.902Z" stroke="#015D61" stroke-width="1.5" stroke-linecap="round" stroke-linejoin="round"/>
<path d="M240.398 191.934C240.183 192.741 239.039 193.268 237.104 193.53" stroke="#015D61" stroke-width="1.5" stroke-linecap="round" stroke-linejoin="round"/>
<path d="M201.404 179.902C200.674 184.964 198.104 189.58 194.185 192.867C176.673 206.772 176.401 226.245 189.194 240.819" stroke="#015D61" stroke-width="1.5" stroke-linecap="round" stroke-linejoin="round"/>
<path d="M63.8865 320.531L44.1416 331.725" stroke="#015D61" stroke-width="1.5" stroke-linecap="round" stroke-linejoin="round"/>
<path d="M112.091 404.139L94.3652 414.48" stroke="#015D61" stroke-width="1.5" stroke-linecap="round" stroke-linejoin="round"/>
<path d="M85.8082 419.871L72.6621 427.537" stroke="#015D61" stroke-width="1.5" stroke-linecap="round" stroke-linejoin="round"/>
<path d="M34.9618 337.475L21.5488 345.096" stroke="#015D61" stroke-width="1.5" stroke-linecap="round" stroke-linejoin="round"/>
<path d="M76.5837 368.892L33.4014 394.426" stroke="#015D61" stroke-width="1.5" stroke-linecap="round" stroke-linejoin="round"/>
<path d="M24.8019 399.819L11.7002 407.438" stroke="#015D61" stroke-width="1.5" stroke-linecap="round" stroke-linejoin="round"/>
<path d="M95.3014 208.199C90.7756 212.549 85.0613 215.46 78.8811 216.563C72.7012 217.665 66.3329 216.911 60.5819 214.394C54.8308 211.877 49.9552 207.712 46.5716 202.424C43.1879 197.136 41.4484 190.964 41.5726 184.688C41.6971 178.411 43.6798 172.312 47.2703 167.163C50.8606 162.014 55.8974 158.044 61.7437 155.757C67.5899 153.471 73.983 152.969 80.1145 154.315C86.246 155.662 91.8405 158.796 96.1906 163.323C99.0814 166.326 101.352 169.87 102.872 173.752C104.392 177.634 105.132 181.777 105.05 185.945C104.967 190.113 104.063 194.224 102.391 198.043C100.718 201.861 98.309 205.313 95.3014 208.199Z" stroke="#015D61" stroke-width="1.5" stroke-linecap="round" stroke-linejoin="round"/>
<path d="M105.014 187.2C114.863 191.88 120.692 196.326 119.855 199.134C118.355 204.205 96.1902 202.253 70.3004 194.765C44.4107 187.277 24.6166 177.091 26.0931 172.013C26.9355 169.114 34.4259 168.492 45.5151 169.875" stroke="#015D61" stroke-width="1.5" stroke-linecap="round" stroke-linejoin="round"/>
<path d="M190.944 220.318C192.236 228.428 196.794 235.865 202.932 237.788C222.099 243.784 255.292 258.331 255.292 258.331C255.706 281.282 257.784 306.535 255.561 332.93C266.189 337.405 278.119 337.674 288.939 333.686C290.811 308.777 292.011 284.89 291.567 262.831C291.466 257.341 290.195 251.938 287.837 246.98C285.476 242.024 282.085 237.627 277.887 234.089C260.569 219.772 241.259 208.048 220.566 199.286" stroke="#015D61" stroke-width="1.5" stroke-linecap="round" stroke-linejoin="round"/>
<path d="M255.28 258.331L260.405 260.248L255.727 273.661" stroke="#015D61" stroke-width="1.5" stroke-linecap="round" stroke-linejoin="round"/>
<path d="M256.485 315.327C267.32 319.045 278.984 319.616 290.13 316.976" stroke="#015D61" stroke-width="1.5" stroke-linecap="round" stroke-linejoin="round"/>
<path d="M246.681 13.2795V20.723" stroke="#015D61" stroke-width="1.5" stroke-linecap="round" stroke-linejoin="round"/>
<path d="M261.163 27.7618H253.72" stroke="#015D61" stroke-width="1.5" stroke-linecap="round" stroke-linejoin="round"/>
<path d="M246.681 42.2464V34.8028" stroke="#015D61" stroke-width="1.5" stroke-linecap="round" stroke-linejoin="round"/>
<path d="M232.198 27.7618H239.644" stroke="#015D61" stroke-width="1.5" stroke-linecap="round" stroke-linejoin="round"/>
<path d="M253.72 27.7618C252.795 27.7643 251.878 27.5839 251.024 27.231C250.168 26.8782 249.391 26.3599 248.738 25.7056C248.083 25.0516 247.565 24.2747 247.212 23.4197C246.859 22.5645 246.679 21.6481 246.681 20.723C246.683 21.6479 246.503 22.5641 246.15 23.419C245.799 24.274 245.279 25.0509 244.626 25.7049C243.971 26.3589 243.194 26.8772 242.34 27.2303C241.486 27.5832 240.569 27.7639 239.645 27.7618C240.569 27.7597 241.486 27.9403 242.34 28.2934C243.197 28.6465 243.974 29.1653 244.626 29.8196C245.279 30.4738 245.799 31.2509 246.152 32.1062C246.503 32.9612 246.683 33.8778 246.681 34.8028C246.679 33.8776 246.859 32.961 247.212 32.1055C247.563 31.2502 248.083 30.4731 248.735 29.8186C249.391 29.1644 250.168 28.6458 251.022 28.2927C251.878 27.9398 252.795 27.7592 253.72 27.7618Z" stroke="#015D61" stroke-width="1.5" stroke-linecap="round" stroke-linejoin="round"/>
</svg>
