<svg width="471" height="374" viewBox="0 0 471 374" fill="none" xmlns="http://www.w3.org/2000/svg">
<path d="M91.9707 92.8897C93.6274 92.8905 95.2678 93.2175 96.7982 93.8521C103.109 79.259 121.835 65.9438 136.633 84.6703C132.784 87.7309 122.025 86.8474 115.146 80.1109C119.879 93.2683 106.296 106.505 107.605 110.086C121.11 130.769 113.537 136.653 122.593 149.29C68.1011 168.222 59.2349 186.932 33.1566 206.7C34.1663 196.035 26.5779 165.871 49.706 153.739C63.1474 146.687 84.6189 155.932 101.642 141.276C113.143 131.368 104.797 125.026 99.0069 116.034C94.5107 119.04 88.5984 118.848 84.3073 115.555C80.0163 112.262 78.3005 106.601 80.0416 101.48C81.7826 96.3587 86.5933 92.9164 92.0022 92.9213L91.9707 92.8897Z" fill="#21222F" stroke="#21222F" stroke-width="0.5"/>
<path fill-rule="evenodd" clip-rule="evenodd" d="M127.641 154.323C116.487 144.857 117.592 138.546 116.44 127.582C115.762 121.114 106.39 110.812 107.384 108.65C109.64 103.917 118.98 94.8144 115.273 79.8269C127.578 91.4225 139.316 83.4397 137.359 84.3074C140.057 86.9578 144.774 98.8058 145.437 98.8531C163.043 100.068 167.35 101.409 149.334 109.991C152.031 117.517 160.551 139.966 163.453 146.371C161.923 153.928 147.267 159.655 127.641 154.323Z" fill="white"/>
<path d="M144.332 156.721C132.579 158.866 126.805 154.307 125.637 152.966C111.265 136.385 123.224 134.034 108.283 111.332C104.103 105.022 120.573 97.938 114.957 80.5052C113.947 77.3499 125.795 91.3277 136.87 84.6544" stroke="#21222F" stroke-width="0.923" stroke-linecap="round" stroke-linejoin="round"/>
<path fill-rule="evenodd" clip-rule="evenodd" d="M159.052 142.033C26.5306 138.878 -65.7134 331.144 58.7932 371.468C162.412 380.366 237.507 354.335 286.288 346.462C296.731 280.139 295.722 145.346 159.052 142.033Z" fill="#B7E4DB"/>
<ellipse cx="173.492" cy="194.68" rx="1.60918" ry="1.92471" transform="rotate(-28.3 173.492 194.68)" fill="#21222F"/>
<ellipse cx="165.331" cy="168.406" rx="1.60918" ry="1.92471" transform="rotate(-44.82 165.331 168.406)" fill="#21222F"/>
<path fill-rule="evenodd" clip-rule="evenodd" d="M183.568 102.971C191.567 97.5121 200.149 93.3314 210.388 92.6846C263.982 64.6259 316.019 33.6908 366.274 0.0145312C404.957 -1.5631 436.999 125.799 400.145 148.438C358.835 140.406 317.035 135.135 275.023 132.662C271.616 132.457 291.73 205.485 291.478 229.37C291.478 233.188 278.273 234.103 276.364 233.993C271.821 233.788 249.986 131.447 245.459 131.289C237.413 131.026 229.377 130.847 221.352 130.753C214.363 134.539 206.049 136.622 197.152 137.978C187.496 131.131 184.246 118.258 183.568 102.971Z" fill="#F6B642"/>
<path fill-rule="evenodd" clip-rule="evenodd" d="M299.177 165.05C304.257 165.145 320.664 177.261 307.554 191.949C346.758 231.137 258.269 240.004 255.839 245.005C247.715 240.004 241.372 217.349 231.007 187.674C231.007 183.998 230.345 139.366 253.662 152.24C264.39 155.301 273.872 148.911 275.481 142.001C291.415 135.754 307.601 144.383 299.177 165.05Z" fill="white"/>
<path d="M273.28 130.464C273.277 130.294 273.137 130.158 272.967 130.161C272.797 130.164 272.662 130.304 272.665 130.474L273.28 130.464ZM274.442 143.42C274.485 143.585 274.653 143.683 274.817 143.64C274.982 143.597 275.08 143.429 275.037 143.265L274.442 143.42ZM393.355 66.1304C393.406 65.9683 393.316 65.7957 393.153 65.745C392.991 65.6943 392.819 65.7846 392.768 65.9468L393.355 66.1304ZM396.94 83.0762C397.036 83.2168 397.227 83.2535 397.368 83.1581C397.508 83.0627 397.545 82.8713 397.45 82.7307L396.94 83.0762ZM369.334 63.3012C369.164 63.3012 369.026 63.439 369.026 63.6089C369.026 63.7788 369.164 63.9166 369.334 63.9166V63.3012ZM396.737 63.9086L396.46 64.0407L396.461 64.0438L396.737 63.9086ZM400.981 86.0901L400.847 85.8132L400.845 85.8145L400.981 86.0901ZM377.708 98.2816C377.576 98.3878 377.554 98.5814 377.66 98.7141C377.766 98.8467 377.96 98.8683 378.093 98.7621L377.708 98.2816ZM368.895 11.8094C369.04 11.7205 369.086 11.5311 368.997 11.3862C368.908 11.2414 368.718 11.196 368.574 11.2849L368.895 11.8094ZM397.238 136.908C397.369 137.015 397.563 136.995 397.67 136.863C397.778 136.731 397.757 136.537 397.626 136.43L397.238 136.908ZM417.554 102.655C417.554 102.485 417.417 102.348 417.247 102.348C417.077 102.348 416.939 102.485 416.939 102.655H417.554ZM393.582 147.917L393.533 148.221L393.533 148.221L393.582 147.917ZM219.065 132.141L219.189 132.423L219.19 132.422L219.065 132.141ZM191.046 132.772L190.775 132.917V132.917L191.046 132.772ZM184.531 104.839C184.639 104.708 184.621 104.514 184.49 104.406C184.359 104.298 184.165 104.316 184.057 104.447L184.531 104.839ZM209.843 96.203C209.843 96.0331 209.706 95.8954 209.536 95.8954C209.366 95.8954 209.228 96.0331 209.228 96.203H209.843ZM219.684 127.641C219.813 127.752 220.007 127.738 220.118 127.61C220.229 127.481 220.215 127.287 220.086 127.176L219.684 127.641ZM231.646 178.921C231.64 179.091 231.772 179.234 231.942 179.241C232.111 179.248 232.255 179.116 232.261 178.946L231.646 178.921ZM275.891 141.213L275.816 140.914C275.736 140.934 275.668 140.985 275.626 141.056L275.891 141.213ZM299.555 164.767L299.28 164.63C299.211 164.768 299.256 164.936 299.384 165.022L299.555 164.767ZM308.516 191.823L308.261 191.652C308.185 191.765 308.192 191.914 308.279 192.019L308.516 191.823ZM253.853 244.051C253.718 244.155 253.693 244.349 253.797 244.483C253.901 244.617 254.094 244.642 254.229 244.538L253.853 244.051ZM229.4 171.114C229.533 171.008 229.556 170.815 229.45 170.682C229.345 170.548 229.152 170.525 229.018 170.631L229.4 171.114ZM129.606 238.904C129.443 238.951 129.349 239.122 129.396 239.285C129.444 239.448 129.614 239.542 129.777 239.495L129.606 238.904ZM150.06 148.069C149.996 147.912 149.816 147.837 149.659 147.901C149.501 147.965 149.426 148.145 149.49 148.302L150.06 148.069ZM163.257 209.472C163.272 209.641 163.421 209.767 163.591 209.752C163.76 209.737 163.885 209.587 163.87 209.418L163.257 209.472ZM171.151 141.833C171.084 141.677 170.903 141.605 170.747 141.671C170.591 141.738 170.518 141.919 170.585 142.075L171.151 141.833ZM175.727 156.721L175.542 156.967C175.646 157.045 175.787 157.049 175.896 156.978C176.004 156.907 176.056 156.776 176.026 156.65L175.727 156.721ZM148.229 145.678L148.515 145.792L148.519 145.781L148.229 145.678ZM117.418 147.034L117.671 146.86C117.664 146.849 117.655 146.838 117.646 146.828L117.418 147.034ZM116.83 145.37C116.782 145.207 116.611 145.114 116.448 145.161C116.285 145.209 116.191 145.38 116.239 145.543L116.83 145.37ZM70.7156 178.132C70.5949 178.012 70.4001 178.013 70.2805 178.134C70.1609 178.254 70.1618 178.449 70.2825 178.569L70.7156 178.132ZM98.9374 235.35C98.9202 235.52 99.0434 235.67 99.2124 235.688C99.3815 235.705 99.5324 235.582 99.5496 235.413L98.9374 235.35ZM157.194 131.779C157.264 131.934 157.446 132.002 157.601 131.932C157.756 131.862 157.824 131.68 157.754 131.525L157.194 131.779ZM149.48 109.459C149.421 109.3 149.245 109.218 149.085 109.277C148.926 109.335 148.844 109.512 148.903 109.672L149.48 109.459ZM144.892 98.7275C144.944 98.8891 145.118 98.9775 145.279 98.925C145.441 98.8725 145.529 98.6989 145.477 98.5373L144.892 98.7275ZM136.98 83.9289L136.737 84.1179L136.746 84.1279L136.98 83.9289ZM96.8929 93.8364L96.7743 94.1203C96.8535 94.1534 96.9429 94.1519 97.0209 94.1161C97.099 94.0804 97.1585 94.0138 97.1852 93.9322L96.8929 93.8364ZM100.048 115.229L100.303 115.057C100.255 114.985 100.178 114.937 100.092 114.925C100.007 114.912 99.9196 114.936 99.8527 114.991L100.048 115.229ZM103.046 140.377L103.261 140.596C103.266 140.592 103.271 140.587 103.275 140.581L103.046 140.377ZM18.9345 202.122C18.9414 202.291 19.0846 202.424 19.2544 202.417C19.4241 202.41 19.5562 202.266 19.5493 202.097L18.9345 202.122ZM132.15 96.0803C132.03 95.9599 131.835 95.9595 131.715 96.0794C131.595 96.1993 131.594 96.3941 131.714 96.5145L132.15 96.0803ZM151.826 108.761L151.714 108.474L151.714 108.474L151.826 108.761ZM127.439 106.47C127.289 106.39 127.103 106.446 127.023 106.596C126.942 106.746 126.999 106.933 127.149 107.013L127.439 106.47ZM256.788 251.843C256.913 251.729 256.923 251.534 256.808 251.408C256.694 251.282 256.5 251.273 256.374 251.387L256.788 251.843ZM232.664 269.647L232.417 269.464L232.417 269.464L232.664 269.647ZM4.47872 318.697C4.41813 318.538 4.24031 318.458 4.08157 318.519C3.92282 318.58 3.84325 318.757 3.90385 318.916L4.47872 318.697ZM190.067 317.344C190.026 317.179 189.859 317.079 189.694 317.12C189.529 317.161 189.429 317.327 189.47 317.492L190.067 317.344ZM195.03 355.707C195.021 355.877 195.151 356.021 195.321 356.03C195.491 356.039 195.636 355.909 195.644 355.739L195.03 355.707ZM249.811 258.767C249.77 258.602 249.604 258.501 249.439 258.542C249.274 258.583 249.173 258.75 249.214 258.915L249.811 258.767ZM254.775 297.13C254.766 297.299 254.896 297.444 255.066 297.453C255.235 297.462 255.38 297.331 255.389 297.162L254.775 297.13ZM206.751 188.4C206.76 188.23 206.63 188.086 206.46 188.077C206.29 188.068 206.145 188.198 206.136 188.368L206.751 188.4ZM232.221 269.317C232.318 269.457 232.509 269.492 232.649 269.396C232.789 269.3 232.824 269.108 232.728 268.968L232.221 269.317ZM230.682 171.518C230.664 171.349 230.513 171.227 230.344 171.245C230.175 171.262 230.052 171.414 230.07 171.583L230.682 171.518ZM255.514 251.209C255.604 251.354 255.793 251.398 255.938 251.309C256.082 251.22 256.127 251.03 256.038 250.886L255.514 251.209ZM140.877 116.949L140.631 116.764C140.561 116.857 140.55 116.982 140.602 117.086C140.654 117.191 140.761 117.256 140.877 117.256V116.949ZM140.925 116.886L141.171 117.07C141.241 116.977 141.252 116.852 141.2 116.748C141.148 116.644 141.041 116.578 140.925 116.578V116.886ZM272.665 130.474C272.74 134.845 273.336 139.191 274.442 143.42L275.037 143.265C273.944 139.083 273.354 134.785 273.28 130.464L272.665 130.474ZM392.768 65.9468C392.411 67.0893 392.372 68.5405 392.534 70.1009C392.696 71.6666 393.063 73.3676 393.537 75.0231C394.482 78.3267 395.866 81.4927 396.94 83.0762L397.45 82.7307C396.426 81.2221 395.065 78.1249 394.129 74.8538C393.662 73.2219 393.304 71.5575 393.146 70.0375C392.988 68.5122 393.034 67.1572 393.355 66.1304L392.768 65.9468ZM369.334 63.9166C370.733 63.9166 377.493 63.7508 383.919 63.7055C387.14 63.6829 390.283 63.6903 392.648 63.7633C393.832 63.7999 394.814 63.8527 395.512 63.9255C395.862 63.962 396.131 64.0026 396.314 64.0461C396.407 64.068 396.466 64.088 396.499 64.1031C396.549 64.1257 396.495 64.1161 396.46 64.0407L397.015 63.7765C396.951 63.6411 396.823 63.5745 396.754 63.5432C396.669 63.5043 396.566 63.4734 396.456 63.4473C396.234 63.3947 395.935 63.3509 395.576 63.3135C394.855 63.2383 393.855 63.185 392.667 63.1483C390.29 63.0749 387.137 63.0675 383.915 63.0902C377.456 63.1357 370.743 63.3012 369.334 63.3012V63.9166ZM396.461 64.0438C397.159 65.4711 399.078 70.5776 400.39 75.5395C401.046 78.0201 401.545 80.4456 401.668 82.3469C401.73 83.2991 401.696 84.1001 401.55 84.7038C401.403 85.3121 401.159 85.6625 400.847 85.8132L401.115 86.3671C401.668 86.0997 401.983 85.5341 402.148 84.8481C402.315 84.1576 402.346 83.286 402.282 82.3071C402.155 80.3461 401.644 77.8751 400.985 75.3822C399.666 70.3971 397.736 65.2491 397.014 63.7735L396.461 64.0438ZM400.845 85.8145C399.915 86.2751 394.177 89.3555 388.662 92.331C385.902 93.82 383.194 95.2844 381.167 96.3844C380.154 96.9344 379.31 97.3935 378.714 97.719C378.417 97.8818 378.181 98.0114 378.016 98.1024C377.934 98.1478 377.869 98.184 377.824 98.2101C377.801 98.223 377.781 98.2341 377.767 98.2428C377.763 98.2449 377.732 98.2626 377.708 98.2816L378.093 98.7621C378.074 98.7772 378.058 98.7855 378.079 98.7728C378.09 98.7667 378.105 98.7576 378.127 98.7453C378.17 98.7208 378.233 98.6858 378.315 98.6406C378.477 98.5505 378.712 98.4215 379.009 98.2589C379.604 97.9338 380.447 97.4752 381.461 96.9253C383.487 95.8255 386.194 94.3614 388.954 92.8726C394.478 89.8926 400.201 86.8202 401.118 86.3658L400.845 85.8145ZM368.574 11.2849C367.803 11.7576 367.164 12.5948 366.636 13.7082C366.106 14.8251 365.676 16.2467 365.337 17.9251C364.66 21.2823 364.342 25.7098 364.36 30.8811C364.398 41.2267 365.783 54.5965 368.369 68.4378C370.955 82.2794 374.744 96.6046 379.594 108.859C384.441 121.103 390.363 131.323 397.238 136.908L397.626 136.43C390.878 130.948 385.003 120.852 380.167 108.633C375.334 96.4242 371.555 82.139 368.974 68.3248C366.393 54.5102 365.013 41.1786 364.976 30.8789C364.957 25.7276 365.274 21.3465 365.94 18.0468C366.273 16.3968 366.691 15.0278 367.192 13.9719C367.695 12.9125 368.268 12.1945 368.895 11.8094L368.574 11.2849ZM416.939 102.655C416.939 110.597 416.205 122.712 412.897 132.411C411.243 137.26 408.955 141.476 405.821 144.27C402.699 147.052 398.722 148.439 393.632 147.614L393.533 148.221C398.807 149.076 402.971 147.634 406.23 144.729C409.476 141.836 411.809 137.507 413.479 132.609C416.821 122.813 417.554 110.616 417.554 102.655H416.939ZM393.632 147.614C375.343 144.641 337.499 138.12 301.333 133.63C283.25 131.386 265.579 129.648 250.977 129.116C243.676 128.85 237.136 128.885 231.693 129.311C226.257 129.735 221.886 130.55 218.94 131.86L219.19 132.422C222.037 131.157 226.322 130.347 231.741 129.924C237.152 129.501 243.666 129.466 250.954 129.731C265.53 130.262 283.181 131.997 301.257 134.241C337.409 138.729 375.236 145.247 393.533 148.221L393.632 147.614ZM218.941 131.86C214.19 133.95 208.573 136.607 203.47 137.496C200.924 137.94 198.535 137.937 196.463 137.221C194.401 136.509 192.628 135.083 191.317 132.627L190.775 132.917C192.154 135.502 194.045 137.038 196.262 137.803C198.469 138.565 200.973 138.556 203.576 138.102C208.771 137.197 214.474 134.497 219.189 132.423L218.941 131.86ZM191.317 132.627C190.014 130.185 187.612 124.047 185.895 118.078C185.037 115.096 184.355 112.169 184.066 109.778C183.921 108.582 183.876 107.53 183.953 106.678C184.031 105.817 184.229 105.203 184.531 104.839L184.057 104.447C183.636 104.955 183.422 105.72 183.341 106.623C183.258 107.535 183.308 108.633 183.455 109.852C183.75 112.29 184.442 115.252 185.304 118.248C187.026 124.238 189.443 130.421 190.775 132.917L191.317 132.627ZM209.228 96.203C209.228 99.7599 210.556 106.5 212.511 112.884C213.49 116.081 214.63 119.2 215.846 121.8C217.057 124.389 218.362 126.5 219.684 127.641L220.086 127.176C218.868 126.124 217.609 124.116 216.404 121.539C215.203 118.974 214.073 115.883 213.1 112.704C211.15 106.336 209.843 99.6666 209.843 96.203H209.228ZM232.261 178.946C232.559 171.447 233.169 165.751 234.043 161.458C234.918 157.162 236.053 154.294 237.385 152.433C238.709 150.585 240.229 149.726 241.912 149.444C243.613 149.159 245.504 149.46 247.569 149.988C248.599 150.252 249.663 150.57 250.762 150.895C251.858 151.219 252.988 151.55 254.14 151.836C256.444 152.409 258.856 152.809 261.317 152.625C266.271 152.254 271.338 149.525 276.156 141.369L275.626 141.056C270.883 149.086 265.975 151.659 261.271 152.011C258.903 152.188 256.564 151.805 254.289 151.239C253.151 150.956 252.033 150.629 250.936 150.305C249.841 149.981 248.765 149.659 247.722 149.392C245.639 148.859 243.643 148.53 241.81 148.837C239.959 149.147 238.298 150.101 236.885 152.075C235.48 154.037 234.323 157.001 233.44 161.335C232.557 165.673 231.945 171.405 231.646 178.921L232.261 178.946ZM275.966 141.511C288.09 138.466 295.426 141.181 298.981 146.1C302.552 151.042 302.402 158.331 299.28 164.63L299.831 164.903C303.02 158.47 303.225 150.922 299.479 145.74C295.717 140.534 288.066 137.838 275.816 140.914L275.966 141.511ZM299.384 165.022C301.161 166.217 303.25 167.477 305.255 168.972C307.254 170.463 309.132 172.161 310.457 174.197C311.779 176.227 312.554 178.596 312.345 181.443C312.135 184.296 310.935 187.654 308.261 191.652L308.772 191.994C311.485 187.938 312.738 184.479 312.958 181.488C313.178 178.491 312.359 175.99 310.973 173.861C309.591 171.738 307.648 169.989 305.623 168.479C303.604 166.974 301.468 165.682 299.727 164.511L299.384 165.022ZM308.279 192.019C312.43 197.041 314.683 201.596 315.472 205.72C316.26 209.838 315.591 213.543 313.863 216.881C310.398 223.576 302.661 228.811 293.8 232.823C284.953 236.829 275.047 239.588 267.324 241.363C263.465 242.25 260.153 242.89 257.795 243.317C256.617 243.531 255.676 243.691 255.025 243.802C254.699 243.857 254.444 243.901 254.268 243.933C254.18 243.948 254.109 243.962 254.057 243.973C254.031 243.978 254.007 243.984 253.986 243.989C253.976 243.992 253.962 243.996 253.947 244.001C253.945 244.002 253.898 244.016 253.853 244.051L254.229 244.538C254.211 244.551 254.182 244.568 254.171 244.573C254.165 244.576 254.154 244.58 254.15 244.582C254.144 244.584 254.14 244.585 254.143 244.584C254.149 244.582 254.161 244.58 254.183 244.575C254.226 244.566 254.29 244.554 254.377 244.538C254.55 244.507 254.802 244.464 255.128 244.408C255.78 244.297 256.723 244.137 257.905 243.923C260.269 243.494 263.591 242.852 267.462 241.962C275.203 240.184 285.153 237.414 294.054 233.384C302.942 229.36 310.845 224.052 314.41 217.164C316.198 213.71 316.891 209.864 316.076 205.604C315.263 201.35 312.948 196.702 308.753 191.627L308.279 192.019ZM229.018 170.631C217.978 179.345 197.275 195.217 177.248 209.512C167.235 216.66 157.393 223.412 149.013 228.678C140.622 233.951 133.731 237.711 129.606 238.904L129.777 239.495C133.998 238.274 140.959 234.465 149.341 229.199C157.735 223.924 167.588 217.164 177.606 210.013C197.643 195.71 218.353 179.832 229.4 171.114L229.018 170.631ZM149.49 148.302C156.181 164.673 161.603 190.688 163.257 209.472L163.87 209.418C162.212 190.592 156.78 164.513 150.06 148.069L149.49 148.302ZM170.585 142.075C172.618 146.833 174.238 151.757 175.428 156.792L176.026 156.65C174.829 151.581 173.197 146.624 171.151 141.833L170.585 142.075ZM175.912 156.475C175.552 156.205 174.848 155.831 173.92 155.389C172.983 154.943 171.794 154.416 170.444 153.843C167.744 152.695 164.393 151.355 161.125 150.084C157.857 148.814 154.669 147.612 152.292 146.741C151.104 146.306 150.117 145.953 149.424 145.716C149.078 145.598 148.803 145.507 148.611 145.449C148.516 145.42 148.435 145.398 148.375 145.384C148.347 145.378 148.311 145.371 148.277 145.368C148.262 145.366 148.228 145.364 148.187 145.37C148.167 145.373 148.128 145.381 148.084 145.405C148.038 145.43 147.972 145.482 147.939 145.574L148.519 145.781C148.486 145.872 148.422 145.922 148.378 145.946C148.336 145.968 148.3 145.975 148.284 145.978C148.25 145.983 148.226 145.981 148.224 145.981C148.216 145.98 148.218 145.979 148.239 145.984C148.278 145.993 148.341 146.01 148.433 146.038C148.614 146.092 148.881 146.18 149.225 146.298C149.912 146.534 150.894 146.885 152.08 147.319C154.453 148.188 157.637 149.388 160.902 150.658C164.167 151.927 167.511 153.265 170.203 154.409C171.549 154.981 172.73 155.504 173.655 155.944C174.59 156.39 175.239 156.74 175.542 156.967L175.912 156.475ZM147.943 145.563C145.521 151.612 143.503 156.313 141.562 159.569C139.611 162.842 137.794 164.557 135.813 164.811C133.833 165.064 131.539 163.875 128.582 160.908C125.639 157.956 122.112 153.319 117.671 146.86L117.164 147.209C121.606 153.67 125.16 158.347 128.146 161.342C131.118 164.323 133.6 165.714 135.891 165.421C138.182 165.128 140.132 163.171 142.091 159.884C144.06 156.581 146.094 151.836 148.515 145.792L147.943 145.563ZM117.646 146.828C117.268 146.41 116.988 145.911 116.83 145.37L116.239 145.543C116.424 146.173 116.749 146.754 117.19 147.241L117.646 146.828ZM70.2825 178.569C73.6937 181.949 81.3734 191.177 87.9446 202.061C91.2293 207.502 94.232 213.348 96.2862 219.078C98.3416 224.81 99.4397 230.405 98.9374 235.35L99.5496 235.413C100.065 230.34 98.9366 224.647 96.8655 218.87C94.7932 213.09 91.7694 207.206 88.4714 201.743C81.8773 190.821 74.1671 181.551 70.7156 178.132L70.2825 178.569ZM157.754 131.525C154.447 124.234 152.612 117.969 149.48 109.459L148.903 109.672C152.018 118.137 153.875 124.462 157.194 131.779L157.754 131.525ZM145.477 98.5373C143.712 93.111 140.906 88.0811 137.215 83.7299L136.746 84.1279C140.385 88.4181 143.152 93.3774 144.892 98.7275L145.477 98.5373ZM137.223 83.7401C130.65 75.2844 122.034 73.0301 114.277 75.2938C106.537 77.5524 99.6962 84.2944 96.6005 93.7406L97.1852 93.9322C100.227 84.6519 106.93 78.0787 114.449 75.8845C121.952 73.6953 130.311 75.8505 136.738 84.1177L137.223 83.7401ZM97.0114 93.5525C91.1664 91.1116 84.4137 93.265 81.0607 98.6389L81.5827 98.9647C84.7761 93.8465 91.2075 91.7956 96.7743 94.1203L97.0114 93.5525ZM81.0607 98.6389C77.7076 104.013 78.7418 111.025 83.5036 115.202L83.9093 114.739C79.3742 110.761 78.3893 104.083 81.5827 98.9647L81.0607 98.6389ZM83.5036 115.202C88.2653 119.379 95.3521 119.491 100.244 115.467L99.8527 114.991C95.194 118.824 88.4445 118.718 83.9093 114.739L83.5036 115.202ZM99.793 115.401C101.135 117.392 102.537 119.29 103.776 121.223C105.009 123.148 106.051 125.064 106.648 127.04C107.244 129.011 107.397 131.04 106.854 133.195C106.309 135.353 105.06 137.659 102.816 140.172L103.275 140.581C105.567 138.014 106.876 135.623 107.45 133.346C108.026 131.066 107.86 128.922 107.237 126.862C106.615 124.807 105.539 122.834 104.294 120.891C103.055 118.958 101.62 117.011 100.303 115.057L99.793 115.401ZM102.83 140.157C96.8781 145.985 88.5061 147.383 79.256 147.507C74.6337 147.569 69.818 147.313 64.9915 147.143C60.1713 146.973 55.3464 146.89 50.7336 147.302C41.504 148.125 33.0811 150.934 27.2042 159.038C21.3399 167.124 18.054 180.425 18.9345 202.122L19.5493 202.097C18.6708 180.448 21.9596 167.318 27.7023 159.399C33.4323 151.498 41.6484 148.73 50.7883 147.914C55.3604 147.507 60.1528 147.589 64.9699 147.758C69.7807 147.927 74.6222 148.185 79.2643 148.122C88.543 147.998 97.1285 146.601 103.261 140.596L102.83 140.157ZM131.714 96.5145C131.986 96.7873 132.417 97.0091 132.937 97.1997C133.465 97.3934 134.118 97.5671 134.866 97.7266C136.361 98.0456 138.262 98.3144 140.346 98.568C144.525 99.0766 149.439 99.5249 153.4 100.194C155.38 100.528 157.1 100.915 158.358 101.384C158.987 101.619 159.486 101.869 159.84 102.133C160.196 102.399 160.378 102.657 160.433 102.904C160.486 103.143 160.433 103.433 160.178 103.799C159.92 104.169 159.47 104.593 158.779 105.071C157.397 106.025 155.12 107.149 151.714 108.474L151.938 109.047C155.355 107.718 157.686 106.573 159.128 105.577C159.849 105.079 160.366 104.606 160.683 104.151C161.003 103.691 161.134 103.226 161.034 102.771C160.935 102.325 160.626 101.952 160.208 101.64C159.788 101.327 159.23 101.052 158.573 100.807C157.259 100.317 155.492 99.9232 153.502 99.5871C149.523 98.9151 144.57 98.4622 140.42 97.9571C138.339 97.7039 136.461 97.4377 134.994 97.1248C134.261 96.9683 133.638 96.8017 133.149 96.6221C132.651 96.4395 132.324 96.2552 132.15 96.0803L131.714 96.5145ZM151.714 108.474C148.974 109.544 144.323 109.806 139.615 109.409C134.912 109.012 130.232 107.963 127.439 106.47L127.149 107.013C130.051 108.564 134.829 109.622 139.564 110.022C144.294 110.421 149.062 110.17 151.938 109.047L151.714 108.474ZM256.374 251.387C255.273 252.387 253.535 253.611 251.453 254.993C250.415 255.682 249.296 256.408 248.133 257.162C246.971 257.916 245.766 258.699 244.559 259.499C239.744 262.692 234.837 266.211 232.417 269.464L232.911 269.831C235.255 266.679 240.066 263.217 244.899 260.012C246.103 259.213 247.306 258.433 248.468 257.679C249.63 256.925 250.752 256.197 251.794 255.505C253.872 254.125 255.648 252.878 256.788 251.843L256.374 251.387ZM232.417 269.464C197.371 316.657 150.064 354.468 106.677 367.713C84.9874 374.334 64.3029 374.808 46.6197 367.28C28.9428 359.754 14.2174 344.21 4.47872 318.697L3.90385 318.916C13.6884 344.55 28.516 360.241 46.3786 367.846C64.235 375.448 85.0767 374.95 106.857 368.301C150.409 355.006 197.815 317.091 232.911 269.831L232.417 269.464ZM189.47 317.492C192.878 331.204 195.611 344.604 195.03 355.707L195.644 355.739C196.231 344.534 193.474 331.052 190.067 317.344L189.47 317.492ZM249.214 258.915C252.622 272.626 255.356 286.027 254.775 297.13L255.389 297.162C255.976 285.957 253.219 272.475 249.811 258.767L249.214 258.915ZM206.136 188.368C204.207 225.005 216.556 246.608 232.221 269.317L232.728 268.968C217.094 246.305 204.831 224.839 206.751 188.4L206.136 188.368ZM230.07 171.583C234.305 211.713 251.475 244.667 255.514 251.209L256.038 250.886C252.031 244.397 234.904 211.532 230.682 171.518L230.07 171.583ZM140.877 117.256C141.187 117.256 141.568 117.392 142 117.681C142.428 117.967 142.884 118.389 143.336 118.923C144.242 119.989 145.112 121.472 145.716 123.113L146.293 122.901C145.667 121.198 144.762 119.651 143.806 118.524C143.328 117.961 142.831 117.496 142.342 117.169C141.857 116.845 141.356 116.641 140.877 116.641V117.256ZM145.716 123.113C146.321 124.758 146.531 126.222 146.409 127.254C146.348 127.771 146.206 128.153 146.014 128.4C145.832 128.635 145.597 128.757 145.295 128.757V129.373C145.797 129.373 146.207 129.155 146.5 128.777C146.785 128.411 146.951 127.906 147.02 127.326C147.158 126.166 146.919 124.6 146.293 122.901L145.716 123.113ZM145.295 128.757C144.976 128.757 144.591 128.621 144.158 128.333C143.729 128.046 143.275 127.625 142.824 127.092C141.923 126.025 141.06 124.543 140.456 122.901L139.879 123.113C140.505 124.815 141.401 126.362 142.354 127.489C142.83 128.052 143.326 128.518 143.817 128.845C144.304 129.17 144.809 129.373 145.295 129.373V128.757ZM140.456 122.901C139.852 121.258 139.652 119.779 139.786 118.731C139.853 118.206 140 117.814 140.197 117.56C140.386 117.317 140.624 117.193 140.925 117.193V116.578C140.42 116.578 140.008 116.801 139.711 117.183C139.423 117.554 139.251 118.066 139.176 118.653C139.026 119.83 139.252 121.412 139.879 123.113L140.456 122.901ZM140.678 116.701L140.631 116.764L141.123 117.133L141.171 117.07L140.678 116.701Z" fill="#21222F"/>
<path d="M117.655 99.8629C120.241 99.4758 122.875 99.556 125.432 100.1" stroke="#21222F" stroke-width="0.615333" stroke-linecap="round" stroke-linejoin="round"/>
<path d="M138.274 91.9429C137.26 92.2876 136.359 92.9043 135.671 93.7256" stroke="#21222F" stroke-width="0.5" stroke-linecap="round" stroke-linejoin="round"/>
<path d="M449.998 100.257L470.571 105.463" stroke="#21222F" stroke-width="0.615333" stroke-linecap="round" stroke-linejoin="round"/>
<path d="M432.25 19.088L451.055 7.36621" stroke="#21222F" stroke-width="0.615333" stroke-linecap="round" stroke-linejoin="round"/>
<path d="M444.981 58.7339L465.538 53.512" stroke="#21222F" stroke-width="0.615333" stroke-linecap="round" stroke-linejoin="round"/>
<path fill-rule="evenodd" clip-rule="evenodd" d="M24.0357 73C26.6786 84.2899 19.9643 87.5976 14 88.7691C25.1429 89.0792 26.4286 90.6182 29.4762 102C28.2143 93.478 28.2857 87.2531 40 83.3711C37.6786 83.7501 26.1548 88.8036 24.0357 73Z" stroke="#F6B642" stroke-linecap="round" stroke-linejoin="round"/>
<path fill-rule="evenodd" clip-rule="evenodd" d="M75.0203 27.6267C73.3143 34.3269 68.9695 34.3299 65.5894 33.3923C71.2265 36.4738 71.4691 37.6293 69.946 44.4843C71.6101 39.6187 73.3356 36.3245 80.4033 37.3245C79.093 36.9492 71.7931 36.6009 75.0203 27.6267Z" stroke="#F6B642" stroke-linecap="round" stroke-linejoin="round"/>
</svg>
