<svg width="50" height="50" viewBox="0 0 50 50" fill="none" xmlns="http://www.w3.org/2000/svg">
<path d="M8.02879 42.988C8.14986 44.7076 9.50236 46.0834 11.2202 46.2273C20.6764 47.0201 29.3233 47.0201 38.7795 46.2273C40.4974 46.0834 41.8499 44.7076 41.9709 42.988C42.7059 32.5476 42.7059 22.6838 41.9709 12.2433C41.8499 10.5237 40.4977 9.15222 38.7866 8.942C34.3676 8.39911 29.7504 7.70068 24.9999 7.70068C20.2493 7.70068 15.6321 8.39911 11.213 8.942C9.50197 9.15222 8.14982 10.5237 8.02879 12.2433C7.29379 22.6838 7.29379 32.5476 8.02879 42.988Z" stroke="#0DA88C" stroke-width="2"/>
<path d="M18.1924 23.27H31.8085" stroke="#0DA88C" stroke-width="2" stroke-linecap="round"/>
<path d="M18.1924 33.6494H26.409" stroke="#0DA88C" stroke-width="2" stroke-linecap="round"/>
<path d="M29.8004 2.67871H20.2004C17.2733 2.67871 14.9004 5.0516 14.9004 7.97871V7.98228C14.9004 10.9094 17.2733 13.2823 20.2004 13.2823H29.8004C32.7275 13.2823 35.1004 10.9094 35.1004 7.98228V7.97871C35.1004 5.0516 32.7275 2.67871 29.8004 2.67871Z" fill="#F6B642" stroke="#0DA88C" stroke-width="2" stroke-linejoin="round"/>
</svg>
