<svg width="24" height="24" viewBox="0 0 24 24" fill="none" xmlns="http://www.w3.org/2000/svg">
<path d="M3.85347 20.6342C3.91158 21.4596 4.56078 22.12 5.38534 22.1891C9.92432 22.5696 14.0748 22.5696 18.6138 22.1891C19.4384 22.12 20.0876 21.4596 20.1457 20.6342C20.4985 15.6228 20.4985 10.8882 20.1457 5.87674C20.0876 5.05133 19.4386 4.39303 18.6172 4.29212C16.4961 4.03153 14.2798 3.69629 11.9996 3.69629C9.71932 3.69629 7.50304 4.03153 5.38187 4.29212C4.56059 4.39303 3.91156 5.05133 3.85347 5.87674C3.50067 10.8882 3.50067 15.6228 3.85347 20.6342Z" fill="white" stroke="#0DA88C" stroke-width="2"/>
<path d="M8.73242 11.1694H15.2681" stroke="#0DA88C" stroke-width="2" stroke-linecap="round"/>
<path d="M8.73242 16.1519H12.6764" stroke="#0DA88C" stroke-width="2" stroke-linecap="round"/>
<path d="M14.3043 1.28564H9.69634C8.29133 1.28564 7.15234 2.42463 7.15234 3.82964V3.83136C7.15234 5.23637 8.29133 6.37536 9.69634 6.37536H14.3043C15.7094 6.37536 16.8483 5.23637 16.8483 3.83136V3.82964C16.8483 2.42463 15.7094 1.28564 14.3043 1.28564Z" fill="#F6B642" stroke="#0DA88C" stroke-width="2" stroke-linejoin="round"/>
</svg>
