<svg width="50" height="50" viewBox="0 0 50 50" fill="none" xmlns="http://www.w3.org/2000/svg">
<path d="M9.60189 37.6701C6.41068 37.3734 3.72861 35.039 3.28671 31.8647C2.78104 28.2323 2.5 24.4979 2.5 20.6539C2.5 16.6741 2.78115 12.7581 3.32253 9.00885C3.75071 6.0436 6.17107 3.80539 9.15071 3.49244C14.1844 2.96374 19.4434 2.67871 24.8214 2.67871C30.1828 2.67871 35.3489 2.9809 40.3871 3.50184C43.4175 3.81518 45.8786 6.09989 46.3089 9.11589C46.8396 12.8361 47.1429 16.7085 47.1429 20.6539C47.1429 24.568 46.8114 28.3734 46.2896 32.068C45.8557 35.1416 43.3554 37.4873 40.2671 37.8012C35.2777 38.308 30.1339 38.6291 24.8214 38.6291C24.6943 38.6291 24.5672 38.6287 24.4401 38.6284C20.6941 42.9373 17.8221 45.0669 12.8022 47.3216V37.9666C11.9883 37.893 11.179 37.8173 10.3748 37.7423C10.1166 37.7184 9.859 37.6941 9.60189 37.6701Z" stroke="#0DA88C" stroke-width="2" stroke-linecap="round" stroke-linejoin="round"/>
<circle cx="25" cy="21.25" r="7.5" fill="#F6B642"/>
</svg>
