<svg width="24" height="24" viewBox="0 0 24 24" fill="none" xmlns="http://www.w3.org/2000/svg">
<g clip-path="url(#clip0_2077_1640)">
<path d="M4.6091 18.0815C3.07732 17.9391 1.78993 16.8186 1.57781 15.2949C1.3351 13.5514 1.2002 11.7589 1.2002 9.91373C1.2002 8.00343 1.33515 6.12375 1.59501 4.32411C1.80054 2.90079 2.96231 1.82645 4.39254 1.67623C6.80869 1.42246 9.33301 1.28564 11.9145 1.28564C14.4879 1.28564 16.9677 1.4307 19.386 1.68075C20.8406 1.83115 22.0219 2.92781 22.2285 4.37549C22.4832 6.16121 22.6288 8.01996 22.6288 9.91373C22.6288 11.7925 22.4697 13.6191 22.2192 15.3925C22.0109 16.8678 20.8108 17.9938 19.3284 18.1444C16.9335 18.3877 14.4644 18.5418 11.9145 18.5418C11.8534 18.5418 11.7924 18.5416 11.7315 18.5415C9.93338 20.6098 8.55481 21.632 6.14526 22.7142V18.2238C5.75457 18.1885 5.36613 18.1522 4.98008 18.1162C4.85617 18.1047 4.73252 18.093 4.6091 18.0815Z" fill="white" stroke="#0DA88C" stroke-width="2" stroke-linecap="round" stroke-linejoin="round"/>
<circle cx="12.0004" cy="10.2001" r="3.6" fill="#F6B642"/>
</g>
<defs>
<clipPath id="clip0_2077_1640">
<rect width="24" height="24" fill="white"/>
</clipPath>
</defs>
</svg>
