<?xml version="1.0" encoding="UTF-8"?> <svg xmlns="http://www.w3.org/2000/svg" width="50" height="50" viewBox="0 0 50 50" fill="none"><path d="M25 0C20.0555 0 15.222 1.46622 11.1108 4.21326C6.99953 6.96029 3.79521 10.8648 1.90302 15.4329C0.0108322 20.0011 -0.484251 25.0277 0.480379 29.8772C1.44501 34.7268 3.82603 39.1813 7.32234 42.6777C10.8187 46.174 15.2732 48.555 20.1228 49.5196C24.9723 50.4842 29.9989 49.9892 34.5671 48.097C39.1352 46.2048 43.0397 43.0005 45.7867 38.8892C48.5338 34.778 50 29.9445 50 25C50 21.7169 49.3534 18.466 48.097 15.4329C46.8406 12.3998 44.9991 9.64379 42.6777 7.32233C40.3562 5.00086 37.6002 3.15938 34.5671 1.90301C31.534 0.646644 28.2831 0 25 0ZM25 45C21.0444 45 17.1776 43.827 13.8886 41.6294C10.5996 39.4318 8.03617 36.3082 6.52242 32.6537C5.00867 28.9991 4.6126 24.9778 5.3843 21.0982C6.15601 17.2186 8.06082 13.6549 10.8579 10.8579C13.6549 8.06081 17.2186 6.156 21.0982 5.38429C24.9778 4.61259 28.9992 5.00866 32.6537 6.52241C36.3082 8.03616 39.4318 10.5996 41.6294 13.8886C43.827 17.1776 45 21.0444 45 25C45 30.3043 42.8929 35.3914 39.1421 39.1421C35.3914 42.8928 30.3043 45 25 45ZM27.5 24.825V12.5C27.5 11.837 27.2366 11.2011 26.7678 10.7322C26.2989 10.2634 25.663 10 25 10C24.337 10 23.7011 10.2634 23.2322 10.7322C22.7634 11.2011 22.5 11.837 22.5 12.5V25C22.5 25 22.5 25.175 22.5 25.275C22.4385 25.7832 22.5345 26.2981 22.775 26.75L26.525 33.25C26.8565 33.8268 27.4036 34.2484 28.0459 34.4218C28.6882 34.5953 29.3732 34.5065 29.95 34.175C30.5268 33.8435 30.9484 33.2964 31.1218 32.6541C31.2953 32.0118 31.2065 31.3268 30.875 30.75L27.5 24.825Z" fill="white"></path></svg> 