<svg width="100" height="100" viewBox="0 0 100 100" fill="none" xmlns="http://www.w3.org/2000/svg">
<path d="M49.9997 5.35715C20.6364 5.35715 3.85028 27.0939 5.6352 48.5535L7.28405 66.9459" stroke="white" stroke-width="3"/>
<path d="M50 5.35715C79.3636 5.35715 96.1494 27.0939 94.3644 48.5535L92.7158 66.9459" stroke="white" stroke-width="3"/>
<path d="M63.6499 62.4369C64.3375 54.5771 71.2666 48.763 79.1267 49.4506L79.9152 49.5196C87.7752 50.2073 93.5888 57.1364 92.9017 64.9961L91.5531 80.4107C90.8652 88.2707 83.936 94.085 76.0767 93.3971L75.2874 93.3279C67.4278 92.64 61.6137 85.7114 62.3013 77.8514L63.6499 62.4369Z" stroke="white" stroke-width="3"/>
<path d="M7.09819 64.9969C6.41055 57.1371 12.2247 50.2081 20.0845 49.5205L20.8733 49.4514C28.7331 48.7638 35.6621 54.578 36.3498 62.4377L37.6983 77.8521C38.386 85.7121 32.5718 92.6414 24.7121 93.3286L23.9232 93.3979C16.0635 94.0857 9.13442 88.2714 8.44678 80.4114L7.09819 64.9969Z" stroke="white" stroke-width="3"/>
<rect x="13.4561" y="61.9336" width="15" height="24.0688" rx="7.5" transform="rotate(-6.93614 13.4561 61.9336)" fill="#F6B642"/>
<rect width="15" height="24.0688" rx="7.5" transform="matrix(-0.99749 -0.0708106 -0.0708106 0.99749 85.5654 61.3786)" fill="#F6B642"/>
</svg>
