<svg width="230" height="124" viewBox="0 0 230 124" fill="none" xmlns="http://www.w3.org/2000/svg">
<path fill-rule="evenodd" clip-rule="evenodd" d="M97.7948 2.72045C154.54 -9.12802 186.573 17.9513 177.208 79.5606C173.674 102.764 155.123 118.776 131.927 120.3C116.627 121.301 100.244 122.536 85.5758 118.42C56.7608 110.331 44.6379 88.061 47.3685 60.6112C50.497 29.1068 63.7107 9.87619 97.7948 2.72045Z" fill="#F6B642"/>
<path fill-rule="evenodd" clip-rule="evenodd" d="M4.25574 89.1657C37.297 94.469 69.4326 88.9942 86.5844 85.5021C96.1208 74.7787 94.3302 40.7084 88.9445 39.8714C77.4528 40.2967 11.8849 38.8491 7.73412 37.2917C-3.38025 47.5966 -0.608516 84.4455 4.25574 89.1657Z" fill="#B7E4DB"/>
<path fill-rule="evenodd" clip-rule="evenodd" d="M222.399 95.8273C192.061 93.968 164.049 89.6938 148.448 85.3921C138.156 75.6018 144.331 41.655 149.779 41.1953C161.215 42.4097 221.459 45.0716 225.713 43.8092C232.121 50.6288 228.979 96.232 222.399 95.8273Z" fill="#B7E4DB"/>
<path fill-rule="evenodd" clip-rule="evenodd" d="M85.3632 79.0735C86.8657 79.3342 89.0474 79.0324 90.9409 78.9569C93.1089 85.2482 98.4466 88.4178 104.196 86.0852C106.014 90.9632 109.588 89.2274 111.42 88.6442C111.825 91.7316 119.873 93.0076 122.589 88.4933C128.991 91.5532 139.659 92.891 131.399 83.2311C141.896 86.7301 147.37 86.9085 145.456 82.8949C146.431 83.1237 147.435 83.2046 148.434 83.1351C149.024 79.2039 155.068 62.5529 149.998 46.5948C148.811 45.6275 132.263 31.0828 117.89 41.1063C98.3985 39.7341 103.53 44.2622 96.3266 45.3736C92.4297 45.9705 93.5 45.5452 86.3854 45.4217C82.7489 56.2954 82.3934 67.9991 85.3632 79.0735Z" fill="white"/>
<path fill-rule="evenodd" clip-rule="evenodd" d="M123.667 98.5237C125.19 105.268 121.32 107.244 117.883 107.943C124.305 108.129 125.046 109.048 126.802 115.847C126.075 110.756 126.116 107.038 132.867 104.719C131.529 104.945 124.888 107.964 123.667 98.5237Z" stroke="#21222F" stroke-width="0.627624" stroke-linecap="round" stroke-linejoin="round"/>
<path fill-rule="evenodd" clip-rule="evenodd" d="M94.1244 17.958C95.6475 24.7021 91.778 26.678 88.3408 27.3778C94.7625 27.563 95.5034 28.4824 97.2598 35.2813C96.5325 30.1907 96.5737 26.4722 103.325 24.1532C101.987 24.4139 95.325 27.4189 94.1244 17.958Z" stroke="#21222F" stroke-width="0.627624" stroke-linecap="round" stroke-linejoin="round"/>
<path d="M164.159 103.779C166.169 104.952 167.411 105.48 169.002 107.209" stroke="#21222F" stroke-width="0.627624" stroke-linecap="round" stroke-linejoin="round"/>
<path d="M149.525 114.241C150.286 116.444 150.897 117.672 150.952 120.011" stroke="#21222F" stroke-width="0.627624" stroke-linecap="round" stroke-linejoin="round"/>
<path d="M78.2898 13.3684C79.7168 15.2071 80.6773 16.1607 81.4938 18.3699" stroke="#21222F" stroke-width="0.627624" stroke-linecap="round" stroke-linejoin="round"/>
<path d="M154.121 20.0094C155.809 18.404 156.66 17.3543 158.78 16.3184" stroke="#21222F" stroke-width="0.627624" stroke-linecap="round" stroke-linejoin="round"/>
<path d="M87.2156 118.042C86.1796 120.101 85.4249 121.246 85.0544 123.579" stroke="#21222F" stroke-width="0.623204" stroke-linecap="round" stroke-linejoin="round"/>
<path fill-rule="evenodd" clip-rule="evenodd" d="M169.579 22.4861C168.056 29.2302 171.925 31.2061 175.362 31.9059C168.941 32.0911 168.2 33.0104 166.443 39.8094C167.171 34.7188 167.129 31.0002 160.378 28.6813C161.723 28.942 168.364 31.9264 169.579 22.4861Z" stroke="#21222F" stroke-width="0.627624" stroke-linecap="round" stroke-linejoin="round"/>
<path d="M146.724 83.4405C146.639 83.2895 146.448 83.2361 146.297 83.3212C146.146 83.4062 146.093 83.5976 146.178 83.7486L146.724 83.4405ZM149.614 85.8243L149.697 85.5218C149.687 85.5191 149.677 85.5168 149.667 85.515L149.614 85.8243ZM222.405 95.7431C222.579 95.7397 222.716 95.5966 222.713 95.4233C222.71 95.25 222.567 95.1122 222.393 95.1156L222.405 95.7431ZM123.95 53.3914C123.801 53.3029 123.609 53.352 123.52 53.501C123.432 53.6501 123.481 53.8426 123.63 53.9311L123.95 53.3914ZM145.744 72.9947L146.009 73.1629L146.011 73.1609L145.744 72.9947ZM129.86 69.6005C129.706 69.5217 129.517 69.5829 129.438 69.7372C129.359 69.8916 129.421 70.0806 129.575 70.1594L129.86 69.6005ZM148.353 83.0035C148.432 83.1578 148.622 83.2188 148.776 83.1398C148.93 83.0608 148.991 82.8717 148.912 82.7174L148.353 83.0035ZM149.401 47.4797L149.68 47.3355L149.68 47.3355L149.401 47.4797ZM115.859 57.7708L115.569 57.8915L115.569 57.8916L115.859 57.7708ZM126.836 48.6872L126.525 48.6444L126.524 48.6537L126.836 48.6872ZM138.2 58.5978C138.369 58.5584 138.474 58.3897 138.435 58.2209C138.395 58.0521 138.226 57.9472 138.058 57.9866L138.2 58.5978ZM129.905 69.7628C129.761 69.6668 129.566 69.7059 129.47 69.8502C129.374 69.9945 129.413 70.1893 129.558 70.2853L129.905 69.7628ZM145.511 84.8295L145.776 84.998L145.776 84.9974L145.511 84.8295ZM128.508 80.8279C128.356 80.7456 128.165 80.8027 128.083 80.9552C128.001 81.1078 128.058 81.2981 128.21 81.3804L128.508 80.8279ZM111.145 88.4325C111.024 88.3081 110.825 88.305 110.701 88.4256C110.576 88.5462 110.573 88.7449 110.694 88.8693L111.145 88.4325ZM116.746 83.0142C116.585 83.0774 116.505 83.2594 116.569 83.4208C116.632 83.5822 116.814 83.6618 116.975 83.5986L116.746 83.0142ZM104.892 86.3246C104.839 86.1597 104.662 86.0693 104.497 86.1226C104.332 86.176 104.242 86.3529 104.295 86.5178L104.892 86.3246ZM110.106 79.0767C109.933 79.0942 109.808 79.2482 109.825 79.4206C109.843 79.5931 109.997 79.7187 110.169 79.7011L110.106 79.0767ZM91.2172 78.4868C91.1509 78.3267 90.9673 78.2506 90.8072 78.3169C90.6471 78.3831 90.571 78.5667 90.6373 78.7268L91.2172 78.4868ZM100.532 76.7407L100.656 77.0289L100.658 77.028L100.532 76.7407ZM99.1661 77.0805C99.0166 77.1681 98.9664 77.3604 99.054 77.5099C99.1415 77.6595 99.3338 77.7097 99.4833 77.6221L99.1661 77.0805ZM98.6873 78.1718C98.8108 78.0502 98.8124 77.8515 98.6908 77.728C98.5692 77.6045 98.3705 77.603 98.247 77.7246L98.6873 78.1718ZM85.275 78.6811C85.1076 78.726 85.0083 78.8981 85.0532 79.0655C85.0981 79.2329 85.2702 79.3322 85.4376 79.2872L85.275 78.6811ZM146.782 66.2932C146.616 66.2432 146.441 66.3373 146.391 66.5033C146.341 66.6692 146.435 66.8443 146.601 66.8942L146.782 66.2932ZM149.918 67.4486C150.08 67.5116 150.262 67.4319 150.325 67.2704C150.388 67.109 150.308 66.927 150.147 66.864L149.918 67.4486ZM128.601 81.1032C128.468 80.9922 128.27 81.0102 128.159 81.1433C128.048 81.2764 128.066 81.4743 128.2 81.5853L128.601 81.1032ZM133.937 89.3782L134.201 89.5479L134.202 89.5468L133.937 89.3782ZM122.51 88.0452C122.35 87.9791 122.166 88.0554 122.1 88.2156C122.034 88.3759 122.111 88.5593 122.271 88.6254L122.51 88.0452ZM117.451 41.9235C117.607 41.9992 117.795 41.9342 117.87 41.7783C117.946 41.6224 117.881 41.4347 117.725 41.359L117.451 41.9235ZM98.2956 44.7834L98.5157 45.0071L98.516 45.0069L98.2956 44.7834ZM86.5088 45.156C86.3357 45.1636 86.2015 45.3102 86.2091 45.4833C86.2167 45.6564 86.3633 45.7906 86.5364 45.783L86.5088 45.156ZM88.3552 41.4755C88.4229 41.316 88.3483 41.1318 88.1888 41.0642C88.0292 40.9965 87.845 41.071 87.7774 41.2306L88.3552 41.4755ZM85.1504 80.916C85.2095 81.0789 85.3894 81.1632 85.5524 81.1042C85.7153 81.0451 85.7996 80.8652 85.7405 80.7022L85.1504 80.916ZM69.8623 40.6109C69.9488 40.4607 69.8971 40.2689 69.7469 40.1824C69.5967 40.0959 69.4049 40.1475 69.3184 40.2977L69.8623 40.6109ZM69.0549 87.3324C69.1452 87.4804 69.3383 87.5272 69.4862 87.4369C69.6342 87.3466 69.6809 87.1535 69.5907 87.0056L69.0549 87.3324ZM90.2161 80.0541C90.2387 79.8823 90.1177 79.7247 89.9458 79.7021C89.774 79.6796 89.6164 79.8005 89.5938 79.9724L90.2161 80.0541ZM85.3014 85.591L85.2668 85.2791C85.2574 85.2802 85.2481 85.2816 85.2388 85.2835L85.3014 85.591ZM4.85685 89.0471C4.68536 89.022 4.526 89.1406 4.5009 89.3121C4.4758 89.4836 4.59447 89.643 4.76596 89.6681L4.85685 89.0471ZM163.981 44.0079C163.905 43.8521 163.717 43.7874 163.561 43.8633C163.406 43.9392 163.341 44.1271 163.417 44.2829L163.981 44.0079ZM162.229 87.6325C162.128 87.7739 162.162 87.9697 162.303 88.0699C162.445 88.1702 162.64 88.1368 162.741 87.9954L162.229 87.6325ZM146.178 83.7486C146.889 85.0118 148.132 85.8877 149.561 86.1336L149.667 85.515C148.424 85.3012 147.343 84.5393 146.724 83.4405L146.178 83.7486ZM149.53 86.1268C166.415 90.7912 198.088 96.2103 222.405 95.7431L222.393 95.1156C198.15 95.5814 166.54 90.1743 149.697 85.5218L149.53 86.1268ZM123.63 53.9311C124.597 54.5054 130.761 58.233 136.338 62.3632C139.128 64.43 141.757 66.5871 143.514 68.4934C144.394 69.4482 145.04 70.3231 145.383 71.0784C145.727 71.8369 145.74 72.4089 145.478 72.8286L146.011 73.1609C146.435 72.4812 146.337 71.6604 145.954 70.8189C145.571 69.9742 144.873 69.0417 143.976 68.068C142.177 66.117 139.51 63.9317 136.711 61.8589C131.11 57.7099 124.924 53.9696 123.95 53.3914L123.63 53.9311ZM145.479 72.8266C145.132 73.3745 144.469 73.7096 143.482 73.8159C142.496 73.922 141.24 73.7927 139.794 73.4648C136.908 72.8099 133.347 71.3814 129.86 69.6005L129.575 70.1594C133.086 71.953 136.699 73.406 139.656 74.0769C141.132 74.4119 142.465 74.5566 143.549 74.4399C144.63 74.3235 145.517 73.9391 146.009 73.1629L145.479 72.8266ZM148.912 82.7174C148.943 82.777 148.944 82.8296 148.944 82.8314C148.944 82.8387 148.944 82.844 148.944 82.8466C148.944 82.8493 148.944 82.8509 148.944 82.8509C148.944 82.851 148.944 82.8501 148.944 82.8483C148.945 82.8465 148.945 82.844 148.945 82.8408C148.946 82.8342 148.947 82.8256 148.949 82.8146C148.956 82.7691 148.969 82.6999 148.989 82.6047C149.028 82.4155 149.09 82.1429 149.17 81.792C149.329 81.0923 149.559 80.0927 149.82 78.866C150.342 76.4126 150.992 73.0476 151.464 69.3364C151.935 65.6262 152.229 61.5629 152.037 57.714C151.846 53.8693 151.169 50.2139 149.68 47.3355L149.122 47.6239C150.553 50.3885 151.221 53.9419 151.411 57.7452C151.6 61.5444 151.31 65.5682 150.841 69.2573C150.373 72.9453 149.727 76.2918 149.206 78.7353C148.946 79.9569 148.717 80.9521 148.558 81.6527C148.478 82.0019 148.415 82.2807 148.375 82.4768C148.354 82.5742 148.338 82.6561 148.329 82.7179C148.324 82.748 148.32 82.78 148.318 82.8095C148.317 82.8238 148.316 82.8446 148.317 82.8678C148.318 82.8797 148.321 82.9395 148.353 83.0035L148.912 82.7174ZM149.68 47.3355C147.782 43.6673 144.054 40.9723 139.732 39.3637C135.407 37.754 130.448 37.2173 126.035 37.8973C121.625 38.5766 117.714 40.479 115.553 43.7946C113.384 47.1226 113.029 51.7942 115.569 57.8915L116.149 57.6501C113.66 51.676 114.058 47.2374 116.079 44.1373C118.107 41.0248 121.822 39.1813 126.13 38.5176C130.434 37.8546 135.284 38.3779 139.513 39.9519C143.746 41.5272 147.319 44.1398 149.122 47.6239L149.68 47.3355ZM115.569 57.8916C115.917 58.7255 116.39 59.2545 116.994 59.4538C117.594 59.6518 118.235 59.4945 118.853 59.16C120.081 58.4956 121.418 57.0236 122.634 55.4341C123.859 53.8324 124.994 52.0646 125.812 50.7626C126.223 50.108 126.55 49.5774 126.773 49.2362C126.887 49.062 126.962 48.9538 127.004 48.9043C127.014 48.8927 127.015 48.8917 127.011 48.896C127.008 48.8982 127 48.9058 126.986 48.9148C126.975 48.9223 126.944 48.9417 126.898 48.9529C126.847 48.965 126.76 48.9712 126.671 48.9182C126.585 48.8672 126.551 48.7921 126.538 48.7522C126.525 48.7127 126.524 48.6812 126.524 48.6696C126.524 48.6556 126.525 48.6464 126.525 48.6444L127.147 48.73C127.15 48.7104 127.16 48.6379 127.135 48.5585C127.12 48.5121 127.082 48.4325 126.992 48.3791C126.899 48.3236 126.806 48.3293 126.75 48.3429C126.66 48.3647 126.601 48.4203 126.588 48.4319C126.563 48.4545 126.541 48.4794 126.523 48.5009C126.453 48.5838 126.358 48.7236 126.247 48.8934C126.021 49.2405 125.687 49.7824 125.281 50.4287C124.464 51.7284 123.342 53.4755 122.135 55.0528C120.92 56.6424 119.653 58.0138 118.555 58.6081C118.01 58.903 117.558 58.9788 117.191 58.8578C116.828 58.738 116.46 58.3958 116.149 57.65L115.569 57.8916ZM126.524 48.6537C125.89 54.5513 131.817 60.0872 138.2 58.5978L138.058 57.9866C132.091 59.3787 126.561 54.1844 127.148 48.7207L126.524 48.6537ZM129.558 70.2853C133.128 72.6609 137.527 75.6138 140.798 78.3394C142.437 79.704 143.774 80.997 144.585 82.12C144.99 82.6818 145.25 83.1833 145.359 83.6156C145.466 84.0409 145.423 84.382 145.246 84.6616L145.776 84.9974C146.067 84.5378 146.105 84.0101 145.968 83.4626C145.832 82.922 145.522 82.3465 145.094 81.7526C144.236 80.5642 142.849 79.2308 141.2 77.8571C137.898 75.1062 133.47 72.1348 129.905 69.7628L129.558 70.2853ZM145.246 84.661C144.879 85.2388 144.16 85.5801 143.082 85.6654C142.009 85.7503 140.642 85.5744 139.08 85.1837C135.96 84.4032 132.141 82.7863 128.508 80.8279L128.21 81.3804C131.87 83.3532 135.739 84.995 138.928 85.7926C140.52 86.1908 141.962 86.3837 143.132 86.2911C144.297 86.1988 145.255 85.8163 145.776 84.998L145.246 84.661ZM110.694 88.8693C113.248 91.5037 115.817 92.1778 118.025 91.7188C120.213 91.2641 121.982 89.7098 122.983 88.0081C123.484 87.1555 123.802 86.2509 123.878 85.4087C123.954 84.567 123.79 83.7635 123.295 83.1536C122.796 82.5387 122.001 82.1698 120.919 82.122C119.842 82.0745 118.463 82.3424 116.746 83.0142L116.975 83.5986C118.646 82.9446 119.934 82.7068 120.891 82.749C121.843 82.791 122.449 83.1075 122.808 83.5491C123.17 83.9956 123.319 84.6196 123.253 85.352C123.187 86.0838 122.906 86.8999 122.442 87.69C121.51 89.2737 119.876 90.6931 117.898 91.1044C115.939 91.5114 113.579 90.9437 111.145 88.4325L110.694 88.8693ZM104.295 86.5178C104.704 87.7826 105.401 88.6187 106.291 89.0827C107.175 89.5432 108.21 89.6169 109.266 89.4359C111.369 89.0751 113.649 87.6887 115.265 86.0672C116.075 85.2543 116.733 84.3675 117.12 83.4995C117.505 82.6351 117.638 81.7501 117.325 80.9768C117.008 80.194 116.269 79.6088 115.098 79.2769C113.929 78.946 112.295 78.8544 110.106 79.0767L110.169 79.7011C112.321 79.4827 113.866 79.5804 114.926 79.8808C115.983 80.1801 116.523 80.6681 116.743 81.2123C116.967 81.766 116.896 82.4619 116.547 83.244C116.2 84.0224 115.594 84.8476 114.82 85.6242C113.268 87.1819 111.1 88.4844 109.16 88.8173C108.194 88.983 107.308 88.9046 106.582 88.5261C105.862 88.151 105.26 87.461 104.892 86.3246L104.295 86.5178ZM90.6373 78.7268C93.1258 84.7396 96.416 87.1202 99.6703 87.3145C102.893 87.5069 105.941 85.5423 107.938 83.1734C108.941 81.9844 109.696 80.6743 110.085 79.4465C110.471 78.2277 110.51 77.0369 109.996 76.1366C109.469 75.2142 108.419 74.6936 106.855 74.7008C105.298 74.7079 103.18 75.2341 100.406 76.4534L100.658 77.028C103.399 75.8237 105.425 75.335 106.858 75.3284C108.285 75.3219 109.074 75.7889 109.451 76.448C109.84 77.1291 109.848 78.1138 109.487 79.2571C109.128 80.3913 108.419 81.6299 107.458 82.7688C105.53 85.0558 102.657 86.8641 99.7077 86.688C96.7903 86.5138 93.658 84.3843 91.2172 78.4868L90.6373 78.7268ZM100.408 76.4525C99.9816 76.6361 99.5668 76.8458 99.1661 77.0805L99.4833 77.6221C99.8618 77.4004 100.253 77.2023 100.656 77.0289L100.408 76.4525ZM98.247 77.7246C98.282 77.6901 98.3088 77.6852 98.2801 77.6961C98.2613 77.7033 98.2288 77.7134 98.1788 77.7255C98.0794 77.7496 97.9373 77.7753 97.7536 77.802C97.3879 77.8552 96.8834 77.9087 96.2821 77.9615C95.0809 78.0669 93.5126 78.1684 91.937 78.261C90.3606 78.3536 88.7851 78.437 87.5616 78.5071C86.9511 78.542 86.4286 78.5736 86.0406 78.6013C85.8468 78.6151 85.6846 78.6281 85.5609 78.6401C85.4489 78.6511 85.3403 78.6635 85.275 78.6811L85.4376 79.2872C85.434 79.2882 85.4454 79.2853 85.4838 79.2802C85.518 79.2756 85.5639 79.2705 85.6218 79.2648C85.7374 79.2535 85.8934 79.241 86.0852 79.2273C86.4685 79.2 86.9872 79.1686 87.5974 79.1337C88.8152 79.0639 90.3987 78.9801 91.9739 78.8875C93.55 78.7949 95.1261 78.693 96.337 78.5867C96.9418 78.5336 97.4604 78.4789 97.844 78.4231C98.0351 78.3953 98.1993 78.3663 98.3264 78.3355C98.3897 78.3202 98.4505 78.3029 98.5037 78.2826C98.547 78.2661 98.6245 78.2337 98.6873 78.1718L98.247 77.7246ZM146.601 66.8942C147.019 67.02 147.776 67.1209 148.447 67.2093C148.79 67.2545 149.117 67.297 149.386 67.3389C149.667 67.3827 149.846 67.4205 149.918 67.4486L150.147 66.864C149.999 66.8063 149.748 66.76 149.482 66.7187C149.205 66.6755 148.869 66.6318 148.529 66.587C147.832 66.4953 147.139 66.4006 146.782 66.2932L146.601 66.8942ZM128.2 81.5853C130.132 83.1965 131.765 84.7606 132.777 86.1222C133.284 86.8038 133.622 87.4168 133.773 87.9455C133.922 88.4688 133.881 88.8821 133.672 89.2095L134.202 89.5468C134.535 89.0235 134.558 88.4111 134.376 87.7735C134.196 87.1412 133.809 86.458 133.281 85.7477C132.223 84.3255 130.545 82.7234 128.601 81.1032L128.2 81.5853ZM133.673 89.2084C133.399 89.6343 132.93 89.9302 132.257 90.0898C131.582 90.25 130.723 90.2661 129.718 90.1479C127.709 89.9117 125.184 89.1481 122.51 88.0452L122.271 88.6254C124.969 89.7386 127.555 90.5255 129.645 90.7712C130.69 90.894 131.628 90.884 132.402 90.7005C133.179 90.5164 133.813 90.1511 134.201 89.5479L133.673 89.2084ZM117.725 41.359C115.245 40.1545 111.457 39.8543 107.755 40.3907C104.052 40.9273 100.355 42.3126 98.0753 44.56L98.516 45.0069C100.662 42.8909 104.209 41.5387 107.845 41.0119C111.482 40.4849 115.128 40.7953 117.451 41.9235L117.725 41.359ZM98.0755 44.5598C97.6131 45.0147 96.847 45.2998 95.8597 45.4507C94.881 45.6003 93.7339 45.6111 92.5593 45.5591C91.386 45.5072 90.2009 45.3935 89.1437 45.2987C88.0966 45.2048 87.1586 45.1274 86.5088 45.156L86.5364 45.783C87.1352 45.7567 88.0265 45.8286 89.0876 45.9238C90.1386 46.0181 91.3406 46.1334 92.5316 46.1861C93.7214 46.2387 94.916 46.2298 95.9545 46.0711C96.9846 45.9137 97.9113 45.6019 98.5157 45.0071L98.0755 44.5598ZM87.7774 41.2306C84.1367 49.8197 83.1195 58.7397 83.1901 66.0033C83.2607 73.2605 84.4177 78.8931 85.1504 80.916L85.7405 80.7022C85.0394 78.7665 83.8878 73.2093 83.8177 65.9972C83.7477 58.7915 84.7578 49.9628 88.3552 41.4755L87.7774 41.2306ZM69.3184 40.2977C65.5881 46.7764 64.2626 56.4608 64.4887 65.5278C64.6019 70.0678 65.1044 74.4674 65.8958 78.2534C66.686 82.0335 67.7688 85.2245 69.0549 87.3324L69.5907 87.0056C68.3589 84.9867 67.2943 81.8762 66.5101 78.125C65.7272 74.3796 65.2285 70.0181 65.1161 65.5122C64.8911 56.4874 66.2174 46.9412 69.8623 40.6109L69.3184 40.2977ZM89.5938 79.9724C89.5338 80.4293 89.3307 81.6739 88.6935 82.848C88.0604 84.0146 87.0162 85.0848 85.2668 85.2791L85.3361 85.9029C87.3531 85.6788 88.549 84.4301 89.2451 83.1474C89.9372 81.8722 90.1526 80.5371 90.2161 80.0541L89.5938 79.9724ZM85.2388 85.2835C66.3506 89.1283 29.4654 92.6486 4.85685 89.0471L4.76596 89.6681C29.4723 93.284 66.436 89.7515 85.364 85.8985L85.2388 85.2835ZM163.417 44.2829C166.623 50.8623 167.717 59.7482 167.304 67.9887C166.891 76.2392 164.972 83.7611 162.229 87.6325L162.741 87.9954C165.588 83.9769 167.515 76.3092 167.931 68.0201C168.346 59.7212 167.251 50.7177 163.981 44.0079L163.417 44.2829Z" fill="#21222F"/>
</svg>
