<svg width="18" height="18" viewBox="0 0 18 18" fill="none" xmlns="http://www.w3.org/2000/svg">
<path d="M9.00008 2.33317C12.6751 2.33317 15.6667 5.32484 15.6667 8.99984C15.6667 12.6748 12.6751 15.6665 9.00008 15.6665C5.32508 15.6665 2.33341 12.6748 2.33341 8.99984C2.33341 5.32484 5.32508 2.33317 9.00008 2.33317ZM9.00008 0.666504C4.40008 0.666504 0.666748 4.39984 0.666748 8.99984C0.666748 13.5998 4.40008 17.3332 9.00008 17.3332C13.6001 17.3332 17.3334 13.5998 17.3334 8.99984C17.3334 4.39984 13.6001 0.666504 9.00008 0.666504ZM9.83342 8.99984V5.6665H8.16675V8.99984H5.66675L9.00008 12.3332L12.3334 8.99984H9.83342Z" fill="white"/>
</svg>
