<svg width="17" height="17" viewBox="0 0 17 17" fill="none" xmlns="http://www.w3.org/2000/svg">
<path d="M16.8017 0.648519C16.6541 0.529517 16.4501 0.498704 16.2715 0.56883L0.333798 6.94393C0.137233 7.02256 0.0054805 7.21062 0.000167919 7.42312C-0.00514466 7.63563 0.115982 7.83007 0.30936 7.91932L5.31275 10.2292L16.4692 1.06184L7.43778 11.2099V16.4683L11.2076 12.9503L14.121 14.2944C14.1922 14.3263 14.2687 14.3433 14.3441 14.3433C14.4291 14.3433 14.5152 14.322 14.5917 14.2817C14.7394 14.2041 14.8403 14.0628 14.868 13.8992L16.993 1.14896C17.0238 0.960899 16.9516 0.768584 16.8017 0.648519Z" fill="#3F6DE4"/>
</svg>
