<svg width="539" height="539" viewBox="0 0 539 539" fill="none" xmlns="http://www.w3.org/2000/svg">
<path d="M115.591 408.791C101.809 385.199 83.5207 365.105 74.8806 368.433C63.187 372.94 79.0524 409.074 88.1508 424.856C103.445 451.34 121.922 469.302 129.63 465.157C140.833 458.915 122.531 420.668 115.591 408.791Z" fill="#F6B642"/>
<path d="M210.353 353.209C195.161 326.93 176.736 309.173 169.138 313.593C161.493 318.004 167.651 342.847 182.791 369.123C197.932 395.4 216.409 413.108 224.003 408.74C231.652 404.328 225.493 379.486 210.353 353.209Z" fill="#F6B642"/>
<path d="M366.067 153.2C364.63 143.859 356.726 134.211 349.336 129.54C348.565 129.028 347.797 128.565 347.027 128.104C330.296 139.693 299.705 158.436 263.778 164.133C261.008 164.594 257.62 163.926 255.515 165.826C248.896 171.728 247.562 192.361 231.19 192.822C228.929 198.573 226.878 204.114 224.671 208.835C227.347 205.087 246.905 208.641 251.872 209.76C256.744 210.838 277.762 216.565 276.868 221.052C280.563 213.094 279.126 205.038 276.714 196.619C306.019 190.976 346.617 170.24 366.067 153.2Z" fill="#F6B642"/>
<path d="M224.054 408.74C219.384 411.462 210.66 405.816 201.114 395.036C201.281 398.755 202.336 402.382 204.192 405.611C210.66 417.722 210.353 447.594 217.538 445.497C219.54 444.88 221.901 434.717 224.006 423.069C225.095 417.442 226.535 411.887 228.318 406.438C227.426 406.894 224.949 408.144 224.054 408.74Z" fill="#015D61"/>
<path d="M253.925 151.354C254.867 154.094 256.255 156.66 258.032 158.949C262.546 158.283 267.564 156.914 268.499 154.844C268.663 154.495 268.801 154.135 268.912 153.766C267.731 157.512 260.905 154.998 253.925 151.354Z" fill="#015D61"/>
<path d="M259.981 123.792C250.896 114.246 221.283 121.738 201.216 136.264C181.047 150.839 186.847 164.492 212.969 158.231C211.43 158.692 194.697 163.721 183.766 176.288C167.701 194.765 181.661 201.847 199.667 198.152C221.17 193.738 239.647 176.083 245.908 163.867C248.783 156.669 250.733 149.136 251.713 141.447C244.22 135.34 248.788 129.796 252.893 134.006C255.1 136.264 257.563 135.186 254.844 127.808C257.585 126.107 260.876 125.563 259.981 123.792Z" fill="#015D61"/>
<path d="M328.499 422.188C327.55 410.001 327.687 397.755 328.908 385.592C319.171 388.341 308.841 388.182 299.193 385.131C299.398 393.653 296.73 397.962 298.937 403.25C300.263 406.214 302.144 408.896 304.478 411.152C314.129 420.905 322.392 449.644 328.703 445.54C330.45 444.405 329.781 433.992 328.499 422.188Z" fill="#015D61"/>
<path d="M502.588 383.439C506.283 370.659 518.602 374.559 525.377 366.859C526.608 378.615 520.14 390.419 508.439 390.982L502.588 383.439Z" fill="#015D61"/>
<path d="M231.958 207.194C231.496 209.576 230.773 211.9 229.802 214.123C221.437 209.965 223.388 207.246 231.958 207.194Z" fill="#015D61"/>
<path d="M276.919 220.99C276.711 221.965 275.326 222.582 273.017 222.876C273.89 221.286 274.661 219.847 275.326 218.411C276.507 219.408 277.07 220.281 276.919 220.99Z" fill="#015D61"/>
<path d="M299.91 299.73L294.52 315.177C294.315 309.173 294.11 303.271 294.005 297.471L299.91 299.73Z" fill="#015D61"/>
<path d="M228.315 406.43C226.537 411.879 225.097 417.434 224.003 423.061C221.922 434.714 219.542 444.89 217.535 445.489C210.363 447.645 210.633 417.73 204.189 405.603C202.329 402.377 201.274 398.749 201.111 395.027" stroke="#015D61" stroke-width="1.5" stroke-linecap="round" stroke-linejoin="round"/>
<path d="M405.945 213.301C404.921 211.643 403.547 210.231 401.916 209.165C400.286 208.098 398.442 207.403 396.513 207.129C394.583 206.854 392.618 207.007 390.756 207.577C388.894 208.147 387.177 209.119 385.733 210.425C385.161 208.476 384.145 206.684 382.771 205.19C381.394 203.695 379.691 202.538 377.793 201.808C375.899 201.079 373.859 200.795 371.835 200.981C369.811 201.167 367.86 201.816 366.127 202.879C364.628 203.802 363.327 205.011 362.297 206.438C361.265 207.864 360.526 209.481 360.122 211.193C357.99 209.587 355.425 208.661 352.759 208.538C350.094 208.415 347.453 209.1 345.184 210.504C342.915 211.908 341.122 213.965 340.042 216.405C338.961 218.845 338.646 221.554 339.131 224.178C337.398 223.724 335.592 223.622 333.822 223.878C332.048 224.134 330.348 224.743 328.814 225.668C327.084 226.73 325.623 228.175 324.54 229.892C323.457 231.609 322.783 233.551 322.57 235.569C322.357 237.588 322.61 239.628 323.311 241.533C324.009 243.438 325.138 245.157 326.607 246.557C324.807 247.266 323.185 248.361 321.853 249.763C320.522 251.165 319.511 252.842 318.897 254.675C318.28 256.508 318.072 258.454 318.288 260.376C318.501 262.298 319.134 264.15 320.139 265.802C321.543 268.124 323.643 269.947 326.136 271.014C328.631 272.081 331.399 272.34 334.048 271.755L405.695 227.827C407.498 226.741 409.689 219.346 405.945 213.301Z" stroke="#015D61" stroke-width="1.5" stroke-linecap="round" stroke-linejoin="round"/>
<path d="M351.595 233.675C353.288 235.27 354.379 237.4 354.686 239.706C354.994 242.012 354.498 244.353 353.28 246.335C352.061 248.318 350.199 249.82 348.005 250.59C345.809 251.36 343.416 251.35 341.228 250.562" stroke="#015D61" stroke-width="1.5" stroke-linecap="round" stroke-linejoin="round"/>
<path d="M383.517 224.644C383.231 226.72 382.315 228.658 380.887 230.192C379.458 231.726 377.591 232.781 375.543 233.213C373.492 233.646 371.357 233.434 369.43 232.607C367.506 231.781 365.884 230.379 364.784 228.595C364.318 227.824 363.957 226.996 363.706 226.132" stroke="#015D61" stroke-width="1.5" stroke-linecap="round" stroke-linejoin="round"/>
<path d="M385.725 210.425C384.345 211.727 383.199 213.256 382.337 214.945" stroke="#015D61" stroke-width="1.5" stroke-linecap="round" stroke-linejoin="round"/>
<path d="M331.28 245.692C329.687 245.772 328.113 246.064 326.599 246.56" stroke="#015D61" stroke-width="1.5" stroke-linecap="round" stroke-linejoin="round"/>
<path d="M360.114 211.196C359.777 212.869 359.723 214.586 359.949 216.276" stroke="#015D61" stroke-width="1.5" stroke-linecap="round" stroke-linejoin="round"/>
<path d="M344.209 226.56C342.67 225.471 340.948 224.665 339.123 224.181" stroke="#015D61" stroke-width="1.5" stroke-linecap="round" stroke-linejoin="round"/>
<path d="M424.217 242.965C420.409 236.693 412.551 235.575 411.182 236.602L339.481 280.587C337.43 281.819 334.614 289.27 338.508 295.571C339.522 297.218 340.883 298.625 342.494 299.689C344.108 300.756 345.936 301.454 347.849 301.737C349.763 302.018 351.714 301.877 353.568 301.325C355.419 300.772 357.131 299.821 358.575 298.536C359.397 301.363 361.144 303.834 363.531 305.556C365.919 307.278 368.813 308.151 371.756 308.041C374.699 307.928 377.521 306.836 379.771 304.936C382.022 303.039 383.571 300.441 384.178 297.56C386.296 299.182 388.856 300.128 391.522 300.271C394.187 300.417 396.833 299.751 399.116 298.363C401.396 296.975 403.204 294.932 404.304 292.499C405.401 290.065 405.738 287.357 405.271 284.729C408.115 285.449 411.117 285.203 413.807 284.034C416.496 282.862 418.722 280.829 420.132 278.258C421.541 275.685 422.056 272.718 421.595 269.818C421.134 266.922 419.725 264.259 417.588 262.25C419.407 261.56 421.053 260.478 422.409 259.08C423.762 257.682 424.794 256.003 425.427 254.162C426.058 252.322 426.279 250.364 426.069 248.429C425.861 246.494 425.228 244.628 424.217 242.965Z" stroke="#015D61" stroke-width="1.5" stroke-linecap="round" stroke-linejoin="round"/>
<path d="M381.362 282.228C380.834 280.441 379.826 278.835 378.446 277.585C377.066 276.334 375.371 275.488 373.541 275.138C371.711 274.787 369.822 274.949 368.078 275.601C366.334 276.256 364.804 277.375 363.656 278.841C362.532 280.288 361.807 282.005 361.551 283.818" stroke="#015D61" stroke-width="1.5" stroke-linecap="round" stroke-linejoin="round"/>
<path d="M403.895 257.911C401.919 257.229 399.779 257.173 397.769 257.75C395.761 258.328 393.977 259.511 392.664 261.138C391.352 262.765 390.57 264.757 390.433 266.843C390.293 268.929 390.8 271.009 391.883 272.796C392.346 273.572 392.918 274.281 393.578 274.901" stroke="#015D61" stroke-width="1.5" stroke-linecap="round" stroke-linejoin="round"/>
<path d="M417.595 262.264C415.787 262.932 413.876 263.279 411.949 263.29" stroke="#015D61" stroke-width="1.5" stroke-linecap="round" stroke-linejoin="round"/>
<path d="M361.416 294.833C360.648 296.202 359.691 297.455 358.575 298.56" stroke="#015D61" stroke-width="1.5" stroke-linecap="round" stroke-linejoin="round"/>
<path d="M405.28 284.743C403.628 284.268 402.065 283.527 400.652 282.549" stroke="#015D61" stroke-width="1.5" stroke-linecap="round" stroke-linejoin="round"/>
<path d="M384.331 292.076C384.576 293.906 384.525 295.76 384.186 297.573" stroke="#015D61" stroke-width="1.5" stroke-linecap="round" stroke-linejoin="round"/>
<path d="M339.481 280.587L331.835 285.203" stroke="#015D61" stroke-width="1.5" stroke-linecap="round" stroke-linejoin="round"/>
<path d="M334.043 271.758L326.497 276.326" stroke="#015D61" stroke-width="1.5" stroke-linecap="round" stroke-linejoin="round"/>
<path d="M294.267 308.044L212.765 357.519" stroke="#015D61" stroke-width="1.5" stroke-linecap="round" stroke-linejoin="round"/>
<path d="M292.623 296.905L207.58 348.59" stroke="#015D61" stroke-width="1.5" stroke-linecap="round" stroke-linejoin="round"/>
<path d="M364.989 154.124C383.242 152.436 401.595 156.057 417.838 164.552C434.081 173.047 447.526 186.054 456.552 202.009C483.814 248.861 469.533 309.372 424.678 337.144C396.62 354.516 388.834 345.332 334.35 360.86" stroke="#015D61" stroke-width="1.5" stroke-linecap="round" stroke-linejoin="round"/>
<path d="M224.591 408.341C249.514 395.343 271.788 383.981 294.728 374.61" stroke="#015D61" stroke-width="1.5" stroke-linecap="round" stroke-linejoin="round"/>
<path d="M227.442 269.858C210.148 283.716 191.207 297.215 169.087 313.536" stroke="#015D61" stroke-width="1.5" stroke-linecap="round" stroke-linejoin="round"/>
<path d="M301.759 189.28C291.004 205.452 278.935 220.712 265.679 234.907" stroke="#015D61" stroke-width="1.5" stroke-linecap="round" stroke-linejoin="round"/>
<path d="M346.976 128.155C355.649 133.03 364.478 143.04 366.068 153.2C346.615 170.24 306.02 190.976 276.715 196.619C279.127 205.038 280.563 213.096 276.869 221.052C277.763 216.57 257.052 210.916 251.873 209.76C246.817 208.631 227.326 205.122 224.672 208.835C226.879 204.114 228.933 198.57 231.191 192.822C247.563 192.361 248.87 171.698 255.516 165.826C257.61 163.977 260.906 164.597 263.779 164.133C299.685 158.293 330.297 139.703 347.028 128.104L346.976 128.155Z" stroke="#015D61" stroke-width="1.5" stroke-linecap="round" stroke-linejoin="round"/>
<path d="M227.609 217.971C242.303 217.738 256.773 221.581 269.414 229.075" stroke="#015D61" stroke-width="1.5" stroke-linecap="round" stroke-linejoin="round"/>
<path d="M268.676 154.313C267.002 157.239 260.534 154.803 253.926 151.348C254.867 154.088 256.255 156.655 258.033 158.943" stroke="#015D61" stroke-width="1.5" stroke-linecap="round" stroke-linejoin="round"/>
<path d="M261.876 164.325C258.3 163.446 259.257 161.705 258.033 158.948C267.681 157.523 269.352 155.747 268.956 150.912C268.377 143.889 264.253 128.586 259.982 123.792" stroke="#015D61" stroke-width="1.5" stroke-linecap="round" stroke-linejoin="round"/>
<path d="M276.715 196.619C273.737 197.185 270.864 197.595 268.193 197.853" stroke="#015D61" stroke-width="1.5" stroke-linecap="round" stroke-linejoin="round"/>
<path d="M254.851 127.797C257.57 135.187 255.12 136.265 252.899 133.995C248.792 129.789 244.227 135.343 251.719 141.436C250.742 149.128 248.794 156.664 245.919 163.864C239.659 176.081 221.182 193.735 199.679 198.15C181.662 201.845 167.702 194.762 183.778 176.285C194.709 163.71 211.442 158.682 212.981 158.229C186.858 164.489 181.064 150.845 201.228 136.262C221.3 121.744 250.908 114.244 259.993 123.789C260.86 125.547 257.489 126.166 254.851 127.797Z" stroke="#015D61" stroke-width="1.5" stroke-linecap="round" stroke-linejoin="round"/>
<path d="M231.19 192.822C233.901 185.488 237.394 178.467 241.609 171.882C243.276 169.389 244.702 166.743 245.867 163.98" stroke="#015D61" stroke-width="1.5" stroke-linecap="round" stroke-linejoin="round"/>
<path d="M265.757 234.826C269.316 229.585 272.521 224.113 275.354 218.446" stroke="#015D61" stroke-width="1.5" stroke-linecap="round" stroke-linejoin="round"/>
<path d="M377.257 125.641C385.005 123.792 391.384 127.285 390.856 130.26C390.737 130.856 390.492 131.421 390.139 131.916C389.783 132.411 389.33 132.826 388.805 133.133" stroke="#015D61" stroke-width="1.5" stroke-linecap="round" stroke-linejoin="round"/>
<path d="M376.537 120.919C384.698 118.968 392.807 123.075 389.317 127.387" stroke="#015D61" stroke-width="1.5" stroke-linecap="round" stroke-linejoin="round"/>
<path d="M365.194 149.505C370.024 143.993 376.22 139.851 383.159 137.496" stroke="#015D61" stroke-width="1.5" stroke-linecap="round" stroke-linejoin="round"/>
<path d="M376.947 131.182C384.493 129.643 389.462 132.618 389.163 135.545C388.794 139.137 381.617 144.579 375.562 141.089" stroke="#015D61" stroke-width="1.5" stroke-linecap="round" stroke-linejoin="round"/>
<path d="M370.584 118.197C370.687 118.095 373.818 113.734 372.433 112.346C371.253 111.166 354.212 125.177 349.439 129.643" stroke="#015D61" stroke-width="1.5" stroke-linecap="round" stroke-linejoin="round"/>
<path d="M380.386 120.404C393.936 113.888 397.574 106.026 395.014 107.468C386.471 111.745 377.696 115.549 368.735 118.863C361.798 121.502 355.282 125.133 349.388 129.643" stroke="#015D61" stroke-width="1.5" stroke-linecap="round" stroke-linejoin="round"/>
<path d="M328.908 385.592C327.698 397.755 327.561 410.001 328.499 422.188C329.806 433.989 330.447 444.408 328.703 445.54C322.386 449.639 314.11 420.924 304.478 411.152C302.139 408.899 300.258 406.217 298.937 403.25C296.724 397.954 299.406 393.637 299.19 385.088" stroke="#015D61" stroke-width="1.5" stroke-linecap="round" stroke-linejoin="round"/>
<path d="M210.353 353.209C225.512 379.475 231.657 404.336 224.003 408.726C216.414 413.097 197.931 395.383 182.791 369.11C167.65 342.836 161.498 318.01 169.138 313.587C176.778 309.165 195.18 326.919 210.353 353.209Z" stroke="#015D61" stroke-width="1.5" stroke-linecap="round" stroke-linejoin="round"/>
<path d="M132.454 450.69C128.616 426.804 105.547 387.064 86.8166 372.713C77.1415 365.218 70.2127 366.544 71.005 379.113C72.5088 402.964 99.0681 448.979 118.892 462.481C129.899 469.973 134.631 464.249 132.454 450.69Z" stroke="#015D61" stroke-width="1.5" stroke-linecap="round" stroke-linejoin="round"/>
<path d="M130.139 464.887L145.377 456.072C146.845 454.921 147.843 453.275 148.183 451.442C148.523 449.609 148.183 447.715 147.225 446.114C153.289 455.247 165.188 445.818 160.415 437.902C164.843 445.448 178.765 440.576 173.041 429.127C174.338 430.809 176.187 431.976 178.262 432.426C180.336 432.879 182.504 432.582 184.381 431.591C190.58 427.634 188.281 419.94 184.435 407.416C177.242 385.908 165.83 366.048 150.869 349.002C147.273 344.72 143.157 340.901 138.615 337.64C131.433 333.185 123.353 336.525 126.132 348.644C123.846 344.836 121.165 342.346 116.634 343.561C115.491 343.879 114.436 344.459 113.554 345.251C112.671 346.046 111.984 347.032 111.547 348.137C111.109 349.24 110.933 350.431 111.033 351.614C111.133 352.797 111.505 353.94 112.12 354.956C112.12 354.956 106.803 348.234 100.777 353.007C99.2805 354.174 98.2723 355.856 97.9495 357.723C97.6266 359.594 98.012 361.515 99.0307 363.116C98.5456 362.259 97.8956 361.51 97.1183 360.906C96.3411 360.302 95.4523 359.86 94.5026 359.602C93.5531 359.343 92.5622 359.278 91.5866 359.405C90.611 359.532 89.6707 359.852 88.8194 360.346L74.4766 368.598" stroke="#015D61" stroke-width="1.5" stroke-linecap="round" stroke-linejoin="round"/>
<path d="M502.588 383.439C496.257 386.934 490.188 390.88 484.421 395.243C467.48 408.327 450.957 424.753 453.159 427.629C455.361 430.504 475.387 418.706 492.369 405.611C498.06 401.137 503.413 396.248 508.382 390.982" stroke="#015D61" stroke-width="1.5" stroke-linecap="round" stroke-linejoin="round"/>
<path d="M502.588 383.439C506.283 370.659 518.602 374.559 525.377 366.859C526.608 378.615 520.14 390.419 508.439 390.982L502.588 383.439Z" stroke="#015D61" stroke-width="1.5" stroke-linecap="round" stroke-linejoin="round"/>
<path d="M486.55 393.634L494.478 403.916" stroke="#015D61" stroke-width="1.5" stroke-linecap="round" stroke-linejoin="round"/>
<path d="M514.651 137.599L507.927 152.661H520.243L513.468 167.726" stroke="#015D61" stroke-width="1.5" stroke-linecap="round" stroke-linejoin="round"/>
<path d="M275.326 509.643L248.023 510.462" stroke="#015D61" stroke-width="1.5" stroke-linecap="round" stroke-linejoin="round"/>
<path d="M262.087 523.706L261.265 496.4" stroke="#015D61" stroke-width="1.5" stroke-linecap="round" stroke-linejoin="round"/>
<path d="M231.959 207.194C231.497 209.576 230.774 211.9 229.803 214.123C221.438 209.965 223.389 207.246 231.959 207.194Z" stroke="#015D61" stroke-width="1.5" stroke-linecap="round" stroke-linejoin="round"/>
<path d="M276.868 221.052C276.62 221.982 275.302 222.588 273.073 222.89" stroke="#015D61" stroke-width="1.5" stroke-linecap="round" stroke-linejoin="round"/>
<path d="M231.959 207.194C231.118 213.025 228.158 218.341 223.645 222.127C203.476 238.141 203.163 260.569 217.896 277.353" stroke="#015D61" stroke-width="1.5" stroke-linecap="round" stroke-linejoin="round"/>
<path d="M73.5793 369.158L50.8389 382.051" stroke="#015D61" stroke-width="1.5" stroke-linecap="round" stroke-linejoin="round"/>
<path d="M129.096 465.451L108.682 477.36" stroke="#015D61" stroke-width="1.5" stroke-linecap="round" stroke-linejoin="round"/>
<path d="M98.8261 483.569L83.6855 492.398" stroke="#015D61" stroke-width="1.5" stroke-linecap="round" stroke-linejoin="round"/>
<path d="M40.2662 388.673L24.8184 397.45" stroke="#015D61" stroke-width="1.5" stroke-linecap="round" stroke-linejoin="round"/>
<path d="M88.2023 424.856L38.4688 454.264" stroke="#015D61" stroke-width="1.5" stroke-linecap="round" stroke-linejoin="round"/>
<path d="M28.5644 460.476L13.4751 469.25" stroke="#015D61" stroke-width="1.5" stroke-linecap="round" stroke-linejoin="round"/>
<path d="M109.759 239.785C104.547 244.795 97.9655 248.147 90.8478 249.417C83.7303 250.687 76.3958 249.818 69.7723 246.919C63.1488 244.021 57.5335 239.223 53.6366 233.133C49.7396 227.043 47.7361 219.935 47.8792 212.706C48.0226 205.478 50.3061 198.454 54.4413 192.523C58.5762 186.593 64.3772 182.021 71.1104 179.387C77.8436 176.753 85.2066 176.176 92.2683 177.726C99.33 179.277 105.773 182.887 110.783 188.1C114.113 191.559 116.728 195.641 118.478 200.112C120.229 204.583 121.081 209.355 120.986 214.155C120.891 218.955 119.851 223.69 117.924 228.088C115.998 232.485 113.223 236.46 109.759 239.785Z" stroke="#015D61" stroke-width="1.5" stroke-linecap="round" stroke-linejoin="round"/>
<path d="M120.946 215.6C132.29 220.99 139.003 226.11 138.038 229.344C136.311 235.184 110.784 232.937 80.9661 224.313C51.1486 215.689 28.3516 203.957 30.0522 198.109C31.0224 194.77 39.6491 194.053 52.4207 195.646" stroke="#015D61" stroke-width="1.5" stroke-linecap="round" stroke-linejoin="round"/>
<path d="M219.912 253.742C221.4 263.083 226.65 271.648 233.719 273.863C255.793 280.768 294.022 297.522 294.022 297.522C294.499 323.955 296.892 353.039 294.332 383.439C306.573 388.592 320.312 388.902 332.773 384.31C334.929 355.621 336.312 328.111 335.8 302.705C335.684 296.382 334.221 290.16 331.504 284.449C328.785 278.741 324.88 273.677 320.045 269.602C300.099 253.113 277.86 239.611 254.028 229.52" stroke="#015D61" stroke-width="1.5" stroke-linecap="round" stroke-linejoin="round"/>
<path d="M294.009 297.522L299.911 299.73L294.524 315.177" stroke="#015D61" stroke-width="1.5" stroke-linecap="round" stroke-linejoin="round"/>
<path d="M295.396 363.165C307.874 367.447 321.309 368.104 334.145 365.065" stroke="#015D61" stroke-width="1.5" stroke-linecap="round" stroke-linejoin="round"/>
<path d="M284.104 15.2939V23.8667" stroke="#015D61" stroke-width="1.5" stroke-linecap="round" stroke-linejoin="round"/>
<path d="M300.784 31.9731H292.211" stroke="#015D61" stroke-width="1.5" stroke-linecap="round" stroke-linejoin="round"/>
<path d="M284.104 48.6553V40.0825" stroke="#015D61" stroke-width="1.5" stroke-linecap="round" stroke-linejoin="round"/>
<path d="M267.425 31.9731H276" stroke="#015D61" stroke-width="1.5" stroke-linecap="round" stroke-linejoin="round"/>
<path d="M292.21 31.9733C291.146 31.9762 290.089 31.7684 289.106 31.362C288.119 30.9556 287.225 30.3587 286.473 29.6052C285.718 28.8519 285.123 27.9572 284.716 26.9724C284.309 25.9875 284.101 24.9321 284.104 23.8667C284.107 24.9318 283.899 25.987 283.492 26.9716C283.088 27.9564 282.49 28.8511 281.738 29.6044C280.983 30.3576 280.088 30.9545 279.105 31.3612C278.121 31.7676 277.065 31.9757 276 31.9733C277.065 31.9708 278.121 32.1789 279.105 32.5856C280.091 32.9922 280.986 33.5897 281.738 34.3432C282.49 35.0968 283.088 35.9918 283.495 36.9768C283.899 37.9615 284.107 39.0172 284.104 40.0825C284.101 39.0169 284.309 37.9613 284.716 36.976C285.12 35.991 285.718 35.096 286.47 34.3422C287.225 33.5886 288.119 32.9914 289.103 32.5848C290.089 32.1783 291.146 31.9703 292.21 31.9733Z" stroke="#015D61" stroke-width="1.5" stroke-linecap="round" stroke-linejoin="round"/>
</svg>
