<svg width="353" height="353" viewBox="0 0 353 353" fill="none" xmlns="http://www.w3.org/2000/svg">
<path d="M277.297 267.724C286.323 252.273 298.3 239.113 303.959 241.293C311.617 244.244 301.227 267.909 295.268 278.245C285.252 295.59 273.151 307.354 268.103 304.639C260.766 300.551 272.752 275.502 277.297 267.724Z" fill="#F6B642"/>
<path d="M215.236 231.323C225.185 214.112 237.253 202.483 242.228 205.377C247.236 208.267 243.203 224.536 233.287 241.745C223.371 258.954 211.27 270.552 206.296 267.691C201.287 264.801 205.32 248.532 215.236 231.323Z" fill="#F6B642"/>
<path d="M113.257 100.333C114.198 94.2157 119.374 87.897 124.214 84.8382C124.719 84.5029 125.222 84.1993 125.727 83.8975C136.684 91.487 156.718 103.763 180.247 107.494C182.062 107.796 184.28 107.358 185.659 108.602C189.994 112.468 190.867 125.98 201.59 126.282C203.071 130.049 204.414 133.678 205.859 136.77C204.107 134.315 191.298 136.643 188.045 137.375C184.854 138.081 171.089 141.832 171.675 144.771C169.255 139.559 170.196 134.283 171.775 128.769C152.583 125.073 125.995 111.493 113.257 100.333Z" fill="#F6B642"/>
<path d="M206.263 267.691C209.322 269.473 215.035 265.776 221.287 258.716C221.178 261.151 220.487 263.527 219.271 265.641C215.035 273.573 215.237 293.137 210.531 291.763C209.22 291.359 207.674 284.703 206.295 277.075C205.582 273.39 204.639 269.752 203.471 266.183C204.055 266.482 205.677 267.301 206.263 267.691Z" fill="#015D61"/>
<path d="M186.7 99.1243C186.083 100.919 185.174 102.599 184.01 104.098C181.054 103.662 177.768 102.765 177.155 101.41C177.048 101.182 176.958 100.946 176.885 100.704C177.658 103.157 182.129 101.511 186.7 99.1243Z" fill="#015D61"/>
<path d="M182.734 81.0736C188.684 74.822 208.077 79.7287 221.22 89.242C234.429 98.7872 230.631 107.729 213.522 103.629C214.53 103.93 225.489 107.224 232.648 115.454C243.169 127.555 234.026 132.193 222.234 129.773C208.152 126.882 196.051 115.32 191.951 107.319C190.067 102.605 188.79 97.6715 188.149 92.6361C193.055 88.6366 190.064 85.006 187.376 87.763C185.93 89.242 184.317 88.536 186.098 83.7035C184.303 82.5897 182.148 82.2332 182.734 81.0736Z" fill="#015D61"/>
<path d="M137.861 276.498C138.482 268.517 138.392 260.496 137.592 252.531C143.969 254.331 150.735 254.227 157.053 252.229C156.919 257.81 158.666 260.632 157.221 264.095C156.353 266.037 155.121 267.793 153.592 269.27C147.272 275.658 141.86 294.48 137.726 291.792C136.583 291.049 137.02 284.229 137.861 276.498Z" fill="#015D61"/>
<path d="M23.8467 251.121C21.4269 242.751 13.359 245.305 8.92183 240.262C8.11522 247.961 12.3512 255.692 20.0149 256.061L23.8467 251.121Z" fill="#015D61"/>
<path d="M201.086 135.695C201.388 137.255 201.862 138.777 202.498 140.233C207.976 137.51 206.699 135.729 201.086 135.695Z" fill="#015D61"/>
<path d="M171.641 144.73C171.776 145.369 172.684 145.773 174.196 145.966C173.624 144.924 173.12 143.982 172.684 143.041C171.911 143.694 171.542 144.266 171.641 144.73Z" fill="#015D61"/>
<path d="M156.583 196.298L160.113 206.415C160.247 202.483 160.381 198.617 160.45 194.819L156.583 196.298Z" fill="#015D61"/>
<path d="M203.472 266.178C204.636 269.747 205.579 273.384 206.296 277.07C207.659 284.702 209.217 291.366 210.532 291.758C215.229 293.17 215.052 273.579 219.272 265.636C220.49 263.523 221.182 261.148 221.288 258.71" stroke="#015D61" stroke-width="1.5" stroke-linecap="round" stroke-linejoin="round"/>
<path d="M87.14 139.694C87.8107 138.609 88.7109 137.684 89.7787 136.986C90.8465 136.287 92.0538 135.832 93.3175 135.652C94.5813 135.473 95.868 135.573 97.0876 135.946C98.3072 136.319 99.4315 136.956 100.378 137.811C100.752 136.534 101.417 135.361 102.317 134.382C103.219 133.404 104.335 132.646 105.577 132.168C106.818 131.69 108.154 131.504 109.48 131.626C110.805 131.748 112.083 132.173 113.218 132.869C114.199 133.473 115.052 134.265 115.726 135.2C116.402 136.134 116.886 137.193 117.15 138.314C118.546 137.262 120.227 136.656 121.972 136.575C123.718 136.495 125.448 136.943 126.934 137.863C128.42 138.782 129.594 140.129 130.301 141.727C131.009 143.325 131.216 145.1 130.898 146.818C132.033 146.521 133.215 146.454 134.375 146.622C135.536 146.789 136.65 147.188 137.654 147.794C138.787 148.49 139.744 149.436 140.454 150.56C141.163 151.685 141.604 152.957 141.744 154.278C141.883 155.6 141.717 156.937 141.258 158.184C140.801 159.432 140.062 160.558 139.1 161.475C140.279 161.939 141.341 162.656 142.213 163.574C143.085 164.492 143.747 165.59 144.15 166.791C144.554 167.992 144.69 169.266 144.548 170.525C144.409 171.784 143.994 172.996 143.336 174.078C142.416 175.599 141.041 176.793 139.409 177.492C137.774 178.191 135.962 178.36 134.227 177.977L87.3042 149.208C86.1234 148.496 84.6885 143.653 87.14 139.694Z" stroke="#015D61" stroke-width="1.5" stroke-linecap="round" stroke-linejoin="round"/>
<path d="M122.734 153.038C121.626 154.083 120.911 155.477 120.71 156.988C120.509 158.498 120.834 160.031 121.631 161.329C122.429 162.627 123.649 163.612 125.085 164.116C126.524 164.62 128.091 164.613 129.524 164.097" stroke="#015D61" stroke-width="1.5" stroke-linecap="round" stroke-linejoin="round"/>
<path d="M101.828 147.123C102.015 148.483 102.615 149.752 103.551 150.757C104.486 151.761 105.709 152.452 107.051 152.735C108.394 153.019 109.792 152.88 111.054 152.339C112.314 151.797 113.377 150.879 114.097 149.711C114.402 149.206 114.639 148.664 114.803 148.098" stroke="#015D61" stroke-width="1.5" stroke-linecap="round" stroke-linejoin="round"/>
<path d="M100.382 137.811C101.286 138.664 102.036 139.665 102.601 140.771" stroke="#015D61" stroke-width="1.5" stroke-linecap="round" stroke-linejoin="round"/>
<path d="M136.039 160.908C137.082 160.96 138.113 161.152 139.104 161.476" stroke="#015D61" stroke-width="1.5" stroke-linecap="round" stroke-linejoin="round"/>
<path d="M117.155 138.316C117.376 139.411 117.411 140.536 117.263 141.643" stroke="#015D61" stroke-width="1.5" stroke-linecap="round" stroke-linejoin="round"/>
<path d="M127.572 148.378C128.58 147.665 129.707 147.137 130.902 146.82" stroke="#015D61" stroke-width="1.5" stroke-linecap="round" stroke-linejoin="round"/>
<path d="M75.1725 159.122C77.6665 155.015 82.8132 154.282 83.7098 154.955L130.668 183.761C132.011 184.568 133.855 189.448 131.305 193.575C130.641 194.653 129.75 195.574 128.694 196.272C127.637 196.97 126.44 197.428 125.187 197.613C123.934 197.796 122.656 197.705 121.442 197.343C120.229 196.981 119.109 196.358 118.163 195.516C117.624 197.368 116.481 198.986 114.917 200.114C113.353 201.242 111.457 201.814 109.53 201.741C107.603 201.667 105.755 200.952 104.281 199.708C102.807 198.465 101.792 196.764 101.395 194.877C100.008 195.94 98.3311 196.559 96.5855 196.653C94.8399 196.748 93.1067 196.312 91.6117 195.403C90.1185 194.494 88.9342 193.156 88.2141 191.563C87.4957 189.969 87.2751 188.195 87.5805 186.474C85.7184 186.945 83.7522 186.785 81.9907 186.019C80.2292 185.251 78.7713 183.92 77.8482 182.236C76.9252 180.551 76.588 178.607 76.8899 176.708C77.1917 174.812 78.1148 173.068 79.5144 171.752C78.323 171.3 77.2446 170.591 76.3568 169.676C75.4708 168.76 74.7948 167.661 74.38 166.455C73.967 165.25 73.8223 163.968 73.96 162.7C74.0959 161.433 74.5106 160.211 75.1725 159.122Z" stroke="#015D61" stroke-width="1.5" stroke-linecap="round" stroke-linejoin="round"/>
<path d="M103.24 184.836C103.586 183.666 104.246 182.614 105.15 181.795C106.054 180.976 107.164 180.422 108.362 180.192C109.561 179.963 110.798 180.069 111.94 180.496C113.082 180.925 114.085 181.657 114.836 182.617C115.572 183.565 116.047 184.69 116.215 185.877" stroke="#015D61" stroke-width="1.5" stroke-linecap="round" stroke-linejoin="round"/>
<path d="M88.4823 168.91C89.7761 168.464 91.1775 168.427 92.4942 168.805C93.8091 169.183 94.9775 169.958 95.8371 171.023C96.6966 172.089 97.2085 173.394 97.2985 174.76C97.3903 176.126 97.0585 177.488 96.3489 178.659C96.0454 179.167 95.6712 179.631 95.2388 180.037" stroke="#015D61" stroke-width="1.5" stroke-linecap="round" stroke-linejoin="round"/>
<path d="M79.5094 171.761C80.6937 172.199 81.9451 172.426 83.207 172.433" stroke="#015D61" stroke-width="1.5" stroke-linecap="round" stroke-linejoin="round"/>
<path d="M116.303 193.091C116.806 193.988 117.432 194.808 118.163 195.532" stroke="#015D61" stroke-width="1.5" stroke-linecap="round" stroke-linejoin="round"/>
<path d="M87.5759 186.483C88.6579 186.172 89.6816 185.687 90.6064 185.046" stroke="#015D61" stroke-width="1.5" stroke-linecap="round" stroke-linejoin="round"/>
<path d="M101.295 191.285C101.135 192.484 101.168 193.698 101.391 194.886" stroke="#015D61" stroke-width="1.5" stroke-linecap="round" stroke-linejoin="round"/>
<path d="M130.668 183.761L135.676 186.785" stroke="#015D61" stroke-width="1.5" stroke-linecap="round" stroke-linejoin="round"/>
<path d="M134.23 177.979L139.172 180.971" stroke="#015D61" stroke-width="1.5" stroke-linecap="round" stroke-linejoin="round"/>
<path d="M160.279 201.743L213.656 234.145" stroke="#015D61" stroke-width="1.5" stroke-linecap="round" stroke-linejoin="round"/>
<path d="M161.356 194.448L217.053 228.297" stroke="#015D61" stroke-width="1.5" stroke-linecap="round" stroke-linejoin="round"/>
<path d="M113.962 100.939C102.008 99.833 89.988 102.205 79.3504 107.768C68.7127 113.332 59.9072 121.85 53.9962 132.299C36.1414 162.984 45.4942 202.613 74.8708 220.802C93.2462 232.179 98.3453 226.164 134.028 236.334" stroke="#015D61" stroke-width="1.5" stroke-linecap="round" stroke-linejoin="round"/>
<path d="M205.912 267.429C189.589 258.917 175.002 251.475 159.978 245.338" stroke="#015D61" stroke-width="1.5" stroke-linecap="round" stroke-linejoin="round"/>
<path d="M204.044 176.735C215.37 185.81 227.775 194.651 242.262 205.34" stroke="#015D61" stroke-width="1.5" stroke-linecap="round" stroke-linejoin="round"/>
<path d="M155.373 123.963C162.417 134.554 170.321 144.548 179.003 153.844" stroke="#015D61" stroke-width="1.5" stroke-linecap="round" stroke-linejoin="round"/>
<path d="M125.759 83.931C120.079 87.1239 114.297 93.6791 113.256 100.333C125.996 111.493 152.582 125.073 171.774 128.769C170.195 134.283 169.254 139.56 171.674 144.771C171.088 141.835 184.652 138.132 188.044 137.375C191.355 136.636 204.12 134.338 205.858 136.77C204.413 133.678 203.068 130.047 201.589 126.282C190.866 125.98 190.01 112.448 185.658 108.602C184.287 107.391 182.128 107.797 180.246 107.494C156.731 103.669 136.683 91.494 125.726 83.8975L125.759 83.931Z" stroke="#015D61" stroke-width="1.5" stroke-linecap="round" stroke-linejoin="round"/>
<path d="M203.935 142.753C194.312 142.6 184.835 145.117 176.556 150.025" stroke="#015D61" stroke-width="1.5" stroke-linecap="round" stroke-linejoin="round"/>
<path d="M177.04 101.062C178.136 102.979 182.372 101.383 186.7 99.1206C186.084 100.915 185.175 102.596 184.01 104.094" stroke="#015D61" stroke-width="1.5" stroke-linecap="round" stroke-linejoin="round"/>
<path d="M181.493 107.619C183.835 107.044 183.208 105.904 184.01 104.098C177.691 103.164 176.597 102.001 176.856 98.8347C177.236 94.2351 179.936 84.2134 182.734 81.0735" stroke="#015D61" stroke-width="1.5" stroke-linecap="round" stroke-linejoin="round"/>
<path d="M171.775 128.769C173.725 129.14 175.606 129.408 177.355 129.577" stroke="#015D61" stroke-width="1.5" stroke-linecap="round" stroke-linejoin="round"/>
<path d="M186.094 83.6964C184.313 88.536 185.917 89.242 187.372 87.7559C190.062 85.0007 193.052 88.6384 188.145 92.6291C188.785 97.6662 190.061 102.602 191.943 107.317C196.043 115.318 208.144 126.881 222.227 129.772C234.026 132.192 243.169 127.553 232.641 115.452C225.482 107.217 214.523 103.923 213.515 103.627C230.623 107.727 234.418 98.7907 221.212 89.2403C208.066 79.7322 188.676 74.8202 182.726 81.0718C182.158 82.2226 184.366 82.6286 186.094 83.6964Z" stroke="#015D61" stroke-width="1.5" stroke-linecap="round" stroke-linejoin="round"/>
<path d="M201.589 126.282C199.814 121.479 197.526 116.881 194.765 112.568C193.674 110.935 192.74 109.203 191.977 107.393" stroke="#015D61" stroke-width="1.5" stroke-linecap="round" stroke-linejoin="round"/>
<path d="M178.951 153.791C176.62 150.359 174.521 146.775 172.666 143.064" stroke="#015D61" stroke-width="1.5" stroke-linecap="round" stroke-linejoin="round"/>
<path d="M105.928 82.2843C100.853 81.0735 96.6756 83.3609 97.0215 85.3095C97.0992 85.7001 97.2598 86.0696 97.491 86.3939C97.724 86.7183 98.0205 86.9899 98.3647 87.191" stroke="#015D61" stroke-width="1.5" stroke-linecap="round" stroke-linejoin="round"/>
<path d="M106.399 79.1921C101.055 77.9143 95.7441 80.6041 98.0298 83.4281" stroke="#015D61" stroke-width="1.5" stroke-linecap="round" stroke-linejoin="round"/>
<path d="M113.828 97.9134C110.665 94.3035 106.608 91.5907 102.063 90.0486" stroke="#015D61" stroke-width="1.5" stroke-linecap="round" stroke-linejoin="round"/>
<path d="M106.131 85.9132C101.189 84.9054 97.9342 86.854 98.1301 88.7708C98.3719 91.1235 103.072 94.687 107.038 92.4014" stroke="#015D61" stroke-width="1.5" stroke-linecap="round" stroke-linejoin="round"/>
<path d="M110.298 77.4094C110.231 77.3423 108.18 74.4865 109.088 73.5775C109.861 72.8045 121.021 81.9807 124.146 84.9053" stroke="#015D61" stroke-width="1.5" stroke-linecap="round" stroke-linejoin="round"/>
<path d="M103.879 78.8548C95.0042 74.587 92.6215 69.4385 94.2983 70.3828C99.8933 73.1838 105.64 75.675 111.509 77.8452C116.052 79.5737 120.32 81.9516 124.18 84.9052" stroke="#015D61" stroke-width="1.5" stroke-linecap="round" stroke-linejoin="round"/>
<path d="M137.592 252.531C138.384 260.496 138.474 268.517 137.86 276.498C137.004 284.227 136.584 291.05 137.726 291.792C141.863 294.476 147.283 275.67 153.591 269.27C155.123 267.795 156.355 266.039 157.22 264.095C158.669 260.627 156.913 257.8 157.054 252.201" stroke="#015D61" stroke-width="1.5" stroke-linecap="round" stroke-linejoin="round"/>
<path d="M215.237 231.323C205.309 248.524 201.284 264.806 206.297 267.682C211.267 270.544 223.372 258.943 233.287 241.736C243.203 224.529 247.233 208.27 242.229 205.374C237.225 202.477 225.174 214.105 215.237 231.323Z" stroke="#015D61" stroke-width="1.5" stroke-linecap="round" stroke-linejoin="round"/>
<path d="M266.254 295.164C268.767 279.521 283.876 253.495 296.142 244.096C302.479 239.187 307.017 240.056 306.498 248.288C305.513 263.908 288.119 294.044 275.135 302.886C267.927 307.793 264.828 304.044 266.254 295.164Z" stroke="#015D61" stroke-width="1.5" stroke-linecap="round" stroke-linejoin="round"/>
<path d="M267.769 304.462L257.79 298.689C256.829 297.935 256.175 296.857 255.952 295.657C255.729 294.457 255.952 293.216 256.579 292.167C252.608 298.149 244.816 291.973 247.941 286.789C245.041 291.731 235.923 288.54 239.672 281.043C238.823 282.144 237.612 282.908 236.253 283.203C234.894 283.499 233.475 283.305 232.245 282.656C228.186 280.065 229.691 275.026 232.21 266.824C236.921 252.737 244.395 239.731 254.193 228.567C256.548 225.763 259.244 223.262 262.218 221.126C266.922 218.209 272.214 220.395 270.394 228.333C271.891 225.839 273.647 224.208 276.614 225.004C277.363 225.212 278.053 225.592 278.631 226.111C279.21 226.631 279.66 227.277 279.946 228.001C280.232 228.723 280.347 229.503 280.282 230.278C280.217 231.053 279.973 231.801 279.57 232.466C279.57 232.466 283.052 228.064 286.999 231.19C287.979 231.954 288.639 233.056 288.851 234.279C289.062 235.504 288.81 236.762 288.143 237.811C288.46 237.249 288.886 236.759 289.395 236.363C289.904 235.968 290.486 235.679 291.108 235.509C291.73 235.34 292.379 235.297 293.018 235.38C293.657 235.463 294.273 235.673 294.83 235.996L304.224 241.401" stroke="#015D61" stroke-width="1.5" stroke-linecap="round" stroke-linejoin="round"/>
<path d="M23.847 251.121C27.993 253.41 31.9678 255.994 35.7449 258.851C46.8397 267.42 57.6609 278.178 56.2189 280.061C54.7769 281.945 41.6612 274.217 30.5399 265.641C26.8122 262.711 23.3069 259.51 20.0523 256.061" stroke="#015D61" stroke-width="1.5" stroke-linecap="round" stroke-linejoin="round"/>
<path d="M23.8467 251.121C21.4269 242.751 13.359 245.305 8.92183 240.262C8.11522 247.961 12.3512 255.692 20.0149 256.061L23.8467 251.121Z" stroke="#015D61" stroke-width="1.5" stroke-linecap="round" stroke-linejoin="round"/>
<path d="M34.3506 257.798L29.158 264.531" stroke="#015D61" stroke-width="1.5" stroke-linecap="round" stroke-linejoin="round"/>
<path d="M15.9469 90.1155L20.3506 99.9801H12.2845L16.7217 109.846" stroke="#015D61" stroke-width="1.5" stroke-linecap="round" stroke-linejoin="round"/>
<path d="M172.684 333.774L190.565 334.31" stroke="#015D61" stroke-width="1.5" stroke-linecap="round" stroke-linejoin="round"/>
<path d="M181.355 342.984L181.894 325.101" stroke="#015D61" stroke-width="1.5" stroke-linecap="round" stroke-linejoin="round"/>
<path d="M201.086 135.695C201.388 137.255 201.862 138.777 202.498 140.233C207.976 137.509 206.699 135.728 201.086 135.695Z" stroke="#015D61" stroke-width="1.5" stroke-linecap="round" stroke-linejoin="round"/>
<path d="M171.674 144.771C171.836 145.379 172.7 145.777 174.159 145.974" stroke="#015D61" stroke-width="1.5" stroke-linecap="round" stroke-linejoin="round"/>
<path d="M201.087 135.695C201.637 139.513 203.576 142.995 206.532 145.475C219.741 155.962 219.946 170.651 210.296 181.643" stroke="#015D61" stroke-width="1.5" stroke-linecap="round" stroke-linejoin="round"/>
<path d="M304.812 241.768L319.705 250.212" stroke="#015D61" stroke-width="1.5" stroke-linecap="round" stroke-linejoin="round"/>
<path d="M268.452 304.831L281.822 312.631" stroke="#015D61" stroke-width="1.5" stroke-linecap="round" stroke-linejoin="round"/>
<path d="M288.278 316.698L298.193 322.48" stroke="#015D61" stroke-width="1.5" stroke-linecap="round" stroke-linejoin="round"/>
<path d="M326.629 254.548L336.746 260.297" stroke="#015D61" stroke-width="1.5" stroke-linecap="round" stroke-linejoin="round"/>
<path d="M295.235 278.245L327.807 297.505" stroke="#015D61" stroke-width="1.5" stroke-linecap="round" stroke-linejoin="round"/>
<path d="M334.293 301.573L344.175 307.32" stroke="#015D61" stroke-width="1.5" stroke-linecap="round" stroke-linejoin="round"/>
<path d="M281.117 157.039C284.53 160.32 288.84 162.516 293.502 163.347C298.163 164.179 302.967 163.61 307.305 161.712C311.642 159.813 315.32 156.671 317.872 152.683C320.424 148.694 321.736 144.039 321.643 139.305C321.549 134.571 320.053 129.971 317.345 126.087C314.637 122.203 310.838 119.209 306.428 117.484C302.019 115.759 297.196 115.38 292.572 116.396C287.947 117.412 283.727 119.776 280.446 123.19C278.265 125.455 276.553 128.129 275.406 131.056C274.26 133.984 273.702 137.11 273.764 140.254C273.826 143.397 274.508 146.498 275.769 149.378C277.031 152.258 278.848 154.862 281.117 157.039Z" stroke="#015D61" stroke-width="1.5" stroke-linecap="round" stroke-linejoin="round"/>
<path d="M273.79 141.2C266.361 144.73 261.965 148.084 262.597 150.202C263.728 154.026 280.446 152.554 299.974 146.906C319.502 141.258 334.432 133.575 333.318 129.745C332.683 127.558 327.033 127.089 318.669 128.132" stroke="#015D61" stroke-width="1.5" stroke-linecap="round" stroke-linejoin="round"/>
<path d="M208.976 166.18C208.001 172.297 204.563 177.907 199.933 179.357C185.476 183.879 160.44 194.852 160.44 194.852C160.127 212.164 158.56 231.211 160.237 251.121C152.22 254.495 143.222 254.698 135.061 251.691C133.649 232.902 132.743 214.885 133.079 198.246C133.155 194.106 134.113 190.03 135.892 186.29C137.673 182.552 140.231 179.236 143.397 176.567C156.46 165.768 171.025 156.925 186.632 150.316" stroke="#015D61" stroke-width="1.5" stroke-linecap="round" stroke-linejoin="round"/>
<path d="M160.449 194.853L156.584 196.298L160.112 206.415" stroke="#015D61" stroke-width="1.5" stroke-linecap="round" stroke-linejoin="round"/>
<path d="M159.54 237.843C151.368 240.647 142.57 241.078 134.163 239.087" stroke="#015D61" stroke-width="1.5" stroke-linecap="round" stroke-linejoin="round"/>
<path d="M166.936 10.0164V15.6308" stroke="#015D61" stroke-width="1.5" stroke-linecap="round" stroke-linejoin="round"/>
<path d="M156.012 20.9399H161.626" stroke="#015D61" stroke-width="1.5" stroke-linecap="round" stroke-linejoin="round"/>
<path d="M166.936 31.8652V26.2507" stroke="#015D61" stroke-width="1.5" stroke-linecap="round" stroke-linejoin="round"/>
<path d="M177.858 20.9399H172.242" stroke="#015D61" stroke-width="1.5" stroke-linecap="round" stroke-linejoin="round"/>
<path d="M161.626 20.94C162.323 20.9419 163.015 20.8058 163.659 20.5397C164.305 20.2735 164.891 19.8826 165.383 19.3891C165.878 18.8958 166.268 18.3098 166.534 17.6648C166.801 17.0198 166.937 16.3286 166.935 15.6309C166.933 16.3284 167.069 17.0195 167.335 17.6643C167.6 18.3092 167.992 18.8952 168.485 19.3885C168.979 19.8819 169.565 20.2728 170.209 20.5391C170.853 20.8053 171.545 20.9416 172.242 20.94C171.545 20.9384 170.853 21.0746 170.209 21.341C169.563 21.6073 168.977 21.9986 168.485 22.4921C167.992 22.9856 167.6 23.5718 167.334 24.2169C167.069 24.8618 166.933 25.5532 166.935 26.2509C166.937 25.553 166.801 24.8616 166.534 24.2163C166.269 23.5712 165.878 22.9851 165.385 22.4914C164.891 21.9979 164.305 21.6068 163.661 21.3405C163.015 21.0743 162.323 20.938 161.626 20.94Z" stroke="#015D61" stroke-width="1.5" stroke-linecap="round" stroke-linejoin="round"/>
</svg>
