<svg width="1923" height="770" viewBox="0 0 1923 770" fill="none" xmlns="http://www.w3.org/2000/svg">
<g opacity="0.3">
<path d="M1794.23 655.28C1802.67 640.836 1813.87 628.534 1819.16 630.571C1826.31 633.33 1816.6 655.453 1811.03 665.116C1801.67 681.33 1790.35 692.328 1785.64 689.79C1778.78 685.968 1789.98 662.552 1794.23 655.28Z" fill="#F6B642"/>
<path d="M1736.21 621.251C1745.51 605.162 1756.79 594.29 1761.45 596.996C1766.13 599.697 1762.36 614.906 1753.09 630.994C1743.82 647.081 1732.5 657.924 1727.85 655.249C1723.17 652.548 1726.94 637.338 1736.21 621.251Z" fill="#F6B642"/>
<path d="M1640.88 498.796C1641.76 493.077 1646.6 487.17 1651.12 484.311C1651.59 483.997 1652.06 483.713 1652.53 483.431C1662.78 490.526 1681.51 502.002 1703.5 505.49C1705.2 505.772 1707.27 505.363 1708.56 506.526C1712.61 510.14 1713.43 522.772 1723.45 523.054C1724.84 526.575 1726.09 529.968 1727.45 532.859C1725.81 530.563 1713.83 532.74 1710.79 533.424C1707.81 534.084 1694.94 537.591 1695.49 540.338C1693.23 535.466 1694.11 530.534 1695.58 525.379C1677.64 521.924 1652.79 509.229 1640.88 498.796Z" fill="#F6B642"/>
<path d="M1727.82 655.249C1730.68 656.915 1736.02 653.458 1741.87 646.858C1741.77 649.135 1741.12 651.356 1739.98 653.333C1736.02 660.748 1736.21 679.037 1731.81 677.753C1730.59 677.375 1729.14 671.153 1727.85 664.022C1727.19 660.577 1726.31 657.176 1725.21 653.84C1725.76 654.118 1727.28 654.884 1727.82 655.249Z" fill="#015D61"/>
<path d="M1709.54 497.666C1708.96 499.343 1708.11 500.914 1707.02 502.315C1704.26 501.908 1701.19 501.069 1700.61 499.802C1700.51 499.589 1700.43 499.368 1700.36 499.142C1701.08 501.436 1705.26 499.896 1709.54 497.666Z" fill="#015D61"/>
<path d="M1705.83 480.791C1711.39 474.947 1729.52 479.534 1741.81 488.427C1754.16 497.35 1750.6 505.709 1734.61 501.876C1735.55 502.159 1745.8 505.237 1752.49 512.931C1762.33 524.244 1753.78 528.58 1742.76 526.318C1729.59 523.615 1718.28 512.806 1714.44 505.327C1712.68 500.92 1711.49 496.308 1710.89 491.6C1715.48 487.861 1712.68 484.467 1710.17 487.045C1708.82 488.427 1707.31 487.767 1708.97 483.25C1707.3 482.208 1705.28 481.875 1705.83 480.791Z" fill="#015D61"/>
<path d="M1663.88 663.482C1664.46 656.021 1664.37 648.524 1663.63 641.077C1669.59 642.76 1675.91 642.663 1681.82 640.795C1681.7 646.012 1683.33 648.651 1681.98 651.888C1681.17 653.703 1680.01 655.345 1678.58 656.726C1672.68 662.697 1667.62 680.293 1663.75 677.78C1662.68 677.085 1663.09 670.709 1663.88 663.482Z" fill="#015D61"/>
<path d="M1722.98 531.854C1723.27 533.312 1723.71 534.735 1724.3 536.096C1729.43 533.55 1728.23 531.885 1722.98 531.854Z" fill="#015D61"/>
<path d="M1695.46 540.3C1695.58 540.897 1696.43 541.275 1697.85 541.455C1697.31 540.481 1696.84 539.6 1696.43 538.721C1695.71 539.331 1695.37 539.866 1695.46 540.3Z" fill="#015D61"/>
<path d="M1681.38 588.508L1684.68 597.966C1684.81 594.29 1684.93 590.676 1685 587.125L1681.38 588.508Z" fill="#015D61"/>
<path d="M1725.22 653.835C1726.3 657.171 1727.18 660.572 1727.86 664.017C1729.13 671.151 1730.59 677.382 1731.82 677.748C1736.21 679.068 1736.04 660.753 1739.99 653.328C1741.12 651.353 1741.77 649.132 1741.87 646.854" stroke="#015D61" stroke-width="1.5" stroke-linecap="round" stroke-linejoin="round"/>
<path d="M1616.46 535.593C1617.09 534.578 1617.93 533.713 1618.93 533.06C1619.93 532.407 1621.06 531.982 1622.24 531.814C1623.42 531.646 1624.62 531.74 1625.76 532.088C1626.9 532.437 1627.95 533.032 1628.84 533.832C1629.19 532.638 1629.81 531.542 1630.65 530.627C1631.49 529.712 1632.54 529.003 1633.7 528.557C1634.86 528.11 1636.11 527.936 1637.35 528.05C1638.59 528.164 1639.78 528.561 1640.84 529.212C1641.76 529.777 1642.56 530.517 1643.19 531.391C1643.82 532.264 1644.27 533.254 1644.52 534.302C1645.82 533.319 1647.39 532.752 1649.02 532.677C1650.66 532.601 1652.27 533.021 1653.66 533.88C1655.05 534.74 1656.15 535.999 1656.81 537.493C1657.47 538.987 1657.67 540.646 1657.37 542.252C1658.43 541.974 1659.54 541.912 1660.62 542.069C1661.71 542.225 1662.75 542.598 1663.69 543.164C1664.74 543.815 1665.64 544.699 1666.3 545.751C1666.97 546.802 1667.38 547.991 1667.51 549.226C1667.64 550.462 1667.48 551.711 1667.05 552.878C1666.63 554.044 1665.94 555.096 1665.04 555.954C1666.14 556.388 1667.13 557.058 1667.95 557.916C1668.76 558.775 1669.38 559.801 1669.76 560.924C1670.14 562.046 1670.26 563.237 1670.13 564.414C1670 565.591 1669.61 566.725 1669 567.736C1668.14 569.158 1666.85 570.274 1665.33 570.927C1663.8 571.581 1662.1 571.739 1660.48 571.381L1616.62 544.486C1615.51 543.821 1614.17 539.294 1616.46 535.593Z" stroke="#015D61" stroke-width="1.5" stroke-linecap="round" stroke-linejoin="round"/>
<path d="M1649.74 548.066C1648.7 549.043 1648.03 550.347 1647.84 551.759C1647.66 553.171 1647.96 554.604 1648.71 555.817C1649.45 557.031 1650.59 557.951 1651.94 558.422C1653.28 558.894 1654.75 558.888 1656.08 558.405" stroke="#015D61" stroke-width="1.5" stroke-linecap="round" stroke-linejoin="round"/>
<path d="M1630.19 542.538C1630.37 543.809 1630.93 544.995 1631.8 545.934C1632.68 546.873 1633.82 547.519 1635.08 547.784C1636.33 548.049 1637.64 547.919 1638.82 547.413C1640 546.907 1640.99 546.049 1641.66 544.956C1641.95 544.485 1642.17 543.978 1642.32 543.448" stroke="#015D61" stroke-width="1.5" stroke-linecap="round" stroke-linejoin="round"/>
<path d="M1628.84 533.832C1629.69 534.629 1630.39 535.565 1630.92 536.599" stroke="#015D61" stroke-width="1.5" stroke-linecap="round" stroke-linejoin="round"/>
<path d="M1662.17 555.424C1663.15 555.473 1664.11 555.652 1665.04 555.955" stroke="#015D61" stroke-width="1.5" stroke-linecap="round" stroke-linejoin="round"/>
<path d="M1644.52 534.304C1644.73 535.328 1644.76 536.379 1644.62 537.414" stroke="#015D61" stroke-width="1.5" stroke-linecap="round" stroke-linejoin="round"/>
<path d="M1654.26 543.71C1655.2 543.043 1656.26 542.55 1657.37 542.253" stroke="#015D61" stroke-width="1.5" stroke-linecap="round" stroke-linejoin="round"/>
<path d="M1605.28 553.754C1607.61 549.915 1612.42 549.23 1613.26 549.859L1657.15 576.788C1658.41 577.542 1660.13 582.105 1657.75 585.962C1657.13 586.97 1656.3 587.832 1655.31 588.483C1654.32 589.137 1653.2 589.564 1652.03 589.737C1650.86 589.909 1649.67 589.823 1648.53 589.485C1647.4 589.147 1646.35 588.564 1645.46 587.777C1644.96 589.508 1643.89 591.021 1642.43 592.075C1640.97 593.13 1639.2 593.664 1637.39 593.597C1635.59 593.527 1633.86 592.859 1632.49 591.696C1631.11 590.534 1630.16 588.944 1629.79 587.18C1628.49 588.173 1626.92 588.752 1625.29 588.84C1623.66 588.929 1622.04 588.521 1620.64 587.672C1619.25 586.822 1618.14 585.571 1617.47 584.081C1616.8 582.591 1616.59 580.933 1616.87 579.324C1615.13 579.765 1613.3 579.615 1611.65 578.899C1610 578.181 1608.64 576.937 1607.78 575.363C1606.91 573.787 1606.6 571.97 1606.88 570.195C1607.16 568.422 1608.03 566.792 1609.33 565.562C1608.22 565.139 1607.21 564.476 1606.38 563.621C1605.55 562.765 1604.92 561.737 1604.53 560.61C1604.15 559.483 1604.01 558.284 1604.14 557.1C1604.27 555.915 1604.66 554.773 1605.28 553.754Z" stroke="#015D61" stroke-width="1.5" stroke-linecap="round" stroke-linejoin="round"/>
<path d="M1631.51 577.793C1631.84 576.699 1632.45 575.716 1633.3 574.95C1634.14 574.185 1635.18 573.666 1636.3 573.452C1637.42 573.237 1638.58 573.336 1639.65 573.736C1640.71 574.137 1641.65 574.821 1642.35 575.719C1643.04 576.605 1643.49 577.656 1643.64 578.767" stroke="#015D61" stroke-width="1.5" stroke-linecap="round" stroke-linejoin="round"/>
<path d="M1617.72 562.905C1618.93 562.487 1620.24 562.453 1621.47 562.807C1622.7 563.16 1623.79 563.884 1624.59 564.88C1625.4 565.877 1625.88 567.096 1625.96 568.373C1626.05 569.651 1625.74 570.924 1625.07 572.018C1624.79 572.493 1624.44 572.927 1624.03 573.307" stroke="#015D61" stroke-width="1.5" stroke-linecap="round" stroke-linejoin="round"/>
<path d="M1609.33 565.57C1610.44 565.979 1611.61 566.192 1612.79 566.198" stroke="#015D61" stroke-width="1.5" stroke-linecap="round" stroke-linejoin="round"/>
<path d="M1643.72 585.51C1644.2 586.348 1644.78 587.116 1645.46 587.792" stroke="#015D61" stroke-width="1.5" stroke-linecap="round" stroke-linejoin="round"/>
<path d="M1616.87 579.332C1617.88 579.042 1618.84 578.588 1619.7 577.989" stroke="#015D61" stroke-width="1.5" stroke-linecap="round" stroke-linejoin="round"/>
<path d="M1629.7 583.822C1629.54 584.943 1629.58 586.078 1629.78 587.188" stroke="#015D61" stroke-width="1.5" stroke-linecap="round" stroke-linejoin="round"/>
<path d="M1657.15 576.788L1661.84 579.615" stroke="#015D61" stroke-width="1.5" stroke-linecap="round" stroke-linejoin="round"/>
<path d="M1660.48 571.383L1665.1 574.18" stroke="#015D61" stroke-width="1.5" stroke-linecap="round" stroke-linejoin="round"/>
<path d="M1684.84 593.598L1734.74 623.889" stroke="#015D61" stroke-width="1.5" stroke-linecap="round" stroke-linejoin="round"/>
<path d="M1685.84 586.779L1737.91 618.423" stroke="#015D61" stroke-width="1.5" stroke-linecap="round" stroke-linejoin="round"/>
<path d="M1641.54 499.362C1630.36 498.328 1619.13 500.545 1609.18 505.746C1599.24 510.947 1591 518.911 1585.48 528.679C1568.79 557.364 1577.53 594.412 1604.99 611.415C1622.17 622.051 1626.94 616.428 1660.3 625.935" stroke="#015D61" stroke-width="1.5" stroke-linecap="round" stroke-linejoin="round"/>
<path d="M1727.5 655.005C1712.24 647.047 1698.6 640.091 1684.55 634.354" stroke="#015D61" stroke-width="1.5" stroke-linecap="round" stroke-linejoin="round"/>
<path d="M1725.75 570.219C1736.34 578.704 1747.93 586.968 1761.48 596.961" stroke="#015D61" stroke-width="1.5" stroke-linecap="round" stroke-linejoin="round"/>
<path d="M1680.25 520.886C1686.83 530.787 1694.22 540.13 1702.34 548.821" stroke="#015D61" stroke-width="1.5" stroke-linecap="round" stroke-linejoin="round"/>
<path d="M1652.57 483.463C1647.26 486.447 1641.85 492.575 1640.88 498.796C1652.79 509.229 1677.64 521.924 1695.58 525.379C1694.11 530.534 1693.23 535.467 1695.49 540.338C1694.94 537.594 1707.62 534.132 1710.79 533.424C1713.89 532.733 1725.82 530.585 1727.45 532.859C1726.09 529.968 1724.84 526.574 1723.45 523.054C1713.43 522.772 1712.63 510.122 1708.56 506.526C1707.28 505.394 1705.26 505.774 1703.5 505.49C1681.52 501.914 1662.78 490.533 1652.53 483.431L1652.57 483.463Z" stroke="#015D61" stroke-width="1.5" stroke-linecap="round" stroke-linejoin="round"/>
<path d="M1725.65 538.452C1716.65 538.309 1707.79 540.662 1700.05 545.25" stroke="#015D61" stroke-width="1.5" stroke-linecap="round" stroke-linejoin="round"/>
<path d="M1700.5 499.478C1701.53 501.269 1705.49 499.778 1709.54 497.663C1708.96 499.34 1708.11 500.911 1707.02 502.312" stroke="#015D61" stroke-width="1.5" stroke-linecap="round" stroke-linejoin="round"/>
<path d="M1704.67 505.607C1706.86 505.069 1706.27 504.003 1707.02 502.315C1701.11 501.442 1700.09 500.355 1700.33 497.395C1700.69 493.095 1703.21 483.726 1705.83 480.791" stroke="#015D61" stroke-width="1.5" stroke-linecap="round" stroke-linejoin="round"/>
<path d="M1695.58 525.379C1697.41 525.725 1699.16 525.976 1700.8 526.135" stroke="#015D61" stroke-width="1.5" stroke-linecap="round" stroke-linejoin="round"/>
<path d="M1708.97 483.243C1707.3 487.767 1708.8 488.427 1710.16 487.038C1712.68 484.463 1715.47 487.863 1710.89 491.594C1711.48 496.303 1712.68 500.917 1714.44 505.325C1718.27 512.805 1729.58 523.614 1742.75 526.316C1753.78 528.579 1762.33 524.242 1752.48 512.93C1745.79 505.231 1735.55 502.152 1734.6 501.875C1750.6 505.708 1754.14 497.354 1741.8 488.426C1729.51 479.537 1711.38 474.945 1705.82 480.79C1705.29 481.865 1707.35 482.245 1708.97 483.243Z" stroke="#015D61" stroke-width="1.5" stroke-linecap="round" stroke-linejoin="round"/>
<path d="M1723.46 523.054C1721.8 518.564 1719.66 514.266 1717.08 510.234C1716.06 508.707 1715.18 507.088 1714.47 505.396" stroke="#015D61" stroke-width="1.5" stroke-linecap="round" stroke-linejoin="round"/>
<path d="M1702.29 548.771C1700.11 545.562 1698.15 542.212 1696.42 538.742" stroke="#015D61" stroke-width="1.5" stroke-linecap="round" stroke-linejoin="round"/>
<path d="M1634.03 481.923C1629.28 480.791 1625.38 482.93 1625.7 484.751C1625.77 485.116 1625.92 485.462 1626.14 485.765C1626.36 486.068 1626.63 486.322 1626.96 486.51" stroke="#015D61" stroke-width="1.5" stroke-linecap="round" stroke-linejoin="round"/>
<path d="M1634.47 479.032C1629.47 477.838 1624.51 480.352 1626.64 482.992" stroke="#015D61" stroke-width="1.5" stroke-linecap="round" stroke-linejoin="round"/>
<path d="M1641.41 496.534C1638.46 493.159 1634.66 490.623 1630.41 489.181" stroke="#015D61" stroke-width="1.5" stroke-linecap="round" stroke-linejoin="round"/>
<path d="M1634.22 485.315C1629.6 484.373 1626.55 486.195 1626.74 487.987C1626.96 490.186 1631.36 493.518 1635.06 491.381" stroke="#015D61" stroke-width="1.5" stroke-linecap="round" stroke-linejoin="round"/>
<path d="M1638.11 477.366C1638.05 477.303 1636.13 474.634 1636.98 473.784C1637.7 473.061 1648.14 481.639 1651.06 484.373" stroke="#015D61" stroke-width="1.5" stroke-linecap="round" stroke-linejoin="round"/>
<path d="M1632.11 478.717C1623.81 474.728 1621.59 469.915 1623.15 470.797C1628.38 473.416 1633.76 475.745 1639.24 477.773C1643.49 479.389 1647.48 481.612 1651.09 484.373" stroke="#015D61" stroke-width="1.5" stroke-linecap="round" stroke-linejoin="round"/>
<path d="M1663.63 641.077C1664.37 648.524 1664.45 656.021 1663.88 663.482C1663.08 670.708 1662.68 677.087 1663.75 677.78C1667.62 680.289 1672.69 662.709 1678.58 656.726C1680.02 655.346 1681.17 653.705 1681.98 651.888C1683.33 648.646 1681.69 646.002 1681.82 640.769" stroke="#015D61" stroke-width="1.5" stroke-linecap="round" stroke-linejoin="round"/>
<path d="M1736.21 621.251C1726.93 637.331 1723.17 652.553 1727.86 655.241C1732.5 657.917 1743.82 647.071 1753.09 630.986C1762.36 614.9 1766.12 599.7 1761.45 596.992C1756.77 594.285 1745.5 605.155 1736.21 621.251Z" stroke="#015D61" stroke-width="1.5" stroke-linecap="round" stroke-linejoin="round"/>
<path d="M1783.91 680.933C1786.26 666.309 1800.38 641.978 1811.85 633.192C1817.77 628.603 1822.01 629.415 1821.53 637.111C1820.61 651.713 1804.35 679.885 1792.21 688.152C1785.47 692.739 1782.57 689.234 1783.91 680.933Z" stroke="#015D61" stroke-width="1.5" stroke-linecap="round" stroke-linejoin="round"/>
<path d="M1785.32 689.625L1775.99 684.228C1775.1 683.523 1774.48 682.515 1774.28 681.393C1774.07 680.271 1774.28 679.111 1774.86 678.131C1771.15 683.723 1763.86 677.949 1766.79 673.103C1764.08 677.723 1755.55 674.74 1759.06 667.731C1758.26 668.761 1757.13 669.475 1755.86 669.751C1754.59 670.028 1753.26 669.846 1752.11 669.239C1748.32 666.817 1749.73 662.106 1752.08 654.439C1756.48 641.27 1763.47 629.111 1772.63 618.675C1774.83 616.053 1777.35 613.715 1780.13 611.718C1784.53 608.991 1789.48 611.035 1787.78 618.455C1789.18 616.124 1790.82 614.599 1793.59 615.344C1794.29 615.538 1794.94 615.893 1795.48 616.378C1796.02 616.865 1796.44 617.469 1796.71 618.145C1796.97 618.82 1797.08 619.549 1797.02 620.274C1796.96 620.998 1796.73 621.698 1796.36 622.32C1796.36 622.32 1799.61 618.205 1803.3 621.127C1804.22 621.841 1804.83 622.871 1805.03 624.014C1805.23 625.159 1804.99 626.336 1804.37 627.316C1804.67 626.791 1805.06 626.333 1805.54 625.963C1806.02 625.593 1806.56 625.323 1807.14 625.164C1807.72 625.006 1808.33 624.966 1808.93 625.044C1809.52 625.121 1810.1 625.318 1810.62 625.62L1819.4 630.672" stroke="#015D61" stroke-width="1.5" stroke-linecap="round" stroke-linejoin="round"/>
<path d="M1696.43 717.026L1713.15 717.528" stroke="#015D61" stroke-width="1.5" stroke-linecap="round" stroke-linejoin="round"/>
<path d="M1704.54 725.636L1705.04 708.918" stroke="#015D61" stroke-width="1.5" stroke-linecap="round" stroke-linejoin="round"/>
<path d="M1722.98 531.854C1723.27 533.312 1723.71 534.735 1724.3 536.096C1729.43 533.55 1728.23 531.885 1722.98 531.854Z" stroke="#015D61" stroke-width="1.5" stroke-linecap="round" stroke-linejoin="round"/>
<path d="M1695.49 540.338C1695.64 540.907 1696.45 541.278 1697.81 541.463" stroke="#015D61" stroke-width="1.5" stroke-linecap="round" stroke-linejoin="round"/>
<path d="M1722.98 531.854C1723.5 535.423 1725.31 538.678 1728.07 540.996C1740.42 550.8 1740.61 564.532 1731.59 574.808" stroke="#015D61" stroke-width="1.5" stroke-linecap="round" stroke-linejoin="round"/>
<path d="M1819.95 631.015L1833.87 638.909" stroke="#015D61" stroke-width="1.5" stroke-linecap="round" stroke-linejoin="round"/>
<path d="M1785.96 689.97L1798.46 697.261" stroke="#015D61" stroke-width="1.5" stroke-linecap="round" stroke-linejoin="round"/>
<path d="M1804.49 701.063L1813.76 706.468" stroke="#015D61" stroke-width="1.5" stroke-linecap="round" stroke-linejoin="round"/>
<path d="M1840.35 642.963L1849.81 648.337" stroke="#015D61" stroke-width="1.5" stroke-linecap="round" stroke-linejoin="round"/>
<path d="M1811 665.116L1841.45 683.121" stroke="#015D61" stroke-width="1.5" stroke-linecap="round" stroke-linejoin="round"/>
<path d="M1847.51 686.924L1856.75 692.296" stroke="#015D61" stroke-width="1.5" stroke-linecap="round" stroke-linejoin="round"/>
<path d="M1797.8 551.807C1800.99 554.874 1805.02 556.927 1809.38 557.704C1813.74 558.482 1818.23 557.95 1822.28 556.175C1826.34 554.4 1829.78 551.463 1832.16 547.735C1834.55 544.006 1835.77 539.654 1835.69 535.228C1835.6 530.803 1834.2 526.502 1831.67 522.871C1829.14 519.24 1825.59 516.441 1821.46 514.829C1817.34 513.216 1812.83 512.863 1808.51 513.812C1804.19 514.762 1800.24 516.972 1797.17 520.163C1795.13 522.281 1793.53 524.78 1792.46 527.517C1791.39 530.255 1790.87 533.176 1790.93 536.115C1790.98 539.054 1791.62 541.953 1792.8 544.645C1793.98 547.338 1795.68 549.772 1797.8 551.807Z" stroke="#015D61" stroke-width="1.5" stroke-linecap="round" stroke-linejoin="round"/>
<path d="M1790.95 537C1784.01 540.3 1779.9 543.435 1780.49 545.415C1781.54 548.991 1797.17 547.614 1815.43 542.334C1833.68 537.054 1847.64 529.872 1846.6 526.291C1846.01 524.247 1840.72 523.808 1832.91 524.783" stroke="#015D61" stroke-width="1.5" stroke-linecap="round" stroke-linejoin="round"/>
<path d="M1730.36 560.353C1729.45 566.072 1726.24 571.315 1721.91 572.672C1708.39 576.899 1684.99 587.157 1684.99 587.157C1684.69 603.34 1683.23 621.147 1684.8 639.759C1677.3 642.914 1668.89 643.103 1661.26 640.292C1659.94 622.728 1659.1 605.884 1659.41 590.33C1659.48 586.459 1660.38 582.649 1662.04 579.153C1663.7 575.658 1666.09 572.558 1669.05 570.063C1681.27 559.967 1694.88 551.701 1709.47 545.522" stroke="#015D61" stroke-width="1.5" stroke-linecap="round" stroke-linejoin="round"/>
<path d="M1685 587.157L1681.38 588.508L1684.68 597.966" stroke="#015D61" stroke-width="1.5" stroke-linecap="round" stroke-linejoin="round"/>
<path d="M1684.15 627.346C1676.51 629.968 1668.28 630.37 1660.42 628.509" stroke="#015D61" stroke-width="1.5" stroke-linecap="round" stroke-linejoin="round"/>
<path d="M1691.06 414.364V419.612" stroke="#015D61" stroke-width="1.5" stroke-linecap="round" stroke-linejoin="round"/>
<path d="M1680.85 424.576H1686.1" stroke="#015D61" stroke-width="1.5" stroke-linecap="round" stroke-linejoin="round"/>
<path d="M1691.06 434.789V429.541" stroke="#015D61" stroke-width="1.5" stroke-linecap="round" stroke-linejoin="round"/>
<path d="M1701.27 424.576H1696.02" stroke="#015D61" stroke-width="1.5" stroke-linecap="round" stroke-linejoin="round"/>
<path d="M1686.1 424.576C1686.75 424.577 1687.39 424.45 1688 424.201C1688.6 423.952 1689.15 423.587 1689.61 423.126C1690.07 422.664 1690.44 422.117 1690.68 421.514C1690.93 420.911 1691.06 420.265 1691.06 419.612C1691.06 420.264 1691.18 420.91 1691.43 421.513C1691.68 422.116 1692.05 422.664 1692.51 423.125C1692.97 423.586 1693.52 423.952 1694.12 424.201C1694.72 424.45 1695.37 424.577 1696.02 424.576C1695.37 424.574 1694.72 424.701 1694.12 424.95C1693.52 425.199 1692.97 425.565 1692.51 426.027C1692.05 426.488 1691.68 427.036 1691.43 427.639C1691.18 428.242 1691.06 428.888 1691.06 429.54C1691.06 428.888 1690.93 428.242 1690.68 427.638C1690.44 427.035 1690.07 426.487 1689.61 426.026C1689.15 425.565 1688.6 425.199 1688 424.95C1687.39 424.701 1686.75 424.574 1686.1 424.576Z" stroke="#015D61" stroke-width="1.5" stroke-linecap="round" stroke-linejoin="round"/>
</g>
</svg>
