<svg width="40" height="40" viewBox="0 0 40 40" fill="none" xmlns="http://www.w3.org/2000/svg">
<path d="M20.0002 2.14307C8.25486 2.14307 1.54041 10.8378 2.25437 19.4216L2.91391 26.7786" stroke="#0DA88C" stroke-width="2"/>
<path d="M20 2.14307C31.7455 2.14307 38.4597 10.8378 37.7457 19.4216L37.0863 26.7786" stroke="#0DA88C" stroke-width="2"/>
<path d="M25.46 24.9749C25.735 21.831 28.5066 19.5053 31.6507 19.7804L31.9661 19.808C35.1101 20.083 37.4355 22.8547 37.1607 25.9986L36.6212 32.1644C36.3461 35.3084 33.5744 37.6341 30.4307 37.359L30.115 37.3313C26.9711 37.0561 24.6455 34.2847 24.9205 31.1407L25.46 24.9749Z" stroke="#0DA88C" stroke-width="2"/>
<path d="M2.83947 25.9986C2.56441 22.8547 4.89008 20.0831 8.03399 19.808L8.34953 19.7804C11.4934 19.5053 14.265 21.831 14.5401 24.9749L15.0795 31.1407C15.3546 34.2847 13.0289 37.0564 9.88502 37.3312L9.56948 37.359C6.42559 37.6341 3.65396 35.3084 3.37891 32.1644L2.83947 25.9986Z" stroke="#0DA88C" stroke-width="2"/>
<rect x="5.38281" y="24.7734" width="6" height="9.62751" rx="3" transform="rotate(-6.93614 5.38281 24.7734)" fill="#F6B642"/>
<rect width="6" height="9.62751" rx="3" transform="matrix(-0.99749 -0.0708106 -0.0708106 0.99749 34.2256 24.5513)" fill="#F6B642"/>
</svg>
