<svg width="17" height="16" viewBox="0 0 17 16" fill="none" xmlns="http://www.w3.org/2000/svg">
<path d="M8.75295 3.79871C6.5377 3.79871 4.74988 5.58652 4.74988 7.80177C4.74988 10.017 6.5377 11.8048 8.75295 11.8048C10.9682 11.8048 12.756 10.017 12.756 7.80177C12.756 5.58652 10.9682 3.79871 8.75295 3.79871ZM8.75295 10.4035C7.32035 10.4035 6.15125 9.23437 6.15125 7.80177C6.15125 6.36918 7.32035 5.20007 8.75295 5.20007C10.1855 5.20007 11.3546 6.36918 11.3546 7.80177C11.3546 9.23437 10.1855 10.4035 8.75295 10.4035ZM12.92 2.70182C12.4027 2.70182 11.9851 3.1195 11.9851 3.63671C11.9851 4.15393 12.4027 4.57161 12.92 4.57161C13.4372 4.57161 13.8549 4.15588 13.8549 3.63671C13.855 3.5139 13.8309 3.39226 13.784 3.27876C13.7371 3.16527 13.6682 3.06214 13.5814 2.9753C13.4945 2.88846 13.3914 2.8196 13.2779 2.77267C13.1644 2.72574 13.0428 2.70166 12.92 2.70182ZM16.5561 7.80177C16.5561 6.7244 16.5658 5.65679 16.5053 4.58137C16.4448 3.33224 16.1599 2.22364 15.2465 1.31021C14.3311 0.394836 13.2244 0.111831 11.9753 0.0513263C10.8979 -0.0091783 9.83032 0.00058054 8.7549 0.00058054C7.67752 0.00058054 6.60991 -0.0091783 5.53449 0.0513263C4.28536 0.111831 3.17676 0.396788 2.26334 1.31021C1.34796 2.22559 1.06496 3.33224 1.00445 4.58137C0.943947 5.65874 0.953706 6.72635 0.953706 7.80177C0.953706 8.87719 0.943947 9.94676 1.00445 11.0222C1.06496 12.2713 1.34991 13.3799 2.26334 14.2933C3.17871 15.2087 4.28536 15.4917 5.53449 15.5522C6.61186 15.6127 7.67948 15.603 8.7549 15.603C9.83227 15.603 10.8999 15.6127 11.9753 15.5522C13.2244 15.4917 14.333 15.2068 15.2465 14.2933C16.1618 13.378 16.4448 12.2713 16.5053 11.0222C16.5678 9.94676 16.5561 8.87915 16.5561 7.80177ZM14.8385 12.404C14.6961 12.7592 14.5243 13.0247 14.2491 13.2979C13.9739 13.5731 13.7104 13.7449 13.3552 13.8874C12.3286 14.2953 9.89082 14.2036 8.75295 14.2036C7.61507 14.2036 5.17537 14.2953 4.14874 13.8893C3.79352 13.7468 3.52808 13.5751 3.25483 13.2999C2.97963 13.0247 2.80788 12.7612 2.6654 12.406C2.25943 11.3774 2.35117 8.93965 2.35117 7.80177C2.35117 6.6639 2.25943 4.22419 2.6654 3.19757C2.80788 2.84235 2.97963 2.57691 3.25483 2.30366C3.53003 2.03041 3.79352 1.85671 4.14874 1.71423C5.17537 1.30826 7.61507 1.39999 8.75295 1.39999C9.89082 1.39999 12.3305 1.30826 13.3572 1.71423C13.7124 1.85671 13.9778 2.02846 14.2511 2.30366C14.5263 2.57886 14.698 2.84235 14.8405 3.19757C15.2465 4.22419 15.1547 6.6639 15.1547 7.80177C15.1547 8.93965 15.2465 11.3774 14.8385 12.404Z" fill="#575B7A"/>
</svg>
