<svg width="16" height="16" viewBox="0 0 16 16" fill="none" xmlns="http://www.w3.org/2000/svg">
<path d="M3.87741 15.7137V5.3041H0.570128V15.7137H3.87741ZM2.2242 3.88199C3.37751 3.88199 4.09539 3.08265 4.09539 2.08374C4.0739 1.06231 3.37755 0.285156 2.24608 0.285156C1.11479 0.285156 0.375 1.06232 0.375 2.08374C0.375 3.0827 1.0927 3.88199 2.20261 3.88199H2.2241H2.2242ZM5.70799 15.7137H9.01527V9.90049C9.01527 9.58937 9.03676 9.27858 9.12409 9.05618C9.36319 8.43457 9.90737 7.79077 10.821 7.79077C12.0177 7.79077 12.4965 8.74537 12.4965 10.1447V15.7137H15.8036V9.74488C15.8036 6.54744 14.172 5.05971 11.996 5.05971C10.2118 5.05971 9.42846 6.10302 8.99327 6.81362H9.01534V5.30389H5.70806C5.75146 6.28067 5.70806 15.7135 5.70806 15.7135L5.70799 15.7137Z" fill="#575B7A"/>
</svg>
