<svg width="13" height="17" viewBox="0 0 13 17" fill="none" xmlns="http://www.w3.org/2000/svg">
<path d="M6.5 0C2.93 0 0.0253906 2.90461 0.0253906 6.47461C0.0253906 7.8874 0.471641 9.2298 1.31699 10.3561L6.1009 16.7992C6.11285 16.8148 6.13111 16.8207 6.14439 16.8347C6.38346 17.0907 6.72844 17.0263 6.89877 16.7992C8.27637 14.961 10.8015 11.5281 11.7723 10.2332C11.7723 10.2332 11.7727 10.2322 11.773 10.2315L11.779 10.2236C12.5612 9.12455 12.9746 7.8283 12.9746 6.47461C12.9746 2.90461 10.07 0 6.5 0ZM6.5 9.96758C4.57787 9.96758 3.00703 8.39674 3.00703 6.47461C3.00703 4.55248 4.57787 2.98164 6.5 2.98164C8.42213 2.98164 9.99297 4.55248 9.99297 6.47461C9.99297 8.39674 8.42213 9.96758 6.5 9.96758Z" fill="#3F6DE4"/>
</svg>
