<svg width="152" height="37" viewBox="0 0 152 37" fill="none" xmlns="http://www.w3.org/2000/svg">
<path d="M60.584 27.27C59.288 27.27 58.064 27.018 56.912 26.514C55.76 26.01 54.752 25.317 53.888 24.435C53.024 23.535 52.34 22.5 51.836 21.33C51.35 20.142 51.107 18.873 51.107 17.523C51.107 16.173 51.35 14.913 51.836 13.743C52.34 12.573 53.024 11.547 53.888 10.665C54.77 9.765 55.796 9.072 56.966 8.586C58.154 8.082 59.432 7.83 60.8 7.83C62.294 7.83 63.68 8.118 64.958 8.694C66.236 9.27 67.307 10.089 68.171 11.151L66.065 13.257C65.507 12.465 64.76 11.862 63.824 11.448C62.888 11.016 61.88 10.8 60.8 10.8C59.504 10.8 58.361 11.088 57.371 11.664C56.399 12.222 55.643 13.005 55.103 14.013C54.563 15.021 54.293 16.191 54.293 17.523C54.293 18.855 54.563 20.034 55.103 21.06C55.661 22.068 56.408 22.86 57.344 23.436C58.28 24.012 59.342 24.3 60.53 24.3C61.79 24.3 62.87 24.075 63.77 23.625C64.688 23.157 65.39 22.473 65.876 21.573C66.362 20.655 66.605 19.53 66.605 18.198L68.549 19.602H60.476V16.767H69.818V17.199C69.818 19.449 69.413 21.321 68.603 22.815C67.811 24.309 66.722 25.425 65.336 26.163C63.95 26.901 62.366 27.27 60.584 27.27ZM77.5524 27.27C76.4544 27.27 75.4734 27.027 74.6094 26.541C73.7634 26.055 73.0974 25.389 72.6114 24.543C72.1434 23.679 71.9094 22.689 71.9094 21.573V14.04H74.8794V21.438C74.8794 22.068 74.9784 22.608 75.1764 23.058C75.3924 23.49 75.6984 23.823 76.0944 24.057C76.5084 24.291 76.9944 24.408 77.5524 24.408C78.4164 24.408 79.0734 24.156 79.5234 23.652C79.9914 23.13 80.2254 22.392 80.2254 21.438V14.04H83.1954V21.573C83.1954 22.707 82.9524 23.706 82.4664 24.57C81.9984 25.416 81.3414 26.082 80.4954 26.568C79.6494 27.036 78.6684 27.27 77.5524 27.27ZM87.8827 27V8.64H90.8527V27H87.8827ZM84.7777 16.74V14.04H93.9577V16.74H84.7777ZM101.498 27.27C100.202 27.27 99.0316 26.982 97.9876 26.406C96.9616 25.812 96.1426 25.002 95.5306 23.976C94.9366 22.95 94.6396 21.798 94.6396 20.52C94.6396 19.242 94.9366 18.099 95.5306 17.091C96.1246 16.065 96.9256 15.255 97.9336 14.661C98.9596 14.067 100.094 13.77 101.336 13.77C102.542 13.77 103.604 14.049 104.522 14.607C105.458 15.165 106.187 15.93 106.709 16.902C107.249 17.874 107.519 18.981 107.519 20.223C107.519 20.439 107.501 20.664 107.465 20.898C107.447 21.114 107.411 21.357 107.357 21.627H96.7186V19.197H105.818L104.711 20.169C104.675 19.377 104.522 18.711 104.252 18.171C103.982 17.631 103.595 17.217 103.091 16.929C102.605 16.641 102.002 16.497 101.282 16.497C100.526 16.497 99.8686 16.659 99.3106 16.983C98.7526 17.307 98.3206 17.766 98.0146 18.36C97.7086 18.936 97.5556 19.629 97.5556 20.439C97.5556 21.249 97.7176 21.96 98.0416 22.572C98.3656 23.184 98.8246 23.661 99.4186 24.003C100.013 24.327 100.697 24.489 101.471 24.489C102.137 24.489 102.749 24.372 103.307 24.138C103.883 23.904 104.369 23.562 104.765 23.112L106.655 25.029C106.025 25.767 105.26 26.325 104.36 26.703C103.46 27.081 102.506 27.27 101.498 27.27ZM118.512 27V19.521C118.512 18.657 118.233 17.946 117.675 17.388C117.135 16.83 116.433 16.551 115.569 16.551C114.993 16.551 114.48 16.677 114.03 16.929C113.58 17.181 113.229 17.532 112.977 17.982C112.725 18.432 112.599 18.945 112.599 19.521L111.438 18.873C111.438 17.883 111.654 17.01 112.086 16.254C112.518 15.48 113.112 14.877 113.868 14.445C114.642 13.995 115.506 13.77 116.46 13.77C117.432 13.77 118.296 14.022 119.052 14.526C119.808 15.012 120.402 15.651 120.834 16.443C121.266 17.217 121.482 18.027 121.482 18.873V27H118.512ZM109.629 27V14.04H112.599V27H109.629ZM129.658 27.27C128.488 27.27 127.426 26.973 126.472 26.379C125.536 25.785 124.789 24.984 124.231 23.976C123.691 22.95 123.421 21.807 123.421 20.547C123.421 19.269 123.691 18.126 124.231 17.118C124.789 16.092 125.536 15.282 126.472 14.688C127.426 14.076 128.488 13.77 129.658 13.77C130.648 13.77 131.521 13.986 132.277 14.418C133.051 14.832 133.663 15.408 134.113 16.146C134.563 16.884 134.788 17.721 134.788 18.657V22.383C134.788 23.319 134.563 24.156 134.113 24.894C133.681 25.632 133.078 26.217 132.304 26.649C131.53 27.063 130.648 27.27 129.658 27.27ZM130.144 24.462C131.242 24.462 132.124 24.093 132.79 23.355C133.474 22.617 133.816 21.672 133.816 20.52C133.816 19.746 133.663 19.062 133.357 18.468C133.051 17.874 132.619 17.415 132.061 17.091C131.521 16.749 130.882 16.578 130.144 16.578C129.424 16.578 128.785 16.749 128.227 17.091C127.687 17.415 127.255 17.874 126.931 18.468C126.625 19.062 126.472 19.746 126.472 20.52C126.472 21.294 126.625 21.978 126.931 22.572C127.255 23.166 127.687 23.634 128.227 23.976C128.785 24.3 129.424 24.462 130.144 24.462ZM133.627 27V23.517L134.14 20.358L133.627 17.226V14.04H136.597V27H133.627ZM141.891 27.27C141.315 27.27 140.838 27.081 140.46 26.703C140.1 26.307 139.92 25.83 139.92 25.272C139.92 24.696 140.1 24.219 140.46 23.841C140.838 23.463 141.315 23.274 141.891 23.274C142.467 23.274 142.935 23.463 143.295 23.841C143.673 24.219 143.862 24.696 143.862 25.272C143.862 25.83 143.673 26.307 143.295 26.703C142.935 27.081 142.467 27.27 141.891 27.27Z" fill="white"/>
<path d="M6.33581 18H0.00307274L17.0022 1.00088V7.28413L6.33581 18Z" fill="white"/>
<path d="M29.6688 17.999H36.0016L19.0024 0.999899V7.28316L29.6688 17.999Z" fill="white"/>
<path d="M6.33263 19.9985H-0.000101089L16.999 36.9977V30.7144L6.33263 19.9985Z" fill="white"/>
<path d="M29.6657 20.001H35.9984L18.9993 37.0001V30.7168L29.6657 20.001Z" fill="white"/>
<rect width="13.2215" height="3.90538" transform="matrix(1 0 0 -1 17.9438 23.9043)" fill="white"/>
</svg>
