<svg width="38" height="33" viewBox="0 0 38 33" fill="none" xmlns="http://www.w3.org/2000/svg">
<g clip-path="url(#clip0_3119_829)">
<path d="M17.0321 1.23462L3.29025 6.95971C2.52609 7.27805 2.53401 8.37085 3.30307 8.67788L17.1022 14.1875C18.3147 14.6716 19.6649 14.6716 20.8774 14.1875L34.6768 8.67774C35.4456 8.371 35.4537 7.27819 34.6892 6.95971L20.9477 1.23448C19.694 0.712206 18.2857 0.712206 17.0321 1.23448" fill="#FFBF00"/>
<path d="M20.2145 17.1959V30.9596C20.2145 31.6143 20.8699 32.0626 21.4743 31.8214L36.8509 25.812C37.0224 25.7436 37.1695 25.6249 37.2731 25.4712C37.3768 25.3176 37.4322 25.1361 37.4321 24.9504V11.1866C37.4321 10.5319 36.7766 10.0837 36.1722 10.3249L20.7956 16.3341C20.6241 16.4026 20.477 16.5214 20.3734 16.6751C20.2697 16.8287 20.2143 17.0102 20.2144 17.1959" fill="#26B5F8"/>
<path d="M16.6237 17.9063L12.0604 20.1247L11.597 20.3502L1.96377 24.9974C1.35316 25.294 0.57373 24.846 0.57373 24.163V11.2444C0.57373 10.9973 0.699627 10.784 0.868448 10.6233C0.937613 10.554 1.01606 10.4948 1.10151 10.4474C1.3317 10.3083 1.66012 10.2711 1.93928 10.3824L16.547 16.2097C17.2895 16.5063 17.3479 17.5539 16.6237 17.9061" fill="#ED3049"/>
<path d="M16.6236 17.9061L12.0602 20.1245L0.868164 10.6233C0.937329 10.554 1.01578 10.4948 1.10123 10.4474C1.33142 10.3083 1.65984 10.2711 1.939 10.3824L16.5467 16.2097C17.2892 16.5063 17.3476 17.5539 16.6235 17.9061" fill="black" fill-opacity="0.25"/>
</g>
<defs>
<clipPath id="clip0_3119_829">
<rect x="0.57373" y="0.842773" width="36.8757" height="31.1816" fill="white"/>
</clipPath>
</defs>
</svg>
