<svg width="89" height="28" viewBox="0 0 89 28" fill="none" xmlns="http://www.w3.org/2000/svg">
<g clip-path="url(#clip0_3119_854)">
<path d="M13.7659 1.00952H0.479004V26.9745H13.7659C20.411 26.9745 27.0525 21.1616 27.0525 13.9938C27.0525 6.8259 20.411 1.00952 13.7659 1.00952ZM13.7659 19.8912C10.4102 19.89 7.69057 17.2478 7.69195 13.9897C7.69333 10.7317 10.4147 8.09149 13.7707 8.09266C17.1266 8.09383 19.846 10.7359 19.8449 13.9939C19.8449 14.7688 19.6877 15.536 19.3821 16.2518C19.0766 16.9676 18.6287 17.6179 18.0642 18.1656C17.4997 18.7133 16.8295 19.1477 16.092 19.4438C15.3545 19.7399 14.5641 19.8921 13.766 19.8915L13.7659 19.8912Z" fill="url(#paint0_linear_3119_854)"/>
<path d="M40.685 1.01398C44.6842 1.01398 46.7355 3.36783 46.7355 6.60681V9.5037C46.7355 12.7422 44.6842 15.096 40.685 15.096H34.3448V1.01398H40.6852H40.685ZM43.1716 6.58773C43.1716 4.79768 42.1976 3.85209 40.0429 3.85209H37.8878V12.2593H40.0427C42.1976 12.2593 43.1716 11.3137 43.1716 9.52363V6.58773ZM57.7746 12.482H52.5324L51.7242 15.0974H48.1603L53.3401 1.01398H56.9874L62.1676 15.096H58.6035L57.7748 12.482H57.7746ZM53.4027 9.70581H56.9043L55.1638 4.13374L53.4027 9.70581ZM73.4361 1.01398V3.93197H69.5185V15.096H65.9557V3.93113H62.0382V1.01398H73.4361ZM82.0628 15.3777C77.6702 15.3777 75.4116 12.6415 75.4116 8.96033V7.14969C75.4116 3.46847 77.6702 0.732666 82.0628 0.732666C86.4555 0.732666 88.7158 3.46847 88.7158 7.14969V8.96033C88.7144 12.6415 86.4558 15.3777 82.0628 15.3777ZM82.0628 3.60912C79.9911 3.60912 78.9755 4.95726 78.9755 6.96884V9.14117C78.9755 11.1531 79.9911 12.5009 82.0628 12.5009C84.1348 12.5009 85.1502 11.1529 85.1502 9.14117V6.96884C85.1502 4.95726 84.1351 3.60912 82.0628 3.60912ZM37.5227 25.4029C37.7484 25.4206 37.9755 25.3923 38.1893 25.3199C38.4031 25.2474 38.599 25.1323 38.7643 24.9821C38.9297 24.8318 39.0609 24.6496 39.1495 24.4473C39.2381 24.2449 39.2821 24.0268 39.2788 23.807H41.2895C41.2642 25.624 39.8861 27.1466 37.5465 27.1466C34.815 27.1466 33.5 25.4768 33.5 23.2423V22.1129C33.5 19.8784 34.815 18.2089 37.5463 18.2089C39.8861 18.2089 41.2642 19.7309 41.2895 21.5479H39.2788C39.2821 21.328 39.2381 21.1099 39.1495 20.9075C39.061 20.7052 38.9298 20.523 38.7645 20.3727C38.5991 20.2224 38.4033 20.1074 38.1895 20.0349C37.9756 19.9624 37.7486 19.9341 37.5228 19.9517C36.2074 19.9517 35.6761 20.799 35.6761 22.0144V23.3404C35.6761 24.5558 36.2091 25.4029 37.5228 25.4029H37.5227ZM50.0366 18.3804H52.035V26.9744H49.9485V22.4322L48.5572 25.059H46.8376L45.4593 22.4322V26.9744H43.3725V18.3804H45.3705L47.6972 23.0581L50.0366 18.3804ZM57.7246 27.1466C55.6002 27.1466 54.1712 26.163 54.1712 24.4332V24.1998H56.2579V24.3723C56.2579 25.0965 56.7384 25.5384 57.7374 25.5384C58.6353 25.5384 59.2296 25.1824 59.2296 24.5194C59.2465 24.3414 59.1932 24.1638 59.0803 24.0225C58.9675 23.8812 58.8036 23.7868 58.6218 23.7584L56.4088 23.218C55.0302 22.8865 54.322 22.2974 54.322 20.8977C54.322 19.1912 55.574 18.2091 57.6732 18.2091C59.6586 18.2091 60.9233 19.2523 60.9233 20.824V21.0328H58.9136V20.8854C58.9136 20.3082 58.5847 19.8295 57.6742 19.8295C56.9153 19.8295 56.4352 20.0872 56.4352 20.7009C56.4211 20.8658 56.4721 21.0298 56.5777 21.1597C56.6833 21.2896 56.8357 21.3758 57.0042 21.4009L59.356 22.0147C60.7724 22.3831 61.3412 23.1444 61.3412 24.3351C61.3412 26.0538 59.7734 27.1466 57.7248 27.1466H57.7246Z" fill="#FF7751"/>
</g>
<defs>
<linearGradient id="paint0_linear_3119_854" x1="0.479004" y1="13.9917" x2="27.0525" y2="13.9917" gradientUnits="userSpaceOnUse">
<stop stop-color="#FF593D"/>
<stop offset="1" stop-color="#FF7751"/>
</linearGradient>
<clipPath id="clip0_3119_854">
<rect x="0.479004" y="0.732666" width="88.3077" height="26.4571" fill="white"/>
</clipPath>
</defs>
</svg>
