<svg width="87" height="22" viewBox="0 0 87 22" fill="none" xmlns="http://www.w3.org/2000/svg">
<g clip-path="url(#clip0_3119_846)">
<path d="M28.2202 16.8599L29.2855 14.4877C30.4367 15.3114 31.9658 15.7398 33.4779 15.7398C34.5948 15.7398 35.2993 15.3279 35.2993 14.702C35.2821 12.9558 28.6153 14.323 28.5638 9.94111C28.5466 7.7173 30.6086 6.00408 33.5295 6.00408C35.2649 6.00408 37.0004 6.41583 38.2374 7.3548L37.2409 9.77641C36.1069 9.0845 34.698 8.59039 33.3577 8.59039C32.447 8.59039 31.8457 9.00215 31.8457 9.52936C31.8629 11.2426 38.5812 10.3036 38.6499 14.4877C38.6499 16.7611 36.6396 18.359 33.753 18.359C31.6394 18.359 29.6978 17.8812 28.2202 16.8599ZM69.0971 13.6311L72.0352 15.1961C70.9356 17.0905 68.8394 18.359 66.4166 18.359C62.8598 18.359 59.9732 15.5915 59.9732 12.1816C59.9732 8.77156 62.8598 6.00408 66.4166 6.00408C68.8222 6.00408 70.9356 7.28892 72.0352 9.16701L69.0971 10.7318C68.5644 9.84229 67.5678 9.23289 66.4166 9.23289C64.7155 9.23289 63.341 10.5507 63.341 12.1816C63.341 13.8124 64.7155 15.1302 66.4166 15.1302C67.5678 15.1302 68.5644 14.5206 69.0969 13.6311H69.0971ZM40.1275 0.880859H43.8046V18.1283H40.1275V0.880859ZM73.4785 0.880859H77.1555V11.0118L81.3136 6.25113H85.8154L80.678 11.9837L86.2279 18.1283H81.5199L77.1555 12.9558V18.1283H73.4785V0.880859ZM54.7326 13.6642V10.7483C54.1999 9.8917 53.1003 9.23289 51.8632 9.23289C50.1619 9.23289 48.7876 10.5507 48.7876 12.1816C48.7876 13.8124 50.1619 15.1302 51.8632 15.1302C53.1003 15.1302 54.1999 14.5042 54.7326 13.664V13.6642ZM54.7326 6.25129H58.4097V18.112H54.7326V16.7118C54.1312 17.6837 52.6363 18.3592 51.0728 18.3592C47.8424 18.3592 45.2995 15.5917 45.2995 12.1652C45.2995 8.73878 47.8424 6.00424 51.0728 6.00424C52.6363 6.00424 54.1312 6.67968 54.7326 7.65158V6.25097V6.25129Z" fill="#202020"/>
<path d="M5.48687 13.6471C5.48687 14.8495 4.47312 15.8216 3.21869 15.8216C2.92076 15.8219 2.6257 15.7658 2.35039 15.6566C2.07508 15.5475 1.82494 15.3873 1.61427 15.1853C1.40361 14.9833 1.23657 14.7435 1.1227 14.4795C1.00883 14.2156 0.950378 13.9327 0.950685 13.6471C0.950685 12.4446 1.96443 11.4727 3.21869 11.4727H5.48687V13.6471ZM6.62087 13.6471C6.62087 12.4446 7.63462 11.4727 8.88888 11.4727C10.1431 11.4727 11.1571 12.4446 11.1571 13.6471V19.0832C11.1571 20.2857 10.1433 21.2578 8.88888 21.2578C8.59096 21.258 8.29592 21.2019 8.02063 21.0927C7.74534 20.9835 7.49522 20.8234 7.28457 20.6214C7.07393 20.4194 6.90689 20.1796 6.79304 19.9157C6.67918 19.6517 6.62073 19.3688 6.62104 19.0832V13.6471H6.62087Z" fill="#E01E5A"/>
<path d="M8.88995 4.91634C8.59203 4.91659 8.29698 4.86051 8.0217 4.75132C7.74641 4.64212 7.49628 4.48195 7.28564 4.27997C7.07499 4.07799 6.90796 3.83816 6.79411 3.57422C6.68025 3.31028 6.6218 3.0274 6.62211 2.74178C6.62194 1.53929 7.63569 0.567383 8.88995 0.567383C10.1442 0.567383 11.1581 1.53929 11.1581 2.74178V4.91634H8.88995ZM8.88995 6.02001C10.1442 6.02001 11.1581 6.99191 11.1581 8.1944C11.1581 9.39689 10.1444 10.369 8.88995 10.369H3.20258C2.90465 10.3692 2.60958 10.3132 2.33428 10.204C2.05897 10.0948 1.80882 9.93463 1.59816 9.73265C1.3875 9.53066 1.22045 9.29083 1.10658 9.02688C0.992717 8.76293 0.934264 8.48004 0.934572 8.1944C0.934572 6.99191 1.94832 6.02016 3.20258 6.02016H8.89012L8.88995 6.02001Z" fill="#36C5F0"/>
<path d="M17.9793 8.1944C17.9793 6.99191 18.993 6.02001 20.2473 6.02001C21.5015 6.02001 22.5155 6.99191 22.5155 8.1944C22.5155 9.39689 21.5017 10.369 20.2473 10.369H17.9793V8.1944ZM16.8451 8.1944C16.8451 9.39689 15.8315 10.369 14.5771 10.369C14.2792 10.3692 13.9841 10.3132 13.7088 10.204C13.4335 10.0948 13.1833 9.93463 12.9727 9.73265C12.762 9.53066 12.595 9.29083 12.4811 9.02688C12.3672 8.76293 12.3088 8.48004 12.3091 8.1944V2.74178C12.3091 1.53929 13.3228 0.567383 14.5771 0.567383C15.8314 0.567383 16.8453 1.53929 16.8453 2.74178V8.19456L16.8451 8.1944Z" fill="#2EB67D"/>
<path d="M14.5771 16.9088C15.8314 16.9088 16.8453 17.8807 16.8453 19.0832C16.8453 20.2857 15.8315 21.2578 14.5771 21.2578C14.2792 21.258 13.9841 21.202 13.7088 21.0928C13.4335 20.9836 13.1833 20.8234 12.9727 20.6215C12.762 20.4195 12.595 20.1796 12.4811 19.9157C12.3672 19.6517 12.3088 19.3688 12.3091 19.0832V16.9088H14.5771ZM14.5771 15.8215C14.2792 15.8217 13.9841 15.7657 13.7088 15.6565C13.4335 15.5473 13.1834 15.3872 12.9727 15.1852C12.7621 14.9832 12.595 14.7434 12.4811 14.4795C12.3673 14.2156 12.3088 13.9327 12.3091 13.6471C12.3091 12.4446 13.3228 11.4727 14.5771 11.4727H20.2646C21.5189 11.4727 22.5326 12.4446 22.5326 13.6471C22.5326 14.8495 21.5189 15.8216 20.2645 15.8216H14.5771V15.8215Z" fill="#ECB22E"/>
</g>
<defs>
<clipPath id="clip0_3119_846">
<rect x="0.93457" y="0.567383" width="85.3964" height="20.7877" fill="white"/>
</clipPath>
</defs>
</svg>
