<svg width="69" height="22" viewBox="0 0 69 22" fill="none" xmlns="http://www.w3.org/2000/svg">
<g clip-path="url(#clip0_3119_860)">
<path d="M3.39964 10.4182H0.562012V7.05523H3.48176V6.15279C3.48176 2.01044 5.47413 0.567383 9.40247 0.567383C10.4685 0.567383 11.2872 0.728098 11.9146 0.835285L11.6128 4.14898C11.2042 4.01516 10.7958 3.93292 10.0561 3.93292C8.80145 3.93292 8.31282 4.78833 8.31282 6.15279V7.05536H11.8694V10.4182H8.31282V20.9313H3.39964V10.4182ZM13.7694 0.884266H18.6843V20.9312H13.7693V0.884396L13.7694 0.884266ZM21.1352 1.2057H26.0455V4.7348H21.1352V1.2057ZM21.1352 7.04055H26.0455V20.9294H21.1352V7.04055ZM39.3688 10.9872C38.4671 10.4542 37.5689 10.2148 36.3972 10.2148C34.2651 10.2148 32.6293 11.6588 32.6293 14.0625C32.6293 16.2778 34.5387 17.7209 36.6671 17.7209C37.7868 17.7209 38.9047 17.4826 39.7236 17.0557L39.834 20.6356C38.6057 21.0356 37.1321 21.2508 35.8199 21.2508C31.1275 21.2508 27.553 18.5774 27.553 13.9803C27.553 9.35565 31.1285 6.68495 35.8199 6.68495C37.2943 6.68495 38.6048 6.927 39.7236 7.46098L39.368 10.9862L39.3688 10.9872ZM41.8801 0.884266H46.7914V12.8588H46.8451L50.9395 7.00729H56.3149L51.3771 13.3965L56.7243 20.9303H50.7752L46.8451 14.0339H46.7914V20.9294H41.8801V0.882447V0.884266ZM68.2448 10.8551C67.6995 10.6933 67.1562 10.6933 66.5816 10.6933C64.2892 10.6933 63.0043 12.3258 63.0043 15.052V20.9303H58.096V7.00638H62.5704V9.57185H62.6234C63.4705 7.80749 64.6988 6.68495 66.8279 6.68495C67.4006 6.68495 68.0025 6.76343 68.4911 6.84567L68.2458 10.8551H68.2449H68.2448Z" fill="#202020"/>
</g>
<defs>
<clipPath id="clip0_3119_860">
<rect x="0.562012" y="0.567383" width="67.929" height="20.7877" fill="white"/>
</clipPath>
</defs>
</svg>
