<svg width="78" height="29" viewBox="0 0 78 29" fill="none" xmlns="http://www.w3.org/2000/svg">
<g clip-path="url(#clip0_3119_841)">
<path d="M8.32604 1.03585L0.922852 8.47088L4.58335 11.6687L7.23839 9.75229V27.7005H15.1329V1.03585H8.32604ZM70.2831 19.4086C66.5938 21.7052 62.6034 22.0186 58.4918 20.7347C56.4136 20.086 54.7813 18.6773 53.213 17.257C50.8131 15.0834 48.8793 12.5156 46.817 10.0612C44.6676 7.50301 42.4026 5.08486 39.4758 3.31685C37.0512 1.85228 34.4718 0.926097 31.593 0.893503C27.0779 0.842304 23.3063 2.47647 20.3736 5.7826C19.616 6.63711 18.9946 7.56806 18.5349 8.57472C18.238 9.22545 17.5272 10.881 17.3973 11.7909C17.5061 11.5962 18.0724 10.2318 18.1797 10.0363C18.4602 9.42476 18.7412 9.08728 19.0742 8.65981C19.6663 7.90092 20.3838 7.25351 21.3048 6.78652C25.2502 4.78661 30.6606 5.50555 33.988 8.42358C36.9136 10.9893 39.3408 13.9922 42.0118 16.7812C44.5077 19.387 46.8657 22.1257 49.6416 24.4666C52.3346 26.7378 55.4317 28.0574 59.106 28.0214C65.5016 27.9589 71.054 23.8793 72.7102 17.9133C72.8975 17.2381 73.1143 16.3993 73.0339 15.4766C72.4299 17.1053 71.6312 18.5694 70.2833 19.4086H70.2831ZM35.4855 18.6096C33.9887 19.6697 32.4519 20.6639 30.4287 20.1955C27.9014 19.6101 26.2217 18.1295 25.6752 15.6814C25.1647 13.3944 25.8812 11.4144 27.7867 9.89434C28.6445 9.21001 29.5955 8.81139 30.6261 8.63818C31.1569 8.5489 31.8838 8.62952 32.455 8.65159C30.5576 7.29894 28.239 6.75566 25.9457 6.78681C22.0285 6.84017 19.6128 8.38146 18.1579 11.8872C17.572 13.2991 17.0783 14.7713 17.2549 16.3162C17.8137 19.9317 19.552 22.952 22.5943 25.157C26.8636 28.2505 31.5598 28.9141 36.5441 26.9897C39.6968 25.7725 42.1674 23.1862 44.4598 20.8867L39.2084 15.1332C38.1911 16.2391 36.7267 17.7307 35.4856 18.6096H35.4855ZM66.6417 6.28059C66.6417 5.25807 66.898 4.2938 67.3496 3.4416C64.1389 1.20257 60.0223 0.308253 56.1152 1.16579C52.2196 2.02102 49.1576 4.19357 46.3552 6.807C46.0631 7.07958 45.7294 7.49104 45.7294 7.49104L51.0793 13.7475L51.5959 13.2445C52.9496 11.8155 54.3532 10.4317 56.0968 9.42577C56.8095 9.01445 57.5488 8.62866 58.3943 8.60284C60.9161 8.5254 62.8526 9.56552 64.0465 11.6818C65.2306 13.7808 65.0213 15.8805 63.6327 17.8613C62.8788 18.9367 61.7806 19.581 60.562 20.1126C63.3062 20.5507 65.9661 20.4102 68.5237 19.2697C71.5446 17.9227 73.0196 14.9044 72.9497 12.5319C69.4493 12.4364 66.6417 9.67527 66.6417 6.28059Z" fill="#919FA1"/>
<path d="M72.7235 3.65743V4.85605H71.4706V9.07063H70.1538V4.85605H68.8726V3.65743H72.7235ZM75.4895 7.86926C75.7026 7.86926 75.8686 7.80739 75.9868 7.6913C76.1053 7.5752 76.1685 7.42074 76.1685 7.23512C76.1685 7.04187 76.1053 7.03134 75.979 6.92303C75.8526 6.81458 75.6868 6.76049 75.4893 6.76049H74.7V7.86926H75.4895ZM75.3788 5.77835V5.76292C75.5446 5.76292 75.6868 5.71648 75.7973 5.6236C75.908 5.53101 75.9631 5.40712 75.9631 5.26016C75.9631 5.10556 75.908 4.98181 75.7973 4.88894C75.6868 4.79635 75.5446 4.74991 75.3788 4.74991H74.7V5.77835H75.3788ZM75.5765 3.65945L75.6 3.63623C75.8447 3.63623 76.0737 3.67488 76.279 3.7444C76.4845 3.8142 76.6581 3.91458 76.8001 4.04611C76.9422 4.17756 77.055 4.33546 77.1317 4.51021C77.2112 4.68851 77.2515 4.88068 77.2503 5.07469C77.2503 5.21387 77.2843 5.4038 77.2369 5.5199C77.1935 5.62991 77.1351 5.73389 77.0633 5.82911C76.9968 5.91751 76.9169 5.99578 76.8263 6.06131C76.7395 6.12304 76.6605 6.16169 76.5897 6.18491V6.19269C76.7158 6.22356 76.7844 6.21923 76.903 6.29653C77.0223 6.37369 77.1265 6.47056 77.2108 6.58267C77.2976 6.69877 77.3688 6.83015 77.424 6.97711C77.4791 7.12393 77.5109 7.27103 77.5109 7.42564C77.5109 7.66534 77.4712 7.88181 77.3924 8.083C77.3159 8.27924 77.1944 8.45632 77.037 8.60104C76.879 8.748 76.6818 8.8641 76.4368 8.94905C76.1922 9.03414 75.908 9.07279 75.5763 9.07279H73.4049V3.65945H75.5763H75.5765Z" fill="#3390DA"/>
</g>
<defs>
<clipPath id="clip0_3119_841">
<rect x="0.922852" y="0.732666" width="76.6627" height="27.402" fill="white"/>
</clipPath>
</defs>
</svg>
