<svg width="201" height="160" viewBox="0 0 201 160" fill="none" xmlns="http://www.w3.org/2000/svg">
<path d="M39.2125 39.6043C39.9189 39.6047 40.6183 39.7441 41.2708 40.0146C43.9613 33.7927 51.9455 28.1157 58.2549 36.0999C56.6136 37.4048 52.0262 37.0281 49.0935 34.156C51.1115 39.7658 45.3201 45.4092 45.8783 46.9361C51.6361 55.7543 48.4075 58.2633 52.2684 63.6511C29.0355 71.7227 25.2553 79.7002 14.1366 88.1283C14.5671 83.5813 11.3317 70.7205 21.1926 65.5479C26.9234 62.5412 36.078 66.4829 43.3358 60.2341C48.2393 56.0099 44.681 53.3059 42.2125 49.4719C40.2955 50.7539 37.7747 50.6718 35.9452 49.2679C34.1156 47.8639 33.3841 45.4502 34.1264 43.2668C34.8687 41.0834 36.9198 39.6157 39.226 39.6178L39.2125 39.6043Z" fill="#21222F" stroke="#21222F" stroke-width="0.5"/>
<path fill-rule="evenodd" clip-rule="evenodd" d="M54.4209 65.7968C49.6654 61.761 50.1362 59.0705 49.6452 54.3956C49.3559 51.6378 45.3605 47.2455 45.7842 46.324C46.7461 44.3061 50.7281 40.425 49.1474 34.0349C54.394 38.9788 59.3984 35.5753 58.5643 35.9452C59.7146 37.0752 61.7257 42.1267 62.0082 42.1469C69.5149 42.6648 71.3512 43.2366 63.6697 46.8957C64.8199 50.1042 68.4521 59.6758 69.6898 62.4067C69.0373 65.6287 62.7885 68.0703 54.4209 65.7968Z" fill="white"/>
<path d="M61.5374 66.8192C56.5262 67.734 54.0644 65.7901 53.5666 65.2183C47.4389 58.1489 52.5375 57.1467 46.1676 47.4674C44.3851 44.7769 51.4074 41.7567 49.0129 34.3241C48.5824 32.9788 53.6339 38.9384 58.3558 36.0931" stroke="#21222F" stroke-width="0.923" stroke-linecap="round" stroke-linejoin="round"/>
<path fill-rule="evenodd" clip-rule="evenodd" d="M67.813 60.5569C11.3116 59.2116 -28.0175 141.186 25.067 158.378C69.2458 162.172 101.263 151.074 122.061 147.717C126.514 119.44 126.084 61.9694 67.813 60.5569Z" fill="#B7E4DB"/>
<ellipse cx="73.9698" cy="83.0037" rx="0.68609" ry="0.820617" transform="rotate(-28.3 73.9698 83.0037)" fill="#21222F"/>
<ellipse cx="70.4902" cy="71.8016" rx="0.68609" ry="0.820617" transform="rotate(-44.82 70.4902 71.8016)" fill="#21222F"/>
<path fill-rule="evenodd" clip-rule="evenodd" d="M78.2659 43.9025C81.6761 41.5752 85.3353 39.7927 89.7007 39.5169C112.551 27.5538 134.738 14.3644 156.164 0.00619549C172.657 -0.666441 186.318 53.6355 170.605 63.2879C152.992 59.8632 135.171 57.6161 117.259 56.5615C115.806 56.4741 124.382 87.6104 124.274 97.7941C124.274 99.4219 118.644 99.812 117.83 99.765C115.893 99.6775 106.584 56.0436 104.653 55.9763C101.223 55.8642 97.797 55.788 94.3755 55.7476C91.3957 57.3619 87.8509 58.2498 84.0573 58.8283C79.9407 55.909 78.5551 50.4203 78.2659 43.9025Z" fill="#F6B642"/>
<path fill-rule="evenodd" clip-rule="evenodd" d="M127.557 70.3708C129.723 70.4112 136.718 75.577 131.128 81.8393C147.843 98.5476 110.115 102.328 109.079 104.46C105.615 102.328 102.911 92.6687 98.492 80.0164C98.492 78.4492 98.2095 59.4203 108.151 64.909C112.725 66.2139 116.768 63.4897 117.454 60.5436C124.247 57.88 131.149 61.5593 127.557 70.3708Z" fill="white"/>
<path d="M116.692 55.6212C116.689 55.4513 116.549 55.3159 116.379 55.3188C116.209 55.3217 116.074 55.4618 116.076 55.6317L116.692 55.6212ZM116.84 61.193C116.883 61.3574 117.051 61.4558 117.215 61.4128C117.38 61.3699 117.478 61.2018 117.435 61.0374L116.84 61.193ZM167.879 28.2478C167.93 28.0856 167.839 27.913 167.677 27.8623C167.515 27.8116 167.342 27.902 167.292 28.0641L167.879 28.2478ZM169.093 35.5192C169.188 35.6598 169.38 35.6965 169.52 35.601C169.661 35.5056 169.698 35.3143 169.602 35.1737L169.093 35.5192ZM157.469 26.8124C157.299 26.8124 157.161 26.9502 157.161 27.1201C157.161 27.29 157.299 27.4278 157.469 27.4278V26.8124ZM169.152 27.2479L168.875 27.38L168.876 27.3831L169.152 27.2479ZM170.962 36.7052L170.828 36.4282L170.825 36.4295L170.962 36.7052ZM160.929 41.7653C160.796 41.8715 160.775 42.0651 160.881 42.1978C160.987 42.3304 161.181 42.352 161.313 42.2458L160.929 41.7653ZM157.374 5.18534C157.519 5.09648 157.564 4.90703 157.475 4.7622C157.387 4.61737 157.197 4.57199 157.052 4.66085L157.374 5.18534ZM169.254 58.5087C169.386 58.6159 169.58 58.5958 169.687 58.4639C169.794 58.332 169.774 58.1383 169.642 58.0311L169.254 58.5087ZM178.204 43.7679C178.204 43.598 178.067 43.4602 177.897 43.4602C177.727 43.4602 177.589 43.598 177.589 43.7679H178.204ZM167.807 63.0658L167.758 63.3695L167.758 63.3695L167.807 63.0658ZM93.4001 56.3395L93.524 56.6211L93.5251 56.6206L93.4001 56.3395ZM81.4541 56.6085L81.1826 56.7533L81.1827 56.7534L81.4541 56.6085ZM78.8122 44.8116C78.9205 44.6807 78.9023 44.4868 78.7714 44.3784C78.6406 44.2701 78.4466 44.2883 78.3382 44.4192L78.8122 44.8116ZM89.6451 41.0168C89.6451 40.8469 89.5073 40.7091 89.3374 40.7091C89.1675 40.7091 89.0297 40.8469 89.0297 41.0168H89.6451ZM93.5488 54.5544C93.6775 54.6655 93.8717 54.6512 93.9828 54.5226C94.0938 54.394 94.0796 54.1997 93.951 54.0887L93.5488 54.5544ZM98.5881 76.2777C98.5814 76.4475 98.7136 76.5906 98.8834 76.5973C99.0532 76.604 99.1963 76.4718 99.203 76.3021L98.5881 76.2777ZM117.628 60.2071L117.554 59.9087C117.474 59.9287 117.405 59.9799 117.364 60.0507L117.628 60.2071ZM127.718 70.2496L127.442 70.113C127.374 70.2512 127.418 70.4188 127.546 70.5049L127.718 70.2496ZM131.539 81.7853L131.283 81.6142C131.207 81.7273 131.215 81.8765 131.301 81.9813L131.539 81.7853ZM108.124 103.914C107.99 104.018 107.965 104.211 108.069 104.345C108.173 104.48 108.366 104.505 108.501 104.401L108.124 103.914ZM97.9158 73.0942C98.0492 72.9889 98.072 72.7954 97.9667 72.6621C97.8614 72.5287 97.6679 72.5059 97.5346 72.6112L97.9158 73.0942ZM55.2098 101.689C55.0465 101.736 54.9525 101.907 54.9997 102.07C55.0469 102.233 55.2175 102.327 55.3807 102.28L55.2098 101.689ZM64.1427 63.0638C64.0784 62.9065 63.8988 62.8311 63.7415 62.8954C63.5842 62.9596 63.5088 63.1393 63.5731 63.2966L64.1427 63.0638ZM69.4303 89.3257C69.4452 89.4949 69.5945 89.62 69.7638 89.6051C69.933 89.5902 70.0581 89.4409 70.0432 89.2717L69.4303 89.3257ZM73.134 60.4024C73.0672 60.2461 72.8864 60.1736 72.7302 60.2403C72.5739 60.3071 72.5014 60.4879 72.5681 60.6441L73.134 60.4024ZM74.9228 66.8191L74.7382 67.0653C74.8418 67.143 74.983 67.1475 75.0913 67.0765C75.1997 67.0056 75.252 66.8744 75.2222 66.7484L74.9228 66.8191ZM63.1987 62.1107L63.4845 62.2252L63.4885 62.2142L63.1987 62.1107ZM50.0621 62.6891L50.3157 62.5149C50.3079 62.5036 50.2995 62.4929 50.2903 62.4827L50.0621 62.6891ZM49.9807 61.9298C49.9328 61.7668 49.7618 61.6734 49.5988 61.7213C49.4357 61.7692 49.3424 61.9402 49.3902 62.1032L49.9807 61.9298ZM30.2745 75.8224C30.1538 75.7028 29.959 75.7037 29.8394 75.8244C29.7198 75.9451 29.7207 76.1399 29.8414 76.2595L30.2745 75.8224ZM42.0073 100.326C41.9901 100.495 42.1132 100.646 42.2823 100.663C42.4513 100.68 42.6023 100.557 42.6194 100.388L42.0073 100.326ZM66.8602 56.258C66.9304 56.4128 67.1127 56.4813 67.2675 56.4111C67.4222 56.3409 67.4908 56.1586 67.4206 56.0038L66.8602 56.258ZM63.8978 46.6078C63.8391 46.4483 63.6622 46.3666 63.5028 46.4253C63.3433 46.484 63.2616 46.6608 63.3203 46.8203L63.8978 46.6078ZM61.6079 42.1478C61.6605 42.3094 61.8341 42.3978 61.9957 42.3452C62.1573 42.2927 62.2457 42.1191 62.1931 41.9575L61.6079 42.1478ZM58.4028 35.7837L58.1597 35.9727L58.1682 35.9827L58.4028 35.7837ZM41.3111 40.0078L41.1926 40.2917C41.2718 40.3248 41.3611 40.3233 41.4392 40.2876C41.5172 40.2519 41.5768 40.1852 41.6035 40.1036L41.3111 40.0078ZM42.6564 49.1288L42.9115 48.9568C42.8631 48.8849 42.7865 48.8368 42.7007 48.8243C42.615 48.8118 42.5279 48.8361 42.4609 48.8912L42.6564 49.1288ZM43.9344 59.8506L44.1497 60.0705C44.1546 60.0656 44.1593 60.0607 44.1639 60.0555L43.9344 59.8506ZM7.89653 86.1834C7.90342 86.3531 8.04664 86.4852 8.21642 86.4783C8.3862 86.4714 8.51825 86.3282 8.51136 86.1584L7.89653 86.1834ZM56.4684 40.8401C56.3485 40.7197 56.1537 40.7192 56.0333 40.8391C55.9129 40.959 55.9125 41.1538 56.0324 41.2742L56.4684 40.8401ZM64.7323 46.371L64.6208 46.0842L64.6204 46.0844L64.7323 46.371ZM54.4179 45.2387C54.268 45.1586 54.0816 45.2151 54.0015 45.3649C53.9214 45.5148 53.9779 45.7012 54.1278 45.7813L54.4179 45.2387ZM109.602 107.506C109.728 107.392 109.737 107.197 109.623 107.071C109.509 106.946 109.314 106.936 109.189 107.051L109.602 107.506ZM99.1982 114.966L98.9514 114.783L98.9512 114.783L99.1982 114.966ZM2.07443 135.816C2.01383 135.657 1.83602 135.578 1.67727 135.638C1.51852 135.699 1.43895 135.877 1.49955 136.036L2.07443 135.816ZM81.2078 135.26C81.1668 135.095 80.9999 134.994 80.835 135.035C80.6701 135.076 80.5697 135.243 80.6107 135.408L81.2078 135.26ZM82.9764 151.649C82.9675 151.819 83.0979 151.964 83.2676 151.973C83.4373 151.982 83.582 151.851 83.5909 151.682L82.9764 151.649ZM106.681 110.285C106.64 110.12 106.473 110.019 106.308 110.06C106.143 110.101 106.042 110.268 106.083 110.433L106.681 110.285ZM108.449 126.674C108.44 126.844 108.571 126.989 108.74 126.998C108.91 127.007 109.055 126.876 109.064 126.707L108.449 126.674ZM88.3263 80.3351C88.3352 80.1655 88.2049 80.0207 88.0352 80.0117C87.8655 80.0028 87.7207 80.1331 87.7118 80.3028L88.3263 80.3351ZM98.8643 114.926C98.9608 115.066 99.1524 115.101 99.2922 115.004C99.4321 114.908 99.4673 114.716 99.3708 114.577L98.8643 114.926ZM98.5289 73.1096C98.5111 72.9407 98.3596 72.8181 98.1906 72.836C98.0217 72.8538 97.8991 73.0052 97.917 73.1742L98.5289 73.1096ZM108.791 107.198C108.88 107.342 109.069 107.387 109.214 107.298C109.359 107.209 109.403 107.019 109.314 106.874L108.791 107.198ZM60.0642 49.862L59.8181 49.6774C59.7482 49.7706 59.7369 49.8953 59.7891 49.9996C59.8412 50.1038 59.9477 50.1696 60.0642 50.1696V49.862ZM60.0844 49.8351L60.3306 50.0197C60.4005 49.9264 60.4117 49.8017 60.3596 49.6975C60.3075 49.5932 60.201 49.5274 60.0844 49.5274V49.8351ZM116.076 55.6317C116.109 57.5093 116.365 59.3762 116.84 61.193L117.435 61.0374C116.973 59.268 116.723 57.4497 116.692 55.6212L116.076 55.6317ZM167.292 28.0641C167.129 28.5845 167.115 29.2308 167.185 29.9062C167.255 30.5868 167.414 31.3225 167.618 32.0351C168.024 33.453 168.62 34.8225 169.093 35.5192L169.602 35.1737C169.18 34.552 168.606 33.2512 168.21 31.8658C168.013 31.1768 167.863 30.4777 167.797 29.8427C167.73 29.2025 167.752 28.6524 167.879 28.2478L167.292 28.0641ZM157.469 27.4278C158.062 27.4278 160.958 27.357 163.689 27.3378C165.061 27.3281 166.399 27.3313 167.403 27.3624C167.907 27.3779 168.321 27.4003 168.612 27.4306C168.759 27.4459 168.864 27.4623 168.931 27.4782C168.966 27.4864 168.978 27.4918 168.978 27.4914C168.977 27.4911 168.965 27.4858 168.948 27.4731C168.933 27.4613 168.899 27.4321 168.875 27.38L169.43 27.1158C169.374 26.9976 169.268 26.9473 169.233 26.9315C169.181 26.9081 169.125 26.8918 169.073 26.8795C168.968 26.8544 168.831 26.8348 168.675 26.8186C168.362 26.7859 167.93 26.763 167.422 26.7473C166.405 26.7159 165.059 26.7128 163.684 26.7225C160.921 26.7419 158.073 26.8124 157.469 26.8124V27.4278ZM168.876 27.3831C169.167 27.9777 169.981 30.1431 170.539 32.252C170.818 33.306 171.027 34.3272 171.079 35.1206C171.104 35.5189 171.089 35.8402 171.033 36.0727C170.976 36.3098 170.891 36.3975 170.828 36.4283L171.096 36.9821C171.401 36.8347 171.555 36.5318 171.631 36.2171C171.708 35.8977 171.72 35.5059 171.693 35.0809C171.638 34.2276 171.416 33.161 171.134 32.0946C170.57 29.9625 169.743 27.7557 169.429 27.1127L168.876 27.3831ZM170.825 36.4295C170.425 36.6277 167.975 37.9433 165.626 39.2107C164.449 39.8456 163.294 40.47 162.43 40.9391C161.998 41.1736 161.638 41.3695 161.383 41.5084C161.256 41.5778 161.156 41.6333 161.085 41.6723C161.05 41.6918 161.022 41.7076 161.001 41.7191C160.991 41.7248 160.982 41.7301 160.974 41.7346C160.971 41.7367 160.966 41.7395 160.962 41.7424C160.959 41.7439 160.956 41.7461 160.952 41.7488C160.949 41.7505 160.94 41.7566 160.929 41.7653L161.313 42.2458C161.293 42.262 161.273 42.273 161.287 42.2646C161.29 42.2627 161.296 42.2594 161.305 42.2543C161.323 42.2443 161.349 42.2297 161.383 42.2106C161.452 42.1724 161.552 42.1176 161.679 42.0483C161.932 41.9098 162.291 41.7144 162.723 41.48C163.587 41.0112 164.741 40.387 165.918 39.7523C168.275 38.4804 170.711 37.1728 171.099 36.9808L170.825 36.4295ZM157.052 4.66085C156.683 4.8875 156.392 5.27865 156.159 5.76888C155.925 6.26257 155.738 6.88375 155.592 7.60748C155.299 9.05537 155.164 10.9563 155.172 13.167C155.188 17.5911 155.78 23.3023 156.884 29.2113C157.988 35.1207 159.606 41.2398 161.679 46.4779C163.748 51.7053 166.287 56.0979 169.254 58.5087L169.642 58.0311C166.802 55.7234 164.311 51.4541 162.251 46.2514C160.196 41.0594 158.588 34.9803 157.489 29.0983C156.39 23.2161 155.803 17.5429 155.787 13.1647C155.779 10.9742 155.914 9.11954 156.195 7.72921C156.335 7.03384 156.51 6.46527 156.715 6.03255C156.922 5.59636 157.147 5.32443 157.374 5.18534L157.052 4.66085ZM177.589 43.7679C177.589 47.1485 177.276 52.2902 175.875 56.3974C175.175 58.4512 174.212 60.2163 172.908 61.3787C171.616 62.5297 169.974 63.1054 167.856 62.7621L167.758 63.3695C170.06 63.7426 171.888 63.1117 173.317 61.8381C174.733 60.5759 175.741 58.6982 176.458 56.596C177.892 52.3911 178.204 47.1674 178.204 43.7679H177.589ZM167.857 62.7621C160.061 61.4949 143.922 58.7138 128.498 56.7993C120.786 55.842 113.246 55.1004 107.012 54.8734C103.896 54.7598 101.101 54.7747 98.7705 54.9567C96.4476 55.1381 94.5596 55.4874 93.2751 56.0583L93.5251 56.6206C94.7109 56.0935 96.5133 55.7501 98.8184 55.5701C101.116 55.3907 103.886 55.3752 106.99 55.4883C113.197 55.7144 120.717 56.4535 128.422 57.4099C143.831 59.3226 159.955 62.1009 167.758 63.3695L167.857 62.7621ZM93.2762 56.0578C91.2402 56.9537 88.8699 58.0741 86.721 58.4486C85.6515 58.635 84.6659 58.6303 83.8212 58.3386C82.9864 58.0504 82.2644 57.4735 81.7255 56.4637L81.1827 56.7534C81.7906 57.8926 82.6309 58.5786 83.6203 58.9203C84.6 59.2586 85.7008 59.251 86.8266 59.0548C89.0684 58.6641 91.5242 57.501 93.524 56.6211L93.2762 56.0578ZM81.7255 56.4637C81.1781 55.4376 80.1577 52.8337 79.4275 50.2949C79.0629 49.0271 78.7748 47.7896 78.6532 46.7835C78.5923 46.2798 78.5746 45.8451 78.6058 45.4988C78.6379 45.1437 78.7179 44.9255 78.8122 44.8116L78.3382 44.4192C78.1248 44.677 78.0288 45.0465 77.993 45.4435C77.9564 45.8494 77.9788 46.3314 78.0423 46.8573C78.1696 47.9103 78.4676 49.1834 78.8361 50.4649C79.5723 53.0246 80.6068 55.6741 81.1826 56.7533L81.7255 56.4637ZM89.0297 41.0168C89.0297 42.56 89.6023 45.454 90.4372 48.1805C90.8562 49.5485 91.3449 50.887 91.868 52.0051C92.3861 53.1124 92.9551 54.0418 93.5488 54.5544L93.951 54.0887C93.4617 53.6663 92.9377 52.8393 92.4254 51.7443C91.9181 50.6602 91.4391 49.3506 91.0256 48.0003C90.1958 45.2903 89.6451 42.4668 89.6451 41.0168H89.0297ZM99.203 76.3021C99.3296 73.1097 99.5891 70.6915 99.9592 68.8742C100.33 67.0534 100.808 65.8583 101.355 65.094C101.893 64.3419 102.501 64.0028 103.17 63.8908C103.858 63.7757 104.634 63.8957 105.509 64.1198C105.945 64.2312 106.395 64.3656 106.864 64.5045C107.332 64.6427 107.817 64.7848 108.312 64.908C109.303 65.1543 110.352 65.3294 111.428 65.2488C113.612 65.0852 115.818 63.8772 117.893 60.3636L117.364 60.0507C115.363 63.4382 113.316 64.4903 111.382 64.6351C110.399 64.7087 109.423 64.5501 108.461 64.3109C107.98 64.1913 107.507 64.0528 107.039 63.9144C106.573 63.7767 106.111 63.6386 105.662 63.5236C104.769 63.295 103.888 63.1466 103.069 63.2839C102.231 63.4241 101.483 63.858 100.854 64.7357C100.235 65.6011 99.7348 66.8927 99.3563 68.7514C98.977 70.6137 98.7154 73.0682 98.5881 76.2777L99.203 76.3021ZM117.703 60.5055C122.836 59.2164 125.874 60.3797 127.33 62.3943C128.802 64.4321 128.754 67.466 127.442 70.113L127.994 70.3862C129.372 67.605 129.475 64.3128 127.829 62.0339C126.165 59.7318 122.813 58.588 117.554 59.9087L117.703 60.5055ZM127.546 70.5049C128.314 71.0214 129.192 71.5499 130.043 72.1842C130.887 72.8141 131.669 73.5237 132.218 74.3667C132.763 75.2037 133.081 76.1758 132.995 77.3468C132.908 78.5238 132.412 79.9264 131.283 81.6142L131.794 81.9564C132.962 80.2104 133.512 78.7063 133.609 77.3919C133.706 76.0714 133.343 74.9672 132.734 74.0309C132.128 73.1007 131.281 72.3402 130.411 71.6909C129.546 71.0462 128.622 70.4868 127.89 69.9943L127.546 70.5049ZM131.301 81.9813C133.059 84.1071 134.002 86.0229 134.331 87.7436C134.659 89.4585 134.381 90.9984 133.662 92.3879C132.213 95.1869 128.961 97.3985 125.192 99.1054C121.435 100.806 117.224 101.98 113.937 102.735C112.294 103.112 110.885 103.385 109.882 103.567C109.38 103.657 108.98 103.726 108.702 103.773C108.564 103.797 108.454 103.815 108.378 103.829C108.34 103.836 108.308 103.842 108.283 103.847C108.271 103.85 108.257 103.853 108.244 103.856C108.238 103.858 108.227 103.861 108.214 103.865C108.208 103.867 108.194 103.873 108.186 103.877C108.174 103.882 108.143 103.9 108.124 103.914L108.501 104.401C108.483 104.413 108.453 104.431 108.441 104.436C108.434 104.439 108.422 104.444 108.418 104.446C108.409 104.449 108.402 104.451 108.402 104.451C108.399 104.452 108.401 104.451 108.409 104.449C108.425 104.446 108.45 104.441 108.487 104.435C108.56 104.422 108.666 104.403 108.806 104.38C109.084 104.332 109.487 104.264 109.992 104.172C111.002 103.989 112.42 103.715 114.074 103.335C117.38 102.575 121.635 101.391 125.445 99.666C129.243 97.9467 132.659 95.6629 134.208 92.6707C134.988 91.1647 135.291 89.485 134.935 87.628C134.581 85.7767 133.577 83.7684 131.776 81.5893L131.301 81.9813ZM97.5346 72.6112C92.829 76.3252 84.0047 83.0905 75.4688 89.1836C71.2006 92.2303 67.0076 95.1068 63.4392 97.3491C59.8585 99.5992 56.9409 101.188 55.2098 101.689L55.3807 102.28C57.2078 101.752 60.196 100.114 63.7666 97.8701C67.3496 95.6186 71.5537 92.7343 75.8263 89.6844C84.3721 83.5843 93.2045 76.8128 97.9158 73.0942L97.5346 72.6112ZM63.5731 63.2966C66.417 70.2558 68.7259 81.3291 69.4303 89.3257L70.0432 89.2717C69.3351 81.2325 67.0162 70.0953 64.1427 63.0638L63.5731 63.2966ZM72.5681 60.6441C73.4309 62.6633 74.1185 64.7529 74.6234 66.8899L75.2222 66.7484C74.7092 64.5771 74.0106 62.454 73.134 60.4024L72.5681 60.6441ZM75.1074 66.573C74.9378 66.4458 74.6217 66.2792 74.2283 66.0919C73.8257 65.9001 73.3158 65.6745 72.7392 65.4295C71.5856 64.9392 70.1553 64.367 68.7611 63.825C67.3666 63.2829 66.0062 62.7701 64.9917 62.3986C64.4847 62.2129 64.0627 62.062 63.7655 61.9601C63.6175 61.9094 63.4975 61.8699 63.4125 61.8442C63.3711 61.8317 63.3319 61.8206 63.2999 61.8134C63.286 61.8102 63.2613 61.805 63.2342 61.8027C63.2231 61.8017 63.1916 61.7992 63.1531 61.8054C63.134 61.8084 63.0957 61.8161 63.053 61.8393C63.0076 61.8639 62.9419 61.9152 62.909 62.0072L63.4885 62.2142C63.4559 62.3055 63.3907 62.3561 63.3462 62.3802C63.3044 62.4029 63.2674 62.4103 63.2498 62.4131C63.2143 62.4187 63.1871 62.4162 63.1817 62.4157C63.1657 62.4144 63.1572 62.412 63.1643 62.4136C63.1743 62.4159 63.1965 62.4217 63.2346 62.4333C63.3085 62.4556 63.4199 62.4922 63.5661 62.5423C63.8573 62.642 64.2746 62.7913 64.7801 62.9764C65.7904 63.3464 67.147 63.8577 68.5381 64.3985C69.9295 64.9395 71.3533 65.5091 72.4986 65.9958C73.0714 66.2393 73.5723 66.461 73.9637 66.6474C74.3642 66.8382 74.6252 66.9806 74.7382 67.0653L75.1074 66.573ZM62.9131 61.9963C61.8796 64.5768 61.0238 66.5686 60.2046 67.9431C59.3752 69.3347 58.6384 69.9966 57.8829 70.0932C57.1277 70.1898 56.2039 69.7404 54.9471 68.4797C53.7045 67.2334 52.2084 65.2682 50.3157 62.5149L49.8086 62.8634C51.7028 65.619 53.226 67.6249 54.5113 68.9142C55.7823 70.1891 56.8949 70.8399 57.9609 70.7036C59.0265 70.5673 59.8957 69.6633 60.7332 68.2581C61.5808 66.836 62.4529 64.8003 63.4843 62.2251L62.9131 61.9963ZM50.2903 62.4827C50.1468 62.3241 50.0409 62.1351 49.9807 61.9298L49.3902 62.1032C49.4766 62.3973 49.6283 62.6682 49.834 62.8955L50.2903 62.4827ZM29.8414 76.2595C31.2842 77.6891 34.5497 81.6118 37.3449 86.2416C38.7415 88.555 40.0157 91.0368 40.8864 93.4651C41.7581 95.8966 42.2177 98.2538 42.0073 100.326L42.6194 100.388C42.8428 98.1886 42.3532 95.733 41.4656 93.2574C40.5769 90.7787 39.2816 88.259 37.8716 85.9236C35.0536 81.2559 31.7576 77.2919 30.2745 75.8224L29.8414 76.2595ZM67.4206 56.0038C66.014 52.9027 65.2378 50.2487 63.8978 46.6078L63.3203 46.8203C64.644 50.4169 65.4417 53.1305 66.8602 56.258L67.4206 56.0038ZM62.1931 41.9575C61.4338 39.6221 60.226 37.4574 58.6375 35.5846L58.1682 35.9827C59.705 37.7944 60.8734 39.8885 61.6079 42.1478L62.1931 41.9575ZM58.6457 35.5948C55.8012 31.9357 52.0543 30.9461 48.6736 31.9326C45.3102 32.9141 42.3542 35.837 41.0188 39.912L41.6035 40.1036C42.8846 36.1945 45.7032 33.4404 48.8459 32.5233C51.9713 31.6113 55.4619 32.5017 58.1599 35.9725L58.6457 35.5948ZM41.4297 39.7239C38.8578 38.6499 35.8865 39.5974 34.4112 41.962L34.9332 42.2877C36.249 40.1789 38.8989 39.3339 41.1926 40.2917L41.4297 39.7239ZM34.4112 41.962C32.9358 44.3266 33.3909 47.4119 35.4861 49.2499L35.8919 48.7873C34.0233 47.1481 33.6175 44.3966 34.9332 42.2877L34.4112 41.962ZM35.4861 49.2499C37.5813 51.0878 40.6996 51.1372 42.8519 49.3664L42.4609 48.8912C40.5414 50.4704 37.7604 50.4265 35.8919 48.7873L35.4861 49.2499ZM42.4013 49.3007C42.9804 50.16 43.5691 50.9556 44.0972 51.7797C44.6194 52.5948 45.0535 53.396 45.3013 54.2155C45.5476 55.0301 45.6097 55.8624 45.3868 56.7455C45.1633 57.6314 44.6476 58.5899 43.7049 59.6457L44.1639 60.0555C45.155 58.9455 45.7299 57.9011 45.9835 56.8961C46.2378 55.8883 46.1636 54.9414 45.8903 54.0374C45.6185 53.1383 45.1496 52.2816 44.6153 51.4478C44.087 50.6231 43.4657 49.7791 42.9115 48.9568L42.4013 49.3007ZM43.7192 59.6308C41.233 62.065 37.7248 62.6617 33.7891 62.7144C31.8241 62.7407 29.7782 62.6318 27.7159 62.5592C25.6599 62.4869 23.5934 62.4509 21.615 62.6274C17.6542 62.9807 14.0036 64.1904 11.4558 67.7035C8.92071 71.1991 7.52055 76.9187 7.89653 86.1834L8.51136 86.1584C8.13735 76.9424 9.5404 71.3928 11.954 68.0647C14.3549 64.7542 17.7986 63.5856 21.6697 63.2403C23.6074 63.0674 25.6413 63.1019 27.6943 63.1742C29.7409 63.2462 31.8125 63.3562 33.7974 63.3296C37.7616 63.2766 41.4834 62.681 44.1497 60.0705L43.7192 59.6308ZM56.0324 41.2742C56.1762 41.4187 56.3901 41.5239 56.618 41.6076C56.854 41.6941 57.1417 41.7702 57.4644 41.8391C58.11 41.9769 58.9273 42.0922 59.8162 42.2004C61.6065 42.4183 63.6904 42.6081 65.3739 42.8924C66.2153 43.0346 66.9354 43.1971 67.4556 43.3912C67.7161 43.4883 67.9114 43.588 68.0436 43.6867C68.1772 43.7864 68.219 43.8642 68.2296 43.9122C68.2384 43.9517 68.2383 44.0257 68.1485 44.1546C68.0557 44.2879 67.883 44.4544 67.5963 44.6524C67.0244 45.0476 66.0692 45.5208 64.6208 46.0842L64.8439 46.6577C66.3046 46.0895 67.3138 45.5956 67.9461 45.1587C68.2616 44.9408 68.501 44.7251 68.6534 44.5063C68.8089 44.2831 68.8871 44.0351 68.8304 43.7791C68.7755 43.5316 68.6081 43.3402 68.4117 43.1936C68.2139 43.046 67.9585 42.922 67.6707 42.8146C67.0943 42.5996 66.3275 42.4295 65.4764 42.2857C63.7749 41.9983 61.6514 41.8039 59.8906 41.5896C59.004 41.4817 58.2098 41.369 57.5928 41.2373C57.2841 41.1714 57.0277 41.1024 56.83 41.0299C56.6241 40.9544 56.5146 40.8865 56.4684 40.8401L56.0324 41.2742ZM64.6204 46.0844C63.491 46.5254 61.5415 46.6402 59.5411 46.4713C57.5446 46.3028 55.5774 45.8586 54.4179 45.2387L54.1278 45.7813C55.3965 46.4596 57.4618 46.9133 59.4893 47.0845C61.5129 47.2553 63.5791 47.1515 64.8442 46.6576L64.6204 46.0844ZM109.189 107.051C108.731 107.467 108 107.982 107.112 108.571C106.67 108.865 106.194 109.174 105.698 109.495C105.202 109.817 104.688 110.151 104.172 110.493C102.125 111.85 100.005 113.367 98.9514 114.783L99.4451 115.15C100.423 113.835 102.446 112.375 104.512 111.005C105.025 110.665 105.537 110.333 106.033 110.012C106.528 109.69 107.007 109.379 107.452 109.084C108.337 108.496 109.105 107.958 109.602 107.506L109.189 107.051ZM98.9512 114.783C84.0232 134.885 63.8821 150.976 45.4312 156.609C36.2095 159.424 27.4356 159.619 19.9458 156.43C12.4624 153.244 6.2134 146.659 2.07443 135.816L1.49955 136.036C5.68445 146.999 12.0356 153.732 19.7048 156.997C27.3677 160.259 36.2988 160.04 45.6108 157.197C64.2272 151.514 84.4678 135.319 99.4453 115.15L98.9512 114.783ZM80.6107 135.408C82.064 141.255 83.2226 146.945 82.9764 151.649L83.5909 151.682C83.8425 146.875 82.6603 141.103 81.2078 135.26L80.6107 135.408ZM106.083 110.433C107.537 116.28 108.695 121.97 108.449 126.674L109.064 126.707C109.315 121.9 108.133 116.128 106.681 110.285L106.083 110.433ZM87.7118 80.3028C86.8859 95.9804 92.176 105.231 98.8643 114.926L99.3708 114.577C92.7139 104.927 87.5109 95.8141 88.3263 80.3351L87.7118 80.3028ZM97.917 73.1742C99.7258 90.3178 107.059 104.393 108.791 107.198L109.314 106.874C107.615 104.123 100.325 90.136 98.5289 73.1096L97.917 73.1742ZM60.0642 50.1696C60.1478 50.1696 60.2757 50.2077 60.4448 50.3208C60.6101 50.4314 60.7924 50.599 60.9782 50.8178C61.3496 51.2552 61.7105 51.8688 61.9616 52.5511L62.5391 52.3386C62.2654 51.595 61.8697 50.9171 61.4473 50.4196C61.2362 50.1709 61.0125 49.9602 60.7868 49.8093C60.565 49.6609 60.3171 49.5543 60.0642 49.5543V50.1696ZM61.9616 52.5511C62.2139 53.237 62.2953 53.8318 62.2475 54.2348C62.2235 54.4371 62.1701 54.5653 62.1151 54.6361C62.069 54.6955 62.0194 54.7201 61.9476 54.7201V55.3355C62.2189 55.3355 62.4443 55.2155 62.6011 55.0135C62.7493 54.8227 62.827 54.5726 62.8585 54.3074C62.9217 53.7754 62.8114 53.0788 62.5391 52.3386L61.9616 52.5511ZM61.9476 54.7201C61.8597 54.7201 61.7298 54.6813 61.5611 54.5688C61.3955 54.4584 61.2138 54.2911 61.029 54.0725C60.6595 53.6354 60.3016 53.0218 60.0503 52.3386L59.4728 52.5511C59.7461 53.294 60.1382 53.9719 60.5591 54.4697C60.7694 54.7185 60.993 54.9296 61.2197 55.0808C61.4432 55.2297 61.6925 55.3355 61.9476 55.3355V54.7201ZM60.0503 52.3386C59.7987 51.655 59.7218 51.054 59.7741 50.6442C59.8004 50.4384 59.856 50.3054 59.9138 50.2309C59.9634 50.1671 60.0149 50.1427 60.0844 50.1427V49.5274C59.8109 49.5274 59.585 49.651 59.4277 49.8537C59.2786 50.0457 59.198 50.2978 59.1638 50.5663C59.095 51.1048 59.1997 51.8088 59.4728 52.5511L60.0503 52.3386ZM59.8383 49.6505L59.8181 49.6774L60.3104 50.0466L60.3306 50.0197L59.8383 49.6505Z" fill="#21222F"/>
<path d="M50.1631 42.5774C51.2656 42.4124 52.3888 42.4466 53.4792 42.6783" stroke="#21222F" stroke-width="0.615333" stroke-linecap="round" stroke-linejoin="round"/>
<path d="M58.9545 39.2007C58.5219 39.3477 58.138 39.6106 57.8446 39.9608" stroke="#21222F" stroke-width="0.5" stroke-linecap="round" stroke-linejoin="round"/>
<path d="M191.861 42.7456L200.632 44.9653" stroke="#21222F" stroke-width="0.615333" stroke-linecap="round" stroke-linejoin="round"/>
<path d="M184.294 8.13832L192.311 3.14062" stroke="#21222F" stroke-width="0.615333" stroke-linecap="round" stroke-linejoin="round"/>
<path d="M189.722 25.0419L198.486 22.8154" stroke="#21222F" stroke-width="0.615333" stroke-linecap="round" stroke-linejoin="round"/>
</svg>
