<svg width="100" height="100" viewBox="0 0 100 100" fill="none" xmlns="http://www.w3.org/2000/svg">
<path d="M19.2038 75.34C12.8214 74.7465 7.45721 70.0778 6.57341 63.7291C5.56209 56.4643 5 48.9956 5 41.3075C5 33.348 5.56229 25.516 6.64506 18.0175C7.50143 12.087 12.3421 7.61053 18.3014 6.98463C28.3687 5.92723 38.8867 5.35718 49.6429 5.35718C60.3656 5.35718 70.6978 5.96156 80.7743 7.00344C86.835 7.63011 91.7571 12.1995 92.6179 18.2315C93.6793 25.672 94.2857 33.4168 94.2857 41.3075C94.2857 49.1358 93.6229 56.7465 92.5793 64.1357C91.7114 70.283 86.7107 74.9743 80.5343 75.6022C70.5554 76.6157 60.2677 77.2579 49.6429 77.2579C49.3885 77.2579 49.1344 77.2572 48.8803 77.2565C41.3883 85.8743 35.6442 90.1336 25.6044 94.6429V75.9329C23.9766 75.7857 22.3581 75.6343 20.7495 75.4843C20.2332 75.4365 19.718 75.3879 19.2038 75.34Z" stroke="white" stroke-width="3" stroke-linecap="round" stroke-linejoin="round"/>
<circle cx="50.5" cy="42.5" r="16" stroke="white" stroke-width="3"/>
<circle cx="50.5" cy="42.5" r="8.5" fill="#F6B642"/>
</svg>
