<svg width="533" height="533" viewBox="0 0 533 533" fill="none" xmlns="http://www.w3.org/2000/svg">
<path d="M116.519 238.64L197.801 232.564C205.674 231.967 213.576 233.27 220.84 236.361L242.462 245.577C245.369 250.856 248.943 255.74 253.095 260.109C263.526 271.249 303.527 291.959 324.642 296.313C329.617 297.198 334.745 296.303 339.124 293.781C348.69 301.457 358.714 308.543 369.14 315.003C369.14 315.003 349.392 371.258 275.865 339.46L217.381 314.091L230.192 344.827C229.837 362.397 229.736 385.436 230.901 400.792C217.171 404.973 202.527 405.115 188.719 401.194C183.203 363.724 179 304.583 193.279 282.253L123.4 281.594C114.595 265.735 115.37 256.717 116.519 238.64Z" fill="#F6B642"/>
<path d="M87.1454 242.64C92.9711 256.452 101.201 269.122 111.45 280.059C105.83 280.92 100.209 282.191 95.3989 282.946C90.3887 280.76 85.6903 277.919 81.4289 274.495C68.1039 263.76 40.6544 250.443 34.6422 242.848C45.5287 241.273 72.1627 242.336 87.1454 242.64Z" fill="#015D61"/>
<path d="M190.145 432.018C204.176 426.72 217.157 418.97 228.475 409.128C229.134 414.751 230.146 420.422 230.754 425.283C228.379 430.213 225.365 434.811 221.792 438.955C210.599 451.816 196.269 478.754 188.479 484.526C187.258 473.589 189.281 447.006 190.145 432.018Z" fill="#015D61"/>
<path d="M363.975 271.502C364.987 272.009 366.051 272.464 367.114 272.92C372.08 267.084 376.747 261.001 381.095 254.691C380.639 255.757 366.664 285.984 343.473 297.377C341.954 296.161 340.485 294.997 339.118 293.832C347.782 289.123 356.785 280.009 363.975 271.502Z" fill="#015D61"/>
<path d="M230.805 319.859C230.805 319.859 230.349 330.543 230.096 344.771L217.386 314.086L230.805 319.859Z" fill="#015D61"/>
<path d="M367.165 138.636C367.165 138.636 376.031 122.025 396.888 132.155C417.744 142.284 413.698 182.992 413.698 182.992C413.698 182.992 432.233 191.853 442.107 206.791C457.399 229.931 449.7 264.869 402.148 264.869C404.415 254.895 405.2 244.641 404.477 234.437C403.212 216.462 396.68 200.006 390.907 183.144C383.547 161.347 385.127 163.09 382.552 155.092C388.682 149.269 381.388 142.282 378.097 147.95C376.703 150.242 376.37 150.333 375.256 150.682C369.222 152.571 358.274 154.679 352.337 152.713C352.329 152.558 351.822 138.636 367.165 138.636Z" fill="#015D61"/>
<path d="M378.407 190.182L383.824 176.612C382.017 179.034 379.887 181.197 377.495 183.043C377.94 185.403 378.245 187.787 378.407 190.182Z" fill="#015D61"/>
<path d="M306.758 420.119C306.408 421.832 306.573 423.61 307.233 425.227C307.893 426.845 309.018 428.231 310.466 429.212C311.914 430.19 313.619 430.717 315.367 430.728C317.115 430.736 318.826 430.227 320.285 429.265C321.743 428.303 322.883 426.928 323.561 425.318C324.239 423.706 324.424 421.931 324.093 420.214C323.761 418.498 322.928 416.918 321.7 415.676C320.471 414.434 318.901 413.584 317.189 413.232C316.051 412.992 314.878 412.982 313.736 413.2C312.594 413.419 311.507 413.858 310.537 414.501C309.567 415.14 308.734 415.967 308.085 416.931C307.436 417.896 306.985 418.978 306.758 420.119Z" fill="#015D61"/>
<path d="M252.932 75.0865C252.932 81.3658 254.795 87.5038 258.284 92.7248C261.772 97.9458 266.73 102.015 272.531 104.418C278.332 106.821 284.716 107.45 290.874 106.225C297.033 105 302.69 101.976 307.13 97.536C311.57 93.0958 314.594 87.4388 315.819 81.2803C317.044 75.1217 316.415 68.7382 314.012 62.9371C311.609 57.1359 307.54 52.1774 302.319 48.6889C297.098 45.2004 290.96 43.3384 284.681 43.3384C276.262 43.3434 268.19 46.6899 262.236 52.6427C256.285 58.5955 252.938 66.6681 252.932 75.0865Z" fill="#015D61"/>
<path d="M183.513 338.341L157.334 351.556C151.962 354.261 145.734 354.725 140.02 352.846C134.303 350.967 129.568 346.898 126.849 341.531L96.8736 282.187" stroke="#015D61" stroke-width="1.5" stroke-linecap="round" stroke-linejoin="round"/>
<path d="M77.8853 244.615L59.4035 208.057C56.6985 202.684 56.2348 196.457 58.1136 190.743C59.9924 185.028 64.0619 180.293 69.4292 177.575L268.782 76.8589C274.154 74.1529 280.38 73.6884 286.095 75.5667C291.809 77.4452 296.545 81.5136 299.264 86.8793L359.267 205.738" stroke="#015D61" stroke-width="1.5" stroke-linecap="round" stroke-linejoin="round"/>
<path d="M284.681 75.0864L213.032 214.234L58.5421 189.322" stroke="#015D61" stroke-width="1.5" stroke-linecap="round" stroke-linejoin="round"/>
<path d="M297.681 346.797C309.206 359.469 323.166 369.689 338.727 376.847C354.288 384.008 371.131 387.96 388.253 388.469C405.374 388.978 422.423 386.033 438.382 379.811C454.341 373.588 468.883 364.215 481.141 352.252C493.399 340.286 503.121 325.978 509.729 310.174C516.337 294.371 519.694 277.397 519.6 260.269C519.506 243.14 515.963 226.206 509.183 210.476C502.402 194.746 492.523 180.543 480.135 168.713" stroke="#015D61" stroke-width="1.5" stroke-linecap="round" stroke-linejoin="round"/>
<path d="M378.406 194.385C378.548 190.547 378.222 186.706 377.436 182.947C371.264 187.075 366.163 184.509 362.419 179.168C357.616 171.395 355.151 162.405 355.316 153.269C355.943 138.641 367.575 137.972 375.389 150.54" stroke="#015D61" stroke-width="1.5" stroke-linecap="round" stroke-linejoin="round"/>
<path d="M381.095 254.692C376.748 261.001 372.084 267.084 367.119 272.92C359.14 269.576 351.789 264.894 345.384 259.078C340.638 254.771 336.381 249.955 332.688 244.717C341.425 233.292 349.521 221.391 356.939 209.07C360.552 203.06 365.975 198.349 372.431 195.611C375.2 194.535 378.19 194.153 381.14 194.497C383.331 195.072 385.627 195.123 387.841 194.646C390.056 194.17 392.126 193.178 393.887 191.752" stroke="#015D61" stroke-width="1.5" stroke-linecap="round" stroke-linejoin="round"/>
<path d="M116.114 242.59C109.228 242.843 95.5565 242.792 87.2018 242.64C93.0115 256.448 101.222 269.117 111.453 280.06C114.036 279.655 119.504 279.098 121.985 278.946" stroke="#015D61" stroke-width="1.5" stroke-linecap="round" stroke-linejoin="round"/>
<path d="M34.6459 242.843C31.7597 243.248 29.9048 243.909 29.6836 244.818C28.2819 250.569 58.3804 264.539 71.9132 275.452C75.8494 278.666 80.252 281.261 84.9717 283.148C88.4149 283.78 91.9487 283.713 95.3652 282.946C90.347 280.766 85.6433 277.925 81.3793 274.495C68.0916 263.782 40.6688 250.489 34.6459 242.843Z" stroke="#015D61" stroke-width="1.5" stroke-linecap="round" stroke-linejoin="round"/>
<path d="M87.1462 242.64C72.1582 242.336 45.5242 241.273 34.6457 242.843C40.6713 250.438 68.1048 263.768 81.4324 274.49C85.6938 277.92 90.3922 280.763 95.4077 282.946C100.218 282.186 105.838 280.92 111.459 280.059C101.207 269.122 92.9745 256.453 87.1462 242.64Z" stroke="#015D61" stroke-width="1.5" stroke-linecap="round" stroke-linejoin="round"/>
<path d="M190.753 401.789C191.209 409.384 190.753 420.575 190.146 432.069C204.158 426.76 217.118 419.01 228.426 409.182C228.122 406.599 227.919 404.017 227.869 401.586" stroke="#015D61" stroke-width="1.5" stroke-linecap="round" stroke-linejoin="round"/>
<path d="M188.474 484.526C188.778 487.458 189.33 489.297 190.247 489.59C195.894 491.389 211.015 461.594 222.4 448.474C225.774 444.65 228.54 440.33 230.603 435.664C231.344 432.244 231.397 428.711 230.755 425.27C228.388 430.206 225.374 434.803 221.792 438.941C210.599 451.859 196.272 478.754 188.474 484.526Z" stroke="#015D61" stroke-width="1.5" stroke-linecap="round" stroke-linejoin="round"/>
<path d="M190.145 432.018C189.284 447.006 187.259 473.592 188.474 484.518C196.272 478.746 210.636 451.837 221.787 438.947C225.366 434.805 228.38 430.208 230.749 425.275C230.141 420.414 229.129 414.741 228.47 409.12C217.155 418.965 204.176 426.717 190.145 432.018Z" stroke="#015D61" stroke-width="1.5" stroke-linecap="round" stroke-linejoin="round"/>
<path d="M343.469 297.377C366.659 285.984 380.635 255.755 381.096 254.691" stroke="#015D61" stroke-width="1.5" stroke-linecap="round" stroke-linejoin="round"/>
<path d="M363.976 271.503C356.78 280.009 347.767 289.166 339.114 293.889C334.723 296.378 329.601 297.255 324.632 296.37C303.499 292.106 263.516 271.305 253.085 260.166C234.196 239.992 235.747 224.623 237.388 198.948C238.055 188.517 239.366 188.768 240.933 193.618C243.265 200.856 246.207 218.402 248.629 225.316C248.856 226.011 249.322 226.604 249.946 226.986C251.811 228.052 252.987 225.721 253.943 222.429C254.959 218.935 255.684 214.282 256.627 211.503C258.282 206.602 261.659 202.135 262.197 216.516C262.511 224.972 262.533 239.536 271.716 244.871C278.863 248.944 286.312 252.465 293.995 255.403C301.943 258.516 310.27 260.559 318.756 261.48C323.364 261.725 329.541 256.467 335.415 248.314" stroke="#015D61" stroke-width="1.5" stroke-linecap="round" stroke-linejoin="round"/>
<path d="M246.35 216.867L237.844 179.448C237.654 178.629 237.801 177.769 238.246 177.057C238.694 176.344 239.405 175.839 240.224 175.651C241.042 175.463 241.902 175.608 242.614 176.054C243.328 176.5 243.832 177.211 244.021 178.03L254.047 222.133" stroke="#015D61" stroke-width="1.5" stroke-linecap="round" stroke-linejoin="round"/>
<path d="M230.789 319.907C222.89 316.514 217.373 314.086 217.373 314.086L230.096 344.771" stroke="#015D61" stroke-width="1.5" stroke-linecap="round" stroke-linejoin="round"/>
<path d="M339.113 293.883C348.678 301.534 358.706 308.588 369.14 315.003C386.152 303.131 397.965 285.187 402.148 264.869" stroke="#015D61" stroke-width="1.5" stroke-linecap="round" stroke-linejoin="round"/>
<path d="M242.502 245.577L218.754 235.501C212.872 233.016 206.487 231.957 200.12 232.412L116.519 238.64C114.638 256.136 114.862 266.199 123.406 281.579L193.183 282.237" stroke="#015D61" stroke-width="1.5" stroke-linecap="round" stroke-linejoin="round"/>
<path d="M367.166 138.636C367.166 138.636 376.032 122.025 396.888 132.155C417.745 142.284 413.699 182.992 413.699 182.992C413.699 182.992 432.234 191.853 442.108 206.791C457.4 229.931 449.701 264.869 402.149 264.869C404.416 254.895 405.201 244.641 404.478 234.437C403.213 216.462 396.681 200.006 390.908 183.144C389.592 179.245 386.452 169.726 385.389 165.774C384.427 162.08 383.971 159.495 382.553 155.092C388.683 149.269 381.389 142.282 378.098 147.95C376.645 150.349 376.363 150.21 374.772 150.735C370.833 152.03 360.221 154.97 352.324 152.601C352.33 152.609 351.823 138.636 367.166 138.636Z" stroke="#015D61" stroke-width="1.5" stroke-linecap="round" stroke-linejoin="round"/>
<path d="M467.121 147.343C485.072 156.001 501.961 166.707 517.453 179.245C517.889 179.517 518.252 179.89 518.512 180.332C518.773 180.775 518.922 181.274 518.946 181.787C518.971 182.299 518.871 182.811 518.655 183.276C518.439 183.742 518.113 184.149 517.706 184.461L506.161 193.626C499.165 184.45 489.68 176.695 480.15 168.684C487.486 178.173 493.91 188.333 499.338 199.028L486.917 208.867C486.516 209.185 486.045 209.402 485.542 209.5C485.04 209.598 484.522 209.574 484.03 209.431C483.539 209.287 483.09 209.027 482.72 208.673C482.35 208.32 482.07 207.883 481.904 207.398L462.362 151.106C462.133 150.475 462.109 149.788 462.293 149.142C462.477 148.497 462.859 147.925 463.385 147.509C463.912 147.093 464.556 146.853 465.227 146.823C465.897 146.793 466.56 146.975 467.121 147.343Z" stroke="#015D61" stroke-width="1.5" stroke-linecap="round" stroke-linejoin="round"/>
<path d="M123.811 50.8351C133.887 45.8195 145.179 52.9671 143.559 63.4938L148.268 67.8458L141.786 68.3521C136.065 78.0234 121.532 78.4311 116.773 68.9091C115.318 65.5778 115.243 61.8063 116.562 58.4194C117.881 55.0324 120.488 52.3056 123.811 50.8351Z" stroke="#015D61" stroke-width="1.5" stroke-linecap="round" stroke-linejoin="round"/>
<path d="M63.8592 343.404C65.3889 342.613 67.0599 342.13 68.7735 341.984C70.4897 341.837 72.2193 342.029 73.861 342.551C75.4999 343.074 77.0243 343.913 78.3382 345.024C79.6547 346.136 80.7393 347.495 81.5308 349.025C81.5308 349.025 90.0882 365.737 97.2783 365.228L61.53 383.71C66.1378 378.14 58.2387 361.078 58.2387 361.078C57.4472 359.549 56.9622 357.878 56.8183 356.162C56.6717 354.445 56.8636 352.718 57.386 351.077C57.9083 349.435 58.7477 347.913 59.8591 346.597C60.9704 345.28 62.3295 344.196 63.8592 343.404Z" stroke="#015D61" stroke-width="1.5" stroke-linecap="round" stroke-linejoin="round"/>
<path d="M73.5302 377.532C74.335 379.091 75.7288 380.264 77.3998 380.797C79.0707 381.327 80.8829 381.173 82.4419 380.368C84.001 379.563 85.1736 378.169 85.7066 376.498C86.2369 374.827 86.0823 373.015 85.2775 371.456" stroke="#015D61" stroke-width="1.5" stroke-linecap="round" stroke-linejoin="round"/>
<path d="M24.8701 149.979L34.3389 182.587" stroke="#015D61" stroke-width="1.5" stroke-linecap="round" stroke-linejoin="round"/>
<path d="M13.3256 170.992L45.9346 161.523" stroke="#015D61" stroke-width="1.5" stroke-linecap="round" stroke-linejoin="round"/>
<path d="M230.046 384.064C215.663 386.43 201.011 386.7 186.55 384.863" stroke="#015D61" stroke-width="1.5" stroke-linecap="round" stroke-linejoin="round"/>
<path d="M135.862 237.324C133.581 252.514 136.038 268.038 142.9 281.781" stroke="#015D61" stroke-width="1.5" stroke-linecap="round" stroke-linejoin="round"/>
<path d="M306.758 420.119C306.408 421.832 306.573 423.61 307.233 425.227C307.893 426.845 309.018 428.231 310.466 429.212C311.914 430.19 313.619 430.717 315.367 430.728C317.115 430.736 318.826 430.227 320.285 429.265C321.743 428.303 322.884 426.928 323.561 425.318C324.239 423.706 324.424 421.931 324.093 420.214C323.761 418.498 322.929 416.918 321.7 415.676C320.471 414.434 318.901 413.584 317.189 413.232C316.051 412.992 314.878 412.982 313.736 413.2C312.594 413.419 311.507 413.858 310.537 414.501C309.567 415.14 308.734 415.967 308.085 416.931C307.436 417.896 306.986 418.978 306.758 420.119Z" stroke="#015D61" stroke-width="1.5" stroke-linecap="round" stroke-linejoin="round"/>
<path d="M310.757 392.422C307.363 389.248 303.103 387.15 298.516 386.399C293.93 385.644 289.223 386.268 284.991 388.19C280.759 390.111 277.192 393.245 274.741 397.195C272.29 401.141 271.065 405.731 271.221 410.376C271.377 415.021 272.906 419.514 275.617 423.29C278.327 427.067 282.096 429.953 286.447 431.586C290.798 433.22 295.536 433.527 300.062 432.469C304.587 431.411 308.697 429.033 311.871 425.638C316.126 421.084 318.399 415.029 318.19 408.798C317.981 402.57 315.308 396.68 310.757 392.422Z" stroke="#015D61" stroke-width="1.5" stroke-linecap="round" stroke-linejoin="round"/>
<path d="M369.141 315.003C369.141 315.003 349.393 371.258 275.866 339.46L230.79 319.907C230.23 341.179 229.052 377.18 230.843 400.776C217.113 404.957 202.472 405.099 188.664 401.181C183.145 363.709 178.878 304.559 193.171 282.237C211.687 253.314 268.617 271.857 268.617 271.857" stroke="#015D61" stroke-width="1.5" stroke-linecap="round" stroke-linejoin="round"/>
<path d="M377.436 182.947C379.876 181.208 382.019 179.087 383.784 176.666L378.406 190.182" stroke="#015D61" stroke-width="1.5" stroke-linecap="round" stroke-linejoin="round"/>
</svg>
