<?xml version="1.0" encoding="UTF-8"?> <svg xmlns="http://www.w3.org/2000/svg" width="38" height="20" viewBox="0 0 38 20" fill="none"><path d="M37.3332 3.33333C37.3332 5.16667 35.8332 6.66667 33.9998 6.66667C33.6998 6.66667 33.4165 6.63333 33.1498 6.55L27.2165 12.4667C27.2998 12.7333 27.3332 13.0333 27.3332 13.3333C27.3332 15.1667 25.8332 16.6667 23.9998 16.6667C22.1665 16.6667 20.6665 15.1667 20.6665 13.3333C20.6665 13.0333 20.6998 12.7333 20.7832 12.4667L16.5332 8.21667C16.2665 8.3 15.9665 8.33333 15.6665 8.33333C15.3665 8.33333 15.0665 8.3 14.7998 8.21667L7.2165 15.8167C7.29984 16.0833 7.33317 16.3667 7.33317 16.6667C7.33317 18.5 5.83317 20 3.99984 20C2.1665 20 0.666504 18.5 0.666504 16.6667C0.666504 14.8333 2.1665 13.3333 3.99984 13.3333C4.29984 13.3333 4.58317 13.3667 4.84984 13.45L12.4498 5.86667C12.3665 5.6 12.3332 5.3 12.3332 5C12.3332 3.16667 13.8332 1.66667 15.6665 1.66667C17.4998 1.66667 18.9998 3.16667 18.9998 5C18.9998 5.3 18.9665 5.6 18.8832 5.86667L23.1332 10.1167C23.3998 10.0333 23.6998 10 23.9998 10C24.2998 10 24.5998 10.0333 24.8665 10.1167L30.7832 4.18333C30.6998 3.91667 30.6665 3.63333 30.6665 3.33333C30.6665 1.5 32.1665 0 33.9998 0C35.8332 0 37.3332 1.5 37.3332 3.33333Z" fill="#3F6DE4"></path></svg> 