<?xml version="1.0" encoding="UTF-8"?> <svg xmlns="http://www.w3.org/2000/svg" width="37" height="28" viewBox="0 0 37 28" fill="none"><path d="M33.125 1.125C31.3213 0.55625 29.3388 0.3125 27.4375 0.3125C24.2687 0.3125 20.8563 0.9625 18.5 2.75C16.1438 0.9625 12.7312 0.3125 9.5625 0.3125C6.39375 0.3125 2.98125 0.9625 0.625 2.75V26.5562C0.625 26.9625 1.03125 27.3687 1.4375 27.3687C1.6 27.3687 1.68125 27.2875 1.84375 27.2875C4.0375 26.2313 7.20625 25.5 9.5625 25.5C12.7312 25.5 16.1438 26.15 18.5 27.9375C20.6938 26.5562 24.675 25.5 27.4375 25.5C30.1187 25.5 32.8812 25.9875 35.1562 27.2062C35.3187 27.2875 35.4 27.2875 35.5625 27.2875C35.9688 27.2875 36.375 26.8813 36.375 26.475V2.75C35.4 2.01875 34.3438 1.53125 33.125 1.125ZM33.125 23.0625C31.3375 22.4937 29.3875 22.25 27.4375 22.25C24.675 22.25 20.6938 23.3062 18.5 24.6875V6C20.6938 4.61875 24.675 3.5625 27.4375 3.5625C29.3875 3.5625 31.3375 3.80625 33.125 4.375V23.0625Z" fill="#3F6DE4"></path></svg> 