<svg width="1919" height="779" viewBox="0 0 1919 779" fill="none" xmlns="http://www.w3.org/2000/svg">
<g opacity="0.15">
<path opacity="0.4" d="M-213.543 477.334C-222.143 477.334 -230.765 477.026 -239.357 476.353C-296.042 472.035 -352.153 453.206 -406.145 420.694C-464.536 385.506 -521.136 333.651 -574.279 266.569C-589.167 247.793 -604.109 227.446 -618.554 207.744C-649.173 165.997 -680.839 122.862 -713.661 92.7162C-750.653 58.7889 -788.831 42.5588 -823.956 45.7996C-851.889 48.3716 -876.769 63.5991 -895.911 89.8098C-919.698 122.399 -935.626 171.142 -951.028 218.419C-960.889 248.59 -971.104 279.816 -983.299 306.67C-1000.28 344.017 -1022.3 372.671 -1048.69 391.782C-1073.12 409.799 -1103.35 419.52 -1134.43 419.356C-1162.23 419.356 -1191.62 412.128 -1221.71 397.93C-1251.81 383.731 -1282.13 362.691 -1311.82 335.529C-1374.16 278.375 -1430.58 196.632 -1474.96 98.8896C-1516.81 6.80579 -1549.27 -96.5955 -1580.67 -196.679C-1608.88 -286.447 -1637.99 -379.303 -1673.8 -463.927C-1701.95 -530.367 -1739.02 -592.536 -1778.16 -638.835C-1818.7 -686.832 -1858.3 -713.711 -1889.69 -714.482H-1891.14C-1913.94 -714.482 -1932.12 -700.953 -1945.22 -674.279L-1945.99 -674.614C-1932.73 -701.596 -1914.29 -715.254 -1891.07 -715.254H-1889.58C-1857.97 -714.456 -1818.18 -687.5 -1777.42 -639.324C-1738.23 -593.024 -1701.1 -530.752 -1672.92 -464.236C-1637.08 -379.663 -1607.96 -286.91 -1579.82 -197.193C-1548.43 -97.1869 -1515.93 6.24011 -1474.14 98.2717C-1429.78 196.014 -1373.42 277.681 -1311.17 334.758C-1281.61 361.868 -1251.34 382.806 -1221.28 397.004C-1191.2 411.202 -1162.04 418.353 -1134.35 418.353C-1103.48 418.499 -1073.46 408.832 -1049.21 390.934C-1022.91 371.9 -1000.99 343.374 -984.072 306.052C-971.876 279.25 -961.685 248.05 -951.823 217.878C-936.392 170.679 -920.432 121.885 -896.569 89.2692C-877.343 62.853 -852.218 47.5231 -824.04 44.9254C-788.639 41.6589 -750.27 57.9662 -713.08 92.0731C-680.128 122.245 -648.515 165.432 -617.865 207.204C-603.421 226.906 -588.479 247.252 -573.621 266.003C-520.456 333.112 -463.985 384.889 -405.793 420.051C-351.931 452.588 -295.935 471.262 -239.411 475.587C-132.583 483.764 -24.2075 440.962 74.0588 351.862C146.591 286.118 213.658 201.982 278.527 120.599C370.586 5.15967 465.748 -114.24 577.884 -182.403C636.238 -218.158 702.659 -240.734 771.916 -248.354C838.818 -255.787 910.498 -249.897 984.953 -230.863C1057.05 -212.446 1132.49 -181.529 1209.17 -138.985C1284.01 -97.4447 1360.58 -44.5609 1436.76 18.2263C1457.72 35.5111 1479.14 53.8763 1499.93 71.6243C1583.36 143.182 1669.63 217.158 1751.86 242.365C1829.44 266.158 1902.91 246.558 1970.25 184.105C2028.8 129.781 2080.98 45.2081 2125.36 -67.2472C2169.74 -179.703 2204.59 -309.957 2238.32 -435.942C2266.56 -541.401 2295.75 -650.358 2330.35 -748.487C2372.31 -867.372 2420.65 -959.765 2474.07 -1023.07C2536.94 -1097.66 2606.86 -1131.59 2681.97 -1124.15V-1123.38C2607.19 -1130.78 2537.49 -1096.86 2474.81 -1022.6C2421.45 -959.353 2373.19 -867.063 2331.23 -748.255C2296.27 -650.153 2267.1 -541.093 2238.98 -435.634C2205.23 -309.597 2170.32 -179.342 2125.97 -66.8613C2081.61 45.6199 2029.29 130.373 1970.66 184.774C1903.12 247.458 1829.36 267.084 1751.41 243.24C1669.02 217.955 1582.71 143.928 1499.21 72.3188C1478.53 54.5708 1457.11 36.3087 1436.05 18.9459C1359.92 -43.8148 1283.38 -96.6729 1208.59 -138.188C1131.97 -180.706 1056.61 -211.572 984.596 -229.988C910.224 -248.997 838.653 -254.861 771.861 -247.454C702.733 -239.848 636.434 -217.316 578.185 -181.632C466.297 -113.547 371.163 5.80261 279.159 121.19C214.289 202.6 147.195 286.761 74.6077 352.686C-15.8027 434.507 -115.031 477.334 -213.543 477.334Z" fill="white"/>
<path opacity="0.4" d="M-228.836 495.084C-236.862 495.084 -244.903 494.798 -252.928 494.203C-309.72 490.093 -366.022 471.262 -420.32 438.261C-478.926 402.637 -535.886 349.985 -589.579 281.771C-604.575 262.762 -619.593 242.134 -634.122 222.199C-664.939 179.862 -696.905 136.108 -729.864 105.603C-766.94 71.2126 -805.14 54.8279 -840.212 58.2233C-868.03 60.7959 -892.781 76.229 -911.617 102.979C-935.158 136.083 -950.751 185.546 -965.861 233.388C-975.501 264.023 -985.493 295.712 -997.528 322.951C-1014.2 360.788 -1035.97 389.828 -1062.06 409.248C-1086.13 427.555 -1116.2 437.546 -1147.2 437.541H-1147.94C-1175.41 437.541 -1204.66 430.339 -1234.57 416.141C-1264.47 401.943 -1295.24 380.542 -1325.03 353.046C-1387.7 295.146 -1444.61 212.09 -1489.6 112.856C-1531.91 19.4866 -1564.98 -85.4062 -1596.92 -186.827C-1625.57 -277.779 -1655.21 -371.843 -1691.48 -457.548C-1720.05 -524.99 -1757.4 -588.009 -1796.89 -635.028C-1837.7 -683.693 -1877.44 -710.83 -1908.78 -711.447C-1932.12 -711.884 -1950.57 -698.175 -1963.7 -670.601L-1964.44 -670.909C-1951.15 -698.818 -1932.43 -712.707 -1908.72 -712.219C-1877.14 -711.602 -1837.32 -684.362 -1796.12 -635.517C-1756.66 -588.472 -1719.22 -525.402 -1690.61 -457.883C-1654.33 -372.126 -1624.69 -278.062 -1596.02 -187.11C-1564.08 -85.6891 -1531.04 19.1779 -1488.75 112.496C-1443.78 211.628 -1386.96 294.606 -1324.35 352.428C-1294.63 379.899 -1264.26 401.068 -1234.1 415.395C-1203.95 429.722 -1175.27 436.718 -1147.84 436.718H-1147.09C-1116.29 436.731 -1086.42 426.812 -1062.51 408.63C-1036.44 389.288 -1014.83 360.376 -998.208 322.668C-986.212 295.455 -976.243 263.791 -966.549 233.157C-951.439 185.263 -935.816 135.748 -912.221 102.542C-893.132 75.74 -868.282 60.153 -840.128 57.452C-804.781 54.0825 -766.389 70.5438 -729.038 105.114C-696.078 135.672 -664.113 179.45 -633.273 221.813C-618.744 241.748 -603.718 262.377 -588.753 281.359C-535.113 349.496 -478.214 402.097 -419.685 437.67C-365.525 470.596 -309.361 489.399 -252.706 493.487C-146.475 501.206 -38.9268 457.479 58.2131 367.45C130.223 300.573 196.658 215.177 260.897 132.533C352.049 15.2684 446.333 -106.01 557.698 -175.304C615.584 -211.623 681.795 -234.65 750.962 -242.515C817.699 -250.231 889.27 -244.264 963.724 -225.075C1035.79 -206.479 1111.26 -175.227 1188.08 -132.169C1263.03 -90.1392 1339.79 -36.6123 1416.19 26.9976C1437.23 44.4878 1458.71 63.0077 1479.36 81.0128C1563.07 153.471 1649.64 228.398 1731.86 253.862C1809.48 277.913 1882.69 257.901 1949.49 194.446C2007.57 139.247 2059.15 53.3622 2102.76 -60.7909C2146.37 -174.944 2180.37 -307.128 2213.28 -434.99C2240.74 -541.967 2269.24 -652.596 2303.19 -752.19C2344.39 -872.877 2392.04 -966.658 2444.96 -1030.96C2507.25 -1106.63 2576.78 -1141.23 2651.85 -1133.85V-1133.08C2577.11 -1140.46 2507.8 -1105.97 2445.7 -1030.53C2392.84 -966.221 2345.19 -872.593 2304.07 -751.985C2270.12 -652.416 2241.67 -541.812 2214.15 -434.836C2181.2 -306.948 2147.22 -174.738 2103.61 -60.5597C2060 53.6191 2008.28 139.71 1950.04 194.985C1882.97 258.673 1809.48 278.735 1731.53 254.608C1649.14 229.092 1562.52 154.088 1478.86 81.5791C1458.1 63.5734 1436.62 45.0283 1415.7 27.5632C1339.32 -35.9951 1262.61 -89.522 1187.75 -131.5C1111.01 -174.532 1035.6 -205.758 963.614 -224.329C889.27 -243.492 817.809 -249.357 751.181 -241.743C682.141 -233.902 616.05 -210.919 558.275 -174.661C447.019 -105.443 352.791 15.6801 261.666 132.971C197.401 215.64 130.965 301.139 58.927 367.99C-31.3462 451.457 -130.248 495.084 -228.836 495.084Z" fill="white"/>
<path opacity="0.4" d="M-244.001 512.827C-251.499 512.827 -258.943 512.569 -266.411 512.061C-323.317 508.152 -379.841 489.241 -434.407 455.83C-493.318 419.82 -550.691 366.318 -604.905 296.973C-619.954 277.707 -635.111 256.821 -649.724 236.604C-680.732 193.726 -712.889 149.408 -745.848 118.49C-783.169 83.6628 -821.431 67.0469 -856.387 70.5447C-884.16 73.2971 -908.573 89.0129 -927.44 116.021C-950.729 149.639 -965.886 199.848 -980.774 248.385C-990.253 279.482 -1000 311.635 -1011.87 339.285C-1028.34 377.584 -1049.65 407.011 -1075.55 426.739C-1099.28 445.284 -1129.15 455.515 -1160.06 455.676H-1161.52C-1188.84 455.676 -1217.76 448.474 -1247.47 434.275C-1277.69 419.794 -1308.34 398.265 -1338.3 370.46C-1401.3 311.789 -1458.7 227.55 -1504.27 126.824C-1547.08 32.1938 -1580.7 -74.1395 -1613.21 -177.001C-1642.35 -269.213 -1672.51 -364.563 -1709.34 -451.452C-1738.28 -519.897 -1776.08 -583.815 -1815.73 -631.503C-1856.93 -680.812 -1896.7 -708.231 -1927.97 -708.669H-1928.82C-1951.59 -708.669 -1969.61 -694.702 -1982.36 -667.154L-1983.12 -667.437C-1970.05 -695.73 -1951.49 -709.749 -1927.95 -709.44C-1896.42 -708.951 -1856.35 -681.429 -1815.1 -631.915C-1775.36 -584.253 -1737.54 -520.283 -1708.56 -451.863C-1671.82 -364.923 -1641.69 -269.573 -1612.44 -177.335C-1579.95 -74.4481 -1546.34 31.8079 -1503.52 126.412C-1458.02 227.036 -1400.67 311.197 -1337.72 369.766C-1307.84 397.597 -1277.3 419.023 -1247.09 433.453C-1217.46 447.599 -1188.68 454.776 -1161.49 454.776H-1160.03C-1129.35 454.602 -1099.69 444.445 -1076.13 426.045C-1050.34 406.393 -1029 377.173 -1012.66 338.899C-1000.85 311.274 -991.072 279.148 -981.623 248.076C-966.85 199.462 -951.418 149.202 -928.182 115.506C-909.315 88.2926 -884.542 72.4485 -856.525 69.6704C-821.239 66.1719 -782.817 82.8395 -745.328 117.847C-712.177 148.713 -680.074 193.16 -649.035 236.167C-634.399 256.384 -619.296 277.321 -604.247 296.51C-550.087 365.779 -492.798 419.177 -433.971 455.187C-379.535 488.625 -323.149 507.4 -266.441 511.288C-160.73 518.562 -54.0894 474.141 41.9797 382.909C113.386 315.029 179.299 228.271 242.851 144.341C333.124 25.2743 426.474 -97.8556 537.236 -168.333C594.655 -205.193 660.657 -228.652 729.73 -236.752C796.303 -244.597 867.763 -238.733 942.19 -219.364C1014.23 -200.613 1089.78 -169.027 1166.68 -125.455C1241.77 -82.9623 1318.69 -28.741 1395.34 35.64C1416.46 53.3623 1438 72.1908 1458.84 90.402C1542.82 163.786 1629.67 239.588 1711.89 265.309C1789.51 289.565 1862.48 269.194 1928.86 204.735C1986.53 148.662 2037.45 61.4906 2080.29 -54.3594C2123.14 -170.21 2156.26 -304.349 2188.34 -434.09C2215.14 -542.635 2242.88 -654.885 2276.22 -755.945C2316.54 -878.406 2363.58 -973.628 2416.04 -1038.88C2477.72 -1115.74 2546.99 -1150.93 2622.02 -1143.52V-1142.75C2547.37 -1150.13 2478.39 -1115.02 2416.89 -1038.42C2364.24 -973.216 2317.25 -878.046 2276.96 -755.688C2243.67 -654.627 2215.94 -542.378 2189.08 -433.858C2157 -304.092 2123.85 -169.927 2081.03 -54.0765C2038.22 61.7742 1987.13 149.124 1929.41 205.326C1862.86 270.017 1789.61 290.465 1711.67 266.107C1629.28 240.385 1542.35 164.404 1458.32 90.9678C1437.47 72.7572 1415.94 53.9545 1394.82 36.2323C1318.2 -28.0721 1241.33 -82.3193 1166.3 -124.812C1089.4 -168.333 1013.98 -199.893 941.998 -218.619C867.681 -237.961 796.44 -243.8 729.867 -235.981C660.884 -227.912 594.965 -204.496 537.62 -167.69C426.968 -97.2892 333.674 25.7633 243.427 144.803C179.794 228.733 113.99 315.544 42.4739 383.449C-46.811 468.405 -145.459 512.827 -244.001 512.827Z" fill="white"/>
<path opacity="0.4" d="M-259.157 530.548C-266.112 530.548 -272.89 530.348 -279.975 529.882C-336.966 526.202 -393.651 507.198 -448.499 473.295C-507.732 436.796 -565.518 382.549 -620.229 312.071C-635.363 292.677 -650.572 271.508 -665.323 251.137C-696.523 207.718 -728.817 162.808 -762.022 131.505C-799.488 96.0859 -837.772 79.3411 -872.675 82.9163C-900.356 85.746 -924.854 101.719 -943.284 129.216C-966.329 163.348 -981.294 214.277 -995.739 263.535C-1005 295.069 -1014.55 327.684 -1026.2 355.772C-1042.29 394.535 -1063.44 424.346 -1089.09 444.409C-1112.47 463.199 -1142.18 473.674 -1172.99 473.99C-1200.7 474.398 -1230.14 467.173 -1260.46 452.589C-1290.78 438.005 -1321.52 416.295 -1351.62 388.053C-1414.95 328.662 -1472.84 243.24 -1518.98 141.124C-1562.27 45.2084 -1596.46 -62.5914 -1629.55 -166.842C-1659.19 -260.314 -1689.97 -356.976 -1727.02 -445.047C-1756.35 -514.496 -1794.5 -579.315 -1834.44 -627.543C-1875.79 -677.52 -1915.78 -705.223 -1947.03 -705.557H-1947.61C-1970.37 -705.557 -1988.32 -691.359 -2000.89 -663.374L-2001.66 -663.656C-1988.91 -691.95 -1970.73 -706.328 -1947.61 -706.328H-1947.03C-1915.56 -705.994 -1875.35 -678.189 -1833.83 -628.031C-1793.87 -579.727 -1755.66 -514.856 -1726.31 -445.408C-1689.12 -357.31 -1658.47 -260.623 -1628.81 -167.15C-1595.85 -62.9258 -1561.55 44.8481 -1518.27 140.738C-1472.18 242.854 -1414.34 328.198 -1351.06 387.667C-1321.05 415.832 -1290.46 437.49 -1260.17 451.971C-1230.72 466.12 -1202.13 473.295 -1175.16 473.295H-1173.08C-1142.41 472.944 -1112.86 462.469 -1089.64 443.715C-1064.1 423.729 -1042.95 394.021 -1026.99 355.386C-1015.38 327.35 -1005.82 294.76 -996.565 263.226C-982.089 213.917 -967.125 162.911 -943.996 128.701C-925.351 101.102 -900.715 84.974 -872.782 82.1443C-837.604 78.5435 -799.128 95.3656 -761.471 130.836C-728.213 162.19 -695.888 207.126 -664.665 250.596C-649.945 271.174 -634.727 292.24 -619.594 311.736C-564.944 382.137 -507.211 436.307 -448.086 472.758C-393.344 506.475 -336.797 525.436 -279.921 529.109C-174.738 535.925 -68.9426 490.737 26.0251 398.418C96.9368 329.484 162.081 241.516 225.083 156.223C314.478 35.3309 406.921 -89.6764 517.052 -161.286C574.011 -198.695 639.81 -222.605 708.804 -230.966C775.185 -238.991 846.563 -233.152 920.963 -213.629C993.001 -194.698 1068.58 -162.777 1145.62 -118.716C1220.81 -75.7096 1297.93 -20.9734 1374.83 44.3593C1395.98 62.365 1417.62 81.3732 1438.52 99.7899C1522.81 174.1 1610.06 250.905 1692.17 276.858C1741.31 292.291 1788.96 289.719 1833.75 268.833C1943.61 217.673 2016.31 68.3838 2057.88 -47.8528C2099.96 -165.375 2132.23 -301.469 2163.46 -433.061C2189.58 -543.202 2216.57 -657.071 2249.2 -759.727C2288.71 -883.962 2335.1 -980.571 2387.03 -1046.86C2448.17 -1124.87 2517.08 -1160.68 2591.95 -1153.25V-1152.49C2517.44 -1159.88 2448.78 -1124.2 2387.84 -1046.42C2335.93 -980.184 2289.59 -883.654 2250.1 -759.495C2217.48 -656.969 2190.48 -543.124 2164.36 -433.01C2133.14 -301.366 2100.86 -165.272 2058.79 -47.699C2017.16 68.6666 1944.37 218.161 1834.22 269.424C1789.23 290.362 1741.39 293.088 1692.04 277.501C1609.64 251.497 1522.42 174.614 1438.08 100.252C1417.18 81.8107 1395.57 62.776 1374.42 44.8225C1297.52 -20.3304 1220.62 -75.1691 1145.31 -118.15C1068.42 -162.186 992.835 -194.081 920.88 -212.986C846.728 -232.483 775.321 -238.322 709.024 -230.297C640.182 -221.994 574.521 -198.162 517.683 -160.848C407.663 -89.3162 315.275 35.6144 225.907 156.454C162.74 241.671 97.7058 329.768 26.7668 398.753C-62.2434 485.36 -160.645 530.548 -259.157 530.548Z" fill="white"/>
<path opacity="0.4" d="M-274.296 548.299C-280.715 548.299 -287.119 548.12 -293.515 547.705C-350.613 544.239 -407.489 525.15 -462.582 490.967C-522.128 454.03 -580.321 398.986 -635.605 327.402C-650.846 307.622 -666.178 286.247 -680.975 265.439C-712.427 221.428 -744.912 175.953 -778.224 144.264C-815.766 108.536 -854.082 91.6625 -888.908 95.2634C-916.367 98.1956 -940.758 114.426 -959.074 142.232C-981.896 176.853 -996.509 228.528 -1010.66 278.556C-1019.69 310.554 -1029.06 343.633 -1040.51 372.107C-1056.3 411.358 -1077.17 441.555 -1102.57 461.926C-1125.59 480.936 -1155.08 491.64 -1185.76 492.127H-1188.51C-1215.4 492.127 -1243.91 484.924 -1273.29 470.697C-1303.72 455.959 -1334.51 434.019 -1364.74 405.442C-1428.44 345.279 -1486.8 258.674 -1533.51 154.964C-1577.29 57.7611 -1612.05 -51.4786 -1645.67 -157.117C-1675.89 -251.851 -1707 -349.825 -1744.54 -439.054C-1774.26 -509.505 -1812.77 -575.224 -1852.94 -624.121C-1894.58 -674.742 -1934.67 -702.727 -1965.82 -702.907H-1966.12C-1988.89 -702.907 -2006.74 -688.477 -2019.12 -660.054L-2019.9 -660.338C-2007.34 -689.095 -1989.27 -703.678 -1966.12 -703.678H-1965.82C-1934.4 -703.499 -1894.09 -675.385 -1852.31 -624.584C-1812.08 -575.713 -1773.52 -509.865 -1743.8 -439.388C-1706.15 -350.134 -1674.95 -252.16 -1644.93 -157.401C-1611.31 -51.7615 -1576.57 57.4525 -1532.8 154.604C-1486.11 258.236 -1427.83 344.764 -1364.22 404.824C-1334.02 433.35 -1303.34 455.264 -1272.96 469.952C-1242.58 484.638 -1213.39 491.741 -1185.84 491.275C-1155.34 490.788 -1126.01 480.156 -1103.1 461.281C-1077.8 440.989 -1057.01 410.869 -1041.27 371.772C-1029.85 343.324 -1020.49 310.272 -1011.45 278.299C-997.282 228.271 -982.638 176.544 -959.762 141.82C-941.331 113.809 -916.833 97.4502 -888.992 94.5173C-853.89 90.7625 -815.361 107.816 -777.566 143.723C-744.17 175.464 -711.654 220.889 -680.209 265.001C-665.405 285.733 -649.996 307.185 -634.863 326.939C-579.716 398.471 -521.631 453.438 -462.169 490.352C-407.244 524.456 -350.421 543.516 -293.492 546.939C-188.821 553.318 -83.8599 507.328 10.0408 413.904C80.4312 343.915 144.944 254.43 207.314 168.056C295.83 45.3632 387.367 -81.4448 496.865 -154.263C553.347 -192.225 618.938 -216.58 687.849 -225.177C754.037 -233.434 825.334 -227.595 899.733 -207.893C971.743 -188.833 1047.35 -156.449 1124.52 -111.976C1199.8 -68.4806 1277.11 -12.9731 1354.26 53.0282C1375.49 71.2137 1397.19 90.5048 1418.17 109.154C1502.73 184.364 1590.14 262.146 1672.38 288.356C1721.18 303.79 1768.5 301.218 1812.71 280.434C1922.57 228.991 1994.5 76.9497 2035.5 -41.3956C2076.7 -160.616 2108.17 -298.613 2138.57 -432.135C2163.98 -543.818 2190.26 -659.309 2222.23 -763.353C2260.95 -889.389 2306.65 -987.387 2358.12 -1054.68C2418.54 -1133.88 2487.2 -1170.24 2562.01 -1162.71V-1161.94C2487.61 -1169.32 2419.2 -1133.05 2358.77 -1054.11C2307.39 -986.9 2261.69 -888.952 2223.03 -762.993C2191.05 -659 2164.77 -543.51 2139.37 -431.852C2108.99 -298.33 2077.58 -160.282 2036.27 -41.0363C1995.24 77.4637 1923.2 229.557 1813.07 281.257C1768.55 302.143 1721.13 304.818 1672.13 289.205C1589.74 262.943 1502.21 185.11 1417.59 109.848C1396.64 91.1993 1374.94 71.8824 1353.71 53.7228C1276.59 -12.2278 1199.34 -67.7094 1124.09 -111.205C1046.99 -155.729 971.441 -187.958 899.514 -207.018C825.36 -226.695 753.955 -232.508 688.042 -224.277C619.269 -215.704 553.809 -191.401 497.442 -153.517C387.917 -80.9301 296.462 45.8779 208.001 168.519C145.603 254.995 81.0625 344.43 10.6453 414.47C-77.678 502.309 -175.807 548.299 -274.296 548.299Z" fill="white"/>
<path opacity="0.4" d="M-289.424 566.049C-295.33 566.049 -301.26 565.892 -307.166 565.534C-364.348 562.269 -421.385 543.079 -476.754 508.51C-536.599 471.162 -595.288 415.319 -650.848 342.603C-666.173 322.592 -681.582 300.857 -696.493 279.843C-728.129 235.293 -760.813 189.225 -794.263 157.15C-832.027 120.96 -870.365 103.855 -905.107 107.636C-932.574 110.646 -956.765 127.133 -974.867 155.324C-997.445 190.485 -1011.72 242.778 -1025.54 293.552C-1034.41 325.988 -1043.56 359.529 -1054.81 388.414C-1070.3 428.129 -1090.9 458.739 -1116.06 479.418C-1138.79 498.707 -1168.2 509.67 -1198.86 510.286H-1202.24C-1228.91 510.286 -1257.17 503.082 -1286.47 488.855C-1316.96 473.99 -1347.85 451.792 -1378.26 422.855C-1442.25 361.972 -1501.04 274.184 -1548.36 168.982C-1592.64 70.519 -1628.01 -40.187 -1662.15 -147.241C-1692.8 -243.234 -1724.49 -342.494 -1762.56 -432.906C-1792.77 -504.36 -1831.52 -570.98 -1871.95 -620.494C-1913.86 -671.783 -1954.06 -700.051 -1985.16 -700.077C-2007.92 -700.077 -2025.66 -685.441 -2037.89 -656.556L-2038.65 -656.839C-2026.26 -686.033 -2008.28 -700.849 -1985.16 -700.849C-1953.79 -700.849 -1913.36 -672.555 -1871.29 -620.957C-1830.81 -571.392 -1791.94 -504.721 -1761.81 -433.189C-1723.7 -342.751 -1692 -243.465 -1661.35 -147.472C-1627.19 -40.4183 -1591.84 70.262 -1547.6 168.673C-1500.33 273.798 -1441.56 361.586 -1377.65 422.315C-1347.3 451.201 -1316.51 473.346 -1286.09 488.161C-1255.66 502.975 -1226.41 510.128 -1198.91 509.484C-1168.4 508.882 -1139.15 497.97 -1116.52 478.773C-1091.48 458.195 -1070.94 427.665 -1055.5 388.079C-1044.24 359.22 -1035.09 325.705 -1026.28 293.27C-1012.55 242.546 -998.126 190.1 -975.495 154.861C-957.232 126.567 -932.903 109.822 -905.138 106.787C-870.09 102.981 -831.53 120.162 -793.604 156.532C-760.071 188.736 -727.448 234.829 -695.804 279.431C-680.893 300.42 -665.599 322.155 -650.19 342.141C-594.545 414.804 -536.048 470.568 -476.287 507.865C-421.056 542.356 -364.126 561.524 -307.112 564.76C-202.97 570.732 -98.8269 523.94 -5.94165 429.466C63.8997 358.422 127.752 267.676 189.519 179.965C277.156 55.4727 367.759 -73.265 476.654 -147.189C532.666 -185.638 598.035 -210.393 666.841 -219.21C732.892 -227.647 804.16 -221.782 878.45 -201.976C950.432 -182.736 1026.12 -150.121 1103.38 -105.057C1178.8 -61.0469 1256.27 -4.87073 1333.66 61.9283C1354.98 80.3193 1376.75 99.8423 1397.79 118.747C1482.63 194.858 1570.35 273.593 1652.57 300.035C1701.02 315.622 1747.85 312.895 1791.68 292.318C1901.53 240.308 1972.72 85.7983 2013.09 -34.6823C2053.61 -155.575 2084.14 -295.552 2113.69 -430.797C2138.41 -543.972 2163.95 -661.186 2195.26 -766.696C2233.16 -894.507 2278.23 -993.945 2329.2 -1062.21C2389.19 -1142.57 2457.43 -1179.55 2532.08 -1172.15V-1171.38C2457.71 -1178.76 2389.76 -1141.88 2329.94 -1061.77C2279.03 -993.559 2234.01 -894.225 2196.14 -766.491C2164.86 -661.032 2139.29 -543.895 2114.57 -430.643C2084.94 -295.603 2054.4 -155.626 2013.78 -34.6823C1973.16 86.2616 1902.08 240.54 1791.98 292.781C1748.04 313.641 1700.91 316.265 1652.21 300.497C1569.82 274.004 1481.94 195.218 1397.13 119.031C1376.1 100.151 1354.32 80.6021 1333.03 62.2368C1255.67 -4.63953 1178.25 -60.6868 1102.86 -104.645C1025.66 -149.684 950.048 -182.273 878.148 -201.487C803.996 -221.345 732.809 -227.209 666.868 -218.695C598.175 -209.868 532.924 -185.112 477.038 -146.674C368.281 -72.8534 277.705 55.832 190.123 180.274C128.329 268.036 64.4482 358.783 -5.41968 429.775C-93.1118 519.286 -190.966 566.049 -289.424 566.049Z" fill="white"/>
<path opacity="0.4" d="M-304.533 583.799C-310.027 583.799 -315.459 583.649 -320.845 583.355C-378.05 580.377 -435.286 561.03 -490.93 526.074C-551.073 488.268 -610.038 431.652 -666.202 357.805C-681.611 337.536 -697.127 315.544 -712.122 294.247C-743.95 249.131 -776.856 202.497 -810.413 170.036C-848.314 133.408 -886.683 116.021 -921.372 120.008C-948.831 123.095 -972.778 139.839 -990.688 168.442C-1013.01 204.092 -1026.97 257.208 -1040.48 308.599C-1049.13 341.472 -1058.05 375.476 -1069.16 404.799C-1084.34 444.976 -1104.69 475.995 -1129.57 496.989C-1151.96 516.536 -1181.2 527.756 -1211.8 528.544C-1239.26 529.267 -1268.87 522.093 -1299.38 507.121C-1329.89 492.149 -1360.93 469.694 -1391.47 440.423C-1455.79 378.691 -1515.05 289.823 -1562.92 183.206C-1607.69 83.4832 -1643.62 -28.6893 -1678.27 -137.158C-1709.42 -234.386 -1741.61 -334.958 -1780.17 -426.553C-1810.65 -499.011 -1849.84 -566.505 -1890.51 -616.636C-1932.59 -668.491 -1972.91 -697.043 -2003.85 -697.043H-2004.19C-2026.81 -697.043 -2044.42 -682.098 -2056.37 -652.853L-2057.13 -653.136C-2045 -682.689 -2027.14 -697.711 -2004.13 -697.814H-2003.94C-1972.66 -697.814 -1932.17 -669.16 -1889.93 -617.125C-1849.21 -566.916 -1809.99 -499.345 -1779.48 -426.784C-1741.03 -335.164 -1708.7 -234.592 -1677.56 -137.312C-1642.82 -28.869 -1606.92 83.277 -1562.21 182.974C-1514.37 289.54 -1455.1 378.459 -1390.92 440.011C-1360.44 469.229 -1329.51 491.633 -1299.02 506.577C-1268.54 521.527 -1239.29 528.673 -1211.86 527.9C-1181.45 527.119 -1152.4 515.971 -1130.15 496.545C-1105.44 475.637 -1085.05 444.719 -1069.9 404.67C-1058.91 375.399 -1049.9 341.421 -1041.25 308.522C-1027.73 257.079 -1013.79 203.912 -991.377 168.185C-973.329 139.376 -949.137 122.477 -921.426 119.314C-886.408 115.301 -847.955 132.817 -809.808 169.497C-776.167 202.009 -743.269 248.693 -711.411 293.835C-696.416 315.107 -680.892 337.099 -665.49 357.342C-609.38 431.189 -550.499 487.774 -490.433 525.436C-434.957 560.314 -377.828 579.446 -320.791 582.589C-315.298 582.868 -309.805 583.026 -304.533 583.026C-206.351 583.026 -109.017 535.54 -21.9546 444.976C47.3364 372.956 110.558 280.82 171.693 191.823C258.451 65.5039 348.176 -65.0854 456.411 -140.167C511.952 -179.218 577.143 -204.463 645.912 -213.551C711.825 -222.194 782.902 -216.432 857.219 -196.369C929.201 -176.975 1004.92 -144.025 1082.42 -98.4463C1157.95 -53.9478 1235.62 2.87146 1313.12 70.4681C1334.51 89.0905 1356.35 108.845 1377.47 127.982C1462.6 205.147 1550.49 284.678 1632.88 311.378C1681 326.99 1727.41 324.419 1770.78 303.661C1880.63 251.24 1951.05 94.0803 1990.79 -28.5089C2030.53 -151.099 2060.19 -293.031 2088.91 -430.283C2112.92 -545.104 2137.78 -663.836 2168.4 -770.812C2205.47 -900.424 2249.89 -1001.26 2300.22 -1070.52C2359.65 -1152.06 2427.6 -1189.64 2502.11 -1182.23V-1181.46C2427.96 -1188.84 2360.23 -1151.36 2300.99 -1070.09C2250.57 -1000.89 2206.19 -900.141 2169.16 -770.607C2138.55 -663.655 2113.72 -544.95 2089.69 -430.128C2060.99 -292.877 2031.3 -150.945 1991.53 -28.3035C1951.77 94.3374 1881.23 251.806 1771.13 304.33C1727.55 325.139 1680.94 327.711 1632.58 312.046C1550.19 285.296 1462.11 205.584 1376.92 128.47C1355.8 109.359 1333.96 89.5793 1312.6 70.9822C1235.01 3.41125 1157.4 -53.3821 1081.9 -97.8291C1004.56 -143.382 928.927 -176.306 857.027 -195.7C782.874 -215.712 711.825 -221.422 646.049 -212.831C577.439 -203.76 512.397 -178.567 456.987 -139.601C348.862 -64.6222 259.248 65.9407 172.489 192.209C111.328 281.232 48.0776 373.316 -21.2683 445.465C-108.55 536.234 -206.129 583.799 -304.533 583.799Z" fill="white"/>
<path opacity="0.4" d="M-319.636 601.542C-324.61 601.542 -329.552 601.413 -334.525 601.156C-391.837 598.327 -449.211 578.959 -505.069 543.616C-565.495 505.395 -624.842 447.986 -681.474 373.007C-696.959 352.43 -712.59 330.232 -727.692 308.703C-759.688 263.021 -792.808 215.77 -826.564 182.924C-864.435 145.859 -902.888 128.369 -937.546 132.381C-965.013 135.545 -988.738 152.546 -1006.45 181.56C-1028.42 217.571 -1042.16 271.586 -1055.37 323.647C-1063.8 357.086 -1072.53 391.475 -1083.41 421.158C-1098.32 461.825 -1118.43 493.18 -1143.12 514.582C-1166.79 534.974 -1194.28 545.807 -1224.82 546.76C-1252.29 547.604 -1281.86 540.401 -1312.43 525.308C-1342.99 510.207 -1374.14 487.523 -1404.82 457.887C-1469.44 395.488 -1529.06 305.359 -1577.62 197.122C-1622.88 96.1133 -1659.35 -17.4742 -1694.64 -127.358C-1726.28 -225.871 -1759.02 -327.729 -1798.02 -420.585C-1828.89 -494.02 -1868.44 -562.414 -1909.35 -613.189C-1951.59 -665.558 -1991.74 -694.392 -2022.78 -694.392H-2023.17C-2045.71 -694.212 -2063.13 -679.114 -2074.93 -649.56L-2075.7 -649.817C-2063.75 -679.731 -2046.09 -694.984 -2023.2 -695.164H-2022.78C-1991.58 -695.164 -1951.1 -666.227 -1908.69 -613.652C-1867.72 -562.826 -1828.15 -494.355 -1797.24 -420.867C-1758.22 -328.064 -1725.51 -226.18 -1693.87 -127.641C-1658.58 -17.8086 -1622.11 95.7788 -1576.88 196.762C-1528.46 304.793 -1468.78 394.819 -1404.24 457.195C-1373.59 486.771 -1342.58 509.412 -1312.05 524.484C-1281.5 539.556 -1252.2 546.709 -1224.84 545.829C-1194.64 544.905 -1167.17 534.129 -1143.66 513.859C-1119.08 492.636 -1099.06 461.31 -1084.2 420.747C-1073.22 391.115 -1064.6 356.648 -1056.16 323.313C-1042.95 271.329 -1029.22 217.417 -1007.25 181.175C-989.396 151.955 -965.365 134.876 -937.738 131.609C-902.888 127.674 -864.16 145.138 -825.99 182.384C-792.234 215.282 -759.083 262.559 -727.118 308.266C-712.039 329.795 -696.439 351.993 -680.954 372.57C-624.238 447.472 -564.944 504.808 -504.664 542.979C-448.935 578.243 -391.677 597.561 -334.548 600.39C-231.369 605.531 -128.848 557.149 -37.9399 460.486C30.7197 387.334 93.4199 293.965 153.923 203.681C239.803 75.5613 328.593 -56.9055 436.224 -133.119C491.272 -172.683 556.233 -198.365 624.901 -207.712C690.594 -216.56 761.588 -210.798 835.933 -190.581C907.86 -171.007 983.633 -137.723 1061.14 -91.6295C1136.8 -46.6427 1214.63 10.8201 1292.52 79.2395C1313.94 98.068 1335.86 118.054 1357.06 137.397C1442.44 215.359 1530.77 295.996 1613 322.927C1660.78 338.592 1706.79 336.071 1749.71 315.416C1859.57 262.61 1929.19 102.827 1968.3 -21.9236C2007.24 -146.211 2036.08 -290.073 2063.95 -429.175C2087.27 -545.592 2111.38 -665.944 2141.34 -774.387C2177.62 -905.773 2221.37 -1008.02 2271.36 -1078.29C2330.21 -1160.99 2397.69 -1199.18 2472.23 -1191.75V-1191C2398.07 -1198.38 2330.79 -1160.31 2272.13 -1077.83C2222.2 -1007.63 2178.47 -905.491 2142.22 -774.155C2112.26 -665.712 2088.15 -545.386 2064.83 -428.996C2036.96 -289.867 2008.14 -146.057 1969.17 -21.6407C1929.9 103.135 1860.14 263.124 1750.12 316.059C1707 336.792 1660.81 339.209 1612.8 323.596C1530.41 296.614 1442.03 215.925 1356.57 137.911C1335.36 118.568 1313.45 98.5563 1292.02 79.7285C1214.08 11.3857 1136.28 -46.0763 1060.78 -90.9608C983.359 -137.003 907.641 -170.261 835.768 -189.81C761.616 -210.001 690.677 -215.737 625.093 -206.915C556.553 -197.532 491.725 -171.85 436.8 -132.322C329.307 -56.1594 240.544 76.2559 154.719 204.298C94.1619 294.608 31.5715 388.004 -37.2253 461.209C-123.959 553.19 -221.262 601.542 -319.636 601.542Z" fill="white"/>
<path opacity="0.4" d="M-334.71 619.291C-339.247 619.291 -343.746 619.291 -348.283 618.954C-405.626 616.384 -463.137 596.887 -519.271 561.136C-579.942 522.499 -639.672 464.316 -696.907 388.207C-712.477 367.449 -728.191 344.891 -743.378 323.105C-775.619 276.806 -808.93 229.041 -842.739 195.809C-880.917 158.306 -919.201 140.532 -953.752 144.725C-981.051 147.992 -1004.75 165.302 -1022.24 194.651C-1044.22 231.305 -1057.4 285.886 -1070.25 338.693C-1078.49 372.491 -1087.01 407.446 -1097.72 437.541C-1112.35 478.693 -1132.18 510.513 -1156.65 532.144C-1180.11 552.723 -1207.43 563.914 -1237.83 564.967C-1265.3 565.969 -1294.85 558.716 -1325.47 543.515C-1356.09 528.314 -1387.32 505.344 -1418.16 475.349C-1483.06 412.205 -1543.29 321.022 -1592.28 211.293C-1638.01 108.997 -1675.09 -6.05566 -1710.93 -117.327C-1743.06 -217.102 -1776.29 -320.272 -1815.76 -414.233C-1847.02 -488.646 -1886.89 -557.941 -1928.08 -609.333C-1970.46 -662.268 -2010.75 -691.359 -2041.59 -691.359H-2042.19C-2064.61 -691.076 -2081.86 -675.771 -2093.47 -645.857L-2094.24 -646.115C-2082.51 -676.364 -2065.02 -691.847 -2042.19 -692.131H-2041.59C-2010.47 -692.131 -1969.97 -662.937 -1927.4 -609.822C-1886.2 -558.378 -1846.27 -488.929 -1814.99 -414.542C-1775.53 -320.555 -1742.29 -217.385 -1710.13 -117.585C-1674.29 -6.3385 -1637.24 108.766 -1591.54 210.959C-1542.55 320.584 -1482.38 411.742 -1417.56 474.913C-1386.8 504.857 -1355.68 527.719 -1325.09 542.92C-1294.5 558.121 -1265.25 565.275 -1237.89 564.301C-1207.68 563.241 -1180.51 552.257 -1157.23 531.686C-1132.84 510.155 -1113.1 478.436 -1098.51 437.387C-1087.8 407.343 -1079.29 372.414 -1071.05 338.615C-1058.17 285.783 -1044.85 231.124 -1022.96 194.368C-1005.3 164.737 -981.38 147.349 -953.829 144.082C-919.064 139.941 -880.397 157.689 -842.028 195.371C-808.135 228.655 -774.792 276.523 -742.552 322.771C-727.365 344.583 -711.658 367.115 -696.081 387.872C-639.044 463.907 -579.391 522.012 -518.773 560.62C-462.777 596.271 -405.404 615.661 -348.199 618.31C-343.692 618.518 -339.194 618.625 -334.688 618.625C-236.612 618.625 -139.691 569.571 -53.9226 476.101C14.2974 401.891 76.2285 307.209 136.127 215.64C221.128 85.7196 309.013 -48.6252 416.011 -125.996C470.57 -166.104 535.323 -192.243 603.919 -201.849C669.448 -210.903 740.36 -205.167 814.649 -184.796C886.578 -165.067 962.405 -131.423 1040.02 -84.8408C1115.79 -39.3649 1193.82 18.7916 1271.92 87.9829C1293.43 107.043 1315.4 127.26 1336.68 146.834C1422.37 225.723 1510.97 307.286 1593.19 334.603C1640.65 350.293 1686.27 347.824 1728.73 327.246C1838.59 274.054 1907.44 111.621 1945.89 -15.2637C1984.06 -141.301 2012.02 -287.065 2039.08 -428.046C2061.68 -546.005 2085.07 -668.004 2114.37 -777.861C2149.84 -911.048 2192.93 -1014.7 2242.44 -1085.96C2300.69 -1169.84 2367.95 -1208.6 2442.3 -1201.19V-1200.42C2368.14 -1207.8 2301.3 -1169.14 2243.21 -1085.55C2193.77 -1014.35 2150.72 -910.765 2115.25 -777.681C2085.98 -667.798 2062.58 -545.826 2039.95 -427.866C2012.92 -286.859 1985.02 -141.043 1946.77 -15.0066C1908.32 112.033 1839.24 274.671 1729.17 327.992C1686.52 348.569 1640.68 351.142 1593 335.375C1510.61 308.135 1421.93 226.52 1336.19 147.606C1314.93 128.031 1292.93 107.789 1271.43 88.7548C1193.35 19.5886 1115.38 -38.5165 1039.66 -83.9666C962.103 -130.523 886.33 -164.141 814.457 -183.844C740.305 -204.19 669.476 -209.926 604.056 -200.872C536.111 -191.509 473.026 -166.019 416.533 -125.173C309.671 -48.0081 221.814 86.3883 136.869 216.257C76.9421 307.852 14.9836 402.559 -53.2915 476.817C-139.393 570.086 -236.39 619.263 -334.71 619.291Z" fill="white"/>
<path opacity="0.4" d="M-349.787 636.964C-353.88 636.964 -358.027 636.963 -362.036 636.677C-419.516 634.393 -477.196 614.788 -533.467 578.679C-594.406 539.606 -654.526 480.627 -711.983 403.409C-727.637 382.394 -743.451 359.682 -758.669 337.51C-791.078 290.696 -824.581 242.34 -858.558 208.695C-897.003 170.731 -935.318 152.905 -969.731 157.098C-996.945 160.416 -1020.51 177.932 -1037.84 207.77C-1059.43 244.938 -1072.39 300.368 -1084.94 353.741C-1092.99 388.001 -1101.28 423.421 -1111.8 454.055C-1126.14 495.7 -1145.72 527.928 -1170 549.867C-1193.23 570.882 -1220.36 582.123 -1250.65 583.305C-1278.12 584.365 -1307.61 577.161 -1338.29 561.803C-1368.97 546.444 -1400.3 523.224 -1431.26 492.922C-1496.49 429.054 -1557.15 336.584 -1606.72 225.415C-1652.95 121.859 -1690.58 5.33984 -1726.99 -107.347C-1759.62 -208.382 -1793.37 -312.863 -1833.28 -407.957C-1864.91 -483.372 -1905.15 -553.567 -1946.56 -605.602C-1989.1 -659.052 -2029.42 -688.426 -2060.18 -688.426H-2060.98C-2083.31 -688.066 -2100.39 -672.53 -2111.76 -642.281L-2112.52 -642.539C-2101.02 -673.122 -2083.69 -688.837 -2061 -689.198C-2029.86 -689.763 -1988.99 -660.21 -1945.91 -606.091C-1904.43 -554.004 -1864.17 -483.758 -1832.51 -408.265C-1792.6 -313.095 -1758.85 -208.639 -1726.2 -107.604C-1689.8 5.05701 -1652.18 121.551 -1605.96 225.08C-1556.53 336.095 -1495.82 428.488 -1430.68 492.306C-1399.76 522.579 -1368.56 545.699 -1337.91 561.029C-1307.26 576.359 -1278.07 583.484 -1250.71 582.431C-1220.5 581.271 -1193.64 570.087 -1170.54 549.201C-1146.4 527.362 -1126.88 495.184 -1112.57 453.695C-1102.07 423.24 -1093.78 387.822 -1085.73 353.586C-1073.19 300.059 -1060.19 244.681 -1038.55 207.41C-1021.08 177.367 -997.359 159.722 -969.892 156.352C-935.203 152.108 -896.513 170.036 -858.007 208.181C-824.007 241.851 -790.443 290.285 -758.011 337.124C-742.908 359.168 -727.117 381.957 -711.433 402.895C-653.761 480.062 -593.855 538.94 -532.916 577.956C-476.698 613.965 -419.164 633.491 -361.928 635.911C-357.858 636.09 -353.688 636.19 -349.702 636.19C-251.688 636.19 -155.181 586.341 -69.8743 491.454C-2.20435 416.167 59.2048 320.174 118.39 227.344C202.511 95.5972 289.462 -40.5994 395.774 -119.128C452.048 -160.668 515.023 -186.621 582.913 -196.293C648.305 -205.552 719.107 -199.816 793.369 -179.265C865.269 -159.382 941.152 -125.403 1018.9 -78.3071C1094.79 -32.3422 1172.97 26.4574 1251.33 96.4722C1272.92 115.737 1294.97 136.212 1316.31 155.992C1402.27 235.73 1491.17 318.322 1573.4 345.741C1620.49 361.74 1665.7 359.168 1707.72 338.59C1817.58 285.012 1885.63 119.956 1923.45 -9.11584C1960.86 -136.798 1987.96 -284.518 2014.08 -427.402C2036.06 -546.931 2058.66 -670.55 2087.27 -781.95C2121.96 -916.887 2164.39 -1021.96 2213.42 -1094.21C2271.09 -1179.25 2338 -1218.63 2412.25 -1211.22V-1210.45C2338.35 -1217.83 2271.69 -1178.58 2214.18 -1093.8C2165.22 -1021.63 2122.82 -916.629 2088.18 -781.771C2059.57 -670.395 2036.91 -546.803 2014.96 -427.274C1988.76 -284.39 1961.68 -136.619 1924.33 -8.90967C1886.48 120.291 1818.24 285.578 1708.19 339.285C1665.98 359.863 1620.53 362.434 1573.17 346.538C1490.78 319.042 1401.8 236.449 1315.76 156.609C1294.45 136.803 1272.39 116.329 1250.83 97.0636C1172.51 27.1005 1094.29 -31.5453 1018.52 -77.6127C940.823 -124.683 865.022 -158.61 793.314 -178.468C719.162 -199.045 648.47 -204.704 583.215 -195.469C515.435 -185.875 452.597 -159.974 396.461 -118.536C290.203 -40.0845 203.28 96.0604 119.076 227.73C59.7817 320.585 -1.54492 416.604 -69.2698 491.941C-154.791 587.085 -251.52 636.964 -349.787 636.964Z" fill="white"/>
<path opacity="0.4" d="M-364.837 654.763C-368.517 654.763 -372.167 654.763 -375.823 654.556C-433.25 652.343 -491.175 632.717 -547.638 596.221C-609.02 556.711 -669.438 496.959 -727.416 418.636C-743.177 397.365 -759.083 374.266 -774.461 351.939C-807.092 304.56 -840.817 255.586 -874.893 221.582C-913.346 183.18 -951.792 165.175 -986.128 169.47C-1013.31 172.866 -1036.72 190.639 -1053.85 220.913C-1075.19 258.595 -1087.82 314.643 -1100.07 368.839C-1107.9 403.537 -1116 439.419 -1126.33 470.338C-1140.39 512.468 -1159.73 545.112 -1183.76 567.359C-1206.8 588.682 -1233.79 600.152 -1263.95 601.441C-1291.41 602.623 -1320.85 595.398 -1351.61 579.91C-1382.37 564.43 -1413.74 540.995 -1444.86 510.285C-1510.35 445.669 -1571.46 352.043 -1621.61 239.484C-1668.3 134.643 -1706.53 16.6829 -1743.5 -97.4702C-1776.62 -199.765 -1810.89 -305.558 -1851.24 -401.835C-1883.26 -478.254 -1923.83 -549.323 -1965.48 -601.975C-2008.22 -655.991 -2048.53 -685.622 -2079.21 -685.622H-2080.2C-2102.42 -685.159 -2119.34 -669.417 -2130.52 -638.809L-2131.29 -639.066C-2120 -669.932 -2102.81 -685.931 -2080.23 -686.394H-2079.21C-2048.29 -686.394 -2007.81 -656.634 -1964.83 -602.438C-1923.14 -549.735 -1882.44 -478.588 -1850.47 -402.118C-1810.1 -305.79 -1775.82 -200.022 -1742.7 -97.7014C-1705.73 16.3743 -1667.53 134.309 -1620.84 239.253C-1570.75 351.708 -1509.67 445.259 -1444.25 509.819C-1413.19 540.458 -1381.9 563.836 -1351.2 579.266C-1320.5 594.703 -1291.25 601.928 -1264.01 600.747C-1234.04 599.436 -1207.24 588.037 -1184.36 566.872C-1160.41 544.725 -1141.16 512.189 -1127.12 470.159C-1116.83 439.29 -1108.73 403.28 -1100.9 368.736C-1088.65 314.489 -1076.02 258.39 -1054.6 220.605C-1037.34 190.15 -1013.7 172.248 -986.266 168.801C-951.662 164.48 -912.964 182.563 -874.32 221.145C-840.151 255.124 -806.403 304.123 -773.803 351.451C-758.425 373.777 -742.519 396.85 -726.781 418.096C-668.781 496.365 -608.385 556.038 -547.255 595.577C-490.785 632.001 -433.113 651.57 -375.854 653.782C-274.236 657.72 -173.881 606.969 -85.9958 507.17C-18.8203 430.699 41.8745 333.446 100.483 239.279C183.726 105.757 269.797 -32.3424 375.533 -112.003C431.477 -154.16 494.177 -180.525 561.903 -190.351C627.102 -199.817 697.822 -194.106 772.084 -173.401C843.957 -153.338 919.867 -119.025 997.727 -71.4135C1073.72 -24.9602 1152.1 34.5082 1230.73 105.295C1252.34 124.791 1274.48 145.497 1295.9 165.534C1382.14 246.223 1471.34 329.691 1553.57 357.367C1600.39 373.134 1645.21 370.768 1686.76 350.345C1796.62 296.33 1863.88 128.65 1900.99 -2.55664C1937.62 -131.962 1963.85 -281.637 1989.22 -426.374C2010.51 -547.471 2032.46 -672.71 2060.47 -785.448C2094.33 -922.185 2136.1 -1028.64 2184.63 -1101.82C2241.75 -1188.04 2308.22 -1227.99 2382.38 -1220.58V-1219.84C2308.52 -1227.19 2242.31 -1187.38 2185.32 -1101.51C2136.85 -1028.34 2095.1 -921.954 2061.26 -785.294C2033.31 -672.453 2011.37 -547.239 1990.16 -426.142C1964.79 -281.38 1938.56 -131.705 1901.89 -2.2738C1864.71 129.087 1797.26 297.049 1687.21 351.117C1645.44 371.694 1600.39 374.035 1553.35 358.216C1470.96 330.463 1381.67 246.944 1295.35 166.177C1273.96 146.14 1251.82 125.434 1230.21 105.963C1151.63 35.177 1073.28 -24.2399 997.342 -70.6674C919.537 -118.253 843.545 -152.514 771.892 -172.551C697.739 -193.129 627.157 -198.942 562.096 -189.476C494.507 -179.677 431.916 -153.466 376.11 -111.308C270.429 -31.8025 184.412 106.195 101.196 239.665C42.5337 333.806 -18.1338 431.137 -85.3071 507.528C-170.2 604.04 -266.624 654.763 -364.837 654.763Z" fill="white"/>
<path opacity="0.4" d="M-379.886 672.507C-383.168 672.507 -386.436 672.457 -389.695 672.357C-447.152 670.352 -505.046 650.619 -561.922 613.736C-623.381 573.818 -684.22 513.293 -742.741 433.761C-758.586 412.232 -774.599 388.877 -790.062 366.267C-822.884 318.348 -856.799 268.782 -891.021 234.392C-929.467 195.552 -968.111 177.367 -1002.33 181.74C-1029.44 185.213 -1052.7 203.269 -1069.64 233.904C-1090.74 272.075 -1103.07 328.868 -1114.96 383.758C-1122.6 418.92 -1130.48 455.264 -1140.61 486.643C-1154.35 529.267 -1173.57 562.319 -1197.32 584.873C-1220.17 606.512 -1246.98 618.161 -1276.97 619.572C-1304.43 620.889 -1333.82 613.607 -1364.61 597.991C-1395.39 582.382 -1426.89 558.689 -1458.12 527.642C-1524.03 462.284 -1585.5 367.477 -1636.19 253.477C-1683.38 147.375 -1722.16 27.9502 -1759.79 -87.5404C-1793.43 -191.096 -1828.2 -298.176 -1869.01 -395.636C-1901.42 -473.032 -1942.31 -544.975 -1984.36 -598.271C-2027.26 -652.801 -2067.6 -682.741 -2098.2 -682.741H-2099.37C-2121.35 -682.201 -2138.23 -666.228 -2149.2 -635.284L-2149.99 -635.516C-2139.01 -666.793 -2121.87 -682.947 -2099.37 -683.513H-2098.22C-2067.36 -683.513 -2026.81 -653.47 -1983.69 -598.631C-1941.76 -545.284 -1900.81 -473.264 -1868.35 -395.815C-1827.4 -298.382 -1792.71 -191.276 -1758.96 -87.7208C-1721.47 27.744 -1682.7 147.144 -1635.51 253.22C-1584.84 367.116 -1523.32 461.847 -1457.62 527.155C-1426.43 558.023 -1395.03 581.766 -1364.25 597.354C-1333.46 612.941 -1304.27 620.137 -1277.03 618.827C-1247.2 617.438 -1220.56 605.839 -1197.87 584.365C-1174.12 561.903 -1155.11 528.959 -1141.36 486.442C-1131.22 455.161 -1123.34 418.817 -1115.73 383.552C-1103.81 328.611 -1091.48 271.766 -1070.3 233.492C-1053.25 202.626 -1029.77 184.441 -1002.39 180.942C-967.866 176.518 -929.137 194.781 -890.363 233.8C-856.195 268.396 -822.195 318.013 -789.373 365.933C-773.911 388.517 -757.905 411.898 -742.053 433.401C-683.616 512.756 -622.754 573.224 -561.455 613.092C-504.656 649.824 -446.984 669.579 -389.664 671.583C-288.383 675.085 -188.907 623.589 -101.956 522.551C-35.3552 445.156 24.6531 346.513 82.6846 251.137C165.076 115.789 250.214 -24.0852 355.291 -104.98C410.905 -147.73 473.386 -174.429 540.919 -184.563C605.954 -194.209 676.563 -188.524 750.798 -167.638C822.644 -147.421 898.636 -112.774 976.605 -64.7516C1052.71 -17.7834 1131.28 42.3286 1210.05 113.912C1231.75 133.641 1253.99 154.578 1275.41 174.82C1361.95 256.462 1451.43 340.88 1533.57 368.814C1580.07 384.581 1624.51 382.267 1665.65 361.92C1775.5 307.622 1841.94 137.216 1878.44 3.82251C1914.5 -127.178 1939.88 -278.73 1964.34 -425.344C1984.86 -548.011 2006.09 -674.844 2033.36 -789.203C2066.31 -927.714 2107.51 -1035.62 2155.58 -1109.85C2212.12 -1197.3 2278.31 -1237.82 2352.44 -1230.38V-1229.61C2278.75 -1236.99 2212.73 -1196.56 2156.37 -1109.46C2108.36 -1035.28 2067.28 -927.483 2034.26 -789.023C2006.94 -674.844 1985.74 -547.959 1965.22 -425.344C1940.67 -278.73 1915.32 -126.972 1879.43 4.05444C1842.9 137.576 1776.24 308.188 1666.22 362.641C1624.86 383.218 1580.2 385.43 1533.49 369.559C1451.1 341.575 1361.51 257.079 1274.92 175.387C1253.44 155.143 1231.25 134.232 1209.55 114.504C1130.73 42.9458 1052.21 -17.1405 976.111 -64.0822C898.197 -112.156 822.314 -146.752 750.523 -166.969C676.371 -187.804 605.926 -193.488 541.029 -183.843C473.605 -173.811 411.29 -147.112 355.812 -104.44C250.819 -23.6993 165.708 116.201 83.3706 251.471C25.3401 346.873 -34.7231 445.542 -101.351 522.988C-185.609 620.99 -281.734 672.507 -379.886 672.507Z" fill="white"/>
<path opacity="0.4" d="M-394.804 690.257C-397.551 690.257 -400.543 690.257 -403.427 690.128C-460.938 688.331 -518.992 668.526 -576.037 631.25C-637.748 590.895 -698.939 529.596 -757.927 449.04C-773.856 427.279 -789.953 403.641 -805.5 380.775C-838.452 332.289 -872.674 282.158 -907.11 247.356C-945.838 208.105 -984.315 189.714 -1018.48 194.189C-1045.53 197.739 -1068.66 216.027 -1085.4 247.073C-1106.28 285.655 -1118.36 343.272 -1129.85 398.831C-1137.26 434.43 -1144.95 471.241 -1154.89 502.975C-1168.43 546.087 -1187.24 579.553 -1210.89 602.416C-1233.52 624.333 -1260.32 636.219 -1290.12 637.737C-1317.59 639.126 -1346.95 631.844 -1377.76 616.099C-1408.57 600.361 -1440.19 576.439 -1471.55 545.034C-1537.63 478.931 -1599.64 382.986 -1650.91 267.521C-1698.59 160.133 -1737.95 39.2418 -1776.01 -77.6379C-1810.15 -182.454 -1845.44 -290.845 -1886.7 -389.488C-1919.46 -467.862 -1960.85 -540.706 -2002.87 -594.619C-2045.93 -649.689 -2086.33 -679.912 -2116.84 -679.912H-2118.16C-2140.13 -679.269 -2156.77 -663.09 -2167.6 -631.787L-2168.36 -632.018C-2157.37 -663.656 -2140.63 -680.041 -2118.24 -680.684H-2116.89C-2086.11 -680.684 -2045.49 -650.357 -2002.26 -595.056C-1960.07 -541.04 -1918.77 -468.197 -1885.98 -389.771C-1844.79 -291.102 -1809.41 -182.711 -1775.27 -77.8691C-1737.24 39.0098 -1697.88 159.85 -1650.2 267.213C-1598.98 382.575 -1537.02 478.466 -1471.03 544.49C-1439.69 575.844 -1408.22 599.695 -1377.43 615.433C-1346.64 631.179 -1317.37 638.353 -1290.23 636.964C-1260.49 635.467 -1234.01 623.667 -1211.52 601.879C-1187.99 579.117 -1169.23 545.75 -1155.75 502.746C-1145.8 471.055 -1138.14 434.25 -1130.72 398.676C-1119.11 343.014 -1107.1 285.501 -1086.21 246.662C-1069.31 215.358 -1045.97 196.941 -1018.64 193.34C-984.23 188.839 -945.479 207.307 -906.567 246.738C-872.176 281.591 -837.901 331.774 -804.949 380.285C-789.372 403.152 -773.305 426.764 -757.376 448.525C-698.472 529.009 -637.335 590.251 -575.677 630.534C-518.801 667.724 -460.877 687.479 -403.534 689.284C-302.712 692.47 -203.955 640.129 -117.914 537.988C-51.8328 459.534 7.51685 359.58 64.9438 262.943C146.237 125.873 230.606 -15.9576 335.078 -97.9327C390.363 -141.299 452.541 -168.487 519.937 -178.75C584.779 -188.627 655.307 -182.968 729.514 -161.902C801.36 -141.531 877.38 -106.524 955.487 -57.9094C1031.7 -10.4529 1110.44 50.3015 1189.53 122.708C1211.31 142.642 1233.48 163.863 1255.12 184.286C1341.93 266.853 1431.71 352.197 1513.96 380.389C1560.13 396.208 1604.21 393.943 1644.92 373.649C1754.77 319.016 1820.41 145.935 1856.25 10.3818C1891.35 -122.419 1915.81 -275.952 1939.52 -424.469C1959.35 -548.705 1979.84 -677.185 2006.45 -792.984C2038.69 -933.297 2079.14 -1042.48 2126.71 -1117.82C2182.68 -1206.38 2248.57 -1247.54 2322.55 -1240.13V-1239.36C2248.92 -1246.72 2183.29 -1205.72 2127.56 -1117.44C2080.05 -1042.26 2039.67 -933.039 2007.38 -792.83C1980.79 -677.083 1960.28 -548.474 1940.48 -424.341C1916.78 -275.824 1892.28 -122.265 1857.18 10.5615C1821.28 146.27 1755.56 319.557 1645.44 374.344C1604.51 394.741 1560.3 397.005 1513.8 381.109C1431.41 352.815 1341.55 267.444 1254.68 184.826C1233.12 164.249 1210.74 143.183 1189.09 123.248C1110.05 50.8936 1031.34 -9.83582 955.158 -57.2665C877.133 -105.855 801.167 -140.81 729.404 -161.156C655.252 -182.171 584.944 -187.856 520.212 -177.978C452.953 -167.69 390.912 -140.63 335.765 -97.3406C231.402 -15.4686 147.17 126.283 65.7402 263.38C8.31348 360.068 -51.064 460.05 -117.172 538.604C-201.017 637.966 -296.836 690.257 -394.804 690.257Z" fill="white"/>
<path opacity="0.4" d="M-409.962 708.007C-412.464 708.007 -414.966 708.007 -417.491 708.007C-475.002 706.41 -533.171 686.526 -590.514 648.842C-652.47 608.079 -714.097 545.957 -773.452 464.317C-789.381 442.223 -805.586 418.328 -821.239 395.178C-854.467 346.127 -888.796 295.404 -923.262 260.216C-962.128 220.528 -1000.63 201.957 -1034.69 206.535C-1061.68 210.136 -1084.67 228.682 -1101.23 260.165C-1121.85 299.365 -1133.5 357.599 -1144.79 413.929C-1152.01 449.939 -1159.45 487.265 -1169.23 519.386C-1182.47 563.113 -1201.09 596.888 -1224.49 620.087C-1246.95 642.283 -1273.46 654.377 -1303.29 656.103C-1330.58 657.592 -1360.05 650.289 -1390.92 634.414C-1421.79 618.547 -1453.46 594.367 -1484.98 562.598C-1551.31 495.721 -1613.79 398.625 -1665.58 281.745C-1713.76 173.072 -1753.69 50.7393 -1792.33 -67.5552C-1826.96 -173.632 -1862.75 -283.309 -1904.46 -383.135C-1937.61 -462.486 -1979.23 -536.204 -2021.6 -590.734C-2064.8 -646.371 -2105.26 -676.877 -2135.69 -676.877H-2137.17C-2159.14 -676.156 -2175.62 -659.746 -2186.08 -628.005L-2186.88 -628.237C-2176.2 -660.235 -2159.41 -676.825 -2137.19 -677.571C-2106.33 -678.574 -2065.02 -647.888 -2020.92 -591.146C-1978.51 -536.565 -1936.87 -462.769 -1903.7 -383.34C-1861.98 -283.514 -1826.17 -173.811 -1791.54 -67.735C-1752.92 50.5846 -1712.99 172.866 -1664.85 281.488C-1613.04 398.317 -1550.65 495.342 -1484.38 562.139C-1452.91 593.83 -1421.22 617.932 -1390.54 633.77C-1359.86 649.615 -1330.47 656.919 -1303.34 655.379C-1273.7 653.783 -1247.4 641.775 -1225.09 619.7C-1201.77 596.551 -1183.24 562.834 -1170.16 519.386C-1160.41 487.286 -1152.95 449.939 -1145.73 413.929C-1134.43 357.547 -1122.79 299.262 -1102.11 259.959C-1085.44 228.27 -1062.2 209.571 -1034.96 205.944C-1000.63 201.313 -961.823 219.988 -922.796 259.959C-888.138 294.864 -853.778 345.69 -820.497 394.792C-804.844 417.942 -788.639 441.812 -772.626 463.801C-713.279 545.391 -651.781 607.406 -589.909 648.126C-532.781 685.703 -474.75 705.565 -417.407 707.133C-414.913 707.133 -412.411 707.133 -409.909 707.133C-312.139 707.133 -216.864 654.148 -133.929 553.497C-68.3999 473.961 -9.65161 372.697 47.1433 274.775C127.722 135.878 211.076 -7.88062 314.916 -90.9877C369.844 -134.971 431.775 -162.571 498.924 -173.065C563.602 -183.122 634.019 -177.49 708.199 -156.27C780.016 -135.692 856.091 -100.376 934.309 -51.2736C1010.66 -3.32812 1089.59 58.1208 1168.9 131.351C1190.88 151.516 1213.09 172.917 1234.82 193.623C1321.93 277.09 1411.99 363.386 1494.22 391.834C1540.11 407.679 1583.8 405.467 1624.09 385.276C1733.81 330.308 1798.73 154.552 1833.91 16.7863C1868.22 -117.687 1891.87 -273.174 1914.71 -423.518C1933.94 -549.348 1953.6 -679.449 1979.55 -796.74C2011.01 -938.826 2050.8 -1049.53 2097.87 -1125.77C2153.24 -1215.51 2218.71 -1257.26 2292.7 -1249.85V-1249.08C2219.18 -1256.44 2153.87 -1214.85 2098.67 -1125.39C2051.65 -1049.22 2011.88 -938.594 1980.43 -796.585C1954.51 -679.32 1934.73 -549.219 1915.62 -423.415C1892.75 -273.046 1869.12 -117.532 1834.79 16.9668C1799.56 154.938 1734.38 330.874 1624.39 386.021C1583.88 406.316 1539.97 408.528 1493.86 392.606C1411.47 364.106 1321.3 277.759 1234.16 194.215C1212.54 173.637 1190.22 152.109 1168.25 131.968C1088.96 58.7896 1010.05 -2.60779 933.759 -50.5275C855.625 -99.6042 779.632 -134.895 707.897 -155.42C633.744 -176.615 563.519 -182.248 498.979 -172.191C431.912 -161.748 370.118 -134.2 315.273 -90.319C211.542 -7.26343 128.244 136.341 47.6926 275.238C-9.10229 373.212 -67.8484 474.505 -133.432 554.062C-216.29 654.964 -311.917 708.007 -409.962 708.007Z" fill="white"/>
<path opacity="0.4" d="M-425.012 725.757H-431.439C-489.118 724.368 -547.257 704.377 -604.737 666.335C-666.946 625.185 -728.849 562.29 -788.747 479.518C-804.836 457.245 -821.156 433.066 -836.893 409.686C-870.312 360.068 -904.863 308.78 -939.437 273.206C-978.41 233.08 -1017 214.355 -1050.92 218.985C-1077.86 222.689 -1100.74 241.466 -1117.07 273.361C-1137.46 313.075 -1148.79 372.055 -1159.73 429.08C-1166.76 465.577 -1174.01 503.34 -1183.6 535.876C-1196.56 580.018 -1214.93 614.301 -1238.14 637.787C-1260.38 660.292 -1286.75 672.586 -1316.49 674.311C-1343.68 675.908 -1373.18 668.576 -1404.1 652.551C-1435.03 636.527 -1466.78 612.117 -1498.41 580.018C-1564.98 512.34 -1627.93 414.084 -1680.11 295.739C-1728.78 185.804 -1769.29 62.0309 -1808.45 -57.6777C-1843.61 -165.014 -1879.86 -276.004 -1922.07 -376.987C-1955.6 -457.316 -1997.54 -531.935 -2040.17 -587.108C-2083.55 -643.284 -2124.04 -674.073 -2154.39 -674.073H-2156.01C-2177.84 -673.25 -2194.15 -656.633 -2204.51 -624.61L-2205.28 -624.841C-2194.81 -657.199 -2178.26 -674.021 -2156.06 -674.819H-2154.42C-2123.77 -674.819 -2083.01 -643.953 -2039.51 -587.52C-1996.85 -532.321 -1954.89 -457.651 -1921.41 -377.244C-1879.25 -276.235 -1842.92 -165.22 -1807.8 -57.8839C-1768.63 61.7997 -1728.15 185.573 -1679.48 295.455C-1627.14 413.776 -1564.3 511.932 -1497.72 579.446C-1466.14 611.502 -1434.56 635.832 -1403.63 651.828C-1372.71 667.831 -1343.49 674.977 -1316.44 673.488C-1286.94 671.791 -1260.77 659.575 -1238.66 637.193C-1215.53 613.814 -1197.25 579.632 -1184.31 535.618C-1174.72 503.103 -1167.47 465.376 -1160.47 428.874C-1149.48 371.797 -1138.17 312.792 -1117.74 272.975C-1101.26 240.849 -1078.16 221.891 -1050.97 218.162C-1016.73 213.481 -977.92 232.308 -938.756 272.615C-904.121 308.239 -869.547 359.58 -836.12 409.223C-820.498 432.578 -804.018 456.757 -788.005 479.009C-728.191 561.703 -666.365 624.49 -604.217 665.64C-546.897 703.582 -488.866 723.545 -431.416 724.805H-424.989C-327.273 724.805 -232.326 671.017 -149.966 568.927C-84.9873 488.346 -26.8975 385.765 29.2654 286.556C108.911 145.807 191.303 0.247681 294.621 -84.0424C349.247 -128.618 410.931 -156.655 477.943 -167.33C542.483 -177.618 612.79 -171.985 686.97 -150.585C758.761 -129.878 834.891 -94.2284 913.217 -44.5853C989.65 3.84851 1068.77 66.0177 1148.34 139.942C1170.31 160.313 1192.66 181.946 1214.25 202.883C1301.64 287.276 1392 374.524 1474.22 403.204C1519.78 419.074 1563.12 416.94 1603 396.825C1663.42 366.293 1748.83 276.678 1811.31 23.1396C1844.84 -113.031 1867.61 -270.473 1889.64 -422.72C1908.07 -550.095 1927.1 -681.815 1952.39 -800.572C1983.02 -944.459 2022.18 -1056.58 2068.73 -1133.8C2123.66 -1224.7 2188.8 -1267.04 2262.57 -1259.63V-1258.88C2189.11 -1266.24 2124.18 -1224.03 2069.56 -1133.43C2022.87 -1056.27 1983.9 -944.228 1953.27 -800.443C1928.01 -681.686 1908.95 -549.991 1890.54 -422.592C1868.58 -270.345 1845.76 -112.902 1812.19 23.2942C1777.59 163.683 1713.46 342.244 1603.52 397.751C1563.39 417.968 1519.84 420.154 1474.06 404.181C1391.67 375.45 1301.23 288.125 1213.78 203.552C1192.09 182.615 1169.68 160.983 1147.87 140.611C1068.22 66.6349 989.266 4.5946 912.861 -43.8141C834.589 -93.405 758.541 -129.03 686.833 -149.71C612.681 -171.085 542.593 -176.693 478.108 -166.429C411.233 -155.78 349.687 -127.847 295.198 -83.3228C192.099 0.864868 109.708 146.347 30.0342 287.07C-26.1562 386.304 -84.2681 488.912 -149.277 569.543C-231.806 671.87 -326.998 725.757 -425.012 725.757Z" fill="white"/>
<path opacity="0.4" d="M-439.985 743.5C-441.798 743.5 -443.588 743.5 -445.478 743.5C-503.02 742.319 -561.403 722.227 -619.075 683.827C-681.452 642.104 -743.599 578.522 -804.018 494.647C-820.199 472.135 -836.595 447.676 -852.44 424.012C-886.057 373.855 -920.823 321.974 -955.511 286.015C-994.622 245.452 -1033.18 226.547 -1067.04 231.28C-1093.9 235.035 -1116.67 254.095 -1132.82 286.401C-1152.95 326.604 -1163.97 386.304 -1174.59 444.049C-1181.4 481.014 -1188.33 519.235 -1197.83 552.079C-1210.54 596.709 -1228.67 631.407 -1251.68 655.2C-1273.65 678.013 -1299.97 690.515 -1329.6 692.34C-1356.79 694.016 -1386.23 686.684 -1417.21 670.53C-1448.19 654.377 -1479.99 629.71 -1511.76 597.246C-1578.67 528.93 -1642 429.491 -1694.92 309.705C-1744.08 198.51 -1785.16 73.271 -1824.88 -47.8268C-1860.59 -156.423 -1897.36 -268.699 -1939.96 -370.866C-1973.87 -452.172 -2016.14 -527.768 -2058.98 -583.455C-2103.39 -641.304 -2144.67 -672.504 -2175.1 -671.218C-2196.82 -670.344 -2212.97 -653.496 -2223.14 -621.138L-2223.93 -621.344C-2213.66 -654.062 -2197.24 -671.089 -2175.13 -671.99H-2173.34C-2142.77 -671.99 -2101.94 -640.789 -2058.3 -583.867C-2015.42 -528.025 -1973.16 -452.455 -1939.18 -371.097C-1896.56 -268.905 -1859.73 -156.604 -1824.08 -48.0065C-1784.37 73.0913 -1743.28 198.304 -1694.18 309.525C-1641.28 429.208 -1578 528.572 -1511.16 596.838C-1479.44 629.223 -1447.69 653.833 -1416.79 669.965C-1385.9 686.089 -1356.67 693.321 -1329.65 691.674C-1300.23 689.87 -1274.23 677.447 -1252.32 654.785C-1229.38 631.07 -1211.31 596.501 -1198.62 551.9C-1189.26 518.999 -1182.14 480.778 -1175.41 443.869C-1164.76 386.073 -1153.74 326.321 -1133.58 286.015C-1117.27 253.452 -1094.31 234.263 -1067.18 230.456C-1033.04 225.698 -994.209 244.681 -954.907 285.424C-920.165 321.434 -885.369 373.366 -851.751 423.549C-835.906 447.214 -819.51 471.649 -803.337 494.153C-742.911 577.956 -680.87 641.517 -618.531 683.082C-560.852 721.404 -502.744 741.445 -445.371 742.627C-443.588 742.627 -441.798 742.627 -439.877 742.627C-342.245 742.627 -247.628 688.073 -165.871 584.515C-101.413 502.874 -43.9849 398.985 11.5745 298.516C90.396 155.941 171.936 8.50403 274.514 -77.0211C328.782 -122.214 390.219 -150.662 457.066 -161.568C521.441 -172.037 591.639 -166.43 665.791 -144.875C737.554 -123.988 813.739 -88.0042 892.176 -37.8469C968.745 11.0244 1048.03 73.8109 1127.87 148.61C1149.84 169.187 1172.33 191.102 1194.09 212.246C1281.75 297.564 1372.41 385.764 1454.64 414.675C1499.89 430.597 1542.85 428.513 1582.35 408.476C1642.76 377.765 1727.9 287.121 1789.12 29.5701C1821.88 -108.298 1843.8 -267.67 1864.97 -421.794C1882.69 -550.738 1901.03 -684.156 1925.64 -804.328C1955.47 -949.99 1993.94 -1063.5 2040.03 -1141.72C2094.27 -1233.81 2159.17 -1276.73 2232.86 -1269.33V-1268.55C2159.47 -1275.94 2094.9 -1233.13 2040.83 -1141.36C1994.55 -1062.98 1956.1 -949.553 1926.33 -803.968C1901.61 -683.771 1883.4 -550.429 1865.69 -421.486C1844.52 -267.336 1822.6 -107.964 1789.8 29.9303C1755.97 172.248 1692.45 353.612 1582.59 409.351C1542.88 429.491 1499.68 431.6 1454.2 415.601C1371.81 386.613 1281.17 298.361 1193.29 212.991C1171.54 191.848 1149.05 169.959 1127.08 149.356C1047.43 74.6085 968.058 11.8987 891.517 -37.0234C813.135 -87.1041 737.06 -123.088 665.352 -143.923C591.337 -165.453 521.249 -171.06 457.011 -160.591C390.329 -149.711 329.029 -121.339 274.871 -76.2491C172.403 9.09546 90.8628 156.455 12.1238 298.954C-43.2712 399.474 -100.947 503.39 -165.321 585.081C-247.215 688.818 -342.077 743.5 -439.985 743.5Z" fill="white"/>
<path opacity="0.4" d="M-454.98 761.251H-459.402C-517.074 760.27 -575.434 740.078 -633.305 701.292C-695.973 659.261 -758.564 594.855 -819.312 509.871C-835.6 487.108 -852.08 462.391 -868.032 438.469C-901.841 387.72 -936.698 335.273 -971.631 298.929C-1010.87 257.954 -1049.46 238.843 -1083.21 243.653C-1110.02 247.486 -1132.65 266.802 -1148.63 299.52C-1168.52 340.263 -1179.18 400.684 -1189.5 459.126C-1196.09 496.546 -1202.93 535.232 -1212.13 568.57C-1224.6 613.815 -1242.48 648.822 -1265.41 672.973C-1287.38 696.122 -1313.33 708.781 -1342.86 710.707C-1370.02 712.483 -1399.46 705.13 -1430.47 688.819C-1461.47 672.508 -1493.39 647.662 -1525.27 614.818C-1592.45 545.729 -1656.22 445.054 -1709.69 323.956C-1759.32 211.449 -1800.98 84.744 -1841.28 -37.7428C-1877.39 -147.6 -1914.74 -261.187 -1957.8 -364.409C-1992.1 -446.718 -2034.7 -523.06 -2077.76 -579.468C-2121.49 -636.75 -2162.05 -668.13 -2192.26 -668.13H-2194.15C-2215.8 -667.179 -2231.81 -650.125 -2241.78 -617.382L-2242.58 -617.587C-2232.49 -650.665 -2216.23 -667.924 -2194.21 -668.902C-2163.45 -670.24 -2121.92 -638.679 -2077.1 -579.982C-2033.98 -523.523 -1991.36 -447.078 -1957.03 -364.743C-1913.97 -261.367 -1876.61 -147.754 -1840.47 -37.8967C-1800.18 84.6152 -1758.55 211.269 -1708.92 323.725C-1655.48 444.848 -1591.76 545.342 -1524.67 614.381C-1492.83 647.125 -1461.01 671.999 -1430.05 688.253C-1399.1 704.507 -1369.88 711.81 -1342.91 710.042C-1313.64 708.137 -1287.74 695.535 -1266.01 672.565C-1243.27 648.535 -1225.45 613.529 -1213.04 568.52C-1203.86 535.082 -1197.02 496.495 -1190.44 459.126C-1180.08 400.632 -1169.4 340.161 -1149.48 299.34C-1133.39 266.365 -1110.54 246.894 -1083.57 243.036C-1049.46 238.149 -1010.66 257.362 -971.241 298.517C-936.369 334.939 -901.374 387.411 -867.542 438.186C-851.613 462.105 -835.133 486.829 -818.845 509.591C-758.151 594.469 -695.613 658.774 -633.03 700.776C-575.35 739.362 -516.967 759.633 -459.594 760.607H-455.194C-357.646 760.607 -263.335 705.251 -182.183 600.261C-118.299 517.561 -61.4761 412.49 -6.54858 310.606C71.3938 166.231 152 16.9419 253.974 -69.6379C307.913 -115.448 369.075 -144.231 435.757 -155.419C499.94 -166.12 570.056 -160.564 644.181 -138.778C715.944 -117.763 792.156 -81.418 870.73 -30.7466C947.409 18.6904 1026.89 82.069 1106.92 157.691C1128.89 178.5 1151.52 200.62 1173.35 221.995C1261.24 308.188 1352.25 397.34 1434.48 426.509C1479.44 442.456 1522.03 440.424 1561.15 420.49C1621.56 389.624 1706.37 297.926 1766.36 36.3876C1798.35 -103.178 1819.39 -264.557 1839.73 -420.482C1856.76 -551.02 1874.37 -685.981 1898.32 -807.697C1927.57 -955.21 1965.41 -1070.19 2011.03 -1149.41C2064.69 -1242.65 2129.13 -1286.17 2202.83 -1278.79V-1278.02C2129.59 -1285.37 2065.33 -1242.01 2011.82 -1149.05C1966.29 -1069.9 1928.48 -955.056 1899.47 -807.671C1875.55 -686.007 1857.94 -551.045 1840.92 -420.533C1820.57 -264.505 1799.53 -103.178 1767.51 36.4133C1734.39 180.944 1671.8 364.983 1561.89 421.03C1522.55 441.093 1479.71 443.125 1434.56 427.1C1352.17 397.88 1261.13 308.781 1173.11 222.381C1151.3 201.006 1128.73 178.886 1106.7 158.077C1026.67 82.5065 947.245 19.1794 870.511 -30.2576C792.019 -80.8523 715.861 -117.172 644.181 -138.289C570.193 -159.973 500.215 -165.554 436.142 -154.88C369.624 -143.819 308.599 -115.011 254.88 -69.3036C153.017 17.1731 72.4651 166.411 -5.44995 310.735C-60.3774 412.49 -117.228 517.747 -181.219 600.49C-262.593 705.796 -357.149 761.251 -454.98 761.251Z" fill="white"/>
<path opacity="0.4" d="M-469.969 779H-473.435C-530.938 778.227 -589.551 757.956 -647.605 718.783C-710.503 676.316 -773.423 611.165 -834.637 525.099C-851.117 501.95 -867.597 477.054 -883.633 452.873C-917.633 401.584 -952.812 348.546 -987.745 311.79C-1027.1 270.403 -1065.69 251.138 -1099.39 256.025C-1126.14 259.909 -1148.63 279.483 -1164.42 312.613C-1184.06 353.768 -1194.39 415.011 -1204.41 474.147C-1210.81 512.01 -1217.43 551.184 -1226.38 584.93C-1238.58 630.583 -1256.2 666.105 -1278.84 690.543C-1300.53 713.95 -1326.46 726.859 -1355.9 728.864C-1382.95 730.747 -1412.43 723.337 -1443.46 706.904C-1474.49 690.464 -1506.62 665.31 -1538.53 632.151C-1605.96 562.368 -1670.23 460.614 -1724.25 337.974C-1774.37 224.207 -1816.58 96.1906 -1857.42 -27.8401C-1894.06 -138.957 -1931.93 -253.856 -1975.52 -358.389C-2010.18 -441.625 -2053.13 -518.893 -2096.35 -575.918C-2140.3 -633.766 -2180.87 -665.429 -2211.02 -665.429H-2213.02C-2234.58 -664.4 -2250.46 -647.09 -2260.2 -613.986L-2261 -614.192C-2251.14 -647.63 -2235.02 -665.121 -2213.08 -666.175C-2182.43 -667.667 -2140.77 -635.747 -2095.7 -576.407C-2052.35 -519.305 -2009.38 -441.985 -1974.69 -358.698C-1931.16 -254.139 -1893.29 -139.241 -1856.59 -28.0972C-1815.75 95.8046 -1773.52 223.976 -1723.42 337.64C-1669.43 460.206 -1605.33 561.86 -1537.93 631.614C-1505.96 664.695 -1474.05 689.798 -1443.08 706.209C-1412.09 722.613 -1382.82 729.924 -1355.96 728.07C-1326.76 726.065 -1301.03 713.255 -1279.47 689.999C-1256.92 665.668 -1239.34 630.247 -1227.29 584.722C-1218.28 551.005 -1211.66 511.853 -1205.32 474.119C-1195.32 414.959 -1184.97 353.69 -1165.27 312.382C-1149.38 278.943 -1126.66 259.24 -1099.61 255.305C-1065.64 250.366 -1026.8 269.735 -987.225 311.353C-952.268 348.135 -917.059 401.198 -883.028 452.513C-867.015 476.689 -850.428 501.692 -834.063 524.713C-772.895 610.699 -710.059 675.8 -647.307 718.196C-589.383 757.29 -530.915 777.504 -473.573 778.305H-470.137C-372.643 778.305 -278.661 722.177 -198.243 615.74C-134.886 531.994 -78.7219 425.403 -24.3982 322.516C52.6655 176.339 132.365 25.1727 233.762 -62.5642C287.399 -108.863 348.287 -138.238 414.804 -149.555C478.822 -160.461 548.828 -154.879 622.953 -132.99C694.661 -111.796 770.928 -75.116 849.639 -23.9556C926.538 25.9703 1006.18 90.017 1086.38 166.385C1108.49 187.425 1131.12 209.777 1153.03 231.41C1241.44 318.375 1332.67 408.477 1415.07 437.878C1459.72 453.851 1501.97 451.87 1540.66 432.039C1601.08 401.018 1685.62 308.292 1744.33 42.7152C1775.56 -98.5486 1795.74 -261.804 1815.24 -419.658C1831.72 -551.765 1848.45 -688.348 1871.74 -811.528C1899.94 -960.715 1937.1 -1077.1 1982.22 -1157.31C2035.31 -1251.73 2099.49 -1295.87 2173.04 -1288.49V-1287.72C2099.88 -1295.07 2035.97 -1251.08 1983.05 -1156.97C1937.98 -1076.83 1900.85 -960.56 1872.64 -811.426C1849.38 -688.27 1832.49 -551.637 1816.18 -419.607C1796.67 -261.727 1776.49 -98.4454 1745.26 42.8434C1712.8 189.586 1651.06 376.326 1541.18 432.682C1502.26 452.642 1459.78 454.623 1414.85 438.572C1332.45 409.095 1241.14 318.94 1152.84 231.744C1130.87 210.138 1108.32 187.785 1086.21 166.745C1005.85 90.403 926.209 26.3813 849.31 -23.4923C770.709 -74.6019 694.496 -111.255 622.871 -132.424C548.883 -154.288 478.988 -159.869 415.106 -148.989C348.754 -137.697 288.004 -108.477 234.504 -62.1783C133.272 25.4554 53.6272 176.571 -23.4097 322.696C-77.7349 425.737 -133.922 532.302 -197.34 616.105C-278.002 722.742 -372.199 779 -469.969 779Z" fill="white"/>
</g>
</svg>
