<svg width="1920" height="839" viewBox="0 0 1920 839" fill="none" xmlns="http://www.w3.org/2000/svg">
<mask id="mask0_1801_1892" style="mask-type:alpha" maskUnits="userSpaceOnUse" x="0" y="0" width="1920" height="839">
<path d="M0 839H1920V0H0V839Z" fill="url(#paint0_linear_1801_1892)"/>
</mask>
<g mask="url(#mask0_1801_1892)">
<g opacity="0.15">
<path opacity="0.4" d="M-181.543 364.457C-190.143 364.457 -198.765 364.744 -207.357 365.372C-264.042 369.402 -320.153 386.974 -374.145 417.317C-432.536 450.156 -489.136 498.55 -542.279 561.155C-557.167 578.678 -572.109 597.667 -586.554 616.055C-617.173 655.015 -648.839 695.271 -681.661 723.405C-718.653 755.068 -756.831 770.215 -791.956 767.19C-819.889 764.79 -844.769 750.579 -863.911 726.117C-887.698 695.703 -903.626 650.213 -919.028 606.092C-928.889 577.935 -939.104 548.792 -951.299 523.731C-968.276 488.876 -990.302 462.135 -1016.69 444.299C-1041.12 427.485 -1071.35 418.412 -1102.43 418.565C-1130.23 418.565 -1159.62 425.311 -1189.71 438.561C-1219.81 451.812 -1250.13 471.448 -1279.82 496.798C-1342.16 550.137 -1398.58 626.425 -1442.96 717.643C-1484.81 803.582 -1517.27 900.082 -1548.67 993.485C-1576.88 1077.26 -1605.99 1163.92 -1641.8 1242.9C-1669.95 1304.9 -1707.02 1362.92 -1746.16 1406.13C-1786.7 1450.93 -1826.3 1476.01 -1857.69 1476.73H-1859.14C-1881.94 1476.73 -1900.12 1464.1 -1913.22 1439.21L-1913.99 1439.52C-1900.73 1464.7 -1882.29 1477.45 -1859.07 1477.45H-1857.58C-1825.97 1476.71 -1786.18 1451.55 -1745.42 1406.59C-1706.23 1363.38 -1669.1 1305.26 -1640.92 1243.19C-1605.08 1164.26 -1575.96 1077.7 -1547.82 993.966C-1516.43 900.634 -1483.93 804.11 -1442.14 718.22C-1397.78 627.001 -1341.42 550.785 -1279.17 497.517C-1249.61 472.216 -1219.34 452.676 -1189.28 439.425C-1159.2 426.175 -1130.04 419.501 -1102.35 419.501C-1071.48 419.366 -1041.46 428.387 -1017.21 445.091C-990.907 462.854 -968.987 489.476 -952.072 524.308C-939.876 549.32 -929.685 578.438 -919.823 606.596C-904.392 650.646 -888.432 696.183 -864.569 726.622C-845.343 751.275 -820.218 765.582 -792.04 768.006C-756.639 771.055 -718.27 755.836 -681.08 724.005C-648.128 695.847 -616.515 655.543 -585.865 616.559C-571.421 598.171 -556.479 579.183 -541.621 561.683C-488.456 499.054 -431.985 450.732 -373.793 417.917C-319.931 387.551 -263.935 370.124 -207.411 366.087C-100.583 358.456 7.79248 398.401 106.059 481.555C178.591 542.911 245.658 621.432 310.527 697.383C402.586 805.118 497.748 916.549 609.884 980.163C668.238 1013.53 734.659 1034.6 803.916 1041.71C870.818 1048.65 942.498 1043.15 1016.95 1025.39C1089.05 1008.2 1164.49 979.346 1241.17 939.642C1316.01 900.874 1392.58 851.52 1468.76 792.923C1489.72 776.792 1511.14 759.653 1531.93 743.089C1615.36 676.307 1701.63 607.269 1783.86 583.744C1861.44 561.539 1934.91 579.831 2002.25 638.115C2060.8 688.814 2112.98 767.742 2157.36 872.692C2201.74 977.642 2236.59 1099.2 2270.32 1216.78C2298.56 1315.2 2327.75 1416.89 2362.35 1508.47C2404.31 1619.42 2452.65 1705.64 2506.07 1764.72C2568.94 1834.34 2638.86 1866 2713.97 1859.06V1858.34C2639.19 1865.25 2569.49 1833.59 2506.81 1764.29C2453.45 1705.26 2405.19 1619.13 2363.23 1508.25C2328.27 1416.69 2299.1 1314.91 2270.98 1216.49C2237.23 1098.87 2202.32 977.306 2157.97 872.332C2113.61 767.358 2061.29 688.261 2002.66 637.491C1935.12 578.99 1861.36 560.675 1783.41 582.928C1701.02 606.524 1614.71 675.611 1531.21 742.441C1510.53 759.004 1489.11 776.048 1468.05 792.252C1391.92 850.824 1315.38 900.154 1240.59 938.898C1163.97 978.579 1088.61 1007.38 1016.6 1024.57C942.224 1042.31 870.653 1047.78 803.861 1040.87C734.733 1033.77 668.434 1012.75 610.185 979.443C498.297 915.902 403.163 804.518 311.159 696.831C246.289 620.855 179.195 542.311 106.608 480.786C16.1973 404.426 -83.0315 364.457 -181.543 364.457Z" fill="white"/>
<path opacity="0.4" d="M-196.836 347.892C-204.862 347.892 -212.903 348.159 -220.928 348.714C-277.72 352.549 -334.022 370.124 -388.32 400.922C-446.926 434.168 -503.886 483.307 -557.579 546.968C-572.575 564.708 -587.593 583.96 -602.122 602.564C-632.939 642.076 -664.905 682.909 -697.864 711.378C-734.94 743.474 -773.14 758.765 -808.212 755.596C-836.03 753.195 -860.781 738.792 -879.617 713.827C-903.158 682.932 -918.751 636.771 -933.861 592.121C-943.501 563.532 -953.493 533.958 -965.528 508.536C-982.199 473.225 -1003.97 446.123 -1030.06 427.999C-1054.13 410.913 -1084.2 401.589 -1115.2 401.594H-1115.94C-1143.41 401.594 -1172.66 408.315 -1202.57 421.566C-1232.47 434.817 -1263.24 454.789 -1293.03 480.45C-1355.7 534.486 -1412.61 611.998 -1457.6 704.609C-1499.91 791.747 -1532.98 889.639 -1564.92 984.291C-1593.57 1069.17 -1623.21 1156.96 -1659.48 1236.94C-1688.05 1299.89 -1725.4 1358.7 -1764.89 1402.58C-1805.7 1448 -1845.44 1473.32 -1876.78 1473.9C-1900.12 1474.31 -1918.57 1461.51 -1931.7 1435.78L-1932.44 1436.07C-1919.15 1462.11 -1900.43 1475.07 -1876.72 1474.62C-1845.14 1474.04 -1805.32 1448.62 -1764.12 1403.03C-1724.66 1359.13 -1687.22 1300.27 -1658.61 1237.26C-1622.33 1157.22 -1592.69 1069.44 -1564.02 984.555C-1532.08 889.903 -1499.04 792.035 -1456.75 704.945C-1411.78 612.43 -1354.96 534.989 -1292.35 481.026C-1262.63 455.389 -1232.26 435.633 -1202.1 422.262C-1171.95 408.891 -1143.27 402.362 -1115.84 402.362H-1115.09C-1084.29 402.35 -1054.42 411.608 -1030.51 428.575C-1004.44 446.627 -982.826 473.609 -966.208 508.8C-954.212 534.198 -944.243 563.748 -934.549 592.337C-919.439 637.035 -903.816 683.245 -880.221 714.235C-861.132 739.248 -836.282 753.795 -808.128 756.316C-772.781 759.46 -734.389 744.098 -697.038 711.835C-664.078 683.316 -632.113 642.46 -601.273 602.924C-586.744 584.32 -571.718 565.068 -556.753 547.352C-503.113 483.763 -446.214 434.672 -387.685 401.474C-333.525 370.745 -277.361 353.197 -220.706 349.382C-114.475 342.178 -6.92676 382.987 90.2131 467.007C162.223 529.42 228.658 609.117 292.897 686.245C384.049 795.684 478.333 908.868 589.698 973.537C647.584 1007.43 713.795 1028.92 782.962 1036.26C849.699 1043.46 921.27 1037.89 995.724 1019.99C1067.79 1002.63 1143.26 973.465 1220.08 933.281C1295.03 894.056 1371.79 844.102 1448.19 784.738C1469.23 768.415 1490.71 751.131 1511.36 734.327C1595.07 666.705 1681.64 596.778 1763.86 573.014C1841.48 550.569 1914.69 569.245 1981.49 628.465C2039.57 679.98 2091.15 760.133 2134.76 866.667C2178.37 973.201 2212.37 1096.56 2245.28 1215.89C2272.74 1315.73 2301.24 1418.97 2335.19 1511.92C2376.39 1624.55 2424.04 1712.08 2476.96 1772.09C2539.25 1842.71 2608.78 1875 2683.85 1868.11V1867.39C2609.11 1874.28 2539.8 1842.09 2477.7 1771.68C2424.84 1711.67 2377.19 1624.29 2336.07 1511.73C2302.12 1418.81 2273.67 1315.58 2246.15 1215.75C2213.2 1096.39 2179.22 973.009 2135.61 866.451C2092 759.893 2040.28 679.548 1982.04 627.961C1914.97 568.525 1841.48 549.801 1763.53 572.318C1681.14 596.131 1594.52 666.129 1510.86 733.799C1490.1 750.603 1468.62 767.91 1447.7 784.21C1371.32 843.526 1294.61 893.48 1219.75 932.657C1143.01 972.817 1067.6 1001.96 995.614 1019.29C921.27 1037.17 849.809 1042.65 783.181 1035.54C714.141 1028.22 648.05 1006.77 590.275 972.937C479.019 908.339 384.791 795.3 293.666 685.837C229.401 608.685 162.965 528.893 90.927 466.504C0.653809 388.607 -98.2476 347.892 -196.836 347.892Z" fill="white"/>
<path opacity="0.4" d="M-212.002 331.333C-219.499 331.333 -226.943 331.573 -234.411 332.048C-291.318 335.696 -347.841 353.344 -402.407 384.525C-461.318 418.133 -518.692 468.063 -572.905 532.781C-587.954 550.76 -603.111 570.253 -617.724 589.12C-648.732 629.137 -680.889 670.497 -713.849 699.351C-751.169 731.854 -789.431 747.361 -824.387 744.097C-852.16 741.528 -876.574 726.861 -895.441 701.656C-918.73 670.281 -933.886 623.423 -948.774 578.126C-958.254 549.104 -968 519.097 -979.867 493.292C-996.339 457.549 -1017.65 430.087 -1043.55 411.675C-1067.28 394.368 -1097.15 384.819 -1128.06 384.67H-1129.52C-1156.84 384.67 -1185.76 391.391 -1215.47 404.642C-1245.69 418.157 -1276.34 438.249 -1306.3 464.198C-1369.3 518.954 -1426.7 597.57 -1472.27 691.574C-1515.08 779.888 -1548.7 879.125 -1581.21 975.121C-1610.35 1061.18 -1640.51 1150.17 -1677.34 1231.25C-1706.28 1295.13 -1744.08 1354.78 -1783.73 1399.29C-1824.93 1445.31 -1864.7 1470.9 -1895.97 1471.3H-1896.82C-1919.59 1471.3 -1937.61 1458.27 -1950.36 1432.56L-1951.12 1432.82C-1938.05 1459.23 -1919.49 1472.31 -1895.95 1472.03C-1864.42 1471.57 -1824.35 1445.88 -1783.1 1399.67C-1743.36 1355.19 -1705.54 1295.49 -1676.56 1231.64C-1639.82 1150.5 -1609.69 1061.52 -1580.44 975.433C-1547.95 879.413 -1514.34 780.248 -1471.52 691.958C-1426.02 598.05 -1368.67 519.506 -1305.72 464.846C-1275.84 438.873 -1245.3 418.876 -1215.09 405.41C-1185.46 392.207 -1156.68 385.51 -1129.49 385.51H-1128.03C-1097.35 385.672 -1067.69 395.151 -1044.13 412.323C-1018.34 430.663 -997.005 457.933 -980.662 493.652C-968.85 519.434 -959.072 549.416 -949.623 578.414C-934.85 623.783 -919.418 670.689 -896.182 702.136C-877.316 727.533 -852.542 742.32 -824.525 744.913C-789.239 748.178 -750.817 732.623 -713.328 699.951C-680.177 671.145 -648.075 629.665 -617.035 589.528C-602.399 570.66 -587.297 551.12 -572.247 533.212C-518.087 468.567 -460.798 418.733 -401.971 385.125C-347.536 353.919 -291.149 336.398 -234.442 332.769C-128.73 325.98 -22.0895 367.437 73.9796 452.579C145.386 515.929 211.299 596.898 274.851 675.226C365.124 786.346 458.474 901.258 569.235 967.031C626.655 1001.43 692.657 1023.32 761.73 1030.88C828.302 1038.21 899.763 1032.73 974.19 1014.66C1046.23 997.158 1121.78 967.68 1198.68 927.015C1273.77 887.359 1350.69 836.756 1427.34 776.672C1448.46 760.132 1470 742.561 1490.84 725.565C1574.82 657.078 1661.67 586.336 1743.89 562.331C1821.51 539.694 1894.48 558.706 1960.86 618.863C2018.53 671.193 2069.45 752.547 2112.29 860.665C2155.14 968.783 2188.26 1093.97 2220.34 1215.05C2247.14 1316.35 2274.88 1421.11 2308.22 1515.43C2348.54 1629.71 2395.58 1718.58 2448.04 1779.48C2509.72 1851.21 2578.99 1884.05 2654.02 1877.14V1876.41C2579.37 1883.3 2510.39 1850.53 2448.89 1779.05C2396.24 1718.2 2349.25 1629.38 2308.96 1515.19C2275.67 1420.87 2247.94 1316.11 2221.08 1214.83C2189 1093.73 2155.85 968.519 2113.03 860.401C2070.22 752.282 2019.13 670.762 1961.41 618.311C1894.86 557.938 1821.61 538.854 1743.67 561.586C1661.28 585.591 1574.35 656.502 1490.32 725.037C1469.47 742.032 1447.94 759.58 1426.82 776.119C1350.2 836.132 1273.33 886.759 1198.3 926.415C1121.4 967.031 1045.98 996.485 973.998 1013.96C899.681 1032.01 828.439 1037.46 761.867 1030.16C692.884 1022.63 626.965 1000.78 569.62 966.431C458.968 900.729 365.674 785.889 275.427 674.794C211.794 596.466 145.99 515.449 74.4738 452.076C-14.8112 372.79 -113.459 331.333 -212.002 331.333Z" fill="white"/>
<path opacity="0.4" d="M-227.157 314.794C-234.112 314.794 -240.891 314.981 -247.975 315.416C-304.966 318.851 -361.651 336.585 -416.5 368.226C-475.732 402.29 -533.519 452.916 -588.23 518.69C-603.363 536.79 -618.573 556.546 -633.323 575.558C-664.523 616.078 -696.818 657.992 -730.022 687.205C-767.488 720.26 -805.773 735.887 -840.675 732.551C-868.356 729.91 -892.854 715.003 -911.285 689.342C-934.329 657.487 -949.294 609.957 -963.739 563.987C-972.996 534.557 -982.552 504.119 -994.196 477.905C-1010.29 441.73 -1031.44 413.908 -1057.09 395.184C-1080.47 377.648 -1110.18 367.872 -1140.99 367.578C-1168.7 367.197 -1198.14 373.94 -1228.46 387.55C-1258.78 401.161 -1289.52 421.422 -1319.62 447.78C-1382.95 503.207 -1440.84 582.927 -1486.99 678.228C-1530.27 767.742 -1564.46 868.347 -1597.55 965.64C-1627.19 1052.87 -1657.97 1143.08 -1695.02 1225.28C-1724.35 1290.09 -1762.5 1350.58 -1802.44 1395.59C-1843.8 1442.23 -1883.78 1468.09 -1915.03 1468.4H-1915.61C-1938.37 1468.4 -1956.32 1455.15 -1968.89 1429.03L-1969.66 1429.3C-1956.91 1455.7 -1938.73 1469.12 -1915.61 1469.12H-1915.03C-1883.56 1468.81 -1843.35 1442.86 -1801.83 1396.05C-1761.87 1350.97 -1723.66 1290.43 -1694.31 1225.61C-1657.12 1143.4 -1626.47 1053.16 -1596.81 965.928C-1563.85 868.659 -1529.55 768.078 -1486.27 678.588C-1440.18 583.288 -1382.34 503.639 -1319.06 448.139C-1289.05 421.854 -1258.46 401.641 -1228.17 388.127C-1198.72 374.922 -1170.13 368.226 -1143.17 368.226H-1141.08C-1110.41 368.554 -1080.86 378.33 -1057.64 395.832C-1032.1 414.484 -1010.95 442.21 -994.992 478.266C-983.378 504.431 -973.823 534.846 -964.565 564.275C-950.09 610.293 -935.125 657.895 -911.996 689.822C-893.351 715.579 -868.716 730.63 -840.783 733.271C-805.604 736.632 -767.128 720.932 -729.471 687.829C-696.213 658.568 -663.888 616.63 -632.665 576.062C-617.945 556.858 -602.728 537.198 -587.594 519.002C-532.945 453.3 -475.212 402.746 -416.086 368.728C-361.345 337.26 -304.798 319.566 -247.922 316.138C-142.738 309.776 -36.943 351.948 58.0248 438.105C128.936 502.439 194.081 584.536 257.083 664.136C346.478 776.96 438.921 893.624 549.051 960.454C606.011 995.367 671.81 1017.68 740.804 1025.48C807.184 1032.97 878.562 1027.52 952.963 1009.3C1025 991.637 1100.58 961.846 1177.62 920.726C1252.81 880.59 1329.93 829.507 1406.83 768.535C1427.98 751.73 1449.62 733.991 1470.52 716.803C1554.81 647.453 1642.06 575.774 1724.17 551.553C1773.31 537.15 1820.96 539.551 1865.75 559.042C1975.61 606.788 2048.31 746.113 2089.88 854.592C2131.96 964.271 2164.23 1091.28 2195.45 1214.09C2221.57 1316.88 2248.57 1423.15 2281.2 1518.96C2320.71 1634.9 2367.1 1725.06 2419.03 1786.92C2480.17 1859.73 2549.08 1893.15 2623.95 1886.21V1885.51C2549.43 1892.4 2480.78 1859.11 2419.84 1786.52C2367.93 1724.7 2321.59 1634.61 2282.1 1518.74C2249.48 1423.06 2222.48 1316.81 2196.36 1214.04C2165.13 1091.19 2132.86 964.175 2090.79 854.449C2049.16 745.849 1976.37 606.332 1866.22 558.49C1821.23 538.951 1773.39 536.406 1724.04 550.953C1641.64 575.222 1554.42 646.973 1470.08 716.372C1449.18 733.583 1427.57 751.347 1406.42 768.102C1329.52 828.907 1252.62 880.085 1177.31 920.198C1100.42 961.294 1024.83 991.061 952.88 1008.7C878.728 1026.9 807.321 1032.35 741.023 1024.86C672.181 1017.11 606.52 994.869 549.682 960.046C439.662 893.288 347.274 776.696 257.907 663.921C194.739 584.392 129.705 502.174 58.7665 437.793C-30.2438 356.967 -128.646 314.794 -227.157 314.794Z" fill="white"/>
<path opacity="0.4" d="M-242.296 298.228C-248.715 298.228 -255.119 298.395 -261.515 298.783C-318.613 302.017 -375.489 319.832 -430.583 351.733C-490.129 386.206 -548.321 437.576 -603.606 504.382C-618.846 522.842 -634.178 542.791 -648.975 562.21C-680.427 603.283 -712.913 645.724 -746.224 675.298C-783.767 708.641 -822.082 724.388 -856.909 721.028C-884.368 718.291 -908.758 703.144 -927.074 677.194C-949.897 644.884 -964.51 596.658 -978.656 549.968C-987.692 520.105 -997.056 489.235 -1008.51 462.661C-1024.3 426.03 -1045.17 397.848 -1070.57 378.837C-1093.59 361.095 -1123.08 351.105 -1153.76 350.651H-1156.51C-1183.4 350.651 -1211.91 357.373 -1241.29 370.651C-1271.72 384.405 -1302.51 404.881 -1332.74 431.551C-1396.44 487.699 -1454.8 568.524 -1501.51 665.312C-1545.29 756.027 -1580.06 857.976 -1613.67 956.565C-1643.89 1044.98 -1675 1136.41 -1712.54 1219.68C-1742.26 1285.43 -1780.77 1346.77 -1820.94 1392.4C-1862.58 1439.64 -1902.67 1465.76 -1933.82 1465.93H-1934.12C-1956.89 1465.93 -1974.74 1452.46 -1987.12 1425.93L-1987.9 1426.2C-1975.34 1453.04 -1957.27 1466.65 -1934.12 1466.65H-1933.82C-1902.4 1466.48 -1862.09 1440.24 -1820.31 1392.83C-1780.08 1347.22 -1741.52 1285.77 -1711.8 1220C-1674.15 1136.7 -1642.95 1045.26 -1612.93 956.829C-1579.31 858.24 -1544.57 756.315 -1500.8 665.648C-1454.11 568.932 -1395.83 488.179 -1332.22 432.127C-1302.02 405.506 -1271.34 385.054 -1240.96 371.346C-1210.58 357.641 -1181.39 351.012 -1153.84 351.446C-1123.34 351.9 -1094.01 361.824 -1071.1 379.438C-1045.8 398.376 -1025.01 426.486 -1009.27 462.973C-997.852 489.523 -988.487 520.369 -979.452 550.208C-965.282 596.897 -950.638 645.172 -927.762 677.579C-909.332 703.72 -884.834 718.987 -856.992 721.724C-821.891 725.228 -783.361 709.313 -745.566 675.802C-712.171 646.18 -679.655 603.787 -648.21 562.618C-633.406 543.27 -617.997 523.25 -602.864 504.814C-547.717 438.056 -489.632 386.758 -430.17 352.308C-375.244 320.48 -318.422 302.692 -261.492 299.498C-156.822 293.544 -51.8604 336.464 42.0403 423.653C112.431 488.971 176.943 572.484 239.313 653.093C327.829 767.598 419.367 885.942 528.865 953.9C585.346 989.329 650.937 1012.06 719.849 1020.08C786.037 1027.79 857.333 1022.34 931.733 1003.95C1003.74 986.163 1079.35 955.94 1156.52 914.436C1231.8 873.843 1309.11 822.041 1386.26 760.444C1407.49 743.472 1429.19 725.469 1450.17 708.065C1534.73 637.874 1622.14 565.283 1704.37 540.822C1753.18 526.419 1800.5 528.819 1844.71 548.215C1954.57 596.225 2026.5 738.119 2067.5 848.566C2108.7 959.83 2140.17 1088.62 2170.57 1213.23C2195.98 1317.46 2222.26 1425.24 2254.23 1522.34C2292.95 1639.96 2338.65 1731.42 2390.12 1794.22C2450.54 1868.13 2519.2 1902.07 2594.01 1895.04V1894.32C2519.61 1901.21 2451.2 1867.37 2390.77 1793.69C2339.39 1730.97 2293.69 1639.56 2255.03 1522C2223.05 1424.95 2196.77 1317.17 2171.37 1212.96C2140.99 1088.35 2109.58 959.518 2068.27 848.231C2027.24 737.639 1955.2 595.697 1845.07 547.448C1800.55 527.955 1753.13 525.459 1704.13 540.03C1621.74 564.539 1534.21 637.178 1449.59 707.417C1428.64 724.821 1406.94 742.848 1385.71 759.796C1308.59 821.345 1231.34 873.124 1156.08 913.716C1078.99 955.269 1003.44 985.347 931.513 1003.13C857.36 1021.5 785.954 1026.92 720.041 1019.24C651.269 1011.24 585.808 988.56 529.442 953.204C419.916 885.462 328.461 767.117 240 652.662C177.602 571.956 113.062 488.491 42.6448 423.126C-45.6785 341.149 -143.808 298.228 -242.296 298.228Z" fill="white"/>
<path opacity="0.4" d="M-257.424 281.663C-263.331 281.663 -269.26 281.81 -275.167 282.144C-332.349 285.191 -389.385 303.1 -444.754 335.362C-504.599 370.217 -563.288 422.333 -618.848 490.196C-634.173 508.871 -649.582 529.156 -664.493 548.768C-696.129 590.344 -728.813 633.337 -762.263 663.271C-800.027 697.047 -838.365 713.01 -873.108 709.481C-900.574 706.672 -924.766 691.286 -942.867 664.976C-965.445 632.161 -979.722 583.359 -993.539 535.973C-1002.41 505.703 -1011.56 474.4 -1022.81 447.443C-1038.3 410.379 -1058.9 381.811 -1084.06 362.512C-1106.79 344.51 -1136.2 334.28 -1166.86 333.705H-1170.24C-1196.91 333.705 -1225.17 340.427 -1254.47 353.705C-1284.96 367.578 -1315.85 388.294 -1346.26 415.3C-1410.25 472.12 -1469.04 554.049 -1516.36 652.229C-1560.64 744.121 -1596.01 847.438 -1630.15 947.347C-1660.8 1036.93 -1692.49 1129.57 -1730.56 1213.95C-1760.77 1280.63 -1799.52 1342.81 -1839.95 1389.02C-1881.86 1436.88 -1922.06 1463.26 -1953.16 1463.29C-1975.92 1463.29 -1993.66 1449.63 -2005.89 1422.67L-2006.65 1422.93C-1994.26 1450.18 -1976.28 1464.01 -1953.16 1464.01C-1921.79 1464.01 -1881.36 1437.6 -1839.29 1389.45C-1798.81 1343.19 -1759.94 1280.97 -1729.81 1214.21C-1691.7 1129.81 -1660 1037.15 -1629.35 947.563C-1595.19 847.654 -1559.84 744.361 -1515.6 652.517C-1468.33 554.409 -1409.56 472.48 -1345.65 415.804C-1315.3 388.846 -1284.51 368.179 -1254.09 354.353C-1223.66 340.527 -1194.41 333.852 -1166.91 334.453C-1136.4 335.015 -1107.15 345.199 -1084.52 363.114C-1059.48 382.319 -1038.94 410.811 -1023.5 447.755C-1012.24 474.688 -1003.09 505.967 -994.281 536.237C-980.548 583.575 -966.126 632.521 -943.495 665.408C-925.233 691.814 -900.903 707.441 -873.138 710.274C-838.09 713.826 -799.53 697.791 -761.605 663.848C-728.071 633.794 -695.448 590.777 -663.804 549.152C-648.893 529.564 -633.599 509.28 -618.19 490.627C-562.546 422.814 -504.048 370.772 -444.287 335.963C-389.056 303.775 -332.126 285.886 -275.113 282.866C-170.97 277.293 -66.8271 320.962 26.0581 409.13C95.8994 475.432 159.752 560.122 221.519 641.979C309.156 758.163 399.759 878.309 508.654 947.299C564.666 983.182 630.035 1006.28 698.841 1014.51C764.891 1022.39 836.16 1016.91 910.449 998.43C982.432 980.473 1058.12 950.035 1135.38 907.979C1210.79 866.906 1288.27 814.479 1365.66 752.138C1386.98 734.975 1408.75 716.755 1429.79 699.111C1514.63 628.08 1602.35 554.601 1684.57 529.923C1733.02 515.377 1779.85 517.921 1823.68 537.125C1933.53 585.663 2004.72 729.861 2045.09 842.301C2085.61 955.125 2116.14 1085.76 2145.69 1211.98C2170.41 1317.6 2195.95 1426.99 2227.26 1525.46C2265.16 1644.74 2310.23 1737.54 2361.2 1801.25C2421.18 1876.25 2489.43 1910.76 2564.08 1903.85V1903.13C2489.71 1910.02 2421.76 1875.6 2361.94 1800.84C2311.03 1737.18 2266.01 1644.48 2228.14 1525.27C2196.86 1426.85 2171.29 1317.53 2146.57 1211.83C2116.94 1085.81 2086.4 955.173 2045.78 842.301C2005.16 729.429 1934.08 585.448 1823.98 536.693C1780.04 517.225 1732.91 514.777 1684.21 529.492C1601.82 554.217 1513.94 627.744 1429.13 698.847C1408.1 716.467 1386.32 734.711 1365.03 751.85C1287.67 814.263 1210.25 866.57 1134.86 907.595C1057.66 949.627 982.048 980.042 910.148 997.973C835.996 1016.51 764.809 1021.98 698.868 1014.03C630.175 1005.79 564.924 982.691 509.038 946.819C400.281 877.924 309.705 757.828 222.123 641.691C160.329 559.786 96.448 475.096 26.5801 408.842C-61.1121 325.305 -158.966 281.663 -257.424 281.663Z" fill="white"/>
<path opacity="0.4" d="M-272.534 265.097C-278.027 265.097 -283.459 265.237 -288.845 265.512C-346.051 268.291 -403.286 286.347 -458.93 318.97C-519.073 354.253 -578.038 407.09 -634.203 476.008C-649.612 494.925 -665.127 515.449 -680.123 535.325C-711.95 577.429 -744.856 620.951 -778.413 651.245C-816.315 685.428 -854.684 701.655 -889.373 697.935C-916.831 695.054 -940.778 679.427 -958.689 652.733C-981.014 619.463 -994.969 569.892 -1008.48 521.93C-1017.13 491.251 -1026.05 459.517 -1037.16 432.151C-1052.34 394.656 -1072.69 365.706 -1097.57 346.114C-1119.96 327.871 -1149.2 317.4 -1179.8 316.665C-1207.26 315.99 -1236.87 322.685 -1267.38 336.658C-1297.9 350.631 -1328.93 371.587 -1359.47 398.904C-1423.79 456.516 -1483.05 539.454 -1530.92 638.954C-1575.69 732.022 -1611.62 836.708 -1646.27 937.937C-1677.42 1028.68 -1709.61 1122.54 -1748.17 1208.02C-1778.65 1275.64 -1817.84 1338.63 -1858.52 1385.41C-1900.59 1433.81 -1940.91 1460.45 -1971.85 1460.45H-1972.19C-1994.81 1460.45 -2012.42 1446.51 -2024.37 1419.21L-2025.13 1419.48C-2013 1447.06 -1995.14 1461.08 -1972.13 1461.17H-1971.94C-1940.66 1461.17 -1900.17 1434.43 -1857.93 1385.87C-1817.21 1339.01 -1777.99 1275.95 -1747.48 1208.23C-1709.03 1122.73 -1676.7 1028.87 -1645.56 938.081C-1610.82 836.876 -1574.92 732.214 -1530.21 639.171C-1482.37 539.718 -1423.1 456.732 -1358.92 399.288C-1328.44 372.021 -1297.51 351.112 -1267.02 337.166C-1236.54 323.213 -1207.29 316.544 -1179.86 317.266C-1149.45 317.994 -1120.4 328.399 -1098.15 346.528C-1073.44 366.04 -1053.05 394.895 -1037.9 432.271C-1026.91 459.589 -1017.9 491.299 -1009.25 522.002C-995.734 570.012 -981.787 619.63 -959.377 652.973C-941.329 679.859 -917.137 695.631 -889.426 698.583C-854.408 702.328 -815.955 685.98 -777.809 651.749C-744.168 621.407 -711.27 577.838 -679.412 535.709C-664.416 515.857 -648.892 495.332 -633.491 476.441C-577.38 407.522 -518.5 354.714 -458.433 319.565C-402.957 287.015 -345.829 269.16 -288.792 266.226C-283.299 265.966 -277.805 265.819 -272.534 265.819C-174.351 265.819 -77.0176 310.136 10.0449 394.656C79.3359 461.869 142.558 547.855 203.692 630.913C290.451 748.801 380.176 870.675 488.411 940.746C543.951 977.19 609.143 1000.75 677.911 1009.23C743.824 1017.3 814.901 1011.92 889.218 993.197C961.201 975.097 1036.92 944.346 1114.42 901.809C1189.95 860.28 1267.62 807.253 1345.12 744.168C1366.51 726.789 1388.35 708.353 1409.47 690.493C1494.6 618.478 1582.49 544.255 1664.88 519.337C1713 504.767 1759.41 507.167 1802.78 526.539C1912.63 575.461 1983.05 722.132 2022.79 836.539C2062.53 950.948 2092.19 1083.41 2120.91 1211.5C2144.92 1318.66 2169.78 1429.46 2200.4 1529.3C2237.47 1650.26 2281.89 1744.36 2332.22 1809.01C2391.65 1885.1 2459.6 1920.18 2534.11 1913.26V1912.54C2459.96 1919.43 2392.23 1884.45 2332.99 1808.6C2282.57 1744.02 2238.19 1650 2201.16 1529.11C2170.54 1429.3 2145.72 1318.51 2121.69 1211.35C2092.99 1083.26 2063.3 950.804 2023.53 836.348C1983.77 721.892 1913.23 574.933 1803.13 525.915C1759.55 506.494 1712.94 504.094 1664.58 518.713C1582.19 543.678 1494.11 618.07 1408.92 690.037C1387.8 707.873 1365.96 726.332 1344.6 743.689C1267.01 806.75 1189.4 859.753 1113.9 901.233C1036.56 943.746 960.926 974.473 889.026 992.572C814.874 1011.25 743.824 1016.58 678.048 1008.56C609.438 1000.09 544.397 976.582 488.987 940.217C380.862 870.242 291.247 748.393 204.489 630.553C143.327 547.471 80.0771 461.533 10.7312 394.199C-76.5508 309.488 -174.129 265.097 -272.534 265.097Z" fill="white"/>
<path opacity="0.4" d="M-287.637 248.538C-292.61 248.538 -297.552 248.658 -302.525 248.899C-359.837 251.539 -417.211 269.614 -473.069 302.598C-533.495 338.269 -592.843 391.846 -649.474 461.821C-664.959 481.025 -680.59 501.741 -695.693 521.833C-727.688 564.466 -760.809 608.563 -794.564 639.218C-832.435 673.809 -870.888 690.132 -905.547 686.387C-933.013 683.435 -956.738 667.568 -974.449 640.49C-996.422 606.883 -1010.16 556.473 -1023.37 507.886C-1031.8 476.68 -1040.53 444.585 -1051.41 416.884C-1066.32 378.931 -1086.43 349.669 -1111.12 329.695C-1134.79 310.664 -1162.28 300.553 -1192.82 299.665C-1220.29 298.876 -1249.86 305.599 -1280.43 319.685C-1310.99 333.778 -1342.14 354.948 -1372.82 382.606C-1437.44 440.84 -1497.06 524.954 -1545.62 625.967C-1590.88 720.235 -1627.35 826.241 -1662.64 928.791C-1694.28 1020.73 -1727.02 1115.79 -1766.02 1202.45C-1796.89 1270.98 -1836.44 1334.81 -1877.35 1382.2C-1919.59 1431.07 -1959.74 1457.98 -1990.78 1457.98H-1991.17C-2013.71 1457.81 -2031.13 1443.72 -2042.93 1416.14L-2043.7 1416.38C-2031.75 1444.3 -2014.09 1458.53 -1991.2 1458.7H-1990.78C-1959.58 1458.7 -1919.1 1431.7 -1876.69 1382.63C-1835.72 1335.2 -1796.15 1271.29 -1765.24 1202.71C-1726.22 1116.1 -1693.51 1021.02 -1661.87 929.055C-1626.58 826.553 -1590.11 720.547 -1544.88 626.303C-1496.46 525.482 -1436.78 441.464 -1372.24 383.252C-1341.59 355.649 -1310.58 334.52 -1280.05 320.453C-1249.5 306.387 -1220.2 299.712 -1192.84 300.533C-1162.64 301.395 -1135.17 311.452 -1111.66 330.37C-1087.08 350.176 -1067.06 379.412 -1052.2 417.267C-1041.22 444.921 -1032.6 477.088 -1024.16 508.198C-1010.95 556.713 -997.218 607.027 -975.253 640.85C-957.396 668.12 -933.365 684.059 -905.738 687.108C-870.888 690.78 -832.16 674.481 -793.99 639.722C-760.235 609.019 -727.084 564.898 -695.119 522.241C-680.039 502.149 -664.439 481.433 -648.954 462.228C-592.239 392.326 -532.945 338.816 -472.664 303.193C-416.936 270.282 -359.677 252.254 -302.548 249.614C-199.369 244.816 -96.8486 289.969 -5.94019 380.18C62.7195 448.45 125.42 535.588 185.923 619.846C271.802 739.415 360.593 863.041 468.224 934.167C523.271 971.091 588.233 995.059 656.9 1003.78C722.594 1012.04 793.588 1006.66 867.932 987.795C939.86 969.527 1015.63 938.464 1093.14 895.447C1168.8 853.463 1246.63 799.835 1324.52 735.982C1345.94 718.41 1367.86 699.759 1389.06 681.706C1474.44 608.947 1562.77 533.692 1644.99 508.558C1692.78 493.939 1738.79 496.292 1781.71 515.568C1891.57 564.85 1961.19 713.969 2000.3 830.394C2039.24 946.386 2068.08 1080.65 2095.95 1210.47C2119.27 1319.11 2143.38 1431.43 2173.34 1532.64C2209.62 1655.25 2253.37 1750.67 2303.36 1816.25C2362.21 1893.43 2429.69 1929.08 2504.23 1922.14V1921.45C2430.07 1928.34 2362.79 1892.81 2304.13 1815.83C2254.2 1750.31 2210.47 1654.99 2174.22 1532.42C2144.26 1431.22 2120.15 1318.92 2096.83 1210.3C2068.96 1080.45 2040.14 946.242 2001.17 830.129C1961.9 713.681 1892.14 564.37 1782.12 514.968C1739 495.619 1692.81 493.363 1644.8 507.934C1562.41 533.115 1474.03 608.419 1388.57 681.226C1367.36 699.278 1345.45 717.955 1324.02 735.526C1246.08 799.307 1168.28 852.934 1092.78 894.823C1015.36 937.793 939.64 968.831 867.768 987.075C793.615 1005.92 722.676 1011.27 657.092 1003.04C588.553 994.282 523.725 970.314 468.8 933.424C361.307 862.344 272.544 738.767 186.719 619.27C126.162 534.988 63.5713 447.825 -5.22559 379.505C-91.9597 293.664 -189.263 248.538 -287.637 248.538Z" fill="white"/>
<path opacity="0.4" d="M-302.71 231.974C-307.247 231.974 -311.746 231.974 -316.282 232.288C-373.625 234.687 -431.136 252.883 -487.27 286.248C-547.941 322.306 -607.671 376.606 -664.907 447.635C-680.476 467.008 -696.191 488.06 -711.378 508.393C-743.618 551.601 -776.93 596.178 -810.739 627.193C-848.916 662.192 -887.201 678.78 -921.752 674.867C-949.05 671.818 -972.752 655.663 -990.242 628.274C-1012.22 594.066 -1025.4 543.127 -1038.25 493.845C-1046.49 462.303 -1055.01 429.68 -1065.72 401.594C-1080.35 363.188 -1100.18 333.492 -1124.65 313.305C-1148.11 294.1 -1175.43 283.655 -1205.83 282.673C-1233.3 281.737 -1262.85 288.506 -1293.47 302.693C-1324.09 316.88 -1355.32 338.317 -1386.16 366.309C-1451.06 425.239 -1511.29 510.336 -1560.28 612.742C-1606.01 708.21 -1643.09 815.585 -1678.93 919.43C-1711.06 1012.55 -1744.29 1108.83 -1783.76 1196.52C-1815.01 1265.97 -1854.89 1330.64 -1896.08 1378.6C-1938.46 1428 -1978.75 1455.15 -2009.59 1455.15H-2010.19C-2032.61 1454.89 -2049.86 1440.6 -2061.47 1412.69L-2062.24 1412.93C-2050.51 1441.16 -2033.02 1455.61 -2010.19 1455.87H-2009.59C-1978.47 1455.87 -1937.97 1428.62 -1895.4 1379.05C-1854.2 1331.04 -1814.27 1266.23 -1782.99 1196.81C-1743.53 1109.09 -1710.29 1012.81 -1678.13 919.671C-1642.29 815.849 -1605.24 708.426 -1559.54 613.054C-1510.55 510.745 -1450.38 425.671 -1385.56 366.717C-1354.8 338.771 -1323.68 317.434 -1293.09 303.248C-1262.5 289.061 -1233.25 282.385 -1205.89 283.294C-1175.68 284.283 -1148.51 294.534 -1125.23 313.732C-1100.84 333.826 -1081.1 363.429 -1066.51 401.738C-1055.8 429.776 -1047.29 462.375 -1039.05 493.917C-1026.17 543.224 -1012.85 594.234 -990.961 628.538C-973.295 656.191 -949.379 672.418 -921.829 675.467C-887.063 679.332 -848.396 662.768 -810.027 627.601C-776.134 596.539 -742.792 551.865 -710.551 508.705C-695.364 488.348 -679.657 467.32 -664.08 447.948C-607.044 376.987 -547.39 322.76 -486.773 286.729C-430.777 253.458 -373.403 235.362 -316.198 232.89C-311.692 232.696 -307.193 232.595 -302.687 232.595C-204.611 232.595 -107.691 278.376 -21.9221 365.607C46.2979 434.865 108.229 523.227 168.128 608.685C253.128 729.935 341.013 855.313 448.012 927.52C502.571 964.951 567.323 989.346 635.92 998.311C701.448 1006.76 772.36 1001.41 846.65 982.396C918.578 963.984 994.406 932.585 1072.02 889.112C1147.79 846.671 1225.82 792.396 1303.92 727.822C1325.43 710.035 1347.4 691.166 1368.68 672.899C1454.37 599.275 1542.97 523.155 1625.19 497.662C1672.65 483.019 1718.27 485.323 1760.73 504.527C1870.59 554.17 1939.44 705.762 1977.89 824.178C2016.06 941.803 2044.02 1077.84 2071.08 1209.41C2093.68 1319.5 2117.07 1433.35 2146.38 1535.88C2181.84 1660.18 2224.93 1756.92 2274.44 1823.41C2332.7 1901.69 2399.95 1937.87 2474.3 1930.96V1930.23C2400.14 1937.12 2333.3 1901.05 2275.21 1823.03C2225.78 1756.58 2182.72 1659.91 2147.25 1535.71C2117.98 1433.16 2094.58 1319.33 2071.95 1209.24C2044.93 1077.65 2017.02 941.563 1978.77 823.938C1940.32 705.378 1871.24 553.594 1761.17 503.831C1718.52 484.628 1672.68 482.227 1625 496.942C1542.61 522.363 1453.93 598.531 1368.19 672.178C1346.93 690.447 1324.93 709.338 1303.43 727.102C1225.35 791.652 1147.38 845.879 1071.66 888.296C994.104 931.745 918.331 963.119 846.458 981.508C772.305 1000.5 701.476 1005.85 636.057 997.399C568.111 988.661 505.026 964.872 448.534 926.752C341.672 854.737 253.815 729.31 168.869 608.109C108.943 522.627 46.9841 434.241 -21.291 364.939C-107.392 277.895 -204.389 232.001 -302.71 231.974Z" fill="white"/>
<path opacity="0.4" d="M-317.787 215.481C-321.88 215.481 -326.027 215.481 -330.036 215.749C-387.516 217.88 -445.196 236.176 -501.467 269.875C-562.406 306.341 -622.526 361.383 -679.984 433.448C-695.637 453.06 -711.452 474.256 -726.669 494.949C-759.078 538.638 -792.581 583.767 -826.558 615.166C-865.003 650.597 -903.318 667.233 -937.732 663.32C-964.945 660.223 -988.51 643.876 -1005.84 616.03C-1027.43 581.343 -1040.39 529.612 -1052.94 479.801C-1060.99 447.827 -1069.28 414.772 -1079.8 386.182C-1094.14 347.317 -1113.72 317.24 -1138 296.765C-1161.23 277.152 -1188.36 266.661 -1218.65 265.558C-1246.12 264.569 -1275.61 271.292 -1306.29 285.625C-1336.97 299.959 -1368.3 321.63 -1399.26 349.91C-1464.49 409.515 -1525.15 495.813 -1574.72 599.563C-1620.95 696.207 -1658.58 804.95 -1694.99 910.116C-1727.62 1004.41 -1761.37 1101.92 -1801.28 1190.66C-1832.91 1261.04 -1873.15 1326.55 -1914.56 1375.12C-1957.1 1425 -1997.42 1452.41 -2028.18 1452.41H-2028.98C-2051.31 1452.08 -2068.39 1437.58 -2079.76 1409.35L-2080.53 1409.59C-2069.02 1438.13 -2051.69 1452.8 -2029 1453.13C-1997.86 1453.66 -1956.99 1426.08 -1913.91 1375.57C-1872.43 1326.96 -1832.17 1261.41 -1800.51 1190.95C-1760.6 1102.13 -1726.85 1004.65 -1694.2 910.355C-1657.8 805.214 -1620.18 696.495 -1573.96 599.875C-1524.53 496.269 -1463.82 410.043 -1398.69 350.484C-1367.76 322.231 -1336.56 300.654 -1305.91 286.347C-1275.26 272.04 -1246.07 265.391 -1218.72 266.374C-1188.5 267.456 -1161.64 277.894 -1138.54 297.386C-1114.4 317.768 -1094.88 347.798 -1080.57 386.518C-1070.08 414.94 -1061.78 447.995 -1053.73 479.946C-1041.19 529.9 -1028.19 581.583 -1006.55 616.366C-989.084 644.404 -965.359 660.871 -937.893 664.016C-903.204 667.977 -864.514 651.245 -826.007 615.646C-792.007 584.224 -758.443 539.022 -726.011 495.309C-710.909 474.736 -695.117 453.468 -679.433 433.928C-621.761 361.911 -561.855 306.962 -500.917 270.55C-444.699 236.945 -387.164 218.722 -329.929 216.463C-325.859 216.296 -321.689 216.203 -317.703 216.203C-219.688 216.203 -123.181 262.725 -37.8746 351.279C29.7953 421.542 91.2045 511.128 150.39 597.762C234.511 720.716 321.462 847.823 427.774 921.11C484.047 959.878 547.023 984.099 614.913 993.125C680.305 1001.77 751.107 996.414 825.369 977.234C897.269 958.678 973.152 926.967 1050.9 883.014C1126.78 840.117 1204.97 785.241 1283.33 719.9C1304.92 701.92 1326.97 682.812 1348.31 664.352C1434.27 589.936 1523.17 512.856 1605.4 487.267C1652.49 472.336 1697.7 474.736 1739.72 493.941C1849.58 543.943 1917.63 697.983 1955.45 818.441C1992.86 937.601 2019.96 1075.46 2046.08 1208.81C2068.06 1320.36 2090.66 1435.73 2119.27 1539.7C2153.96 1665.63 2196.39 1763.68 2245.42 1831.12C2303.09 1910.47 2369.99 1947.23 2444.25 1940.32V1939.6C2370.35 1946.49 2303.69 1909.85 2246.18 1830.73C2197.22 1763.38 2154.82 1665.39 2120.18 1539.53C2091.57 1435.59 2068.9 1320.24 2046.96 1208.69C2020.76 1075.34 1993.68 937.434 1956.33 818.248C1918.48 697.671 1850.24 543.415 1740.19 493.292C1697.98 474.088 1652.53 471.688 1605.17 486.523C1522.78 512.184 1433.8 589.265 1347.76 663.776C1326.45 682.26 1304.39 701.368 1282.83 719.348C1204.51 784.641 1126.29 839.373 1050.52 882.366C972.822 926.295 897.022 957.958 825.314 976.49C751.161 995.694 680.469 1000.97 615.215 992.357C547.434 983.403 484.597 959.23 428.461 920.558C322.203 847.342 235.28 720.284 151.076 597.402C91.7814 510.744 30.4547 421.133 -37.2701 350.825C-122.791 262.03 -219.52 215.481 -317.787 215.481Z" fill="white"/>
<path opacity="0.4" d="M-332.837 198.869C-336.517 198.869 -340.167 198.869 -343.823 199.063C-401.25 201.128 -459.175 219.444 -515.638 253.504C-577.02 290.377 -637.438 346.141 -695.416 419.237C-711.177 439.089 -727.083 460.646 -742.461 481.482C-775.092 525.699 -808.817 571.405 -842.893 603.14C-881.346 638.979 -919.792 655.782 -954.128 651.774C-981.312 648.605 -1004.72 632.017 -1021.85 603.764C-1043.19 568.597 -1055.82 516.289 -1068.07 465.711C-1075.9 433.328 -1084 399.841 -1094.33 370.986C-1108.39 331.667 -1127.73 301.203 -1151.76 280.441C-1174.8 260.541 -1201.79 249.835 -1231.95 248.633C-1259.41 247.53 -1288.85 254.273 -1319.61 268.726C-1350.37 283.174 -1381.74 305.045 -1412.86 333.705C-1478.35 394.008 -1539.46 481.386 -1589.61 586.432C-1636.3 684.276 -1674.53 794.364 -1711.5 900.898C-1744.62 996.366 -1778.89 1095.1 -1819.24 1184.95C-1851.26 1256.27 -1891.83 1322.59 -1933.48 1371.73C-1976.22 1422.14 -2016.53 1449.8 -2047.21 1449.8H-2048.2C-2070.42 1449.36 -2087.34 1434.67 -2098.52 1406.11L-2099.29 1406.35C-2088 1435.15 -2070.81 1450.08 -2048.23 1450.52H-2047.21C-2016.29 1450.52 -1975.81 1422.74 -1932.83 1372.16C-1891.14 1322.98 -1850.44 1256.58 -1818.47 1185.21C-1778.1 1095.31 -1743.82 996.606 -1710.7 901.114C-1673.73 794.652 -1635.53 684.588 -1588.84 586.648C-1538.75 481.698 -1477.67 394.392 -1412.25 334.14C-1381.19 305.546 -1349.9 283.728 -1319.2 269.328C-1288.5 254.921 -1259.25 248.178 -1232.01 249.281C-1202.04 250.504 -1175.24 261.142 -1152.36 280.895C-1128.41 301.563 -1109.16 331.928 -1095.12 371.153C-1084.83 399.961 -1076.73 433.568 -1068.9 465.807C-1056.65 516.434 -1044.02 568.788 -1022.6 604.052C-1005.34 632.474 -981.702 649.181 -954.266 652.398C-919.662 656.431 -880.964 639.555 -842.32 603.548C-808.151 571.837 -774.403 526.108 -741.803 481.938C-726.425 461.102 -710.519 439.57 -694.781 419.741C-636.781 346.696 -576.385 291.005 -515.255 254.105C-458.785 220.112 -401.113 201.85 -343.854 199.785C-242.236 196.11 -141.881 243.474 -53.9958 336.612C13.1797 407.979 73.8745 498.742 132.483 586.624C215.726 711.234 301.797 840.117 407.533 914.461C463.477 953.805 526.177 978.41 593.903 987.58C659.102 996.414 729.822 991.085 804.084 971.761C875.957 953.037 951.867 921.014 1029.73 876.58C1105.72 833.228 1184.1 777.728 1262.73 711.666C1284.34 693.471 1306.48 674.147 1327.9 655.447C1414.14 580.143 1503.34 502.246 1585.57 476.417C1632.39 461.702 1677.21 463.911 1718.76 482.971C1828.62 533.381 1895.88 689.869 1932.99 812.319C1969.62 933.088 1995.85 1072.77 2021.22 1207.85C2042.51 1320.87 2064.46 1437.75 2092.47 1542.96C2126.33 1670.57 2168.1 1769.93 2216.63 1838.22C2273.75 1918.69 2340.22 1955.97 2414.38 1949.05V1948.36C2340.52 1955.22 2274.31 1918.07 2217.32 1837.93C2168.85 1769.64 2127.1 1670.35 2093.26 1542.82C2065.31 1437.51 2043.37 1320.65 2022.16 1207.63C1996.79 1072.53 1970.56 932.848 1933.89 812.055C1896.71 689.462 1829.26 532.709 1719.21 482.25C1677.44 463.046 1632.39 460.862 1585.35 475.625C1502.96 501.526 1413.67 579.471 1327.35 654.847C1305.96 673.547 1283.82 692.871 1262.21 711.042C1183.63 777.104 1105.28 832.555 1029.34 875.884C951.537 920.294 875.545 952.269 803.892 970.968C729.739 990.172 659.157 995.598 594.096 986.764C526.507 977.618 463.916 953.157 408.11 913.812C302.429 839.613 216.412 710.826 133.196 586.264C74.5337 498.405 13.8662 407.571 -53.3071 336.278C-138.2 246.207 -234.624 198.869 -332.837 198.869Z" fill="white"/>
<path opacity="0.4" d="M-347.886 182.31C-351.168 182.31 -354.435 182.357 -357.694 182.45C-415.152 184.321 -473.046 202.738 -529.922 237.158C-591.381 274.412 -652.22 330.898 -710.741 405.121C-726.585 425.214 -742.599 447.01 -758.061 468.111C-790.883 512.832 -824.799 559.09 -859.021 591.185C-897.466 627.433 -936.111 644.404 -970.333 640.323C-997.439 637.082 -1020.7 620.231 -1037.64 591.641C-1058.74 556.017 -1071.07 503.014 -1082.96 451.787C-1090.6 418.973 -1098.48 385.054 -1108.61 355.77C-1122.35 315.99 -1141.56 285.144 -1165.32 264.095C-1188.17 243.901 -1214.97 233.029 -1244.97 231.712C-1272.43 230.483 -1301.82 237.279 -1332.61 251.853C-1363.39 266.42 -1394.89 288.532 -1426.12 317.507C-1492.03 378.503 -1553.5 466.982 -1604.19 573.373C-1651.38 672.394 -1690.16 783.849 -1727.79 891.631C-1761.43 988.276 -1796.2 1088.21 -1837.01 1179.16C-1869.42 1251.39 -1910.31 1318.54 -1952.36 1368.28C-1995.26 1419.17 -2035.6 1447.11 -2066.2 1447.11H-2067.37C-2089.35 1446.6 -2106.23 1431.7 -2117.2 1402.82L-2117.99 1403.03C-2107.01 1432.22 -2089.87 1447.3 -2067.37 1447.83H-2066.22C-2035.36 1447.83 -1994.81 1419.79 -1951.69 1368.61C-1909.76 1318.82 -1868.81 1251.61 -1836.35 1179.33C-1795.4 1088.4 -1760.71 988.444 -1726.96 891.8C-1689.47 784.041 -1650.7 672.61 -1603.51 573.613C-1552.84 467.319 -1491.32 378.911 -1425.62 317.961C-1394.42 289.154 -1363.03 266.995 -1332.25 252.448C-1301.46 237.9 -1272.27 231.185 -1245.03 232.407C-1215.2 233.704 -1188.56 244.529 -1165.87 264.569C-1142.12 285.532 -1123.11 316.277 -1109.36 355.957C-1099.22 385.15 -1091.34 419.069 -1083.73 451.98C-1071.81 503.254 -1059.48 556.305 -1038.3 592.025C-1021.25 620.831 -997.768 637.802 -970.386 641.067C-935.866 645.196 -897.137 628.152 -858.363 591.737C-824.194 559.45 -790.194 513.145 -757.373 468.423C-741.91 447.346 -725.905 425.526 -710.052 405.458C-651.615 331.399 -590.753 274.967 -529.455 237.76C-472.655 203.48 -414.983 185.043 -357.664 183.172C-256.382 179.904 -156.906 227.964 -69.9551 322.258C-3.35474 394.487 56.6536 486.547 114.685 575.558C197.076 701.872 282.215 832.411 387.292 907.907C442.905 947.804 505.386 972.721 572.919 982.178C637.954 991.18 708.563 985.875 782.798 966.383C854.644 947.515 930.636 915.18 1008.61 870.363C1084.71 826.53 1163.28 770.43 1242.05 703.624C1263.75 685.212 1285.99 665.672 1307.41 646.781C1393.95 570.588 1483.43 491.804 1565.57 465.734C1612.07 451.02 1656.51 453.179 1697.65 472.168C1807.5 522.842 1873.94 681.876 1910.44 806.366C1946.5 928.623 1971.88 1070.06 1996.34 1206.89C2016.86 1321.37 2038.09 1439.74 2065.36 1546.46C2098.31 1675.73 2139.51 1776.43 2187.58 1845.71C2244.12 1927.33 2310.31 1965.14 2384.44 1958.2V1957.48C2310.75 1964.37 2244.73 1926.63 2188.37 1845.35C2140.36 1776.12 2099.28 1675.52 2066.26 1546.3C2038.94 1439.74 2017.74 1321.32 1997.22 1206.89C1972.67 1070.06 1947.32 928.431 1911.43 806.149C1874.9 681.539 1808.24 522.314 1698.22 471.496C1656.86 452.291 1612.2 450.227 1565.49 465.039C1483.1 491.156 1393.51 570.012 1306.92 646.252C1285.44 665.144 1263.25 684.66 1241.55 703.072C1162.73 769.854 1084.21 825.93 1008.11 869.739C930.197 914.604 854.314 946.891 782.524 965.759C708.371 985.203 637.927 990.508 573.029 981.507C505.605 972.144 443.29 947.227 387.813 907.403C282.819 832.051 197.708 701.488 115.371 575.246C57.3406 486.211 -2.72266 394.128 -69.3506 321.85C-153.609 230.389 -249.734 182.31 -347.886 182.31Z" fill="white"/>
<path opacity="0.4" d="M-362.805 165.744C-365.551 165.744 -368.543 165.744 -371.427 165.865C-428.938 167.542 -486.993 186.025 -544.037 220.813C-605.748 258.475 -666.94 315.682 -725.927 390.863C-741.856 411.171 -757.954 433.232 -773.5 454.572C-806.452 499.821 -840.674 546.607 -875.11 579.086C-913.839 615.718 -952.315 632.881 -986.476 628.705C-1013.53 625.392 -1036.66 608.324 -1053.4 579.351C-1074.28 543.343 -1086.36 489.571 -1097.85 437.72C-1105.26 404.498 -1112.95 370.143 -1122.89 340.527C-1136.43 300.293 -1155.24 269.06 -1178.89 247.723C-1201.52 227.268 -1228.33 216.176 -1258.12 214.759C-1285.59 213.463 -1314.95 220.259 -1345.76 234.953C-1376.57 249.641 -1408.19 271.966 -1439.55 301.275C-1505.63 362.966 -1567.64 452.508 -1618.91 560.267C-1666.59 660.487 -1705.95 773.31 -1744.01 882.39C-1778.15 980.21 -1813.44 1081.37 -1854.7 1173.43C-1887.46 1246.57 -1928.85 1314.55 -1970.87 1364.87C-2013.93 1416.26 -2054.33 1444.47 -2084.84 1444.47H-2086.16C-2108.13 1443.87 -2124.77 1428.77 -2135.6 1399.55L-2136.36 1399.77C-2125.37 1429.3 -2108.63 1444.59 -2086.24 1445.19H-2084.89C-2054.11 1445.19 -2013.49 1416.89 -1970.26 1365.27C-1928.08 1314.86 -1886.77 1246.88 -1853.98 1173.69C-1812.79 1081.61 -1777.41 980.45 -1743.27 882.605C-1705.24 773.527 -1665.88 660.751 -1618.2 560.555C-1566.98 452.892 -1505.02 363.401 -1439.03 301.783C-1407.69 272.521 -1376.22 250.262 -1345.43 235.575C-1314.64 220.88 -1285.37 214.185 -1258.23 215.481C-1228.49 216.878 -1202.01 227.89 -1179.52 248.224C-1155.99 269.467 -1137.23 300.607 -1123.75 340.741C-1113.8 370.317 -1106.14 404.666 -1098.72 437.865C-1087.11 489.812 -1075.1 543.486 -1054.21 579.734C-1037.31 608.949 -1013.97 626.136 -986.644 629.497C-952.231 633.698 -913.479 616.462 -874.567 579.663C-840.177 547.136 -805.901 500.302 -772.949 455.028C-757.372 433.688 -741.305 411.651 -725.376 391.343C-666.473 316.23 -605.336 259.076 -543.678 221.482C-486.802 186.774 -428.877 168.337 -371.535 166.653C-270.712 163.679 -171.956 212.527 -85.9147 307.851C-19.8331 381.069 39.5165 474.352 96.9435 564.539C178.236 692.462 262.606 824.826 367.078 901.33C422.363 941.802 484.541 967.176 551.937 976.753C616.779 985.971 687.306 980.69 761.514 961.03C833.359 942.018 909.379 909.347 987.486 863.978C1063.7 819.689 1142.44 762.989 1221.53 695.414C1243.31 676.811 1265.48 657.007 1287.12 637.946C1373.93 560.891 1463.71 481.242 1545.96 454.932C1592.13 440.169 1636.21 442.282 1676.91 461.222C1786.77 512.209 1852.41 673.738 1888.25 800.244C1923.35 924.182 1947.81 1067.47 1971.52 1206.07C1991.35 1322.02 2011.84 1441.92 2038.45 1549.99C2070.69 1680.94 2111.14 1782.84 2158.71 1853.15C2214.68 1935.8 2280.57 1974.21 2354.55 1967.29V1966.58C2280.92 1973.44 2215.29 1935.18 2159.56 1852.79C2112.05 1782.63 2071.67 1680.7 2039.38 1549.85C2012.79 1441.83 1992.28 1321.8 1972.48 1205.95C1948.78 1067.35 1924.28 924.039 1889.18 800.077C1853.28 673.426 1787.56 511.704 1677.44 460.573C1636.51 441.537 1592.3 439.425 1545.8 454.26C1463.41 480.666 1373.55 560.339 1286.68 637.443C1265.12 656.646 1242.74 676.306 1221.09 694.911C1142.05 762.436 1063.34 819.113 987.157 863.378C909.132 908.723 833.167 941.346 761.404 960.334C687.251 979.946 616.944 985.251 552.211 976.033C484.952 966.431 422.912 941.178 367.764 900.777C263.402 824.37 179.17 692.078 97.7399 564.132C40.3131 473.896 -19.0643 380.588 -85.1725 307.276C-169.018 214.545 -264.836 165.744 -362.805 165.744Z" fill="white"/>
<path opacity="0.4" d="M-377.962 149.179C-380.464 149.179 -382.966 149.179 -385.49 149.179C-443.001 150.669 -501.171 169.226 -558.513 204.395C-620.469 242.438 -682.097 300.414 -741.452 376.605C-757.381 397.224 -773.585 419.525 -789.239 441.129C-822.466 486.907 -856.795 534.245 -891.262 567.084C-930.128 604.123 -968.627 621.455 -1002.69 617.182C-1029.68 613.822 -1052.67 596.514 -1069.23 567.131C-1089.85 530.547 -1101.5 476.201 -1112.79 423.63C-1120.01 390.023 -1127.45 355.189 -1137.23 325.212C-1150.47 284.403 -1169.09 252.882 -1192.49 231.231C-1214.95 210.516 -1241.45 199.23 -1271.29 197.619C-1298.58 196.229 -1328.05 203.045 -1358.92 217.86C-1389.79 232.668 -1421.46 255.234 -1452.98 284.884C-1519.31 347.297 -1581.79 437.912 -1633.58 546.991C-1681.76 648.412 -1721.69 762.58 -1760.33 872.98C-1794.96 971.976 -1830.75 1074.33 -1872.46 1167.5C-1905.61 1241.55 -1947.23 1310.35 -1989.6 1361.24C-2032.8 1413.16 -2073.26 1441.63 -2103.69 1441.63H-2105.17C-2127.14 1440.96 -2143.62 1425.65 -2154.08 1396.02L-2154.88 1396.24C-2144.2 1426.1 -2127.41 1441.59 -2105.19 1442.28C-2074.33 1443.22 -2033.02 1414.58 -1988.92 1361.63C-1946.51 1310.69 -1904.87 1241.82 -1871.7 1167.69C-1829.98 1074.53 -1794.16 972.144 -1759.54 873.147C-1720.92 762.724 -1680.99 648.604 -1632.85 547.231C-1581.04 438.201 -1518.65 347.651 -1452.38 285.312C-1420.9 255.736 -1389.21 233.243 -1358.53 218.461C-1327.86 203.673 -1298.47 196.858 -1271.34 198.294C-1241.7 199.784 -1215.4 210.991 -1193.09 231.592C-1169.77 253.196 -1151.24 284.663 -1138.16 325.212C-1128.41 355.169 -1120.95 390.023 -1113.72 423.63C-1102.43 476.249 -1090.79 530.644 -1070.11 567.324C-1053.44 596.898 -1030.2 614.349 -1002.96 617.734C-968.627 622.055 -929.823 604.627 -890.796 567.324C-856.138 534.749 -821.777 487.315 -788.496 441.49C-772.843 419.885 -756.639 397.608 -740.625 377.087C-681.278 300.941 -619.781 243.066 -557.909 205.063C-500.78 169.995 -442.749 151.458 -385.406 149.994C-382.912 149.994 -380.41 149.994 -377.908 149.994C-280.139 149.994 -184.863 199.443 -101.928 293.377C-36.3994 367.604 22.3489 462.11 79.1438 553.497C159.723 683.124 243.076 817.288 346.917 894.848C401.844 935.896 463.775 961.654 530.925 971.448C595.602 980.834 666.019 975.577 740.199 955.773C812.017 936.569 888.092 903.61 966.309 857.785C1042.66 813.039 1121.59 755.691 1200.91 687.349C1222.88 668.529 1245.09 648.557 1266.82 629.233C1353.93 551.336 1443.99 470.8 1526.22 444.25C1572.11 429.463 1615.8 431.527 1656.09 450.371C1765.81 501.67 1830.73 665.696 1865.91 794.267C1900.22 919.765 1923.87 1064.88 1946.71 1205.18C1965.94 1322.62 1985.6 1444.03 2011.55 1553.5C2043.01 1686.1 2082.8 1789.42 2129.87 1860.57C2185.24 1944.32 2250.71 1983.28 2324.7 1976.37V1975.65C2251.18 1982.52 2185.87 1943.7 2130.67 1860.21C2083.65 1789.13 2043.88 1685.89 2012.43 1553.35C1986.51 1443.91 1966.73 1322.5 1947.62 1205.09C1924.75 1064.76 1901.12 919.621 1866.79 794.099C1831.56 665.336 1766.38 501.142 1656.4 449.675C1615.88 430.735 1571.97 428.671 1525.86 443.53C1443.47 470.127 1353.3 550.712 1266.16 628.68C1244.55 647.885 1222.22 667.976 1200.25 686.772C1120.96 755.067 1042.05 812.367 965.76 857.088C887.625 902.89 811.633 935.825 739.897 954.98C665.745 974.761 595.52 980.018 530.979 970.632C463.913 960.886 402.119 935.177 347.273 894.224C243.543 816.712 160.245 682.692 79.6931 553.064C22.8982 461.63 -35.8479 367.097 -101.431 292.849C-184.29 198.682 -279.917 149.179 -377.962 149.179Z" fill="white"/>
<path opacity="0.4" d="M-393.012 132.614H-399.439C-457.118 133.91 -515.257 152.567 -572.737 188.07C-634.946 226.474 -696.849 285.171 -756.747 362.419C-772.836 383.205 -789.156 405.77 -804.893 427.591C-838.312 473.896 -872.863 521.762 -907.437 554.961C-946.41 592.409 -985.001 609.884 -1018.92 605.564C-1045.86 602.107 -1068.74 584.583 -1085.07 554.817C-1105.46 517.753 -1116.79 462.71 -1127.73 409.491C-1134.76 375.43 -1142.01 340.187 -1151.6 309.822C-1164.56 268.626 -1182.93 236.631 -1206.14 214.713C-1228.38 193.71 -1254.75 182.237 -1284.49 180.626C-1311.68 179.136 -1341.18 185.979 -1372.1 200.934C-1403.03 215.889 -1434.78 238.669 -1466.41 268.626C-1532.98 331.787 -1595.93 423.486 -1648.11 533.932C-1696.78 636.53 -1737.29 752.042 -1776.45 863.762C-1811.61 963.934 -1847.86 1067.52 -1890.07 1161.76C-1923.6 1236.73 -1965.54 1306.37 -2008.17 1357.86C-2051.55 1410.28 -2092.04 1439.02 -2122.39 1439.02H-2124.01C-2145.84 1438.25 -2162.15 1422.74 -2172.51 1392.86L-2173.28 1393.07C-2162.81 1423.27 -2146.26 1438.97 -2124.06 1439.71H-2122.42C-2091.77 1439.71 -2051.01 1410.91 -2007.51 1358.24C-1964.85 1306.73 -1922.89 1237.04 -1889.41 1162C-1847.25 1067.73 -1810.92 964.127 -1775.8 863.954C-1736.63 752.258 -1696.15 636.746 -1647.48 534.197C-1595.14 423.773 -1532.3 332.168 -1465.72 269.16C-1434.14 239.244 -1402.56 216.537 -1371.63 201.609C-1340.71 186.674 -1311.49 180.005 -1284.44 181.395C-1254.94 182.979 -1228.77 194.378 -1206.66 215.268C-1183.53 237.085 -1165.25 268.987 -1152.31 310.063C-1142.72 340.408 -1135.47 375.617 -1128.47 409.683C-1117.48 462.95 -1106.17 518.017 -1085.74 555.177C-1069.26 585.159 -1046.16 602.851 -1018.97 606.331C-984.726 610.7 -945.92 593.129 -906.756 555.513C-872.121 522.267 -837.547 474.352 -804.12 428.022C-788.498 406.226 -772.018 383.661 -756.005 362.893C-696.191 285.719 -634.365 227.122 -572.217 188.719C-514.897 153.309 -456.866 134.679 -399.416 133.502H-392.989C-295.273 133.502 -200.326 183.7 -117.966 278.977C-52.9873 354.18 5.10254 449.915 61.2654 542.503C140.911 673.858 223.303 809.702 326.621 888.367C381.247 929.967 442.931 956.133 509.943 966.095C574.483 975.697 644.79 970.44 718.97 950.468C790.761 931.143 866.891 897.873 945.217 851.543C1021.65 806.342 1100.77 748.322 1180.34 679.331C1202.31 660.319 1224.66 640.131 1246.25 620.591C1333.64 541.83 1424 460.405 1506.22 433.639C1551.78 418.829 1595.12 420.821 1635 439.593C1695.42 468.087 1780.83 551.721 1843.31 788.338C1876.84 915.421 1899.61 1062.36 1921.64 1204.44C1940.07 1323.31 1959.1 1446.24 1984.39 1557.07C2015.02 1691.36 2054.18 1796 2100.73 1868.06C2155.66 1952.89 2220.8 1992.41 2294.57 1985.49V1984.8C2221.11 1991.66 2156.18 1952.27 2101.56 1867.72C2054.87 1795.71 2015.9 1691.14 1985.27 1556.95C1960.01 1446.12 1940.95 1323.22 1922.54 1204.32C1900.58 1062.24 1877.76 915.3 1844.19 788.194C1809.59 657.175 1745.46 490.531 1635.52 438.729C1595.39 419.861 1551.84 417.82 1506.06 432.727C1423.67 459.541 1333.23 541.038 1245.78 619.967C1224.09 639.507 1201.68 659.695 1179.87 678.707C1100.22 747.746 1021.27 805.645 944.861 850.823C866.589 897.104 790.541 930.352 718.833 949.652C644.681 969.6 574.593 974.833 510.108 965.255C443.233 955.317 381.687 929.248 327.198 887.695C224.099 809.126 141.708 673.354 62.0342 542.023C5.84375 449.411 -52.2681 353.652 -117.277 278.402C-199.806 182.905 -294.998 132.614 -393.012 132.614Z" fill="white"/>
<path opacity="0.4" d="M-407.984 116.055C-409.798 116.055 -411.588 116.055 -413.478 116.055C-471.02 117.157 -529.403 135.908 -587.075 171.745C-649.452 210.683 -711.599 270.022 -772.017 348.299C-788.199 369.308 -804.595 392.135 -820.44 414.22C-854.057 461.029 -888.823 509.447 -923.511 543.007C-962.622 580.863 -1001.18 598.506 -1035.04 594.089C-1061.9 590.584 -1084.67 572.797 -1100.82 542.647C-1120.95 505.127 -1131.96 449.412 -1142.59 395.52C-1149.4 361.022 -1156.33 325.352 -1165.83 294.7C-1178.54 253.049 -1196.67 220.667 -1219.68 198.461C-1241.65 177.171 -1267.97 165.504 -1297.6 163.8C-1324.79 162.236 -1354.23 169.079 -1385.21 184.154C-1416.18 199.23 -1447.99 222.25 -1479.76 252.548C-1546.67 316.304 -1609.99 409.107 -1662.92 520.898C-1712.08 624.672 -1753.16 741.552 -1792.88 854.568C-1828.59 955.917 -1865.36 1060.7 -1907.96 1156.05C-1941.87 1231.93 -1984.14 1302.48 -2026.98 1354.45C-2071.39 1408.44 -2112.67 1437.55 -2143.1 1436.35C-2164.82 1435.54 -2180.97 1419.81 -2191.14 1389.62L-2191.93 1389.81C-2181.66 1420.34 -2165.24 1436.23 -2143.13 1437.07H-2141.34C-2110.77 1437.07 -2069.94 1407.96 -2026.3 1354.83C-1983.42 1302.72 -1941.16 1232.19 -1907.18 1156.26C-1864.56 1060.89 -1827.73 956.085 -1792.08 854.736C-1752.37 741.72 -1711.28 624.864 -1662.18 521.066C-1609.28 409.371 -1546 316.638 -1479.16 252.929C-1447.44 222.705 -1415.69 199.738 -1384.79 184.682C-1353.9 169.634 -1324.67 162.885 -1297.65 164.421C-1268.23 166.105 -1242.23 177.699 -1220.32 198.849C-1197.38 220.981 -1179.31 253.243 -1166.62 294.867C-1157.26 325.573 -1150.14 361.243 -1143.41 395.688C-1132.76 449.627 -1121.74 505.391 -1101.58 543.007C-1085.27 573.397 -1062.31 591.305 -1035.18 594.858C-1001.04 599.298 -962.209 581.583 -922.907 543.559C-888.165 509.952 -853.369 461.486 -819.751 414.652C-803.906 392.567 -787.51 369.763 -771.337 348.76C-710.911 270.55 -648.87 211.231 -586.531 172.44C-528.852 136.676 -470.744 117.973 -413.371 116.87C-411.588 116.87 -409.797 116.87 -407.877 116.87C-310.245 116.87 -215.628 167.783 -133.871 264.429C-69.4132 340.621 -11.9847 437.577 43.5746 531.34C122.396 664.4 203.936 801.997 306.514 881.814C360.782 923.991 422.219 950.54 489.066 960.718C553.441 970.488 623.639 965.255 697.791 945.139C769.554 925.647 845.74 892.064 924.176 845.254C1000.75 799.645 1080.03 741.048 1159.87 671.241C1181.84 652.038 1204.34 631.585 1226.09 611.853C1313.75 532.228 1404.41 449.915 1486.64 422.933C1531.89 408.075 1574.85 410.019 1614.35 428.719C1674.76 457.381 1759.9 541.974 1821.12 782.337C1853.88 911.004 1875.8 1059.74 1896.97 1203.58C1914.69 1323.91 1933.03 1448.43 1957.65 1560.58C1987.47 1696.52 2025.94 1802.45 2072.03 1875.45C2126.27 1961.39 2191.17 2001.45 2264.86 1994.54V1993.82C2191.47 2000.71 2126.9 1960.77 2072.83 1875.12C2026.55 1801.97 1988.1 1696.11 1958.33 1560.24C1933.61 1448.07 1915.4 1323.63 1897.69 1203.29C1876.52 1059.43 1854.6 910.691 1821.8 782C1787.97 649.181 1724.45 479.922 1614.59 427.902C1574.88 409.107 1531.68 407.138 1486.2 422.069C1403.81 449.123 1313.17 531.485 1225.29 611.157C1203.54 630.889 1181.05 651.317 1159.08 670.545C1079.43 740.304 1000.06 798.829 923.517 844.486C845.135 891.224 769.06 924.807 697.352 944.251C623.337 964.343 553.249 969.576 489.011 959.806C422.329 949.652 361.03 923.174 306.871 881.093C204.403 801.445 122.863 663.92 44.1239 530.932C-11.2711 437.121 -68.9467 340.14 -133.32 263.901C-215.215 167.088 -310.077 116.055 -407.984 116.055Z" fill="white"/>
<path opacity="0.4" d="M-422.98 99.4883H-427.402C-485.074 100.404 -543.434 119.248 -601.305 155.446C-663.973 194.672 -726.564 254.779 -787.311 334.092C-803.6 355.335 -820.079 378.402 -836.031 400.728C-869.84 448.09 -904.697 497.036 -939.631 530.955C-978.872 569.195 -1017.46 587.031 -1051.21 582.542C-1078.02 578.965 -1100.65 560.938 -1116.63 530.403C-1136.52 492.379 -1147.17 435.991 -1157.5 381.449C-1164.09 346.528 -1170.93 310.423 -1180.13 279.31C-1192.6 237.084 -1210.48 204.414 -1233.41 181.875C-1255.38 160.271 -1281.33 148.457 -1310.86 146.659C-1338.02 145.002 -1367.46 151.865 -1398.47 167.087C-1429.47 182.309 -1461.39 205.497 -1493.27 236.149C-1560.45 300.626 -1624.22 394.583 -1677.69 507.598C-1727.32 612.596 -1768.98 730.845 -1809.28 845.157C-1845.39 947.683 -1882.74 1053.69 -1925.8 1150.02C-1960.1 1226.84 -2002.7 1298.08 -2045.76 1350.73C-2089.49 1404.19 -2130.05 1433.47 -2160.26 1433.47H-2162.15C-2183.8 1432.58 -2199.81 1416.67 -2209.78 1386.11L-2210.58 1386.3C-2200.49 1417.17 -2184.23 1433.28 -2162.21 1434.19C-2131.45 1435.44 -2089.92 1405.99 -2045.1 1351.21C-2001.98 1298.52 -1959.36 1227.17 -1925.03 1150.33C-1881.97 1053.86 -1844.61 947.826 -1808.47 845.301C-1768.18 730.965 -1726.55 612.764 -1676.92 507.814C-1623.48 394.775 -1559.76 300.987 -1492.67 236.556C-1460.83 205.998 -1429.01 182.784 -1398.05 167.615C-1367.1 152.446 -1337.88 145.63 -1310.91 147.28C-1281.64 149.058 -1255.74 160.819 -1234.01 182.256C-1211.27 204.682 -1193.45 237.352 -1181.04 279.357C-1171.86 310.563 -1165.02 346.574 -1158.44 381.449C-1148.08 436.039 -1137.4 492.475 -1117.48 530.571C-1101.39 561.346 -1078.54 579.517 -1051.57 583.118C-1017.46 587.679 -978.658 569.747 -939.241 531.339C-904.368 497.348 -869.374 448.378 -835.542 400.992C-819.613 378.669 -803.133 355.595 -786.844 334.352C-726.151 255.14 -663.613 195.126 -601.029 155.927C-543.35 119.916 -484.967 100.999 -427.593 100.09H-423.194C-325.646 100.09 -231.335 151.751 -150.182 249.734C-86.2982 326.915 -29.4757 424.973 25.4518 520.057C103.394 654.797 184.001 794.122 285.975 874.923C339.914 917.676 401.075 944.538 467.758 954.98C531.94 964.966 602.056 959.781 676.181 939.449C747.944 919.837 824.156 885.917 902.731 838.628C979.409 792.49 1058.89 733.342 1138.92 662.767C1160.89 643.347 1183.52 622.702 1205.35 602.754C1293.24 522.314 1384.25 439.112 1466.48 411.89C1511.44 397.007 1554.03 398.904 1593.15 417.507C1653.56 446.314 1738.37 531.891 1798.36 775.974C1830.35 906.225 1851.39 1056.83 1871.73 1202.35C1888.77 1324.18 1906.37 1450.13 1930.32 1563.72C1959.57 1701.39 1997.41 1808.7 2043.03 1882.63C2096.69 1969.65 2161.13 2010.27 2234.83 2003.38V2002.66C2161.59 2009.52 2097.33 1969.05 2043.82 1882.29C1998.29 1808.43 1960.48 1701.25 1931.47 1563.7C1907.55 1450.16 1889.94 1324.2 1872.92 1202.4C1852.57 1056.79 1831.53 906.225 1799.51 775.95C1766.39 641.066 1703.8 469.31 1593.89 417.003C1554.56 398.279 1511.71 396.383 1466.56 411.338C1384.17 438.608 1293.13 521.761 1205.11 602.394C1183.3 622.342 1160.73 642.986 1138.7 662.407C1058.67 732.933 979.245 792.034 902.511 838.171C824.019 885.389 747.862 919.285 676.181 938.992C602.193 959.229 532.215 964.438 468.142 954.476C401.624 944.154 340.6 917.268 286.88 874.611C185.017 793.906 104.465 654.629 26.5504 519.937C-28.3771 424.973 -85.2272 326.741 -149.219 249.52C-230.592 151.243 -325.149 99.4883 -422.98 99.4883Z" fill="white"/>
<path opacity="0.4" d="M-437.969 82.9244H-441.435C-498.938 83.6461 -557.551 102.564 -615.605 139.123C-678.503 178.756 -741.423 239.558 -802.637 319.88C-819.117 341.484 -835.597 364.718 -851.633 387.285C-885.633 435.151 -920.812 484.649 -955.745 518.952C-995.101 557.577 -1033.69 575.556 -1067.39 570.996C-1094.14 567.37 -1116.63 549.103 -1132.42 518.185C-1152.06 479.776 -1162.39 422.62 -1172.41 367.431C-1178.81 332.095 -1185.43 295.536 -1194.38 264.042C-1206.58 221.436 -1224.2 188.285 -1246.84 165.478C-1268.53 143.633 -1294.46 131.585 -1323.9 129.714C-1350.95 127.957 -1380.43 134.873 -1411.46 150.209C-1442.49 165.551 -1474.62 189.026 -1506.53 219.972C-1573.96 285.098 -1638.23 380.061 -1692.25 494.516C-1742.37 600.69 -1784.58 720.163 -1825.42 835.915C-1862.06 939.616 -1899.93 1046.85 -1943.52 1144.4C-1978.18 1222.08 -2021.13 1294.19 -2064.35 1347.41C-2108.3 1401.4 -2148.87 1430.95 -2179.02 1430.95H-2181.02C-2202.58 1429.99 -2218.46 1413.84 -2228.2 1382.94L-2229 1383.13C-2219.14 1414.34 -2203.02 1430.66 -2181.08 1431.65C-2150.43 1433.04 -2108.77 1403.25 -2063.7 1347.87C-2020.36 1294.58 -1977.38 1222.42 -1942.69 1144.69C-1899.16 1047.11 -1861.29 939.881 -1824.59 836.155C-1783.75 720.523 -1741.52 600.906 -1691.42 494.828C-1637.43 380.442 -1573.33 285.573 -1505.93 220.473C-1473.96 189.601 -1442.05 166.173 -1411.08 150.857C-1380.09 135.548 -1350.82 128.725 -1323.96 130.456C-1294.76 132.327 -1269.03 144.281 -1247.47 165.986C-1224.92 188.692 -1207.34 221.75 -1195.29 264.236C-1186.28 295.703 -1179.66 332.242 -1173.32 367.458C-1163.32 422.669 -1152.97 479.849 -1133.27 518.4C-1117.38 549.607 -1094.66 567.995 -1067.61 571.668C-1033.64 576.277 -994.802 558.201 -955.225 519.361C-920.268 485.034 -885.059 435.511 -851.028 387.621C-835.015 365.059 -818.428 341.724 -802.063 320.241C-740.895 239.992 -678.059 179.237 -615.307 139.671C-557.383 103.185 -498.915 84.321 -441.573 83.5725H-438.137C-340.643 83.5725 -246.661 135.955 -166.243 235.288C-102.887 313.445 -46.722 412.922 7.60178 508.942C84.6655 645.363 164.365 786.441 265.762 868.322C319.399 911.531 380.287 938.945 446.804 949.507C510.822 959.685 580.828 954.476 654.953 934.047C726.661 914.268 802.928 880.036 881.639 832.29C958.538 785.696 1038.18 725.924 1118.38 654.653C1140.49 635.017 1163.12 614.157 1185.03 593.968C1273.44 512.807 1364.67 428.718 1447.07 401.28C1491.72 386.373 1533.97 388.221 1572.66 406.729C1633.08 435.679 1717.62 522.217 1776.33 770.069C1807.56 901.905 1827.74 1054.26 1847.24 1201.58C1863.72 1324.87 1880.45 1452.34 1903.74 1567.3C1931.94 1706.53 1969.1 1815.15 2014.22 1890C2067.31 1978.12 2131.49 2019.32 2205.04 2012.43V2011.71C2131.88 2018.57 2067.97 1977.52 2015.05 1889.69C1969.98 1814.89 1932.85 1706.38 1904.64 1567.2C1881.38 1452.27 1864.49 1324.75 1848.18 1201.54C1828.67 1054.19 1808.49 901.808 1777.26 769.949C1744.8 633 1683.06 458.724 1573.18 406.129C1534.26 387.501 1491.78 385.653 1446.85 400.632C1364.45 428.141 1273.14 512.279 1184.84 593.656C1162.87 613.82 1140.32 634.681 1118.21 654.317C1037.85 725.564 958.209 785.313 881.31 831.858C802.709 879.556 726.496 913.763 654.871 933.519C580.883 953.924 510.988 959.133 447.106 948.978C380.754 938.44 320.004 911.17 266.504 867.962C165.272 786.177 85.6272 645.147 8.5903 508.774C-45.7349 412.61 -101.922 313.157 -165.34 234.947C-246.002 135.427 -340.199 82.9244 -437.969 82.9244Z" fill="white"/>
</g>
</g>
<defs>
<linearGradient id="paint0_linear_1801_1892" x1="960" y1="839" x2="960" y2="0" gradientUnits="userSpaceOnUse">
<stop stop-color="#1647A7"/>
<stop offset="1" stop-color="#17458A"/>
</linearGradient>
</defs>
</svg>
