<svg width="15" height="14" viewBox="0 0 15 14" fill="none" xmlns="http://www.w3.org/2000/svg">
<path d="M13.8158 9.2179C12.8905 9.2179 11.9842 9.08306 11.1253 8.81852C10.706 8.68368 10.23 8.78757 9.95448 9.0499L8.25159 10.2502C6.29764 9.27686 5.04711 8.11043 4.01844 6.3L5.26974 4.74821C5.58474 4.45421 5.69765 4.02389 5.56265 3.62085C5.27685 2.814 5.1316 1.96737 5.1316 1.10526C5.1316 0.495884 4.60029 0 3.94738 0H1.18421C0.531304 0 0 0.495884 0 1.10526C0 8.21505 6.19816 14 13.8158 14C14.4687 14 15 13.5041 15 12.8947V10.3232C15 9.71379 14.4687 9.2179 13.8158 9.2179Z" fill="#3F6DE4"/>
</svg>
