<svg width="14" height="18" viewBox="0 0 14 18" fill="none" xmlns="http://www.w3.org/2000/svg">
<path d="M7.54688 0.228516C3.93956 0.228516 0.375 2.6332 0.375 6.52514C0.375 9.00014 1.76719 10.4064 2.61094 10.4064C2.95913 10.4064 3.15938 9.43608 3.15938 9.16214C3.15938 8.83533 2.32631 8.13895 2.32631 6.77827C2.32631 3.9517 4.47788 1.94752 7.26225 1.94752C9.65625 1.94752 11.4281 3.3082 11.4281 5.80795C11.4281 7.67489 10.6794 11.1765 8.25338 11.1765C7.37813 11.1765 6.62888 10.5436 6.62888 9.63689C6.62888 8.3077 7.557 7.02127 7.557 5.64989C7.557 3.32283 4.25569 3.7447 4.25569 6.5572C4.25569 7.14783 4.32938 7.80145 4.59319 8.33977C4.10775 10.4283 3.11663 13.5395 3.11663 15.6911C3.11663 16.3554 3.21169 17.0096 3.27469 17.6739C3.39394 17.8078 3.33431 17.7937 3.51713 17.7268C5.289 15.3007 5.226 14.8265 6.02756 11.6518C6.46013 12.4747 7.57781 12.9174 8.46375 12.9174C12.1971 12.9174 13.8744 9.27858 13.8744 5.99864C13.8744 2.50777 10.8578 0.229641 7.54631 0.229641L7.54688 0.228516Z" fill="#575B7A"/>
</svg>
