<svg width="46" height="44" viewBox="0 0 46 44" fill="none" xmlns="http://www.w3.org/2000/svg">
<path d="M44 44C44 19.6995 24.3005 0 0 0V44H44Z" fill="#015D61"/>
<mask id="mask0_1801_2097" style="mask-type:alpha" maskUnits="userSpaceOnUse" x="13" y="5" width="33" height="23">
<rect x="13" y="5" width="33" height="23" fill="#D9D9D9"/>
</mask>
<g mask="url(#mask0_1801_2097)">
<path d="M26.91 20.815C26.91 17.002 24.327 15.034 21.621 15.034C20.022 15.034 19.038 15.403 18.423 15.895C18.423 12.82 21.375 9.74499 25.188 9.00699V5.07099C18.669 6.17799 13.38 12.082 13.38 18.601C13.38 24.136 16.947 27.088 20.514 27.088C24.327 27.088 26.91 24.382 26.91 20.815ZM44.868 20.815C44.868 17.002 42.285 15.034 39.579 15.034C37.98 15.034 36.996 15.403 36.381 15.895C36.381 12.82 39.333 9.74499 43.146 9.00699V5.07099C36.627 6.17799 31.338 12.082 31.338 18.601C31.338 24.136 34.905 27.088 38.472 27.088C42.285 27.088 44.868 24.382 44.868 20.815Z" fill="#F6B642"/>
</g>
</svg>
