<svg width="444" height="532" viewBox="0 0 444 532" fill="none" xmlns="http://www.w3.org/2000/svg">
<path d="M359.058 197.862C335.114 188.435 275.941 183.031 251.676 181.441C243.414 195.001 226.831 229.277 235.255 235.475L238.964 222.649C279.279 222.49 310.534 225.995 355.88 235.311C360.712 223.439 361.819 210.379 359.058 197.862Z" fill="#F6B642"/>
<path d="M229.215 180.428C224.927 180.322 223.334 178.786 223.334 176.137H209.139V176.19C208.11 177.558 206.759 178.651 205.206 179.372C203.654 180.093 201.947 180.419 200.238 180.322L186.731 180.004C185.615 190.302 183.845 209.113 185.194 220.107L221.377 220.902C226.103 206.733 232.715 193.263 241.03 180.855C236.579 180.64 232.542 180.481 229.215 180.428Z" fill="#F6B642"/>
<path d="M175.075 180.109C142.311 180.811 109.668 184.325 77.5055 190.613C73.926 202.645 74.8682 215.57 80.1545 226.955C113.105 221.442 142.93 222.078 172.649 222.452C172.11 208.292 172.922 194.114 175.075 180.109Z" fill="#F6B642"/>
<path d="M248.196 489.916C261.344 490.825 262.975 470.969 249.869 469.616L124.212 452.295C122.877 452.01 121.498 451.996 120.156 452.253C118.815 452.507 117.539 453.028 116.402 453.786C115.265 454.542 114.291 455.518 113.536 456.656C112.782 457.793 112.263 459.071 112.009 460.412C111.755 461.753 111.772 463.133 112.058 464.469C112.345 465.802 112.895 467.068 113.677 468.186C114.459 469.307 115.457 470.258 116.612 470.985C117.767 471.713 119.056 472.204 120.403 472.427C119 472.349 117.596 472.555 116.275 473.035C114.954 473.515 113.745 474.256 112.719 475.218C111.693 476.177 110.873 477.337 110.308 478.623C109.743 479.908 109.444 481.297 109.431 482.702C109.432 485.204 110.351 487.616 112.012 489.484C113.673 491.355 115.962 492.548 118.446 492.844C117.091 492.702 115.721 492.83 114.416 493.223C113.112 493.616 111.899 494.266 110.848 495.133C109.798 496 108.931 497.071 108.298 498.276C107.666 499.483 107.281 500.805 107.165 502.163C107.049 503.521 107.205 504.887 107.624 506.184C108.044 507.48 108.717 508.679 109.605 509.711C110.494 510.746 111.579 511.59 112.799 512.198C114.018 512.806 115.346 513.166 116.706 513.255L242.24 530.591C256.55 532.186 258.36 512.792 246.144 510.416C258.823 510.706 260.326 491.932 248.196 489.916Z" fill="#F6B642"/>
<path d="M219.046 167.551L211.258 172.531C211.995 170.935 212.564 169.265 212.953 167.551C214.982 167.669 217.017 167.669 219.046 167.551Z" fill="#015D61"/>
<path d="M296.282 149.806C313.077 111.716 251.252 143.671 251.252 143.671C261.106 125.025 233.665 129.263 221.798 138.267C233.877 130.058 235.997 141.976 232.659 148.757C232.076 150.188 232.765 150.876 235.679 150.135C241.771 148.598 241.936 158.221 231.546 158.399C230.69 158.798 229.946 159.398 229.374 160.148C226.195 167.085 223.281 172.648 223.281 176.198C223.281 178.9 224.871 180.436 229.162 180.489C264.215 181.572 299.146 185.166 333.683 191.244C338.613 189.477 343.103 186.67 346.85 183.013C350.598 179.356 353.514 174.936 355.402 170.052C376.168 120.51 296.282 149.806 296.282 149.806Z" fill="#015D61"/>
<path d="M178.042 387.664C171.834 394.981 163.503 400.184 154.204 402.551C157.966 409.33 159.82 421.198 161.454 428.933C164.235 443.915 168.585 458.562 174.431 472.636C186.087 446.424 187.464 423.953 191.279 408.376C187.465 401.107 183.037 394.178 178.042 387.664Z" fill="#015D61"/>
<path d="M347.403 295.646C339.62 299.785 332.211 304.586 325.26 310.004C331.991 316.621 336.851 324.9 339.352 334.001C355.386 325.984 382.595 326.024 411.45 313.554C385.387 301.633 362.926 299.673 347.403 295.646Z" fill="#015D61"/>
<path d="M91.5871 194.995C91.5871 195.697 91.3079 196.371 90.8113 196.868C90.3144 197.365 89.6407 197.644 88.9381 197.644C88.2354 197.644 87.5617 197.365 87.0648 196.868C86.5682 196.371 86.2891 195.697 86.2891 194.995C86.2891 194.292 86.5682 193.618 87.0648 193.121C87.5617 192.625 88.2354 192.346 88.9381 192.346C89.6407 192.346 90.3144 192.625 90.8113 193.121C91.3079 193.618 91.5871 194.292 91.5871 194.995Z" fill="#015D61"/>
<path d="M127.822 213.43C127.822 214.133 127.543 214.807 127.046 215.303C126.55 215.8 125.876 216.079 125.173 216.079C124.471 216.079 123.797 215.8 123.3 215.303C122.804 214.807 122.524 214.133 122.524 213.43C122.524 212.728 122.804 212.054 123.3 211.557C123.797 211.06 124.471 210.781 125.173 210.781C125.876 210.781 126.55 211.06 127.046 211.557C127.543 212.054 127.822 212.728 127.822 213.43Z" fill="#015D61"/>
<path d="M167.446 188.849C167.446 189.552 167.167 190.226 166.67 190.722C166.174 191.219 165.5 191.498 164.797 191.498C164.095 191.498 163.421 191.219 162.924 190.722C162.428 190.226 162.148 189.552 162.148 188.849C162.148 188.147 162.428 187.473 162.924 186.976C163.421 186.479 164.095 186.2 164.797 186.2C165.5 186.2 166.174 186.479 166.67 186.976C167.167 187.473 167.446 188.147 167.446 188.849Z" fill="#015D61"/>
<path d="M266.561 191.499C266.561 192.201 266.282 192.875 265.786 193.372C265.289 193.868 264.614 194.148 263.912 194.148C263.209 194.148 262.534 193.868 262.038 193.372C261.542 192.875 261.263 192.201 261.263 191.499C261.263 190.796 261.542 190.122 262.038 189.625C262.534 189.129 263.209 188.85 263.912 188.85C264.614 188.85 265.289 189.129 265.786 189.625C266.282 190.122 266.561 190.796 266.561 191.499Z" fill="#015D61"/>
<path d="M206.61 210.78C206.61 211.482 206.33 212.156 205.834 212.653C205.337 213.15 204.663 213.429 203.961 213.429C203.258 213.429 202.584 213.15 202.087 212.653C201.591 212.156 201.312 211.482 201.312 210.78C201.312 210.077 201.591 209.404 202.087 208.907C202.584 208.41 203.258 208.131 203.961 208.131C204.663 208.131 205.337 208.41 205.834 208.907C206.33 209.404 206.61 210.077 206.61 210.78Z" fill="#015D61"/>
<path d="M305.713 218.144C305.713 218.847 305.434 219.52 304.938 220.017C304.442 220.514 303.767 220.793 303.064 220.793C302.361 220.793 301.687 220.514 301.19 220.017C300.694 219.52 300.415 218.847 300.415 218.144C300.415 217.442 300.694 216.768 301.19 216.271C301.687 215.774 302.361 215.495 303.064 215.495C303.767 215.495 304.442 215.774 304.938 216.271C305.434 216.768 305.713 217.442 305.713 218.144Z" fill="#015D61"/>
<path d="M350.528 203.574C350.528 204.276 350.25 204.95 349.753 205.447C349.257 205.944 348.582 206.223 347.879 206.223C347.177 206.223 346.502 205.944 346.006 205.447C345.509 204.95 345.23 204.276 345.23 203.574C345.23 202.871 345.509 202.197 346.006 201.701C346.502 201.204 347.177 200.925 347.879 200.925C348.582 200.925 349.257 201.204 349.753 201.701C350.25 202.197 350.528 202.871 350.528 203.574Z" fill="#015D61"/>
<path d="M275.305 328.438L251.52 348.196L243.52 341.206C254.553 338.136 265.213 333.853 275.305 328.438Z" fill="#015D61"/>
<path d="M175.34 322.132C176.082 325.258 176.982 328.437 178.042 331.613C192.485 329.123 206.585 324.94 220.052 319.157C206.33 324.667 189.879 324.433 175.34 322.132Z" fill="#015D61"/>
<path d="M247.6 489.81C260.928 491.483 263.354 470.915 249.83 469.518L124.12 452.355C122.769 452.066 121.374 452.054 120.018 452.319C118.662 452.584 117.375 453.12 116.233 453.898C115.09 454.675 114.118 455.674 113.374 456.839C112.629 458.002 112.129 459.304 111.902 460.668C111.675 462.031 111.728 463.426 112.055 464.767C112.383 466.108 112.98 467.368 113.809 468.475C114.639 469.58 115.684 470.505 116.881 471.194C118.078 471.883 119.402 472.323 120.774 472.485C119.425 472.323 118.058 472.429 116.75 472.8C115.443 473.168 114.223 473.796 113.159 474.641C112.095 475.485 111.209 476.531 110.553 477.722C109.897 478.91 109.483 480.217 109.335 481.57C109.188 482.919 109.31 484.286 109.694 485.588C110.078 486.89 110.716 488.106 111.573 489.16C112.429 490.214 113.486 491.089 114.682 491.731C115.879 492.375 117.191 492.774 118.543 492.908C117.204 492.751 115.846 492.86 114.549 493.228C113.253 493.599 112.042 494.221 110.986 495.06C109.931 495.902 109.053 496.942 108.402 498.122C107.75 499.304 107.339 500.601 107.192 501.942C107.045 503.283 107.164 504.638 107.544 505.932C107.923 507.226 108.555 508.433 109.403 509.482C110.251 510.53 111.298 511.4 112.484 512.044C113.669 512.686 114.971 513.087 116.312 513.224L243.135 530.758C256.168 532.074 258.681 511.969 245.333 510.282C258.513 511.559 260.914 491.34 247.6 489.81Z" stroke="#015D61" stroke-width="1.5" stroke-linecap="round" stroke-linejoin="round"/>
<path d="M344.171 141.596C336.054 117.19 321.259 95.5482 301.464 79.1252C281.669 62.7025 257.666 52.1562 232.183 48.6826C159.503 38.7112 94.4182 88.2057 86.6078 159.185C85.5434 169.031 85.6145 178.968 86.8197 188.798" stroke="#015D61" stroke-width="1.5" stroke-linecap="round" stroke-linejoin="round"/>
<path d="M349.787 194.89C350.367 189.478 350.596 184.034 350.473 178.592" stroke="#015D61" stroke-width="1.5" stroke-linecap="round" stroke-linejoin="round"/>
<path d="M339.896 232.16C339.185 233.827 338.335 235.431 337.353 236.956C314.154 275.158 300.747 297.465 291.316 319.493" stroke="#015D61" stroke-width="1.5" stroke-linecap="round" stroke-linejoin="round"/>
<path d="M187.492 427.908L264.02 438.375C266.193 426.617 271.27 391.176 273.186 381.904" stroke="#015D61" stroke-width="1.5" stroke-linecap="round" stroke-linejoin="round"/>
<path d="M120.448 369.229C120.342 376.524 117.018 409.411 116.742 418.177L160.445 423.952" stroke="#015D61" stroke-width="1.5" stroke-linecap="round" stroke-linejoin="round"/>
<path d="M96.7793 224.608C102.604 242.301 107.161 256.232 110.604 268.523" stroke="#015D61" stroke-width="1.5" stroke-linecap="round" stroke-linejoin="round"/>
<path d="M206.649 153.409L175.393 149.118C171.417 148.491 167.355 148.675 163.451 149.658C159.547 150.64 155.882 152.401 152.676 154.835C149.47 157.27 146.788 160.327 144.793 163.823C142.798 167.319 141.53 171.183 141.065 175.181C140.84 177.401 140.854 179.638 141.107 181.854" stroke="#015D61" stroke-width="1.5" stroke-linecap="round" stroke-linejoin="round"/>
<path d="M190.387 428.298L197.589 366.264" stroke="#015D61" stroke-width="1.5" stroke-linecap="round" stroke-linejoin="round"/>
<path d="M175.076 180.056C175.076 180.056 167.826 222.331 177.619 254.487C176.075 258.34 174.973 262.356 174.334 266.458" stroke="#015D61" stroke-width="1.5" stroke-linecap="round" stroke-linejoin="round"/>
<path d="M172.532 222.436C142.813 222.065 113.041 221.43 80.0377 226.937C74.7804 215.548 73.8574 202.633 77.4417 190.612C117.834 182.672 158.983 179.243 200.132 180.387C205.536 180.613 209.08 177.205 211.258 172.546C211.994 170.949 212.562 169.28 212.953 167.566C205.425 166.93 195.107 162.806 216.503 142.615C218.162 141.041 219.933 139.59 221.801 138.271" stroke="#015D61" stroke-width="1.5" stroke-linecap="round" stroke-linejoin="round"/>
<path d="M359.059 197.907C335.24 188.622 277.299 183.129 251.623 181.486C243.361 195.049 226.779 229.324 235.202 235.52L238.964 222.646C279.279 222.487 310.534 225.992 355.88 235.308C360.776 223.469 361.886 210.404 359.059 197.907Z" stroke="#015D61" stroke-width="1.5" stroke-linecap="round" stroke-linejoin="round"/>
<path d="M232.77 148.508C235.946 141.691 233.738 130.135 221.798 138.252C233.665 129.249 261.115 125.01 251.252 143.656C251.252 143.656 313.074 111.712 296.282 149.791C383.281 117.905 363.402 180.363 333.683 191.219C299.149 185.105 264.218 181.493 229.162 180.411C224.871 180.352 223.281 178.821 223.281 176.119C223.281 172.57 226.282 167.046 229.374 160.069C229.948 159.321 230.693 158.721 231.546 158.321C241.936 158.134 241.769 148.514 235.679 150.056C232.804 150.8 232.179 149.785 232.77 148.508Z" stroke="#015D61" stroke-width="1.5" stroke-linecap="round" stroke-linejoin="round"/>
<path d="M383.691 209.986C388.036 211.514 392.296 213.264 396.46 215.231C421.277 227.199 404.881 224.397 397.784 221.645" stroke="#015D61" stroke-width="1.5" stroke-linecap="round" stroke-linejoin="round"/>
<path d="M394.288 233.084C397.28 235.082 400.079 237.352 402.653 239.865C408.746 245.958 405.305 246.803 399.424 243.892C394.603 241.505 388.884 239.168 382.841 236.898C374.766 233.574 366.284 231.349 357.617 230.284" stroke="#015D61" stroke-width="1.5" stroke-linecap="round" stroke-linejoin="round"/>
<path d="M394.605 237.269C394.474 229.937 391.839 222.871 387.135 217.245" stroke="#015D61" stroke-width="1.5" stroke-linecap="round" stroke-linejoin="round"/>
<path d="M398.208 235.945C400.592 237.163 403.609 238.543 406.735 240.024C412.454 242.732 414.891 241.881 409.437 236.957C404.287 232.315 398.442 228.508 392.115 225.675" stroke="#015D61" stroke-width="1.5" stroke-linecap="round" stroke-linejoin="round"/>
<path d="M401.28 230.646C421.993 241.401 425.208 238.194 408.165 227.299C401.503 223.273 394.46 219.919 387.135 217.289" stroke="#015D61" stroke-width="1.5" stroke-linecap="round" stroke-linejoin="round"/>
<path d="M368.383 220.794C371.179 221.432 374.113 221.054 376.656 219.725C379.199 218.396 381.187 216.205 382.261 213.544C384.263 209.671 382.79 207.822 385.016 205.12C388.459 200.937 387.785 198.899 382.843 201.04C379.62 202.435 372.088 206.233 366.316 204.537C363.896 203.862 361.465 203.213 359.976 202.833" stroke="#015D61" stroke-width="1.5" stroke-linecap="round" stroke-linejoin="round"/>
<path d="M52.4969 201.129C48.0103 202.464 43.6054 204.06 39.3048 205.908C14.0334 216.875 30.5102 214.703 37.7154 212.266" stroke="#015D61" stroke-width="1.5" stroke-linecap="round" stroke-linejoin="round"/>
<path d="M40.6797 223.815C37.6096 225.695 34.7222 227.858 32.0551 230.276C25.7477 236.156 29.0854 237.107 35.075 234.458C39.9993 232.283 45.8327 230.237 51.9198 228.207C70.0446 222.164 78.4098 222.594 78.4098 222.594" stroke="#015D61" stroke-width="1.5" stroke-linecap="round" stroke-linejoin="round"/>
<path d="M40.2021 227.998C40.6463 220.675 43.5756 213.724 48.5061 208.292" stroke="#015D61" stroke-width="1.5" stroke-linecap="round" stroke-linejoin="round"/>
<path d="M36.7057 226.514C34.2686 227.629 31.1958 228.898 28.017 230.222C22.1892 232.656 19.7995 231.753 25.421 227.043C30.7366 222.595 36.7453 219.049 43.2083 216.545" stroke="#015D61" stroke-width="1.5" stroke-linecap="round" stroke-linejoin="round"/>
<path d="M33.7923 221.06C12.6003 230.912 9.56933 227.501 27.0639 217.405C33.898 213.677 41.0799 210.625 48.5068 208.292" stroke="#015D61" stroke-width="1.5" stroke-linecap="round" stroke-linejoin="round"/>
<path d="M76.1702 195.949C70.2922 197.377 56.6819 193.819 53.5505 192.294C48.7377 189.946 47.943 191.915 51.2194 196.264C53.2912 199.017 51.8635 200.606 53.0207 204C54.1946 207.44 57.2033 212.741 64.1465 211.417" stroke="#015D61" stroke-width="1.5" stroke-linecap="round" stroke-linejoin="round"/>
<path d="M178.042 387.612L181.168 391.851" stroke="#015D61" stroke-width="1.5" stroke-linecap="round" stroke-linejoin="round"/>
<path d="M181.169 391.85C184.962 397.089 188.345 402.616 191.288 408.377C187.473 423.953 186.096 446.413 174.44 472.636C168.595 458.563 164.245 443.915 161.463 428.933C159.608 420.289 158.231 410.443 154.213 402.605" stroke="#015D61" stroke-width="1.5" stroke-linecap="round" stroke-linejoin="round"/>
<path d="M325.26 310.057C332.22 304.65 339.626 299.846 347.403 295.699C362.926 299.673 385.387 301.633 411.45 313.545C397.327 319.25 382.643 323.458 367.641 326.093C355.746 328.508 349.516 328.915 339.325 333.998" stroke="#015D61" stroke-width="1.5" stroke-linecap="round" stroke-linejoin="round"/>
<path d="M80.4621 386.552L45.9219 331.193" stroke="#015D61" stroke-width="1.5" stroke-linecap="round" stroke-linejoin="round"/>
<path d="M41.9482 348.197L45.9217 331.193L62.9283 335.167" stroke="#015D61" stroke-width="1.5" stroke-linecap="round" stroke-linejoin="round"/>
<path d="M442.335 185.406C442.335 187.093 441.836 188.742 440.896 190.145C439.959 191.547 438.629 192.641 437.07 193.286C435.511 193.932 433.796 194.101 432.14 193.772C430.487 193.443 428.967 192.63 427.773 191.437C426.58 190.244 425.769 188.725 425.44 187.07C425.111 185.415 425.278 183.7 425.925 182.142C426.569 180.583 427.662 179.251 429.067 178.313C430.47 177.376 432.118 176.876 433.805 176.876C434.926 176.875 436.036 177.095 437.07 177.524C438.105 177.952 439.047 178.581 439.839 179.373C440.631 180.165 441.258 181.105 441.688 182.141C442.114 183.176 442.335 184.285 442.335 185.406Z" stroke="#015D61" stroke-width="1.5" stroke-linecap="round" stroke-linejoin="round"/>
<path d="M309.051 491.444C309.051 492.554 308.722 493.641 308.105 494.564C307.486 495.487 306.611 496.207 305.585 496.633C304.559 497.057 303.429 497.169 302.339 496.951C301.249 496.737 300.251 496.201 299.464 495.415C298.678 494.629 298.142 493.63 297.928 492.54C297.71 491.45 297.822 490.32 298.246 489.294C298.672 488.268 299.392 487.393 300.315 486.774C301.238 486.157 302.325 485.828 303.435 485.828C304.174 485.823 304.907 485.965 305.59 486.247C306.274 486.525 306.895 486.938 307.417 487.462C307.941 487.984 308.354 488.606 308.633 489.289C308.914 489.972 309.056 490.705 309.051 491.444Z" stroke="#015D61" stroke-width="1.5" stroke-linecap="round" stroke-linejoin="round"/>
<path d="M72.9912 77.9189L92.011 89.0977" stroke="#015D61" stroke-width="1.5" stroke-linecap="round" stroke-linejoin="round"/>
<path d="M170.837 1L177.459 21.8713" stroke="#015D61" stroke-width="1.5" stroke-linecap="round" stroke-linejoin="round"/>
<path d="M291.832 28.5473L302.375 9.42432" stroke="#015D61" stroke-width="1.5" stroke-linecap="round" stroke-linejoin="round"/>
<path d="M373.307 105.151L393.121 95.5615" stroke="#015D61" stroke-width="1.5" stroke-linecap="round" stroke-linejoin="round"/>
<path d="M12.3347 125.28L10.1123 145.675" stroke="#015D61" stroke-width="1.5" stroke-linecap="round" stroke-linejoin="round"/>
<path d="M21.3945 136.616L1 134.394" stroke="#015D61" stroke-width="1.5" stroke-linecap="round" stroke-linejoin="round"/>
<path d="M240.977 180.853C232.662 193.262 226.051 206.733 221.325 220.903L185.195 220.106C183.5 206.543 186.679 180.003 186.679 180.003" stroke="#015D61" stroke-width="1.5" stroke-linecap="round" stroke-linejoin="round"/>
<path d="M186.36 229.321L188.374 250.513L200.98 259.305L214.331 250.301L219.046 229.798L186.36 229.321Z" stroke="#015D61" stroke-width="1.5" stroke-linecap="round" stroke-linejoin="round"/>
<path d="M209.033 176.188H223.229" stroke="#015D61" stroke-width="1.5" stroke-linecap="round" stroke-linejoin="round"/>
<path d="M275.305 328.438L251.52 348.197L243.562 341.195" stroke="#015D61" stroke-width="1.5" stroke-linecap="round" stroke-linejoin="round"/>
<path d="M235.202 235.52L230.063 253.215C230.063 253.215 261.263 297.227 225.881 316.512C217.468 321.099 205.483 324.216 189.631 323.578C174.433 322.741 159.461 319.521 145.264 314.03C156.878 336.223 169.957 357.619 184.414 378.075C180.401 386.144 174.149 392.887 166.406 397.496C159.422 401.436 151.667 403.812 143.675 404.467C123.712 375.54 105.437 345.486 88.9384 314.454C86.4904 309.892 85.2011 304.798 85.1838 299.623C85.1662 294.444 86.4216 289.342 88.8388 284.763C91.2558 280.184 94.7612 276.27 99.0461 273.364C103.331 270.458 108.265 268.652 113.412 268.099C140.27 265.233 171.261 264.709 194.834 268.735" stroke="#015D61" stroke-width="1.5" stroke-linecap="round" stroke-linejoin="round"/>
<path d="M145.265 314.032C142.298 308.575 139.967 303.383 139.967 303.383" stroke="#015D61" stroke-width="1.5" stroke-linecap="round" stroke-linejoin="round"/>
<path d="M175.341 322.135C180.893 346.291 194.889 367.67 214.808 382.421C220.233 386.539 226.57 389.288 233.281 390.443C239.993 391.595 246.883 391.115 253.372 389.043C285.029 378.854 314.779 363.496 341.419 343.592C338.67 326.27 331.897 313.987 317.313 303.383C295.187 317.395 268.672 334.688 243.562 341.197C236.402 333.961 230.554 325.54 226.274 316.304" stroke="#015D61" stroke-width="1.5" stroke-linecap="round" stroke-linejoin="round"/>
<path d="M220.052 319.159C206.585 324.942 192.485 329.119 178.042 331.609" stroke="#015D61" stroke-width="1.5" stroke-linecap="round" stroke-linejoin="round"/>
<path d="M212.953 167.553C214.982 167.671 217.017 167.671 219.046 167.553L211.258 172.533" stroke="#015D61" stroke-width="1.5" stroke-linecap="round" stroke-linejoin="round"/>
</svg>
