<svg width="373" height="417" viewBox="0 0 373 417" fill="none" xmlns="http://www.w3.org/2000/svg">
<path d="M221.881 133.374C253.734 138.964 288.849 166.354 311.824 191.881C333.806 133.522 284.594 118.995 240.19 114.048C222.093 112.036 223.554 82.8153 216.548 68.7987C209.003 53.7102 174.938 47.1307 175.293 79.138C179.703 79.138 186.723 71.2722 187.702 61.2792C191.843 75.0814 208.833 76.8624 209.982 80.6716C211.003 90.2523 212.109 97.2441 219.909 112.992C222.689 118.846 221.384 133.506 221.881 133.374Z" fill="#21222F"/>
<path fill-rule="evenodd" clip-rule="evenodd" d="M221.314 133.44C223.781 118.467 219.059 110.354 213.655 100.69C210.464 95.0013 211.173 80.4571 209.287 79.4182C205.033 77.0931 193.346 75.8233 187.433 61.2791C185.419 78.7916 172.697 80.0448 174.513 79.5171C174.13 83.4583 177.548 96.1721 177.122 96.6503C165.521 109.232 163.28 113.14 180.71 108.193C183.079 116.076 185.518 123.315 187.163 130.488C194.793 130.488 204.55 131.164 210.308 131.774C216.066 132.384 217.74 132.813 221.314 133.44Z" fill="white"/>
<path fill-rule="evenodd" clip-rule="evenodd" d="M206.181 129.664C313.185 140.778 349.817 237.575 363.602 297.698C377.175 356.65 381.585 410.078 337.904 409.716C330.062 409.716 318.773 401.47 312.575 405.906C272.284 434.863 215.541 397.232 172.173 403.664C145.652 407.605 70.2176 402.015 68.4449 390.851C18.0276 434.715 -24.15 371.327 15.9711 286.831C50.1783 214.868 125.684 121.287 206.181 129.664Z" fill="#79CABE"/>
<path d="M221.427 131.099C223.256 103.692 212.677 111.805 210.081 82.1396C209.401 74.2078 193.914 79.3692 187.957 61.5269C186.894 58.3278 186.539 77.4564 175.009 79.3197" stroke="#21222F" stroke-width="1.61364" stroke-linecap="round" stroke-linejoin="round"/>
<path fill-rule="evenodd" clip-rule="evenodd" d="M133.569 217.424C131.13 228.538 131.626 233.057 129.031 242.489C111.856 243.214 117.529 241.434 106.694 245.127C120.663 252.614 142.362 265.014 172.711 274.81L187.659 273.045L246.472 224.086C235.893 219.716 193.119 232.793 179.618 270.06C180.044 257.825 160.387 229.709 133.569 217.424Z" fill="#FAFD94"/>
<ellipse rx="2.84903" ry="2.06006" transform="matrix(0.086578 -0.996245 0.993168 0.116689 193.074 82.1555)" fill="#21222F"/>
<ellipse rx="2.00915" ry="1.44913" transform="matrix(0.086428 -0.996258 0.993192 0.116489 179.385 84.6738)" fill="#21222F"/>
<ellipse cx="210.479" cy="175.259" rx="1.44657" ry="2.01179" fill="#21222F"/>
<path fill-rule="evenodd" clip-rule="evenodd" d="M249.323 221.464C243.367 226.411 204.394 262.426 187.886 272.254C187.149 272.699 178.399 276.657 170.457 273.722C145.964 264.668 102.652 240.247 100.213 241.582C95.2206 279.51 100.837 304.129 95.8446 342.057L170.57 366.973L189.546 367.336L247.891 327.248C243.537 313.215 254.726 216.963 249.323 221.464Z" fill="#F6B642"/>
<path fill-rule="evenodd" clip-rule="evenodd" d="M223.101 318.954C217.697 318.855 206.734 342.798 227.355 343.31C222.037 345.997 211.585 376.949 255.379 353.418C268.568 354.358 268.384 374.723 291.799 364.153C293.713 354.853 301.159 321.592 293.557 282.296C274.766 271.248 259.18 266.07 248.472 268.181C248.472 271.396 247.976 278.866 248.132 282.857C201.033 296.593 206.819 313.908 223.101 318.954Z" fill="white"/>
<ellipse cx="201.26" cy="206.59" rx="1.44657" ry="2.01179" fill="#21222F"/>
<path d="M225.852 88.2404C232.118 88.2404 237.197 82.3341 237.197 75.0483C237.197 67.7625 232.118 61.8562 225.852 61.8562C219.586 61.8562 214.506 67.7625 214.506 75.0483C214.506 82.3341 219.586 88.2404 225.852 88.2404Z" fill="#21222F" stroke="#21222F" stroke-width="0.5"/>
<path fill-rule="evenodd" clip-rule="evenodd" d="M99.7305 224.416C109.303 229.808 110.112 232.067 107.148 247.271C114.352 248.508 126.194 266.713 109.048 275.964C121.372 294.334 99.9858 338.626 86.3568 319.201C84.7826 325.797 82.1022 334.586 79.9323 341.397C73.9191 336.45 45.1437 305.382 30.295 268.708C66.3885 173.066 120.919 206.442 121.94 209.344C124.422 216.517 107.857 221.827 99.7305 224.416Z" fill="white"/>
<path d="M187.404 108.561C187.143 108.42 186.816 108.518 186.675 108.78C186.534 109.041 186.632 109.367 186.894 109.508L187.404 108.561ZM199.516 104.686C199.609 104.404 199.456 104.1 199.174 104.006C198.892 103.913 198.588 104.065 198.495 104.347L199.516 104.686ZM185.904 128.081C185.977 128.369 186.269 128.543 186.557 128.471C186.845 128.398 187.02 128.106 186.947 127.818L185.904 128.081ZM180.957 107.531C180.873 107.246 180.574 107.083 180.289 107.167C180.004 107.25 179.841 107.549 179.925 107.834L180.957 107.531ZM176.594 96.3979C176.682 96.6816 176.984 96.8402 177.267 96.7521C177.551 96.664 177.71 96.3626 177.622 96.0789L176.594 96.3979ZM174.513 78.9567L175.051 78.9571C175.051 78.9483 175.05 78.9395 175.05 78.9307L174.513 78.9567ZM215.641 67.694L215.245 68.0582C215.371 68.1958 215.56 68.2578 215.744 68.2219C215.928 68.1859 216.079 68.0573 216.145 67.8821L215.641 67.694ZM236.914 75.4114L237.451 75.4282L237.451 75.4259L236.914 75.4114ZM222.235 88.0923L222.358 87.5686C222.176 87.5259 221.985 87.5808 221.853 87.7137C221.722 87.8466 221.668 88.0383 221.713 88.22L222.235 88.0923ZM238.488 113.668L238.389 114.197L238.389 114.197L238.488 113.668ZM333.725 181.694C333.691 181.989 333.902 182.256 334.197 182.29C334.492 182.325 334.759 182.114 334.794 181.819L333.725 181.694ZM185.614 85.6649C185.64 85.3689 185.42 85.1083 185.125 85.0828C184.829 85.0572 184.568 85.2765 184.542 85.5724L185.614 85.6649ZM178.257 108.837L178.445 109.341L178.445 109.341L178.257 108.837ZM194.746 91.2265C194.847 90.947 194.702 90.6388 194.422 90.5379C194.143 90.4371 193.835 90.5819 193.734 90.8613L194.746 91.2265ZM181.983 136.438C182.082 136.158 181.935 135.851 181.655 135.752C181.375 135.654 181.067 135.801 180.969 136.081L181.983 136.438ZM177.307 151.777L176.778 151.677C176.735 151.903 176.841 152.132 177.042 152.245C177.243 152.359 177.494 152.331 177.666 152.177L177.307 151.777ZM201.87 139.756L202.376 139.574C202.374 139.569 202.373 139.564 202.371 139.56L201.87 139.756ZM229.582 140.696L229.159 140.363C229.142 140.384 229.128 140.406 229.115 140.428L229.582 140.696ZM230.912 139.142C230.983 138.854 230.807 138.563 230.519 138.491C230.23 138.42 229.939 138.596 229.868 138.885L230.912 139.142ZM203.103 140.663C203.103 140.366 202.862 140.125 202.565 140.125C202.268 140.125 202.027 140.366 202.027 140.663H203.103ZM185.548 257.09C185.561 257.387 185.813 257.617 186.109 257.604C186.406 257.59 186.636 257.339 186.623 257.042L185.548 257.09ZM296.449 223.615C296.353 223.334 296.047 223.184 295.766 223.28C295.485 223.376 295.335 223.682 295.431 223.963L296.449 223.615ZM302.11 272.904C302.124 273.201 302.375 273.431 302.672 273.418C302.969 273.404 303.198 273.153 303.185 272.856L302.11 272.904ZM328.731 372.651C328.707 372.947 328.928 373.207 329.224 373.231C329.52 373.255 329.779 373.035 329.804 372.739L328.731 372.651ZM318.801 283.286L318.485 283.721L318.486 283.721L318.801 283.286ZM284.658 276.116C284.577 276.402 284.744 276.699 285.03 276.779C285.316 276.859 285.613 276.692 285.693 276.406L284.658 276.116ZM292.024 275.064C291.928 274.783 291.622 274.633 291.341 274.73C291.06 274.826 290.91 275.132 291.006 275.413L292.024 275.064ZM291.117 364.923C290.986 365.19 291.097 365.512 291.364 365.642C291.63 365.773 291.953 365.662 292.083 365.395L291.117 364.923ZM261.831 328.61C262.128 328.603 262.363 328.356 262.355 328.059C262.348 327.762 262.101 327.527 261.804 327.535L261.831 328.61ZM248.089 356.452L248.346 356.925L248.346 356.925L248.089 356.452ZM259.194 353.896L258.867 354.324L258.868 354.325L259.194 353.896ZM292.11 364.335L292.622 364.169C292.57 364.007 292.444 363.879 292.282 363.825C292.121 363.77 291.943 363.796 291.804 363.893L292.11 364.335ZM320.216 381.168C320.469 381.013 320.549 380.682 320.395 380.429C320.24 380.175 319.909 380.095 319.655 380.25L320.216 381.168ZM267.97 307.042C268.267 307.051 268.515 306.818 268.524 306.521C268.533 306.224 268.3 305.976 268.003 305.966L267.97 307.042ZM227.514 343.044C227.795 342.949 227.946 342.643 227.85 342.362C227.754 342.081 227.449 341.93 227.168 342.026L227.514 343.044ZM272.693 285.959C272.958 286.093 273.282 285.987 273.416 285.722C273.55 285.457 273.444 285.133 273.179 284.999L272.693 285.959ZM221.052 318.951C221.324 319.071 221.642 318.949 221.762 318.677C221.883 318.406 221.761 318.088 221.489 317.968L221.052 318.951ZM249.72 221.359C250.017 221.359 250.258 221.118 250.258 220.821C250.258 220.524 250.017 220.284 249.72 220.284V221.359ZM172.399 273.54L172.507 273.013L172.506 273.013L172.399 273.54ZM100.369 241.945L100.514 241.428C100.467 241.414 100.418 241.407 100.369 241.407V241.945ZM99.4675 246.099C99.1931 246.213 99.0631 246.527 99.177 246.802C99.2909 247.076 99.6057 247.206 99.8801 247.092L99.4675 246.099ZM97.0345 322.551C97.0447 322.254 96.8124 322.005 96.5155 321.995C96.2186 321.984 95.9696 322.217 95.9593 322.514L97.0345 322.551ZM95.0387 340.961C95.0167 341.258 95.2391 341.516 95.5354 341.538C95.8316 341.559 96.0896 341.337 96.1115 341.041L95.0387 340.961ZM245.905 223.041C246.202 223.041 246.443 222.8 246.443 222.503C246.443 222.206 246.202 221.966 245.905 221.966V223.041ZM179.618 272.221L179.276 272.636C179.415 272.75 179.601 272.788 179.773 272.736C179.945 272.685 180.079 272.551 180.132 272.38L179.618 272.221ZM105.191 243.86C104.901 243.922 104.716 244.208 104.778 244.499C104.84 244.789 105.126 244.974 105.417 244.912L105.191 243.86ZM100.566 222.967C100.276 223.031 100.092 223.317 100.155 223.607C100.218 223.898 100.505 224.082 100.795 224.018L100.566 222.967ZM98.1846 202.583L98.207 202.046H98.207L98.1846 202.583ZM5.14042 324.742C5.00393 325.006 5.10718 325.331 5.37103 325.467C5.63488 325.604 5.95942 325.5 6.09591 325.237L5.14042 324.742ZM66.1477 274.702C65.988 274.953 66.0615 275.285 66.312 275.445C66.5624 275.605 66.895 275.531 67.0547 275.281L66.1477 274.702ZM111.842 250.339L112.204 249.941L112.204 249.94L111.842 250.339ZM109.623 275.068C109.355 275.197 109.243 275.518 109.372 275.786C109.501 276.053 109.823 276.166 110.091 276.036L109.623 275.068ZM31.5001 269.655C31.3853 269.381 31.0702 269.252 30.7962 269.367C30.5222 269.481 30.3931 269.796 30.5078 270.07L31.5001 269.655ZM78.9864 340.177C79.205 340.378 79.5452 340.364 79.7464 340.145C79.9476 339.926 79.9335 339.586 79.715 339.385L78.9864 340.177ZM18.0047 307.523C17.9209 307.238 17.622 307.075 17.337 307.158C17.0519 307.242 16.8888 307.541 16.9725 307.826L18.0047 307.523ZM67.2041 384.98C67.459 385.132 67.7893 385.05 67.9419 384.795C68.0945 384.54 68.0117 384.21 67.7568 384.057L67.2041 384.98ZM81.2357 284.69C81.055 284.926 81.0997 285.263 81.3356 285.444C81.5714 285.625 81.909 285.58 82.0896 285.344L81.2357 284.69ZM89.9875 323.538L89.9603 324.075H89.9606L89.9875 323.538ZM88.853 311.022L89.364 311.19L89.3641 311.19L88.853 311.022ZM79.7481 341.809L80.2623 341.967L80.2623 341.967L79.7481 341.809ZM68.8855 381.176C68.7699 381.45 68.898 381.765 69.1716 381.881C69.4453 381.996 69.7608 381.868 69.8764 381.595L68.8855 381.176ZM52.0606 264.141C51.9515 264.417 52.0871 264.73 52.3634 264.839C52.6397 264.948 52.9521 264.812 53.0612 264.536L52.0606 264.141ZM106.604 247.195C106.553 247.488 106.749 247.766 107.041 247.817C107.334 247.868 107.612 247.673 107.663 247.38L106.604 247.195ZM129.016 239.966C128.952 240.256 129.136 240.543 129.426 240.607C129.716 240.671 130.003 240.487 130.067 240.197L129.016 239.966ZM134.25 217.342L133.931 217.775C133.939 217.781 133.947 217.786 133.955 217.792L134.25 217.342ZM179.025 272.458C179.047 272.754 179.305 272.977 179.601 272.955C179.897 272.933 180.12 272.676 180.098 272.379L179.025 272.458ZM173.434 274.108C173.529 273.827 173.378 273.522 173.097 273.426C172.815 273.331 172.51 273.482 172.415 273.763L173.434 274.108ZM171.902 367.715C171.902 367.418 171.661 367.177 171.364 367.177C171.067 367.177 170.826 367.418 170.826 367.715H171.902ZM188.353 273.185C188.449 272.903 188.298 272.598 188.016 272.503C187.735 272.408 187.43 272.558 187.334 272.84L188.353 273.185ZM189.8 365.802C189.8 365.505 189.559 365.264 189.262 365.264C188.965 365.264 188.724 365.505 188.724 365.802H189.8ZM249.631 267.528C249.335 267.546 249.109 267.801 249.127 268.098C249.144 268.394 249.399 268.62 249.696 268.602L249.631 267.528ZM293.267 281.755C293.541 281.868 293.856 281.737 293.969 281.463C294.082 281.188 293.952 280.874 293.677 280.76L293.267 281.755ZM186.894 109.508C188.112 110.165 189.314 110.774 190.473 111.171C191.632 111.567 192.791 111.766 193.914 111.559C196.213 111.136 198.054 109.092 199.516 104.686L198.495 104.347C197.063 108.664 195.408 110.19 193.719 110.501C192.847 110.662 191.888 110.518 190.821 110.153C189.753 109.788 188.618 109.216 187.404 108.561L186.894 109.508ZM186.947 127.818C185.257 121.112 183.231 115.266 180.957 107.531L179.925 107.834C182.217 115.633 184.219 121.397 185.904 128.081L186.947 127.818ZM177.622 96.0789C175.917 90.5896 175.047 84.7957 175.051 78.9571L173.975 78.9564C173.971 84.9018 174.857 90.8035 176.594 96.3979L177.622 96.0789ZM175.05 78.9307C174.534 68.2849 179.721 60.2895 187.37 57.5625C195.018 54.836 205.347 57.3011 215.245 68.0582L216.036 67.3298C205.952 56.3694 195.192 53.6319 187.009 56.5492C178.828 59.4658 173.442 67.9606 173.975 78.9828L175.05 78.9307ZM216.145 67.8821C218.049 62.7802 223.125 61.221 227.782 62.673C232.426 64.1211 236.561 68.5623 236.376 75.3969L237.451 75.4259C237.65 68.079 233.176 63.228 228.102 61.646C223.041 60.0679 217.289 61.7408 215.137 67.5059L216.145 67.8821ZM236.376 75.3945C236.269 78.8118 234.151 82.1882 231.304 84.5604C228.446 86.9424 225.003 88.1898 222.358 87.5686L222.112 88.6159C225.225 89.347 229.009 87.8734 231.993 85.3868C234.989 82.8902 237.332 79.2501 237.451 75.4282L236.376 75.3945ZM221.713 88.22C222.123 89.8972 222.491 91.518 222.847 93.0794C223.203 94.6391 223.546 96.1407 223.904 97.5712C224.619 100.429 225.4 103.031 226.478 105.292C227.558 107.559 228.941 109.495 230.867 111.013C232.793 112.531 235.232 113.607 238.389 114.197L238.587 113.14C235.568 112.575 233.298 111.559 231.533 110.168C229.767 108.776 228.477 106.986 227.449 104.829C226.418 102.667 225.658 100.148 224.948 97.31C224.593 95.8924 224.252 94.4018 223.896 92.8404C223.541 91.2806 223.17 89.6513 222.758 87.9645L221.713 88.22ZM238.389 114.197C246.068 115.632 256.501 115.771 267.575 116.38C278.685 116.991 290.492 118.074 301.051 121.376C311.604 124.675 320.869 130.176 326.948 139.598C333.029 149.022 335.975 162.446 333.725 181.694L334.794 181.819C337.062 162.413 334.111 148.713 327.852 139.015C321.593 129.314 312.076 123.695 301.372 120.349C290.676 117.005 278.755 115.917 267.634 115.306C256.477 114.693 246.175 114.558 238.587 113.14L238.389 114.197ZM184.542 85.5724C184.523 85.7962 184.412 86.1366 184.173 86.6042C183.939 87.0614 183.604 87.5983 183.184 88.2043C182.344 89.4162 181.19 90.8634 179.881 92.4392C177.278 95.5746 174.067 99.2168 171.666 102.388C170.464 103.975 169.445 105.471 168.797 106.75C168.473 107.39 168.231 107.996 168.111 108.547C167.992 109.093 167.982 109.638 168.187 110.113C168.401 110.61 168.814 110.948 169.366 111.133C169.9 111.312 170.575 111.352 171.381 111.28C172.993 111.134 175.299 110.516 178.445 109.341L178.068 108.333C174.946 109.499 172.749 110.076 171.284 110.208C170.55 110.275 170.043 110.225 169.707 110.113C169.389 110.006 169.246 109.853 169.175 109.687C169.094 109.499 169.068 109.208 169.162 108.776C169.255 108.348 169.454 107.833 169.756 107.236C170.36 106.044 171.333 104.61 172.523 103.037C174.906 99.8909 178.073 96.3012 180.709 93.1264C182.02 91.5472 183.2 90.0699 184.068 88.8172C184.503 88.1909 184.866 87.6106 185.13 87.0942C185.389 86.5882 185.577 86.0986 185.614 85.6649L184.542 85.5724ZM178.445 109.341C181.155 108.328 184.66 105.357 187.739 101.919C190.828 98.4709 193.585 94.4449 194.746 91.2265L193.734 90.8613C192.64 93.8927 189.986 97.7984 186.938 101.202C183.879 104.616 180.52 107.416 178.068 108.333L178.445 109.341ZM180.969 136.081C179.19 141.131 177.788 146.349 176.778 151.677L177.835 151.877C178.835 146.602 180.223 141.436 181.983 136.438L180.969 136.081ZM177.666 152.177C177.912 151.957 178.467 151.594 179.303 151.113C180.124 150.642 181.174 150.079 182.374 149.461C184.774 148.225 187.758 146.774 190.675 145.393C193.59 144.012 196.435 142.703 198.553 141.751C199.613 141.275 200.489 140.889 201.101 140.628C201.408 140.498 201.644 140.4 201.802 140.339C201.883 140.308 201.934 140.29 201.961 140.281C201.978 140.276 201.969 140.28 201.946 140.284C201.939 140.285 201.895 140.294 201.836 140.29C201.807 140.289 201.74 140.283 201.661 140.25C201.576 140.215 201.438 140.129 201.369 139.952L202.371 139.56C202.301 139.38 202.162 139.294 202.075 139.258C201.995 139.224 201.925 139.218 201.893 139.216C201.827 139.213 201.773 139.222 201.755 139.225C201.709 139.234 201.666 139.247 201.639 139.255C201.577 139.274 201.5 139.303 201.414 139.336C201.239 139.404 200.99 139.507 200.68 139.639C200.058 139.903 199.175 140.293 198.113 140.77C195.987 141.725 193.136 143.037 190.214 144.421C187.293 145.804 184.297 147.26 181.881 148.504C180.674 149.126 179.608 149.697 178.767 150.181C177.941 150.655 177.29 151.069 176.947 151.376L177.666 152.177ZM201.364 139.938C203.621 146.212 205.518 151.15 207.34 154.585C208.252 156.303 209.159 157.674 210.104 158.655C211.051 159.637 212.066 160.258 213.188 160.405C214.313 160.553 215.454 160.212 216.625 159.458C217.791 158.708 219.02 157.527 220.348 155.931C223.005 152.739 226.144 147.783 230.048 140.963L229.115 140.428C225.212 147.246 222.113 152.13 219.521 155.243C218.226 156.799 217.078 157.887 216.043 158.554C215.012 159.217 214.126 159.443 213.328 159.338C212.527 159.233 211.721 158.782 210.878 157.908C210.033 157.031 209.181 155.759 208.29 154.081C206.51 150.724 204.636 145.857 202.376 139.574L201.364 139.938ZM230.005 141.028C230.432 140.484 230.741 139.838 230.912 139.142L229.868 138.885C229.731 139.44 229.486 139.946 229.159 140.363L230.005 141.028ZM202.027 140.663C202.027 153.789 197.607 175.784 193.323 198.101C189.051 220.36 184.913 242.938 185.548 257.09L186.623 257.042C185.995 243.046 190.097 220.615 194.38 198.304C198.651 176.053 203.103 153.92 203.103 140.663H202.027ZM295.431 223.963C298.44 232.775 301.175 252.004 302.11 272.904L303.185 272.856C302.249 251.938 299.51 232.58 296.449 223.615L295.431 223.963ZM329.804 372.739C331.825 347.997 332.403 327.917 330.872 312.854C330.106 305.322 328.811 299.021 326.892 294.01C324.974 288.998 322.419 285.244 319.117 282.85L318.486 283.721C321.565 285.953 324.015 289.504 325.887 294.394C327.76 299.285 329.041 305.483 329.801 312.963C331.323 327.924 330.752 347.923 328.731 372.651L329.804 372.739ZM319.117 282.85C315.982 280.576 308.567 275.065 301.402 271.994C297.829 270.463 294.235 269.5 291.229 269.915C289.713 270.125 288.337 270.687 287.199 271.71C286.064 272.731 285.2 274.182 284.658 276.116L285.693 276.406C286.193 274.625 286.965 273.367 287.919 272.51C288.871 271.653 290.037 271.166 291.377 270.981C294.083 270.607 297.454 271.472 300.979 272.983C308.011 275.997 315.324 281.428 318.485 283.721L319.117 282.85ZM291.006 275.413C298.003 295.856 298.977 316.309 297.722 332.63C296.466 348.97 292.982 361.109 291.117 364.923L292.083 365.395C294.033 361.41 297.533 349.119 298.795 332.713C300.057 316.289 299.081 295.682 292.024 275.064L291.006 275.413ZM261.804 327.535C239.412 328.109 225.437 340.913 222.323 350.927C221.542 353.436 221.432 355.811 222.094 357.785C222.761 359.777 224.201 361.314 226.409 362.13C228.596 362.939 231.506 363.031 235.136 362.234C238.77 361.437 243.163 359.74 248.346 356.925L247.832 355.98C242.708 358.763 238.412 360.414 234.905 361.184C231.394 361.954 228.71 361.834 226.782 361.121C224.873 360.415 223.676 359.12 223.114 357.443C222.545 355.747 222.614 353.613 223.35 351.247C226.301 341.757 239.805 329.175 261.831 328.61L261.804 327.535ZM248.346 356.925C250.072 355.985 251.93 354.753 253.826 354.039C255.698 353.333 257.412 353.212 258.867 354.324L259.52 353.469C257.628 352.024 255.457 352.274 253.446 353.032C251.46 353.781 249.439 355.105 247.832 355.98L248.346 356.925ZM258.868 354.325C260.97 355.921 263.116 358.008 265.44 360.127C267.749 362.231 270.216 364.349 272.906 365.936C275.601 367.525 278.541 368.594 281.795 368.575C285.052 368.556 288.57 367.448 292.417 364.776L291.804 363.893C288.099 366.465 284.789 367.482 281.789 367.499C278.784 367.517 276.035 366.532 273.452 365.009C270.865 363.483 268.466 361.429 266.165 359.332C263.88 357.249 261.672 355.103 259.519 353.468L258.868 354.325ZM291.599 364.5C294.158 372.409 299.533 377.642 305.139 380.37C310.71 383.082 316.622 383.363 320.216 381.168L319.655 380.25C316.499 382.178 311.009 382.031 305.61 379.403C300.245 376.792 295.084 371.777 292.622 364.169L291.599 364.5ZM268.003 305.966C235.421 304.95 220.75 315.411 216.48 325.698C214.353 330.824 214.832 335.884 216.994 339.32C219.171 342.78 223.049 344.562 227.514 343.044L227.168 342.026C223.215 343.369 219.841 341.824 217.905 338.747C215.954 335.647 215.46 330.962 217.474 326.111C221.486 316.445 235.556 306.03 267.97 307.042L268.003 305.966ZM273.179 284.999C266.326 281.532 257.607 281.012 248.936 282.362C240.257 283.714 231.563 286.947 224.718 291.064C217.904 295.161 212.801 300.208 211.506 305.243C210.85 307.792 211.174 310.329 212.725 312.685C214.265 315.024 216.987 317.144 221.052 318.951L221.489 317.968C217.531 316.208 215.01 314.199 213.624 312.093C212.249 310.006 211.963 307.785 212.548 305.512C213.733 300.903 218.517 296.048 225.273 291.985C231.998 287.941 240.56 284.755 249.101 283.425C257.65 282.094 266.116 282.632 272.693 285.959L273.179 284.999ZM249.72 220.284C249.595 220.284 249.498 220.327 249.475 220.337C249.433 220.355 249.395 220.375 249.364 220.393C249.301 220.429 249.23 220.476 249.155 220.529C249.002 220.635 248.799 220.787 248.553 220.979C248.058 221.363 247.365 221.923 246.504 222.633C244.782 224.052 242.375 226.078 239.514 228.507C233.79 233.365 226.238 239.843 218.685 246.319C211.132 252.796 203.578 259.271 197.848 264.127C194.983 266.556 192.576 268.577 190.853 269.991C189.991 270.699 189.305 271.251 188.819 271.625C188.575 271.813 188.388 271.952 188.258 272.041C188.191 272.087 188.149 272.114 188.125 272.127C188.112 272.134 188.114 272.132 188.127 272.127C188.133 272.124 188.149 272.118 188.172 272.112C188.192 272.106 188.237 272.095 188.298 272.095V273.171C188.418 273.171 188.512 273.132 188.538 273.121C188.581 273.103 188.621 273.082 188.652 273.065C188.717 273.028 188.79 272.981 188.867 272.928C189.022 272.822 189.227 272.669 189.476 272.477C189.975 272.093 190.672 271.532 191.536 270.823C193.265 269.403 195.678 267.377 198.544 264.948C204.277 260.089 211.833 253.612 219.386 247.136C226.939 240.659 234.488 234.183 240.21 229.327C243.071 226.899 245.473 224.877 247.189 223.463C248.047 222.755 248.731 222.203 249.213 221.828C249.455 221.64 249.64 221.501 249.77 221.411C249.835 221.366 249.878 221.339 249.901 221.325C249.914 221.318 249.912 221.32 249.899 221.325C249.893 221.328 249.877 221.335 249.853 221.341C249.834 221.347 249.785 221.359 249.72 221.359V220.284ZM188.298 272.095C186.125 272.095 183.354 272.592 180.595 272.943C177.792 273.299 174.959 273.514 172.507 273.013L172.292 274.067C174.932 274.606 177.92 274.367 180.73 274.01C183.584 273.647 186.216 273.171 188.298 273.171V272.095ZM172.506 273.013C158.338 270.159 142.085 262.769 128.492 255.829C121.7 252.361 115.587 249.014 110.737 246.408C108.315 245.106 106.204 243.988 104.485 243.135C102.777 242.287 101.418 241.682 100.514 241.428L100.223 242.463C101.017 242.687 102.293 243.248 104.006 244.098C105.708 244.943 107.805 246.054 110.228 247.356C115.069 249.957 121.197 253.313 128.003 256.787C141.604 263.732 157.969 271.183 172.293 274.068L172.506 273.013ZM100.369 241.407C100.176 241.407 100.04 241.501 99.9669 241.572C99.8976 241.64 99.857 241.711 99.8351 241.755C99.7907 241.844 99.7639 241.94 99.7464 242.014C99.7092 242.17 99.6803 242.373 99.6559 242.588C99.6063 243.024 99.565 243.604 99.5221 244.168C99.4785 244.742 99.433 245.302 99.375 245.727C99.3457 245.941 99.3159 246.101 99.2873 246.204C99.2726 246.257 99.264 246.273 99.267 246.267C99.2688 246.263 99.2802 246.242 99.305 246.213C99.3291 246.186 99.3812 246.135 99.4675 246.099L99.8801 247.092C100.087 247.006 100.185 246.833 100.221 246.765C100.267 246.676 100.3 246.578 100.324 246.493C100.372 246.318 100.41 246.101 100.441 245.872C100.504 245.41 100.552 244.817 100.595 244.249C100.639 243.672 100.678 243.12 100.725 242.709C100.748 242.502 100.771 242.353 100.793 242.263C100.805 242.214 100.809 242.213 100.797 242.236C100.792 242.247 100.768 242.294 100.716 242.344C100.661 242.398 100.543 242.483 100.369 242.483V241.407ZM95.9593 322.514C95.7467 328.663 95.4917 334.838 95.0387 340.961L96.1115 341.041C96.5661 334.896 96.8217 328.703 97.0345 322.551L95.9593 322.514ZM245.905 221.966C226.696 221.966 211.101 230.9 199.772 241.604C188.452 252.298 181.34 264.805 179.104 272.063L180.132 272.38C182.306 265.324 189.306 252.971 200.511 242.386C211.706 231.809 227.05 223.041 245.905 223.041V221.966ZM179.96 271.806C177.324 269.636 174.292 266.234 170.398 262.399C166.531 258.59 161.876 254.422 156.093 250.84C144.507 243.663 128.446 238.867 105.191 243.86L105.417 244.912C128.396 239.978 144.173 244.721 155.527 251.754C161.213 255.277 165.803 259.383 169.643 263.165C173.456 266.921 176.594 270.428 179.276 272.636L179.96 271.806ZM100.795 224.018C106.356 222.806 111.359 220.979 115.149 218.885C117.044 217.839 118.649 216.719 119.87 215.565C121.086 214.416 121.952 213.205 122.317 211.973C122.689 210.716 122.53 209.467 121.752 208.317C120.989 207.189 119.656 206.193 117.748 205.343C113.933 203.643 107.618 202.438 98.207 202.046L98.1622 203.121C107.535 203.512 113.685 204.71 117.31 206.326C119.122 207.133 120.254 208.022 120.861 208.919C121.453 209.794 121.569 210.709 121.286 211.667C120.995 212.65 120.272 213.705 119.131 214.783C117.994 215.857 116.47 216.927 114.629 217.944C110.948 219.977 106.046 221.772 100.566 222.967L100.795 224.018ZM98.207 202.046C84.7633 201.486 73.2991 206.833 63.4156 215.645C53.5412 224.449 45.2253 236.728 38.0468 250.088C30.8663 263.453 24.8066 277.933 19.4594 291.159C14.1053 304.403 9.47577 316.361 5.14042 324.742L6.09591 325.237C10.4613 316.798 15.1174 304.769 20.4567 291.563C25.8028 278.339 31.8439 263.906 38.9944 250.597C46.1469 237.285 54.3921 225.132 64.1315 216.448C73.8618 207.772 85.0641 202.576 98.1622 203.121L98.207 202.046ZM67.0547 275.281C77.0187 259.658 86.1621 251.699 93.782 248.562C101.368 245.44 107.459 247.084 111.48 250.737L112.204 249.94C107.857 245.992 101.32 244.296 93.3725 247.568C85.4595 250.825 76.1662 258.994 66.1477 274.702L67.0547 275.281ZM111.48 250.736C115.082 254.015 117.043 258.948 116.88 263.644C116.717 268.324 114.451 272.735 109.623 275.068L110.091 276.036C115.332 273.504 117.781 268.697 117.955 263.681C118.129 258.681 116.048 253.44 112.204 249.941L111.48 250.736ZM30.5078 270.07C41.9392 297.363 58.5057 321.324 78.9864 340.177L79.715 339.385C59.3554 320.644 42.8755 296.814 31.5001 269.655L30.5078 270.07ZM16.9725 307.826C28.6272 347.489 50.5322 374.996 67.2041 384.98L67.7568 384.057C51.3845 374.253 29.6086 347.013 18.0047 307.523L16.9725 307.826ZM82.0896 285.344C86.794 279.203 90.9248 275.26 94.4776 273.029C98.0283 270.799 100.95 270.309 103.288 270.966C105.628 271.625 107.515 273.47 108.912 276.195C110.309 278.919 111.189 282.473 111.53 286.428C112.212 294.341 110.727 303.731 107.096 311.023C103.463 318.316 97.7572 323.39 90.0145 323.001L89.9606 324.075C98.3074 324.494 104.33 318.99 108.059 311.502C111.789 304.014 113.298 294.422 112.601 286.335C112.253 282.291 111.349 278.59 109.869 275.704C108.39 272.818 106.305 270.697 103.579 269.931C100.85 269.163 97.6115 269.79 93.9055 272.118C90.2017 274.443 85.9801 278.497 81.2357 284.69L82.0896 285.344ZM90.0148 323.001C89.3873 322.969 88.9608 322.654 88.6569 322.056C88.3359 321.424 88.1709 320.501 88.1462 319.363C88.0973 317.099 88.6059 314.225 89.1883 311.777C89.7718 309.325 90.4108 307.373 90.5919 306.96C90.6018 306.938 90.6056 306.931 90.6041 306.934C90.6035 306.935 90.5972 306.946 90.5855 306.963C90.5814 306.969 90.5431 307.027 90.4708 307.08C90.434 307.107 90.3466 307.164 90.2178 307.179C90.0621 307.197 89.9079 307.145 89.7947 307.041C89.7012 306.955 89.6641 306.86 89.6501 306.818C89.6342 306.77 89.629 306.73 89.6269 306.71C89.6203 306.646 89.6294 306.603 89.6261 306.627C89.6184 306.68 89.5791 306.852 89.4842 307.192C89.3009 307.849 88.942 309.025 88.3419 310.854L89.3641 311.19C89.9659 309.355 90.3307 308.161 90.5204 307.481C90.6119 307.153 90.6714 306.914 90.6907 306.781C90.6941 306.757 90.7055 306.682 90.6969 306.599C90.6944 306.574 90.6884 306.531 90.6715 306.48C90.6565 306.435 90.6181 306.337 90.523 306.249C90.4083 306.144 90.2523 306.092 90.0946 306.11C89.9637 306.125 89.874 306.183 89.8347 306.212C89.7573 306.269 89.7129 306.334 89.7017 306.35C89.683 306.377 89.6686 306.402 89.6591 306.42C89.6396 306.455 89.6218 306.494 89.6066 306.529C89.3852 307.034 88.7284 309.063 88.1418 311.528C87.5542 313.998 87.0187 316.981 87.0707 319.386C87.0966 320.584 87.2684 321.698 87.698 322.543C88.1446 323.422 88.8824 324.021 89.9603 324.075L90.0148 323.001ZM88.3419 310.854C84.8693 321.435 81.7016 333.601 79.2338 341.651L80.2623 341.967C82.7582 333.824 85.8875 321.782 89.364 311.19L88.3419 310.854ZM79.2339 341.651C78.1845 345.071 76.4816 352.878 74.6047 360.837C72.7185 368.835 70.6581 376.981 68.8855 381.176L69.8764 381.595C71.6919 377.298 73.7726 369.052 75.6518 361.084C77.5403 353.076 79.2269 345.341 80.2623 341.967L79.2339 341.651ZM53.0612 264.536C55.9506 257.217 61.3 249.508 67.5869 242.804C73.8738 236.101 81.0646 230.439 87.6064 227.194C90.8778 225.571 93.9619 224.564 96.6734 224.319C99.3802 224.073 101.681 224.587 103.45 225.963C105.219 227.339 106.532 229.637 107.14 233.117C107.749 236.6 107.644 241.229 106.604 247.195L107.663 247.38C108.715 241.346 108.838 236.582 108.2 232.931C107.561 229.277 106.152 226.702 104.11 225.114C102.067 223.525 99.4695 222.985 96.5763 223.247C93.6877 223.509 90.4709 224.572 87.1282 226.23C80.4417 229.548 73.1508 235.299 66.8023 242.068C60.4538 248.837 55.0143 256.659 52.0606 264.141L53.0612 264.536ZM130.067 240.197C131.673 232.899 132.572 226.993 133.208 223.027C133.528 221.035 133.777 219.559 134.013 218.632C134.135 218.155 134.238 217.889 134.312 217.773C134.351 217.711 134.334 217.769 134.235 217.805C134.089 217.86 133.967 217.802 133.931 217.775L134.569 216.909C134.392 216.779 134.136 216.694 133.86 216.797C133.63 216.882 133.488 217.063 133.403 217.197C133.229 217.472 133.093 217.888 132.971 218.367C132.72 219.351 132.463 220.881 132.146 222.857C131.509 226.828 130.615 232.703 129.016 239.966L130.067 240.197ZM133.955 217.792C154.487 231.227 165.545 242.146 171.575 251.068C177.59 259.97 178.618 266.911 179.025 272.458L180.098 272.379C179.682 266.713 178.619 259.572 172.466 250.466C166.327 241.381 155.141 230.369 134.544 216.892L133.955 217.792ZM172.415 273.763C172.352 273.947 172.304 274.213 172.262 274.52C172.218 274.837 172.177 275.237 172.137 275.709C172.057 276.653 171.983 277.908 171.913 279.422C171.773 282.452 171.651 286.54 171.544 291.302C171.332 300.825 171.181 313.058 171.074 324.945C170.968 336.833 170.906 348.376 170.871 356.522C170.853 360.595 170.842 363.818 170.835 365.811C170.832 366.807 170.83 367.495 170.828 367.828C170.828 367.911 170.828 367.972 170.827 368.009C170.827 368.028 170.827 368.04 170.827 368.045C170.827 368.054 170.827 368.043 170.828 368.029C170.853 367.892 171.502 367.539 171.901 368.026C171.902 368.035 171.902 368.046 171.902 368.047C171.902 368.048 171.902 368.042 171.902 368.024C171.902 368.009 171.902 367.987 171.902 367.959C171.902 367.902 171.902 367.821 171.902 367.715H170.826C170.826 367.923 170.826 368.043 170.827 368.067C170.827 368.071 170.827 368.083 170.828 368.093C171.228 368.58 171.876 368.227 171.902 368.089C171.902 368.082 171.902 368.072 171.903 368.068C171.903 368.066 171.903 368.062 171.903 368.06C171.903 368.05 171.903 368.035 171.903 368.016C171.903 367.977 171.904 367.916 171.904 367.832C171.905 367.499 171.908 366.81 171.911 365.814C171.917 363.822 171.929 360.599 171.946 356.527C171.982 348.382 172.044 336.84 172.15 324.955C172.257 313.069 172.407 300.842 172.62 291.326C172.726 286.567 172.848 282.489 172.987 279.472C173.057 277.963 173.131 276.724 173.209 275.799C173.248 275.337 173.288 274.958 173.328 274.666C173.369 274.362 173.407 274.186 173.434 274.108L172.415 273.763ZM187.334 272.84C187.27 273.028 187.225 273.297 187.189 273.602C187.151 273.92 187.118 274.317 187.089 274.786C187.031 275.724 186.989 276.969 186.96 278.469C186.901 281.472 186.896 285.521 186.929 290.235C186.996 299.664 187.217 311.77 187.483 323.532C187.749 335.294 188.06 346.713 188.303 354.768C188.425 358.796 188.531 361.984 188.605 363.953C188.643 364.936 188.673 365.622 188.694 365.957C188.699 366.039 188.704 366.109 188.709 366.158C188.711 366.175 188.715 366.219 188.725 366.262C188.729 366.276 188.739 366.311 188.747 366.333C188.763 366.371 188.833 366.484 188.898 366.552C189.09 366.66 189.501 366.624 189.658 366.5C189.706 366.436 189.758 366.331 189.77 366.295C189.785 366.245 189.789 366.201 189.79 366.193C189.792 366.175 189.793 366.159 189.794 366.146C189.796 366.12 189.797 366.09 189.798 366.059C189.799 365.995 189.8 365.91 189.8 365.802H188.724C188.724 365.907 188.723 365.983 188.722 366.033C188.722 366.059 188.721 366.073 188.721 366.08C188.719 366.113 188.719 366.058 188.738 365.993C188.749 365.96 188.8 365.857 188.848 365.793C189.004 365.67 189.414 365.634 189.605 365.741C189.67 365.808 189.74 365.921 189.755 365.957C189.761 365.976 189.771 366.008 189.773 366.019C189.78 366.048 189.781 366.066 189.779 366.045C189.776 366.021 189.772 365.971 189.767 365.89C189.747 365.57 189.718 364.897 189.68 363.912C189.606 361.947 189.5 358.762 189.379 354.736C189.135 346.683 188.825 335.266 188.559 323.507C188.293 311.748 188.071 299.648 188.005 290.227C187.972 285.516 187.977 281.479 188.035 278.49C188.064 276.996 188.106 275.768 188.163 274.852C188.191 274.394 188.223 274.019 188.257 273.73C188.293 273.429 188.328 273.258 188.353 273.185L187.334 272.84ZM249.696 268.602C254.38 268.32 260.774 269.741 268.285 272.186C275.779 274.626 284.317 278.06 293.267 281.755L293.677 280.76C284.729 277.067 276.156 273.617 268.618 271.163C261.095 268.714 254.534 267.233 249.631 267.528L249.696 268.602Z" fill="#21222F"/>
<path fill-rule="evenodd" clip-rule="evenodd" d="M298.181 48C295.538 59.2899 302.253 62.5976 308.217 63.7691C297.074 64.0792 295.788 65.6182 292.741 77C294.003 68.478 293.931 62.2531 282.217 58.3711C284.538 58.7501 296.062 63.8036 298.181 48Z" stroke="#F6B642" stroke-width="0.627624" stroke-linecap="round" stroke-linejoin="round"/>
<path fill-rule="evenodd" clip-rule="evenodd" d="M247.197 2.62669C248.903 9.32686 253.247 9.32985 256.627 8.39225C250.99 11.4738 250.748 12.6293 252.271 19.4843C250.607 14.6187 248.881 11.3245 241.814 12.3245C243.124 11.9492 250.424 11.6009 247.197 2.62669Z" stroke="#F6B642" stroke-width="0.627624" stroke-linecap="round" stroke-linejoin="round"/>
<path d="M313.217 49C311.79 50.8387 310.829 51.7923 310.013 54.0015" stroke="#F6B642" stroke-width="0.627624" stroke-linecap="round" stroke-linejoin="round"/>
</svg>
