<svg width="40" height="40" viewBox="0 0 40 40" fill="none" xmlns="http://www.w3.org/2000/svg">
<path d="M19.9997 37.8574C31.4283 37.8574 37.8569 31.4288 37.8569 20.0002C37.8569 8.57164 31.4283 2.14307 19.9997 2.14307C8.57115 2.14307 2.14258 8.57164 2.14258 20.0002C2.14258 31.4288 8.57115 37.8574 19.9997 37.8574Z" stroke="#0DA88C" stroke-width="1.71429" stroke-linecap="round" stroke-linejoin="round"/>
<path d="M12.8574 27.1426L27.1431 12.8569" stroke="#F6B642" stroke-width="2" stroke-linecap="round" stroke-linejoin="round"/>
<path d="M25.5878 28.4885C27.0671 28.4885 28.2663 27.2892 28.2663 25.8099C28.2663 24.3306 27.0671 23.1313 25.5878 23.1313C24.1084 23.1313 22.9092 24.3306 22.9092 25.8099C22.9092 27.2892 24.1084 28.4885 25.5878 28.4885Z" fill="white" stroke="#F6B642" stroke-width="2" stroke-linecap="round" stroke-linejoin="round"/>
<path d="M14.412 16.8689C15.8913 16.8689 17.0905 15.6696 17.0905 14.1903C17.0905 12.711 15.8913 11.5117 14.412 11.5117C12.9326 11.5117 11.7334 12.711 11.7334 14.1903C11.7334 15.6696 12.9326 16.8689 14.412 16.8689Z" fill="white" stroke="#F6B642" stroke-width="2" stroke-linecap="round" stroke-linejoin="round"/>
</svg>
