<?xml version="1.0" encoding="UTF-8"?> <svg xmlns="http://www.w3.org/2000/svg" width="39" height="48" viewBox="0 0 39 48" fill="none"><path d="M38.0981 3.95729C37.8149 3.73167 37.484 3.57143 37.1297 3.48834C36.7754 3.40524 36.4066 3.40142 36.0506 3.47714C33.446 4.01477 30.7572 4.02162 28.1498 3.49727C25.5424 2.97291 23.0715 1.92845 20.8894 0.428187C20.4813 0.149394 19.9966 0 19.5 0C19.0034 0 18.5187 0.149394 18.1106 0.428187C15.9285 1.92845 13.4576 2.97291 10.8502 3.49727C8.2428 4.02162 5.55401 4.01477 2.94939 3.47714C2.59336 3.40142 2.22463 3.40524 1.87031 3.48834C1.51598 3.57143 1.18507 3.73167 0.901888 3.95729C0.619088 4.18325 0.391284 4.46874 0.235214 4.79279C0.0791443 5.11684 -0.00122409 5.47122 1.40924e-05 5.82988V23.7155C-0.00215293 27.1575 0.830648 30.5503 2.42907 33.6113C4.02748 36.6722 6.34526 39.3128 9.18938 41.313L18.0863 47.5549C18.4991 47.8444 18.9932 48 19.5 48C20.0068 48 20.5009 47.8444 20.9137 47.5549L29.8106 41.313C32.6547 39.3128 34.9725 36.6722 36.5709 33.6113C38.1694 30.5503 39.0022 27.1575 39 23.7155V5.82988C39.0012 5.47122 38.9209 5.11684 38.7648 4.79279C38.6087 4.46874 38.3809 4.18325 38.0981 3.95729ZM34.125 23.7155C34.1269 26.3917 33.4798 29.0297 32.2375 31.4099C30.9953 33.7901 29.1938 35.8437 26.9831 37.3998L19.5 42.6574L12.0169 37.3998C9.80616 35.8437 8.00472 33.7901 6.76249 31.4099C5.52025 29.0297 4.87314 26.3917 4.87501 23.7155V8.59074C9.98505 9.02152 15.1029 7.85377 19.5 5.2537C23.8971 7.85377 29.0149 9.02152 34.125 8.59074V23.7155ZM23.2537 18.2178L16.6969 24.6998L14.5275 22.5391C14.0685 22.087 13.446 21.8331 12.7969 21.8331C12.1478 21.8331 11.5252 22.087 11.0663 22.5391C10.6073 22.9912 10.3494 23.6043 10.3494 24.2436C10.3494 24.883 10.6073 25.4961 11.0663 25.9482L14.9663 29.7894C15.1929 30.0144 15.4624 30.193 15.7595 30.3149C16.0565 30.4368 16.3751 30.4995 16.6969 30.4995C17.0187 30.4995 17.3372 30.4368 17.6343 30.3149C17.9313 30.193 18.2009 30.0144 18.4275 29.7894L26.8125 21.6028C27.2715 21.1507 27.5293 20.5376 27.5293 19.8983C27.5293 19.259 27.2715 18.6458 26.8125 18.1937C26.3535 17.7417 25.731 17.4877 25.0819 17.4877C24.4328 17.4877 23.8102 17.7417 23.3512 18.1937L23.2537 18.2178Z" fill="white"></path></svg> 