<svg width="429" height="519" viewBox="0 0 429 519" fill="none" xmlns="http://www.w3.org/2000/svg">
<path d="M169.448 315.554L168.207 306.086C161.465 305.471 154.673 305.661 147.977 306.655C148.265 308.853 148.3 311.075 148.08 313.278C147.718 315.184 140.009 320.211 139.078 323.47C138.095 326.833 137.37 329.461 135.973 333.87C133.697 341.061 138.969 338.371 145.597 328.851C146.235 327.947 147.069 327.198 148.037 326.662C149.004 326.125 150.08 325.812 151.185 325.747C149.603 328.633 148.668 331.827 148.442 335.111C143.879 337.845 138.918 339.852 133.738 341.061C127.167 342.614 128.616 345.045 133.065 345.201C136.35 345.108 139.614 344.64 142.792 343.804C140.892 345.203 138.905 346.483 136.842 347.632C130.685 350.9 130.219 354.462 136.118 352.703C140.648 351.278 144.991 349.315 149.052 346.856C147.142 349.645 145.033 352.289 142.74 354.772C136.749 361.395 138.86 364.189 144.189 360.515C148.49 357.411 152.383 353.778 155.778 349.702C154.796 353.059 153.621 356.36 152.26 359.584C148.176 369.259 152.829 367.862 156.244 363.05C161.625 355.497 170.265 338.061 170.886 334.594C170.924 328.219 170.443 321.85 169.448 315.554Z" fill="white"/>
<path d="M243.641 162.719C237.846 145.076 226.929 157.907 225.124 166.703C224.607 168.41 223.572 168.513 221.45 165.823C217.053 160.184 210.286 168.565 219.433 176.171C220.416 176.947 222.7 190.968 218.191 201.005C217.329 203.064 216.059 204.928 214.459 206.484C212.859 208.039 210.96 209.256 208.878 210.06C217.901 207.102 227.21 205.108 236.654 204.11C232.928 200.488 233.911 196.297 234.475 191.486C248.725 193.966 248.044 176.372 243.641 162.719Z" fill="white"/>
<path d="M335.943 274.785L266.303 293.411C247.685 299.108 228.041 300.627 208.769 297.861C203.114 311.795 199.846 329.222 206.803 342.615V342.666C198.658 361.84 188.659 380.171 176.95 397.401C148.514 393.436 120.324 387.872 92.5123 380.741C82.4695 395.154 77.8321 404.238 80.4054 428.34C110.983 438.171 136.025 445.569 165.309 452.14C174.638 454.242 184.374 453.632 193.368 450.381C202.361 447.13 210.237 441.373 216.065 433.789C231.276 413.437 245.27 392.205 257.973 370.202L230.617 360.595C254.438 367.09 285.005 355.097 304.494 345.15V345.202L288.7 411.373C301.05 421.361 319.88 425.135 335.11 422.6L369.516 309.592C370.949 304.875 371.096 299.859 369.941 295.067C368.789 290.274 366.377 285.876 362.954 282.328C359.531 278.78 355.223 276.209 350.474 274.883C345.725 273.557 340.709 273.524 335.943 274.785Z" fill="#F6B642"/>
<path d="M373.764 214.664C373.506 214.716 370.919 214.871 370.919 214.871C371.436 214.768 375.94 213.796 376.403 213.681C380.67 212.633 379.249 205.24 374.023 206.179C372.117 206.541 366.625 207.628 364.607 207.99C350.482 210.525 345.515 211.353 341.531 213.436C350.016 219.8 355.501 230.148 358.45 241.484C361.671 240.64 374.418 238.216 374.696 238.173C379.053 237.449 378.059 230.36 372.73 230.821L375.575 230.407C379.804 229.59 379.026 223 374.372 222.719C375.153 222.613 375.864 222.51 376.196 222.447C380.698 221.388 379.352 213.94 373.764 214.664Z" fill="white"/>
<path d="M176.537 309.916C176.382 308.363 173.95 306.708 168.311 305.983L169.345 314.003C173.64 313.486 176.7 311.726 176.537 309.916Z" fill="#015D61"/>
<path d="M148.027 306.604C140.947 307.693 138.115 309.499 138.041 311.157C137.954 313.123 141.819 314.882 147.148 314.675C147.597 314.286 147.936 313.788 148.131 313.227C148.377 311.024 148.342 308.799 148.027 306.604Z" fill="#015D61"/>
<path d="M87.4944 387.99C81.7342 385.751 75.8422 383.867 69.8514 382.35C53.9159 391.508 31.7281 401.311 9.26528 420.689C8.82605 421.053 8.50254 421.538 8.33398 422.085C22.1063 422.655 35.9015 422.273 49.6216 420.947C59.2967 420.171 70.0066 418.516 79.6818 419.964C79.4286 407.92 80.7847 399.255 87.4944 387.99Z" fill="#015D61"/>
<path d="M328.442 454.213C327.625 444.279 325.907 433.207 327.562 423.442C316.441 423.807 305.418 421.255 295.588 416.043C293.491 421.569 291.677 427.2 290.155 432.91C299.779 449.105 309.713 472.025 329.578 496.029C330.152 482.081 329.771 468.109 328.442 454.213Z" fill="#015D61"/>
<path d="M360.829 202.092L374.281 199.66L341.945 21.8338L324.095 0L360.829 202.092Z" fill="#015D61"/>
<path d="M322.337 0.310791L313.282 27.0598L345.671 204.886L359.071 202.454L322.337 0.310791Z" fill="#015D61"/>
<path d="M236.967 141.195C236.569 140.241 235.856 139.451 234.949 138.956C234.04 138.461 232.991 138.289 231.973 138.47C230.954 138.651 230.029 139.173 229.348 139.95C228.667 140.728 228.269 141.714 228.223 142.747C228.12 142.747 228.068 142.799 227.964 142.799C227.529 141.812 226.761 141.011 225.794 140.537C224.825 140.062 223.722 139.945 222.676 140.206C221.628 140.466 220.709 141.088 220.077 141.961C219.445 142.834 219.142 143.902 219.221 144.977C219.169 144.977 219.117 145.029 219.065 145.029C218.55 143.971 217.644 143.153 216.539 142.748C215.434 142.343 214.214 142.382 213.137 142.857C212.06 143.331 211.208 144.204 210.761 145.293C210.314 146.382 210.305 147.602 210.738 148.697C210.264 147.837 209.523 147.155 208.627 146.754C207.731 146.353 206.728 146.254 205.771 146.472C205.047 146.649 204.376 146.999 203.816 147.49C203.256 147.982 202.823 148.602 202.554 149.297C202.285 149.992 202.187 150.742 202.27 151.483C202.353 152.224 202.613 152.934 203.029 153.552C206.082 159.295 221.707 189.925 218.188 200.934C222.638 190.897 220.367 176.876 219.43 176.099C210.324 168.546 217.05 160.112 221.448 165.752C223.569 168.442 224.552 168.339 225.121 166.631C226.932 157.836 237.849 145.004 243.639 162.647C236.213 138.695 237.392 142.472 236.967 141.195Z" fill="#015D61"/>
<path d="M198.835 254.297C194.371 255.868 190.045 257.806 185.9 260.091L196.093 248.554C197.11 250.417 198.025 252.334 198.835 254.297Z" fill="#015D61"/>
<path d="M267.958 286.322L244.158 249.122L268.372 277.009C268.573 280.119 268.435 283.242 267.958 286.322Z" fill="#015D61"/>
<path d="M263.613 360.361C261.75 363.629 259.888 366.88 257.922 370.192L228.12 359.74C238.727 363.517 251.765 362.896 263.613 360.361Z" fill="#015D61"/>
<path d="M364.815 255.952L374.386 254.193L371.592 238.879C368.798 239.5 365.487 239.968 362.062 240.69L364.815 255.952Z" fill="#015D61"/>
<path d="M365.9 207.835L364.71 201.419L355.139 203.178L356.329 209.594C358.058 209.283 364.882 208.044 365.9 207.835Z" fill="#015D61"/>
<path d="M310.489 482.205C296.568 496.025 280.812 507.862 263.665 517.387C227.913 505.229 195.315 482.205 167.845 452.662" stroke="#015D61" stroke-width="1.5" stroke-linecap="round" stroke-linejoin="round"/>
<path d="M333.356 134.871C296.472 120.564 260.557 103.868 225.843 84.8916C177.41 120.758 126.893 153.722 74.5586 183.609L81.3364 260.804C85.75 305.293 99.2571 348.406 121.02 387.46" stroke="#015D61" stroke-width="1.5" stroke-linecap="round" stroke-linejoin="round"/>
<path d="M328.752 462.182C379.922 399.527 405.481 309.76 398.755 232.979L391.977 155.837C382.767 152.842 373.61 149.732 364.607 146.524" stroke="#015D61" stroke-width="1.5" stroke-linecap="round" stroke-linejoin="round"/>
<path d="M208.717 210.111C224.756 204.575 220.734 177.241 219.427 176.119C210.419 168.396 217.03 160.142 221.445 165.771C222.989 167.743 224.617 168.963 225.148 166.504C227.215 156.932 239.986 142.726 245.089 168.358C252.063 203.388 226.67 188.691 226.67 188.691" stroke="#015D61" stroke-width="1.5" stroke-linecap="round" stroke-linejoin="round"/>
<path d="M147.148 314.675C141.818 314.882 137.954 313.12 138.041 311.157C138.24 306.674 154.508 305.822 158.933 305.686C163.23 305.555 176.257 305.623 176.535 309.915C176.535 310.514 176.037 313.183 169.343 314" stroke="#015D61" stroke-width="1.5" stroke-linecap="round" stroke-linejoin="round"/>
<path d="M169.448 315.554C170.382 321.858 170.884 328.219 170.949 334.594C170.328 338.061 161.69 355.491 156.307 363.05C152.886 367.859 148.238 369.262 152.323 359.584C154.661 353.773 156.597 347.809 158.118 341.734C162.366 325.591 150.457 322.177 145.752 328.748C139.001 338.178 133.849 340.958 136.129 333.766C137.523 329.368 138.25 326.73 139.233 323.367C139.995 320.777 145.079 316.927 147.081 314.775C147.531 314.364 147.874 313.85 148.08 313.278C148.3 311.075 148.265 308.853 147.977 306.655C154.673 305.661 161.465 305.471 168.207 306.086C168.207 306.086 168.547 308.452 169.448 315.554Z" stroke="#015D61" stroke-width="1.5" stroke-linecap="round" stroke-linejoin="round"/>
<path d="M155.84 349.645C152.444 353.719 148.551 357.352 144.251 360.459C138.919 364.129 136.806 361.344 142.802 354.716C147.003 350.073 150.713 345.011 153.874 339.608" stroke="#015D61" stroke-width="1.5" stroke-linecap="round" stroke-linejoin="round"/>
<path d="M149.741 336.715C152.245 338.804 155.054 340.498 158.071 341.734" stroke="#015D61" stroke-width="1.5" stroke-linecap="round" stroke-linejoin="round"/>
<path d="M149.115 346.805C145.035 349.264 140.674 351.225 136.125 352.641C130.23 354.408 130.679 350.811 136.85 347.571C141.786 344.717 146.4 341.337 150.612 337.495" stroke="#015D61" stroke-width="1.5" stroke-linecap="round" stroke-linejoin="round"/>
<path d="M142.854 343.752C139.675 344.583 136.412 345.054 133.128 345.149C128.678 344.975 127.232 342.573 133.8 341.01C138.982 339.806 143.944 337.797 148.505 335.06C148.73 331.776 149.666 328.582 151.247 325.695" stroke="#015D61" stroke-width="1.5" stroke-linecap="round" stroke-linejoin="round"/>
<path d="M185.9 260.09L196.093 248.553C197.125 250.407 198.056 252.316 198.881 254.271" stroke="#015D61" stroke-width="1.5" stroke-linecap="round" stroke-linejoin="round"/>
<path d="M267.958 286.322L244.158 249.174L268.372 277.061" stroke="#015D61" stroke-width="1.5" stroke-linecap="round" stroke-linejoin="round"/>
<path d="M176.537 309.915C175.657 298.584 174.358 272.094 174.467 266.093C181.275 262.844 190.969 256.769 198.882 254.282C204.01 266.596 206.646 283.003 208.718 297.912C227.99 300.703 247.639 299.184 266.252 293.462C268.035 288.188 268.757 282.614 268.373 277.061C268.101 276.402 280.564 293.419 298.485 282.183L359.226 244.828C356.174 230.548 349.241 217.199 337.548 210.939L287.568 245.25C266.252 212.861 266.249 199.603 231.638 204.676C206.698 208.338 180.793 219.699 156.514 236.237C138.413 248.564 137.997 255.328 137.422 273.385C136.895 285.977 137.119 298.59 138.095 311.154" stroke="#015D61" stroke-width="1.5" stroke-linecap="round" stroke-linejoin="round"/>
<path d="M319.334 336.872C319.334 336.872 313.54 340.597 304.485 345.202" stroke="#015D61" stroke-width="1.5" stroke-linecap="round" stroke-linejoin="round"/>
<path d="M263.566 360.671C249.433 386.13 233.544 410.575 216.018 433.83C210.192 441.414 202.317 447.173 193.324 450.427C184.33 453.681 174.594 454.297 165.263 452.197C135.981 445.61 110.937 438.228 80.3592 428.346C79.5423 418.191 78.7254 408.543 82.7556 397.716C85.1764 391.641 88.4269 385.931 92.4144 380.746C120.226 387.878 148.416 393.441 176.852 397.406C188.7 380.191 198.657 361.75 206.55 342.399" stroke="#015D61" stroke-width="1.5" stroke-linecap="round" stroke-linejoin="round"/>
<path d="M234.482 191.517C233.91 196.315 232.941 200.504 236.66 204.109" stroke="#015D61" stroke-width="1.5" stroke-linecap="round" stroke-linejoin="round"/>
<path d="M8.3333 422.079C6.78114 421.976 5.12549 421.935 3.57333 421.821C3.01319 421.78 2.47892 421.567 2.04077 421.216C1.60263 420.865 1.28103 420.391 1.11873 419.852C0.956436 419.315 0.960524 418.741 1.13099 418.204C1.30118 417.671 1.62959 417.2 2.07291 416.854C12.5334 408.674 23.6619 401.387 35.341 395.069C45.6479 389.448 54.8982 385.083 62.3486 380.686C64.8838 381.203 67.3673 381.669 69.8508 382.341" stroke="#015D61" stroke-width="1.5" stroke-linecap="round" stroke-linejoin="round"/>
<path d="M87.4944 387.989C80.8228 399.189 79.4231 407.846 79.6818 419.964C70.0066 418.515 59.2967 420.168 49.6216 420.947C35.9015 422.27 22.1063 422.649 8.33398 422.08C8.50254 421.532 8.82605 421.048 9.26528 420.683C31.7417 401.302 53.9241 391.502 69.8514 382.344C75.8379 383.88 81.729 385.764 87.4944 387.989Z" stroke="#015D61" stroke-width="1.5" stroke-linecap="round" stroke-linejoin="round"/>
<path d="M329.577 496.017C329.476 497.4 329.422 498.83 329.269 500.211C329.225 500.769 329.016 501.303 328.665 501.741C328.311 502.177 327.837 502.498 327.3 502.661C326.761 502.822 326.189 502.819 325.653 502.65C325.119 502.479 324.648 502.152 324.302 501.711C305.899 478.252 296.932 456.336 288.137 441.435C288.706 438.538 289.43 435.744 290.155 432.898" stroke="#015D61" stroke-width="1.5" stroke-linecap="round" stroke-linejoin="round"/>
<path d="M327.014 438.061C326.652 433.181 326.818 428.274 327.51 423.43C316.389 423.795 305.365 421.243 295.535 416.031C293.447 421.88 291.723 426.812 290.154 432.898C299.778 449.092 309.709 472.01 329.577 496.017C330.914 472.124 327.6 448.493 327.014 438.061Z" stroke="#015D61" stroke-width="1.5" stroke-linecap="round" stroke-linejoin="round"/>
<path d="M331.494 207.472L388.459 197.073" stroke="#015D61" stroke-width="1.5" stroke-linecap="round" stroke-linejoin="round"/>
<path d="M13.6104 332.214L25.1998 345.821L35.3924 323.729" stroke="#015D61" stroke-width="1.5" stroke-linecap="round" stroke-linejoin="round"/>
<path d="M423.294 478.065L422.048 463.549L396.438 465.802L397.685 480.319C397.811 482.031 398.273 483.701 399.044 485.231C399.813 486.762 400.878 488.123 402.174 489.236C403.472 490.347 404.973 491.188 406.595 491.711C408.216 492.233 409.926 492.425 411.622 492.276C413.316 492.126 414.967 491.64 416.473 490.842C417.982 490.046 419.318 488.953 420.404 487.631C421.489 486.31 422.303 484.782 422.801 483.14C423.296 481.498 423.463 479.774 423.294 478.065Z" stroke="#015D61" stroke-width="1.5" stroke-linecap="round" stroke-linejoin="round"/>
<path d="M396.374 466.333L395.546 457.055C395.294 453.655 396.397 450.291 398.615 447.692C400.836 445.095 403.995 443.473 407.406 443.176C410.818 442.879 414.213 443.934 416.849 446.108C419.487 448.285 421.161 451.407 421.502 454.8" stroke="#015D61" stroke-width="1.5" stroke-linecap="round" stroke-linejoin="round"/>
<path d="M407.974 479.041C408.032 479.661 408.36 480.232 408.883 480.634C409.409 481.033 410.087 481.23 410.773 481.177C411.459 481.125 412.092 480.829 412.536 480.356C412.978 479.881 413.197 479.268 413.138 478.648L412.752 474.977C412.694 474.357 412.369 473.785 411.843 473.384C411.317 472.985 410.639 472.787 409.953 472.84C409.267 472.893 408.634 473.189 408.19 473.662C407.747 474.137 407.529 474.749 407.587 475.369L407.974 479.041Z" stroke="#015D61" stroke-width="1.5" stroke-linecap="round" stroke-linejoin="round"/>
<path d="M107.723 96.5844C107.887 98.4568 107.491 100.336 106.587 101.983C105.683 103.631 104.31 104.974 102.643 105.842C100.976 106.709 99.0887 107.063 97.2204 106.858C95.3518 106.654 93.5862 105.9 92.1465 104.691C90.7068 103.483 89.6576 101.875 89.1315 100.07C88.6056 98.2659 88.6266 96.3461 89.1919 94.5535C89.7572 92.7609 90.8413 91.176 92.3072 89.9997C93.773 88.8233 95.5547 88.1079 97.4271 87.944C99.9381 87.7256 102.433 88.5131 104.363 90.1334C106.294 91.7533 107.502 94.0737 107.723 96.5844Z" stroke="#015D61" stroke-width="1.5" stroke-linecap="round" stroke-linejoin="round"/>
<path d="M372.782 230.807C378.111 230.341 379.045 237.533 374.688 238.205C374.326 238.263 363.978 240.068 358.442 241.517C355.493 230.186 350 219.838 341.523 213.469C345.507 211.399 350.474 210.571 364.599 208.023C366.617 207.66 372.098 206.563 374.015 206.212C379.236 205.253 380.662 212.668 376.395 213.714C375.932 213.828 371.428 214.803 370.911 214.904C371.17 214.852 373.547 214.743 373.808 214.697C379.374 213.728 380.741 221.319 376.188 222.354L371.791 223.027C372.101 222.975 373.084 222.872 373.395 222.82C378.879 222.199 380.053 229.418 375.573 230.374C374.9 230.537 373.506 230.703 372.782 230.807Z" stroke="#015D61" stroke-width="1.5" stroke-linecap="round" stroke-linejoin="round"/>
<path d="M243.641 162.667L237.018 141.195C236.591 140.247 235.861 139.468 234.94 138.981C234.02 138.495 232.966 138.33 231.939 138.511C230.916 138.692 229.982 139.21 229.284 139.982C228.587 140.754 228.168 141.737 228.092 142.774C227.629 141.788 226.839 140.993 225.856 140.525C224.873 140.056 223.759 139.944 222.703 140.206C221.646 140.469 220.712 141.091 220.063 141.965C219.413 142.839 219.088 143.912 219.141 144.999C216.617 139.499 208.249 143.518 210.735 148.697C210.261 147.838 209.519 147.155 208.623 146.754C207.727 146.353 206.725 146.254 205.768 146.472C205.039 146.643 204.363 146.987 203.797 147.476C203.23 147.966 202.791 148.585 202.517 149.281C202.242 149.977 202.14 150.729 202.22 151.473C202.299 152.217 202.558 152.931 202.974 153.552C206.026 159.295 221.652 189.873 218.133 200.893" stroke="#015D61" stroke-width="1.5" stroke-linecap="round" stroke-linejoin="round"/>
<path d="M415.933 92.2366L416.861 97.8061" stroke="#015D61" stroke-width="1.5" stroke-linecap="round" stroke-linejoin="round"/>
<path d="M411.292 103.376L405.723 104.305" stroke="#015D61" stroke-width="1.5" stroke-linecap="round" stroke-linejoin="round"/>
<path d="M428 102.448H422.431" stroke="#015D61" stroke-width="1.5" stroke-linecap="round" stroke-linejoin="round"/>
<path d="M417.789 114.516V108.946" stroke="#015D61" stroke-width="1.5" stroke-linecap="round" stroke-linejoin="round"/>
<path d="M422.43 102.888C421.699 102.953 420.962 102.872 420.262 102.652C419.561 102.431 418.911 102.075 418.347 101.603C417.786 101.131 417.322 100.553 416.982 99.9013C416.644 99.25 416.436 98.5382 416.373 97.8066C416.436 98.5382 416.357 99.2751 416.137 99.9755C415.916 100.676 415.56 101.326 415.087 101.889C414.616 102.451 414.036 102.915 413.386 103.254C412.735 103.593 412.023 103.8 411.291 103.864C412.023 103.8 412.759 103.88 413.461 104.101C414.16 104.321 414.81 104.678 415.374 105.15C415.935 105.621 416.399 106.2 416.739 106.851C417.078 107.502 417.285 108.214 417.349 108.946C417.285 108.214 417.364 107.477 417.586 106.777C417.806 106.076 418.162 105.426 418.634 104.864C419.106 104.301 419.685 103.837 420.335 103.498C420.987 103.159 421.699 102.952 422.43 102.888Z" stroke="#015D61" stroke-width="1.5" stroke-linecap="round" stroke-linejoin="round"/>
<path d="M258.077 370.245L229.055 360.175" stroke="#015D61" stroke-width="1.5" stroke-linecap="round" stroke-linejoin="round"/>
<path d="M266.2 293.462L335.84 274.836C340.614 273.562 345.641 273.584 350.401 274.904C355.163 276.225 359.485 278.793 362.919 282.344C366.353 285.895 368.776 290.298 369.939 295.102C371.099 299.902 370.955 304.929 369.522 309.657L335.116 422.665C327.371 423.899 319.466 423.673 311.806 422.001C303.384 420.34 295.47 416.721 288.706 411.438L304.5 345.212C286.759 354.302 261.775 363.814 240.842 362.305C216.904 360.578 199.244 345.193 203.403 316.557C204.375 310.163 206.166 303.919 208.732 297.983" stroke="#015D61" stroke-width="1.5" stroke-linecap="round" stroke-linejoin="round"/>
<path d="M287.568 245.242L290.311 249.174" stroke="#015D61" stroke-width="1.5" stroke-linecap="round" stroke-linejoin="round"/>
</svg>
