<?xml version="1.0" encoding="UTF-8"?> <svg xmlns="http://www.w3.org/2000/svg" width="45" height="45" viewBox="0 0 45 45" fill="none"><path d="M26.5909 16.3636H18.4091C17.8666 16.3636 17.3463 16.5791 16.9627 16.9627C16.5791 17.3463 16.3636 17.8666 16.3636 18.4091V42.9545C16.3636 43.497 16.5791 44.0173 16.9627 44.4009C17.3463 44.7845 17.8666 45 18.4091 45H26.5909C27.1334 45 27.6537 44.7845 28.0373 44.4009C28.4209 44.0173 28.6364 43.497 28.6364 42.9545V18.4091C28.6364 17.8666 28.4209 17.3463 28.0373 16.9627C27.6537 16.5791 27.1334 16.3636 26.5909 16.3636ZM24.5455 40.9091H20.4545V20.4545H24.5455V40.9091ZM42.9545 0H34.7727C34.2302 0 33.71 0.215503 33.3264 0.5991C32.9428 0.982697 32.7273 1.50297 32.7273 2.04545V42.9545C32.7273 43.497 32.9428 44.0173 33.3264 44.4009C33.71 44.7845 34.2302 45 34.7727 45H42.9545C43.497 45 44.0173 44.7845 44.4009 44.4009C44.7845 44.0173 45 43.497 45 42.9545V2.04545C45 1.50297 44.7845 0.982697 44.4009 0.5991C44.0173 0.215503 43.497 0 42.9545 0ZM40.9091 40.9091H36.8182V4.09091H40.9091V40.9091ZM10.2273 28.6364H2.04545C1.50297 28.6364 0.982697 28.8519 0.5991 29.2355C0.215503 29.6191 0 30.1393 0 30.6818V42.9545C0 43.497 0.215503 44.0173 0.5991 44.4009C0.982697 44.7845 1.50297 45 2.04545 45H10.2273C10.7698 45 11.29 44.7845 11.6736 44.4009C12.0572 44.0173 12.2727 43.497 12.2727 42.9545V30.6818C12.2727 30.1393 12.0572 29.6191 11.6736 29.2355C11.29 28.8519 10.7698 28.6364 10.2273 28.6364ZM8.18182 40.9091H4.09091V32.7273H8.18182V40.9091Z" fill="white"></path></svg> 