<svg width="41" height="40" viewBox="0 0 41 40" fill="none" xmlns="http://www.w3.org/2000/svg">
<path opacity="0.5" fill-rule="evenodd" clip-rule="evenodd" d="M28.6511 32.3203C28.0539 31.6417 27.4765 30.9556 26.9026 30.2157C26.7346 30.0277 26.5704 29.8361 26.4062 29.6444L26.406 29.6442C26.0198 29.1935 25.6338 28.743 25.1989 28.3416C24.02 27.2537 22.7274 26.3505 21.4307 25.4444C21.1786 25.2682 20.9263 25.0919 20.6746 24.9142C20.6066 25.3117 20.542 25.7109 20.4851 26.1129C20.4489 26.4566 20.4029 26.7976 20.357 27.1377C20.2569 27.8798 20.1573 28.6173 20.162 29.3673C20.1709 30.8168 20.4647 32.2344 20.7604 33.6615C20.7903 33.8057 20.8202 33.9499 20.8498 34.0942C21.1733 35.6712 21.8463 36.2868 21.8463 37.8973C21.8463 40.4784 19.2364 40.0127 18.9349 39.8833C18.9311 39.8817 18.9272 39.8801 18.9229 39.8783L18.905 39.8708C18.6799 39.7773 17.936 39.4682 17.7271 38.471C17.6777 38.2356 17.6254 37.2863 17.6249 37.2393L17.6188 34.5072C17.5742 33.6088 17.6037 32.7185 17.6332 31.8295C17.6598 31.0268 17.6863 30.225 17.6583 29.419C17.6335 28.7061 17.5372 28.0054 17.4404 27.3011C17.3863 26.9071 17.332 26.512 17.29 26.1129C17.2228 25.6376 17.1436 25.1662 17.0601 24.6969C16.7156 24.9242 16.3704 25.1478 16.0263 25.3708C14.5161 26.3494 13.0257 27.3151 11.6932 28.5185C10.5883 29.5163 9.73011 30.7466 8.90163 32.0021C8.12702 33.1761 7.53875 34.4585 7.0158 35.8595C6.49714 36.8911 5.24226 37.3057 4.21528 36.7847C3.1883 36.2637 2.77563 35.0032 3.29424 33.9716C4.8261 31.5461 6.73235 29.7181 8.65895 27.8706C8.7106 27.821 8.76227 27.7715 8.81394 27.7219C9.6366 26.9327 10.4428 26.1278 11.2146 25.2824C12.3794 24.0066 13.4391 22.6788 14.481 21.2901C13.2982 21.0905 12.1107 20.9164 10.8983 20.8973C9.78417 20.8797 8.68042 21.0183 7.57528 21.1571L7.57491 21.1572C7.21823 21.202 6.8614 21.2468 6.50404 21.2864C5.55877 21.3912 4.62943 21.522 3.69677 21.6534C3.17031 21.7275 2.6428 21.8018 2.11077 21.8716C0.960353 21.8861 0.0146182 20.9597 0.000167527 19.8041C-0.0142831 18.6485 0.907964 17.6986 2.05838 17.684C2.5136 17.7321 2.96567 17.7832 3.41668 17.8342L3.41684 17.8342C4.42571 17.9482 5.42923 18.0616 6.45071 18.1396C6.77886 18.1646 7.10681 18.1938 7.43467 18.2229C8.56973 18.3238 9.70368 18.4245 10.8412 18.3549C11.9058 18.2897 12.9435 18.0996 13.9735 17.8728C13.9148 17.7931 13.8557 17.7135 13.7961 17.6342C13.6466 17.4504 13.48 17.224 13.2923 16.969C12.8355 16.3484 12.2536 15.5579 11.488 14.7961C9.87147 13.1875 7.71802 11.6047 6.18717 10.4795C5.65257 10.0866 5.19388 9.74947 4.86052 9.48655C4.02771 8.68918 3.99603 7.36265 4.78983 6.5261C5.58364 5.68955 6.90424 5.65773 7.73705 6.45509C8.05456 6.82345 8.4713 7.35453 8.95834 7.9752C10.1229 9.45925 11.6893 11.4555 13.262 12.9638C14.042 13.712 14.8453 14.2752 15.4755 14.717C15.7337 14.8981 15.963 15.0588 16.1497 15.2036C16.37 15.3611 16.5917 15.5145 16.8141 15.6654C16.9088 15.2055 17.0129 14.7501 17.1169 14.2949C17.3347 13.3417 17.5524 12.3893 17.684 11.3983C17.7403 10.9747 17.7547 10.5474 17.7691 10.1199C17.7774 9.87371 17.7857 9.62742 17.802 9.38191L17.7168 4.66274L17.6963 1.96106C17.7694 0.807723 18.7609 -0.0690961 19.9091 0.00429047C21.0573 0.077677 21.9302 1.07363 21.8572 2.22701L21.1733 5.08378L20.3953 9.51969C20.3876 9.71815 20.3755 9.91668 20.3635 10.1152L20.3635 10.1154C20.3355 10.5768 20.3075 11.0383 20.3337 11.499C20.3927 12.5385 20.5758 13.5377 20.7687 14.5387L22.0603 13.2509C22.1685 13.1301 22.3687 12.9426 22.6323 12.6955C23.1655 12.1959 23.9584 11.4529 24.7766 10.5261C26.2811 8.82184 27.9108 6.58611 29.0515 5.02134C29.5063 4.39742 29.8833 3.88017 30.1436 3.54582C30.9336 2.70567 32.2541 2.66787 33.0905 3.46146C33.9269 4.25501 33.9645 5.5814 33.1745 6.42155C32.9021 6.66188 32.5011 6.99802 32.0187 7.40235C30.538 8.6435 28.2908 10.5272 26.6439 12.2547C25.5714 13.3795 24.8182 14.4534 24.4715 14.9477C24.4266 15.0117 24.3885 15.0659 24.3575 15.1093C23.9816 15.7481 23.6373 16.3976 23.2994 17.0483C23.8807 17.1127 24.458 17.1845 25.0369 17.2564C25.7178 17.3411 26.401 17.4261 27.0954 17.4995C27.2966 17.5055 27.4976 17.5132 27.6985 17.5208L27.6989 17.5208C29.6274 17.5943 31.396 17.3418 33.2722 16.8941C33.8424 16.758 34.413 16.6218 34.9889 16.508L38.6471 15.7831C39.7881 15.6344 40.8345 16.4442 40.9825 17.5903C41.1304 18.7364 40.3242 19.7875 39.1833 19.9362L35.3672 19.7776C34.9015 19.7949 34.4362 19.805 33.9713 19.815L33.9709 19.8151C32.2135 19.8531 30.4963 19.961 28.7698 20.2938C28.2679 20.3905 27.7657 20.4873 27.2568 20.557C26.7692 20.6618 26.2873 20.7698 25.8075 20.8772L25.8073 20.8773C24.9541 21.0683 24.1077 21.2579 23.2487 21.426C23.6877 22.0168 24.1104 22.6169 24.533 23.2169C25.3318 24.3511 26.1309 25.4855 27.0414 26.5584C27.3923 26.9718 27.7812 27.3501 28.1704 27.7287C28.3971 27.9493 28.624 28.17 28.8435 28.3978C29.6087 29.0869 30.3491 29.7313 31.1585 30.3088C31.668 30.6723 32.2097 30.967 32.7836 31.2645C32.8513 31.2992 34.1218 32.1468 34.5848 32.5457C35.3445 33.2002 35.3458 34.0017 35.3461 34.1759C35.3462 34.1825 35.3462 34.1882 35.3462 34.1929C35.3462 35.3486 34.4122 36.2868 33.2616 36.2868C31.1762 36.2868 30.9912 34.9791 28.6511 32.3203Z" fill="#0DA88C"/>
</svg>
