<?xml version="1.0" encoding="UTF-8"?> <svg xmlns="http://www.w3.org/2000/svg" width="34" height="26" viewBox="0 0 34 26" fill="none"><path d="M27.0002 0.666626L20.3335 7.33329H25.3335V19C25.3335 20.8333 23.8335 22.3333 22.0002 22.3333C20.1668 22.3333 18.6668 20.8333 18.6668 19V7.33329C18.6668 3.64996 15.6835 0.666626 12.0002 0.666626C8.31683 0.666626 5.3335 3.64996 5.3335 7.33329V19H0.333496L7.00016 25.6666L13.6668 19H8.66683V7.33329C8.66683 5.49996 10.1668 3.99996 12.0002 3.99996C13.8335 3.99996 15.3335 5.49996 15.3335 7.33329V19C15.3335 22.6833 18.3168 25.6666 22.0002 25.6666C25.6835 25.6666 28.6668 22.6833 28.6668 19V7.33329H33.6668L27.0002 0.666626Z" fill="#3F6DE4"></path></svg> 