<svg width="240" height="240" viewBox="0 0 240 240" fill="none" xmlns="http://www.w3.org/2000/svg">
<g clip-path="url(#clip0_2077_3368)">
<path d="M-18 -11H266V257H-18V-11Z" fill="white"/>
<path d="M197.774 226.87L192.431 210.377L151.895 194.813L139.352 183.547L137.725 124.893H99.3968L97.7708 183.547L85.2269 194.813L44.6915 210.377L39.3487 226.87L35.8643 250.099H201.258L197.774 226.87Z" fill="#F0C7B1"/>
<path d="M99.3968 124.893L97.7708 183.547L85.2269 194.813L44.6915 210.377L39.3487 226.87L35.8643 250.099H47.7113V226.87L49.6858 211.422L86.9691 196.439L103.346 185.405L105.669 124.893H99.3968Z" fill="#D19271"/>
<path d="M138.771 165.196L137.725 124.893H99.3968L98.2354 169.261L110.663 177.391L115.309 178.669L120.071 177.391L138.771 165.196Z" fill="#C5796D"/>
<path d="M203 250.1L198.587 226.986L193.36 209.564L151.895 194.813L141.558 208.054L125.298 214.559H111.825L95.564 208.054L85.2269 194.813L43.7623 209.564L38.5357 226.986L34.1221 250.1H203Z" fill="#015D61"/>
<path d="M110.547 219.204L92.0796 212.003L83.3685 200.389L91.1504 212.933L110.199 220.482L126.111 220.366L144.114 212.236L125.995 219.321H110.547V219.204ZM54.7963 219.901L48.292 214.559L48.6405 213.281L86.6207 196.672L85.2269 194.93L43.7623 209.68L38.5357 227.102L34.1221 250.1H44.1107L44.9238 228.845L48.292 214.791L54.4478 221.179L65.2495 240.924L66.8756 250.1H69.3147L66.2949 240.343L54.7963 219.901ZM183.371 220.598L171.989 241.156L169.201 250.1H171.524L173.034 241.737L183.836 221.876L192.199 213.281L183.371 220.598Z" fill="#035457"/>
<path d="M76.8647 101.199C76.8647 101.199 69.8959 100.386 64.5531 96.9014C64.5531 96.9014 60.488 107.819 59.9072 113.627C59.9072 113.627 67.6891 128.726 71.522 135.114C71.522 135.114 77.5616 134.301 78.8392 133.488L80.4653 123.731L76.8647 101.199Z" fill="#F0C7B1"/>
<path d="M65.4819 99.1082C65.2496 98.6436 64.5527 96.9014 64.5527 96.9014C70.5924 97.366 76.9805 98.5274 76.9805 98.5274L80.4649 123.731L78.8389 133.488C77.5612 134.301 71.5216 135.114 71.5216 135.114C70.8247 133.952 70.0117 132.326 69.0825 130.816L72.1023 131.978L75.5867 130.119C75.5867 130.119 76.3998 117.111 76.1675 116.763C76.0513 116.414 65.7142 99.5728 65.4819 99.1082Z" fill="#F0C7B1"/>
<path d="M61.998 111.768L65.2502 105.38L71.2898 113.278L73.8451 124.312L72.219 126.519L67.2247 117.691L68.3861 112.233L65.3663 107.587L61.998 111.768Z" fill="#D19271"/>
<path d="M160.259 101.199C160.259 101.199 167.228 100.386 172.57 96.9014C172.57 96.9014 176.636 107.819 177.216 113.627C177.216 113.627 169.434 128.726 165.602 135.114C165.602 135.114 159.562 134.301 158.284 133.488L156.658 123.731L160.259 101.199Z" fill="#F0C7B1"/>
<path d="M171.641 99.1082C171.873 98.6436 172.57 96.9014 172.57 96.9014C166.531 97.366 160.143 98.5274 160.143 98.5274L156.658 123.766L158.284 133.488C159.562 134.301 165.602 135.114 165.602 135.114C166.298 133.952 167.111 132.326 168.041 130.816L165.021 131.978L161.536 130.119C161.536 130.119 160.723 117.111 160.956 116.763C161.072 116.414 171.409 99.5728 171.641 99.1082Z" fill="#F0C7B1"/>
<path d="M175.125 111.768L171.873 105.38L165.834 113.278L163.278 124.312L164.904 126.519L169.899 117.691L168.737 112.233L171.757 107.587L175.125 111.768Z" fill="#D19271"/>
<path d="M161.303 65.4251C153.522 52.4166 139.235 43.4732 139.235 43.4732C131.105 41.731 118.561 40.918 118.561 40.918C118.561 40.918 106.017 41.8471 97.8869 43.4732C97.8869 43.4732 83.4847 52.3004 75.819 65.4251C75.819 65.4251 70.0116 81.6857 69.7793 93.1843L72.2184 119.898L79.8841 142.198L87.2014 151.955L113.915 169.377L118.561 170.538L123.207 169.377L149.805 152.071L157.122 142.315L164.788 120.014L167.227 93.3004C166.995 81.8018 161.303 65.4251 161.303 65.4251Z" fill="#F0C7B1"/>
<path d="M111.36 165.892L90.9181 149.864L83.717 140.456L76.5158 120.13L73.0314 93.4166L80.0003 67.5157L99.7453 46.6092L118.329 42.7763L139.235 43.4732C131.105 41.731 118.561 40.918 118.561 40.918C118.561 40.918 106.017 41.8471 97.8869 43.4732C97.8869 43.4732 83.4847 52.3004 75.819 65.4251C75.819 65.4251 70.0116 81.6857 69.7793 93.1843L72.2184 119.898L79.8841 142.198L87.2014 151.955L113.915 169.377L118.561 170.538L123.207 169.377L118.91 169.725L111.36 165.892Z" fill="#D19271"/>
<path d="M103.532 148.727L113.231 155.022L125.554 155.091L134.66 148.889L119.653 148.727L109.212 148.506L103.532 148.727Z" fill="#DA7C87"/>
<path d="M102.057 148.843L114.159 149.4L119.095 151.758L123.358 149.18L136.146 149.006L123.114 145.916L118.793 147.937L113.846 146.09L102.057 148.843Z" fill="#CB5F6C"/>
<path d="M132.081 149.772L125.274 154.511L119.932 154.546L125.077 154.105L132.081 149.772Z" fill="#F9BFC6"/>
<path d="M119.153 148.355C119.153 148.355 123.044 146.403 123.184 146.403C123.323 146.403 129.502 148.041 129.502 148.041L123.23 146.845L119.153 148.355Z" fill="#E28C96"/>
<path d="M108.805 112.348L102.417 103.173L84.1816 110.722C84.1816 110.722 93.8219 116.762 96.3771 117.924L106.017 114.555L108.805 112.348Z" fill="white"/>
<path d="M98.3403 115.984L92.5794 113.871L91.5225 107.819L96.238 103.882L101.999 105.996L103.056 112.047L98.3403 115.984Z" fill="#015D61"/>
<path d="M94.1475 110.955L94.8327 107.726L97.9803 106.704L100.431 108.911L99.7458 112.14L96.5982 113.162L94.1475 110.955Z" fill="#21222F"/>
<path d="M94.0312 107.1L96.3077 109.283L96.9465 108.83L95.6689 106.008L94.0312 107.1Z" fill="white"/>
<path d="M98.2246 112.024L98.7705 113.023L99.6765 112.663L99.2235 111.56L98.2246 112.024Z" fill="white"/>
<path d="M81.3945 104.335V117.227L90.3379 126.403H102.998L111.941 117.227V104.335L102.998 95.1592H90.3379L81.3945 104.335ZM84.1821 110.607L102.417 103.057L108.805 112.233L106.018 114.44L96.3775 117.808C93.7061 116.646 84.1821 110.607 84.1821 110.607Z" fill="#F0C7B1"/>
<path d="M102.417 121.525L107.295 117.924L111.708 112.117L103.578 102.244L99.6291 98.7598L90.6857 102.012L82.0908 111.071L84.1815 110.955L102.3 103.406L108.572 112.465L107.062 117.343L102.417 121.525Z" fill="#EBC3BD"/>
<path d="M81.9749 111.42L77.2129 110.607L83.7171 110.258L87.8984 108.632H85.4593L80.6973 106.89L85.4593 107.936H89.4084L91.7313 107.006L88.363 106.658L85.5755 105.032L88.5953 105.961L93.0089 106.426L102.068 102.593L106.714 109.213L108.573 112.465L102.185 103.87L85.1109 110.955L96.2611 117.808L103.927 115.253L96.2611 118.04L93.7058 116.414L92.312 118.04L93.3574 116.298L91.7313 115.253L89.4084 116.763L91.2667 115.021H91.3829L89.6406 114.091L87.0854 115.601L89.2922 113.859L87.55 112.814L84.5302 114.44L87.2016 112.581L84.5302 111.072L81.9749 111.42Z" fill="#21222F"/>
<path d="M128.317 112.348L134.705 103.173L152.941 110.722C152.941 110.722 143.3 116.762 140.745 117.924L131.105 114.555L128.317 112.348Z" fill="white"/>
<path d="M140.885 115.984L135.124 113.871L134.067 107.819L138.783 103.882L144.544 105.996L145.601 112.047L140.885 115.984Z" fill="#015D61"/>
<path d="M136.692 110.955L137.378 107.726L140.525 106.704L142.976 108.911L142.291 112.14L139.143 113.162L136.692 110.955Z" fill="#21222F"/>
<path d="M136.576 107.1L138.853 109.283L139.491 108.83L138.214 106.008L136.576 107.1Z" fill="white"/>
<path d="M140.769 112.024L141.314 113.023L142.22 112.663L141.767 111.56L140.769 112.024Z" fill="white"/>
<path d="M146.785 95.1592H134.125L125.182 104.335V117.227L134.125 126.403H146.785L155.728 117.227V104.335L146.785 95.1592ZM140.745 117.924L131.105 114.556L128.318 112.349L134.706 103.173L152.941 110.723C152.941 110.607 143.417 116.646 140.745 117.924Z" fill="#F0C7B1"/>
<path d="M134.706 121.525L129.828 117.924L125.414 112.117L133.544 102.244L137.493 98.7598L146.437 102.012L155.032 111.071L152.941 110.955L134.822 103.406L128.55 112.465L130.06 117.343L134.706 121.525Z" fill="#EBC3BD"/>
<path d="M155.148 111.42L159.91 110.607L153.405 110.258L149.224 108.632H151.663L156.425 106.89L151.663 107.936H147.714L145.391 107.006L148.759 106.658L151.547 105.032L148.527 105.961L144.114 106.426L135.054 102.593L130.408 109.213L128.55 112.465L134.938 103.87L152.012 110.955L140.861 117.808L133.196 115.253L140.861 118.04L143.417 116.414L144.81 118.04L143.765 116.298L145.391 115.253L147.714 116.763L145.856 115.021H145.74L147.482 114.091L150.037 115.601L147.83 113.859L149.572 112.814L152.592 114.44L149.921 112.581L152.592 111.072L155.148 111.42Z" fill="#21222F"/>
<path d="M109.502 95.8557L107.527 99.9209L90.57 95.1588L81.0459 97.4818L87.8986 91.6744L91.383 90.9775L109.502 95.8557Z" fill="#21222F"/>
<path d="M101.953 93.8812L103.579 94.3458L104.16 97.3656L101.953 93.8812ZM91.3837 90.9775L94.8681 95.1588L89.8738 91.2098L91.3837 90.9775ZM98.8171 92.952L99.9786 96.5526L96.9588 92.4875L98.8171 92.952ZM84.8794 94.2297L87.0862 94.2297L84.0664 94.9265L84.8794 94.2297ZM101.024 93.5328L101.256 94.8104L99.8624 93.3005L101.024 93.5328ZM87.8993 91.6744L90.9191 93.3005L87.2024 92.3713L87.8993 91.6744ZM106.134 94.9265L106.715 98.5271L104.044 94.462L106.134 94.9265Z" fill="#21222F"/>
<path d="M127.621 95.8557L129.596 99.9209L146.553 95.1588L156.077 97.4818L149.224 91.6744L145.74 90.9775L127.621 95.8557Z" fill="#21222F"/>
<path d="M135.17 93.8812L133.544 94.3458L132.963 97.3656L135.17 93.8812ZM145.74 90.9775L142.255 95.1588L147.25 91.2098L145.74 90.9775ZM138.306 92.952L137.145 96.5526L140.165 92.4875L138.306 92.952ZM152.244 94.2297L150.037 94.2297L153.057 94.9265L152.244 94.2297ZM136.099 93.5328L135.867 94.8104L137.145 93.1843L136.099 93.5328ZM149.224 91.6744L146.204 93.3005L149.921 92.3713L149.224 91.6744ZM130.989 94.9265L130.408 98.5271L133.08 94.462L130.989 94.9265Z" fill="#21222F"/>
<path d="M123.51 124.8L121.523 108.864L122.638 123.661L121.767 123.441L128.469 133.673L126.088 135.427L124.776 133.894L125.066 132.535L119.828 137.076H117.389L112.15 132.535L112.441 133.894L111.128 135.427L108.759 133.673L115.449 123.441L114.578 123.661L115.937 100.467L113.707 124.8L107.783 133.778L111.663 136.623L113.126 134.579L117.389 138.552H119.828L124.102 134.579L125.554 136.623L129.433 133.778L123.51 124.8Z" fill="#D19271"/>
<path d="M114.659 131.653L117.063 133.128L120.211 133.197L122.813 132.013L122.499 130.224L118.852 129.608L114.845 130.294L114.659 131.653Z" fill="#FBE5E2"/>
<path d="M115.89 38.4794L98.0035 35.2273L70.9412 54.6239L54.3321 94.927L49.1055 129.19L65.8307 144.173L67.4567 122.57L70.2443 145.8L87.6664 153.349L77.3293 123.499L75.8193 86.6805L78.1423 72.7429L84.8788 57.876L80.5814 73.0913L80.1168 87.1451L108.341 90.8618L139.352 88.7712L140.165 75.995L139.352 65.6579L142.604 76.808L143.417 88.7712L159.678 87.1451V75.995L164.091 107.703L162.117 127.913L154.916 152.536L166.414 144.986L170.015 134.069L168.853 143.825L180.003 134.069L180.817 117.227L181.513 132.907L190.689 123.383L179.19 80.5247L158.052 46.7259L132.267 34.7627L115.89 38.4794Z" fill="#21222F"/>
<path d="M133.08 40.338L151.779 53.8111L157.006 70.5363L157.354 81.6864L149.805 81.338L147.83 73.3238L147.482 81.6864H144.346L143.997 74.1368L140.629 61.0122L136.216 55.0887L137.842 74.6014L137.029 83.3125L124.369 84.474L123.207 77.7374L121.581 84.9385H104.043L104.391 69.0264L102.068 84.474L91.3827 83.6609L90.5697 79.7119L88.9436 84.474L83.8332 83.3125L83.4847 73.3238L91.7312 51.4881L78.1419 62.1737L65.3657 93.3011L62.5782 134.998L60.9521 91.2105L75.2383 56.2502L100.094 38.7119L114.845 41.8479L108.921 51.8366L108.573 62.9867L111.012 51.8366L118.91 41.4995L125.298 42.3125L128.898 51.8366L127.272 40.6864L133.08 40.338ZM156.541 53.4626L175.59 83.6609L177.216 133.372L172.802 84.474L156.541 53.4626ZM160.49 71.93L166.646 108.284L164.439 129.075L157.819 149.633L168.04 128.61L169.201 108.4L160.49 71.93ZM73.3799 86.913V124.312L83.6009 149.052L75.819 123.267L73.3799 86.913Z" fill="#2B2C3E"/>
</g>
<defs>
<clipPath id="clip0_2077_3368">
<rect width="240" height="240" fill="white"/>
</clipPath>
</defs>
</svg>
