<svg width="240" height="240" viewBox="0 0 240 240" fill="none" xmlns="http://www.w3.org/2000/svg">
<g clip-path="url(#clip0_2077_3098)">
<path d="M0 0H240V240H0V0Z" fill="white"/>
<path d="M204 215.96L171.24 207.68L149.64 195.8L147.84 161.96H92.16L90.36 195.8L68.76 207.68L36 215.96L25.08 239.6L21.48 263.6H218.52L214.92 239.6L204 215.96Z" fill="#F0C7B1"/>
<path d="M92.16 161.96L90.36 195.8L68.76 207.68L36 215.96L25.08 239.6L21.48 263.6H39V239.6L42.24 218.36L70.8 210.68L100.44 200.72L104.64 161.96H92.16Z" fill="#D19271"/>
<path d="M145.8 178.52L148.44 173.96L147.84 161.96H92.1602L91.2002 181.04L107.76 192.56H125.52L145.8 178.52Z" fill="#C27B55"/>
<path d="M111.36 201.56L113.76 211.04L122.04 216.56C122.04 216.56 111.84 212.96 111.6 212.24C111.36 211.52 111.36 201.56 111.36 201.56Z" fill="#D19271"/>
<path d="M220.44 263.6L216.6 239L205.08 214.88L171.84 206.48L150.72 194.84L149.52 193.28L149.64 195.8L150.48 199.28L139.92 211.52L128.64 216.56H111.36L100.08 211.52L89.5201 199.28L90.3601 195.8L90.4801 193.28L89.2801 194.84L68.1601 206.48L34.8001 214.88L23.4001 239L19.5601 263.6H220.44Z" fill="#015D61"/>
<path d="M86.4001 196.52L85.0801 201.08L94.5601 215L111.24 222.92L122.04 224.36H111.36L94.5601 216.56L84.1201 201.56L85.9201 196.76L86.4001 196.52ZM35.5201 248L39.7201 230.6L43.2001 231.44L46.2001 242.6L44.2801 231.32L40.3201 220.64L73.4401 213.68L87.8401 206.24L92.8801 203.24L89.5201 199.4L90.3601 195.92L90.4801 193.4L89.2801 194.96L68.0401 206.6L34.8001 215L23.2801 239.12L19.5601 263.6H35.4001L35.5201 248ZM51.8401 258.44L49.6801 250.64L49.9201 263.6H52.4401L51.8401 258.44ZM153.6 196.52L154.92 201.08L145.44 215L128.76 222.92L117.96 224.36H128.64L145.44 216.56L155.88 201.56L154.08 196.76L153.6 196.52ZM188.16 258.44L190.32 250.64L190.08 263.6H187.56L188.16 258.44Z" fill="#004E52"/>
<path d="M75.7202 109.76C75.7202 109.76 68.5202 108.92 63.0002 105.32C63.0002 105.32 58.8002 116.6 58.2002 122.6C58.2002 122.6 66.2402 138.2 70.2002 144.8C70.2002 144.8 76.4402 143.96 77.7602 143.12L79.4402 133.04L75.7202 109.76Z" fill="#F0C7B1"/>
<path d="M63.96 107.6C63.72 107.12 63 105.32 63 105.32C69.24 105.8 75.84 107 75.84 107L79.44 132.92L77.76 143C76.44 143.84 70.2 144.68 70.2 144.68C69.48 143.48 68.64 141.92 67.68 140.36L70.8 141.56L74.4 139.64C74.4 139.64 75.24 126.2 75 125.84C74.88 125.48 64.2 108.08 63.96 107.6Z" fill="#E1AC8F"/>
<path d="M60.3604 120.68L63.7204 114.08L69.9604 122.24L72.6004 133.64L70.9204 135.92L65.7604 126.8L66.9604 121.16L63.8404 116.36L60.3604 120.68Z" fill="#D19271"/>
<path d="M164.281 109.76C164.281 109.76 171.481 108.92 177.001 105.32C177.001 105.32 181.201 116.6 181.801 122.6C181.801 122.6 173.761 138.2 169.801 144.8C169.801 144.8 163.561 143.96 162.241 143.12L160.561 133.04L164.281 109.76Z" fill="#F0C7B1"/>
<path d="M176.041 107.6C176.281 107.12 177.001 105.32 177.001 105.32C170.761 105.8 164.161 107 164.161 107L160.561 132.92L162.241 143C163.561 143.84 169.801 144.68 169.801 144.68C170.521 143.48 171.361 141.92 172.321 140.36L169.201 141.56L165.601 139.64C165.601 139.64 164.761 126.2 165.001 125.84C165.121 125.48 175.801 108.08 176.041 107.6Z" fill="#E1AC8F"/>
<path d="M179.64 120.68L176.28 114.08L170.04 122.24L167.4 133.64L169.08 135.92L174.24 126.8L173.04 121.16L176.16 116.36L179.64 120.68Z" fill="#D19271"/>
<path d="M165.72 71.5995C157.44 57.6795 142.08 48.1995 142.08 48.1995C133.44 46.3995 120 45.4395 120 45.4395C120 45.4395 106.68 46.3995 97.9199 48.1995C97.9199 48.1995 82.5599 57.6795 74.2799 71.5995C74.2799 71.5995 68.1599 88.9995 67.9199 101.359L73.7999 142.039L90.8399 171.799L111.12 185.839H129L149.28 171.799L166.32 142.039L172.2 101.359C171.84 88.9995 165.72 71.5995 165.72 71.5995Z" fill="#F0C7B1"/>
<path d="M111.24 182.839L93.7199 168.079C93.7199 168.079 80.0399 142.999 79.5599 142.039C79.0799 140.959 73.5599 100.879 73.5599 100.879C73.7999 95.1195 78.9599 75.0795 79.5599 74.2395C82.0799 70.3995 99.3599 52.6395 99.3599 52.6395L119.88 47.7195L142.08 48.1995C133.44 46.3995 120 45.4395 120 45.4395C120 45.4395 106.68 46.3995 97.9199 48.1995C97.9199 48.1995 82.5599 57.6795 74.2799 71.5995C74.2799 71.5995 68.1599 88.9995 67.9199 101.359L73.7999 142.039L90.8399 171.799L111.12 185.839H129L149.28 171.799L127.68 184.279L111.24 182.839Z" fill="#D19271"/>
<path d="M101.088 154.544L112.92 155.84L120.72 158.48L127.92 155.24L139.728 155.144L127.44 153.08H111.96L101.088 154.544Z" fill="#DA7C87"/>
<path d="M106.704 159.524L114.36 162.44L126.96 162.8L132.384 159.644L127.2 164H114.24L106.704 159.524Z" fill="#D19271"/>
<path d="M111 115.52L105.6 110.84C105.6 110.84 90.0003 110 89.6403 110C89.2803 110 82.0803 115.04 82.3203 115.28C82.5603 115.52 90.1203 118.88 93.1203 119.48C93.1203 119.48 97.6803 119.48 102.36 118.52C105.72 117.56 109.2 116.24 111 115.52Z" fill="white"/>
<path d="M92.6407 116.84L91.6807 110.84L96.2407 106.88L102.001 109.04L103.081 115.04L98.4007 118.88L92.6407 116.84Z" fill="#4E60A3"/>
<path d="M96.3611 107.48L101.521 109.4L102.481 114.8L98.2811 118.28L93.1211 116.36L92.1611 110.96L96.3611 107.48ZM96.241 106.28L91.0811 110.6L92.1611 117.2L98.4011 119.48L103.561 115.16L102.481 108.56L96.241 106.28Z" fill="#43559B"/>
<path d="M96.2407 106.64L102.121 108.8L103.201 115.04L98.4007 119.12L92.5207 116.96L91.4407 110.72L96.2407 106.64ZM96.1207 106.04L90.7207 110.6L91.9207 117.56L98.5207 119.96L103.921 115.4L102.721 108.44L96.1207 106.04Z" fill="#253984"/>
<path d="M93.7207 114.08L94.5607 110.36L98.1607 109.16L100.921 111.8L100.201 115.4L96.6007 116.6L93.7207 114.08Z" fill="black"/>
<path d="M94.9209 109.88H97.0809V112.04H94.9209V109.88Z" fill="white"/>
<path d="M97.8008 115.16H99.0008V116.36H97.8008V115.16Z" fill="white"/>
<path d="M80.5205 106.76V121.04L90.0005 131.12H103.441L112.921 121.04V106.76L103.441 96.6797H90.0005L80.5205 106.76ZM82.3205 115.16C82.0805 114.92 89.4005 109.88 89.6405 109.88C89.8805 109.88 105.601 110.84 105.601 110.84L111.001 115.52C109.201 116.36 105.721 117.68 102.361 118.4C97.6805 119.48 93.1205 119.36 93.1205 119.36C90.1205 118.88 82.6805 115.4 82.3205 115.16Z" fill="#F0C7B1"/>
<path d="M111.6 115.76L110.16 115.16L105.24 111.08L89.7605 110.36L84.3605 114.08L83.0405 115.28L90.6005 118.64L87.1205 117.8L81.4805 115.28L83.6405 113.12L89.6405 109.52L105.6 110.6L111.6 115.76Z" fill="black"/>
<path d="M109.8 113.24L105.24 107.84L93.6001 107.72L90.1201 109.28L94.2001 108.2L105.12 108.44L109.8 113.24Z" fill="#E1AC8F"/>
<path d="M129 115.52L134.4 110.84C134.4 110.84 150 110 150.36 110C150.72 110 157.92 115.04 157.68 115.28C157.44 115.52 149.88 118.88 146.88 119.48C146.88 119.48 142.32 119.48 137.64 118.52C134.28 117.56 130.8 116.24 129 115.52Z" fill="white"/>
<path d="M138 116.84L136.92 110.84L141.6 106.88L147.36 109.04L148.32 115.04L143.76 118.88L138 116.84Z" fill="#4E60A3"/>
<path d="M141.72 107.48L146.88 109.4L147.84 114.8L143.64 118.28L138.48 116.36L137.52 110.96L141.72 107.48ZM141.48 106.28L136.32 110.6L137.4 117.2L143.64 119.48L148.8 115.16L147.72 108.56L141.48 106.28Z" fill="#43559B"/>
<path d="M141.6 106.64L147.48 108.8L148.56 115.04L143.76 119.12L137.88 116.96L136.8 110.72L141.6 106.64ZM141.48 106.04L136.08 110.6L137.28 117.56L143.88 119.96L149.28 115.4L148.08 108.44L141.48 106.04Z" fill="#152975"/>
<path d="M139.08 114.08L139.8 110.36L143.4 109.16L146.28 111.8L145.44 115.4L141.84 116.6L139.08 114.08Z" fill="black"/>
<path d="M140.28 109.88H142.44V112.04H140.28V109.88Z" fill="white"/>
<path d="M143.04 115.16H144.24V116.36H143.04V115.16Z" fill="white"/>
<path d="M150 96.5596H136.56L127.08 106.64V120.92L136.56 131H150L159.48 120.92V106.76L150 96.5596ZM146.88 119.36C146.88 119.36 142.32 119.36 137.64 118.4C134.28 117.68 130.8 116.36 129 115.52L134.4 110.84C134.4 110.84 150 110 150.36 110C150.72 110 157.92 115.04 157.68 115.28C157.44 115.52 149.88 118.88 146.88 119.36Z" fill="#F0C7B1"/>
<path d="M128.4 115.76L129.84 115.16L134.76 111.08L150.24 110.36L155.64 114.08L156.96 115.28L149.4 118.64L152.88 117.8L158.52 115.28L156.36 113.12L150.36 109.52L134.4 110.6L128.4 115.76Z" fill="black"/>
<path d="M130.2 113.24L134.76 107.84L146.4 107.72L149.88 109.28L145.8 108.2L134.88 108.44L130.2 113.24Z" fill="#E1AC8F"/>
<path d="M89.0402 92.7197L85.2002 94.3997L79.2002 105.2L89.4002 99.6797L110.16 104.12L111.24 96.9197L89.0402 92.7197Z" fill="#2A232B"/>
<path d="M105.48 100.4L104.04 95.5997L102 95.1197L105.48 100.4ZM87.5998 93.4397L94.3198 98.9597L89.0398 92.7197L87.5998 93.4397ZM95.8798 94.0397L100.44 100.04L98.1598 94.5197L95.8798 94.0397ZM81.8398 100.52L85.0798 98.7197L82.5599 99.3197L81.8398 100.52ZM99.4798 94.7597L101.52 97.0397L100.92 94.9997L99.4798 94.7597ZM84.5998 95.5997L89.1599 96.5597L85.1998 94.3997L84.5998 95.5997ZM104.52 95.7197L108.72 101.96L107.04 96.3197L104.52 95.7197Z" fill="#3A353A"/>
<path d="M128.76 96.9197L129.84 104.12L150.6 99.6797L160.8 105.2L154.8 94.3997L150.96 92.7197L128.76 96.9197Z" fill="#2A232B"/>
<path d="M137.999 95.1197L135.959 95.4797L134.519 100.28L137.999 95.1197ZM150.959 92.7197L145.679 98.9597L152.399 93.4397L150.959 92.7197ZM141.839 94.5197L139.559 100.04L144.119 94.0397L141.839 94.5197ZM157.319 99.3197L154.799 98.7197L158.039 100.52L157.319 99.3197ZM139.079 94.9997L138.479 97.0397L140.519 94.7597L139.079 94.9997ZM154.799 94.3997L150.959 96.5597L155.519 95.5997L154.799 94.3997ZM132.959 96.1997L131.279 101.84L135.479 95.5997L132.959 96.1997Z" fill="#3A353A"/>
<path d="M115.344 120.692L114.804 128.372L107.868 139.016L111.444 141.716L113.4 139.292L118.584 143.876H121.476L126.6 139.292L128.484 141.644L132.264 139.016L125.316 128.312L124.644 120.56L120.06 118.604L115.344 120.692Z" fill="#F0C7B1"/>
<path d="M125.832 128.528L123.492 109.724L124.812 127.184L123.78 126.92L131.676 138.992L128.868 141.068L127.332 139.256L127.668 137.648L121.488 143.012H118.608L112.428 137.648L112.776 139.256L111.228 141.068L108.42 138.992L116.328 126.92L115.296 127.184L116.892 99.8115L114.264 128.528L107.28 139.124L111.852 142.472L113.58 140.06L118.608 144.752H121.488L126.528 140.06L128.244 142.472L132.816 139.124L125.832 128.528Z" fill="#D19271"/>
<path d="M115.38 136.603L118.224 138.355L121.944 138.427L125.004 137.035L124.644 134.923L120.336 134.203L115.608 134.995L115.38 136.603Z" fill="#F8D5C3"/>
<path d="M65.0884 101.768L70.3084 115.52L74.1004 118.592L79.7884 70.2319L85.9564 61.6879L98.5204 58.6039L119.628 63.5839L139.536 58.8439L152.58 61.2199L159.936 69.5119L166.812 117.176L170.844 111.248L173.916 101.048L173.208 95.1199L174.636 86.8279L172.74 81.1279L173.448 71.8879L170.844 66.1999L170.124 57.8959L162.3 49.6039L153.768 33.4759L136.932 24.9439L123.888 27.7879L118.2 24.4639L113.928 26.3599L98.0524 27.5479L91.4044 34.9039L81.4444 37.9759L80.0284 42.2479L68.6404 53.3959L68.4124 66.9079L65.5684 76.3879L67.6924 79.4719L63.9004 88.0159L65.7964 94.6519L65.0884 101.768Z" fill="#21222F"/>
<path d="M166.596 95.9239C166.332 94.8439 161.208 68.4319 161.208 68.4319L153.12 59.8039L139.104 57.3799L118.884 61.9639L104.328 49.2919L106.212 35.8159L118.068 26.9239L123.732 29.6239L136.932 24.9439L123.888 27.7879L118.2 24.4639L113.928 26.3599L98.0404 27.5479L91.4044 34.9039L81.4444 37.9879L80.0164 42.2599L68.6404 53.4079L68.4004 66.9199L65.5564 76.3999L67.6924 79.4839L63.9004 88.0159L65.7964 94.6519L65.0884 101.768L70.3084 115.52L74.1004 118.604L74.5324 114.944L67.6684 103.22V96.7519L75.5044 106.616L75.9484 102.884L66.5884 87.8599L69.2884 81.9319L77.0284 93.7639L78.0484 85.1239L71.9884 72.7639L70.9084 55.5079L80.6164 46.0759L77.9164 55.7839L79.7884 70.2439L85.9564 61.7119L82.5004 53.8999L92.7484 36.6439L103.524 29.0959L95.7124 53.0839L100.296 59.0359L119.628 63.5959L139.548 58.8559L152.592 61.2319L159.948 69.5359L166.824 117.2C166.812 117.176 166.86 97.0039 166.596 95.9239Z" fill="#131420"/>
<path d="M122.724 32.1914L121.536 44.6234L137.724 56.8514L123.708 43.6274L122.724 32.1914Z" fill="#131420"/>
<path d="M161.076 50.9121L161.256 61.9281L160.692 65.9121L162.78 60.5961L163.536 53.3721L161.076 50.9121Z" fill="#131420"/>
<path d="M168.865 70.0879C168.481 70.6519 165.829 80.3479 165.829 80.3479L163.933 83.5759L167.353 80.9119L170.197 71.0359L168.865 70.0879Z" fill="#131420"/>
</g>
<defs>
<clipPath id="clip0_2077_3098">
<rect width="240" height="240" fill="white"/>
</clipPath>
</defs>
</svg>
