<svg width="240" height="240" viewBox="0 0 240 240" fill="none" xmlns="http://www.w3.org/2000/svg">
<g clip-path="url(#clip0_2077_3195)">
<path d="M-1 -4H240V249H-1V-4Z" fill="white"/>
<path d="M201.681 236.799L196.138 219.688L154.084 203.541L141.07 191.853L139.383 131H99.6176L97.9306 191.853L84.9166 203.541L42.8621 219.688L37.3191 236.799L33.7041 260.899H205.296L201.681 236.799Z" fill="#F0C7B1"/>
<path d="M99.6176 131L97.9306 191.853L84.9166 203.541L42.8621 219.688L37.3191 236.799L33.7041 260.899H45.9951V236.799L48.0436 220.773L86.7241 205.228L103.715 193.781L106.125 131H99.6176Z" fill="#D19271"/>
<path d="M140.587 178.237L139.261 130.881H99.6169L98.1709 184.262C102.268 186.311 111.426 190.769 116.125 190.769C122.391 190.769 136.128 183.178 136.128 183.178C137.695 181.732 139.141 180.045 140.587 178.237Z" fill="#C5796D"/>
<path d="M207.103 260.9L202.524 236.921L197.102 218.846L154.083 203.542L143.359 217.279L126.489 224.027H112.511L95.641 217.279L84.9165 203.542L41.898 218.846L36.4755 236.921L31.8965 260.9H207.103Z" fill="#015D61"/>
<path d="M111.186 228.847L92.026 221.376L82.9885 209.326L91.062 222.34L110.824 230.172L127.332 230.052L146.01 221.617L127.212 228.967H111.186V228.847ZM53.3455 229.57L46.5975 224.027L46.959 222.701L86.3625 205.47L84.9165 203.662L41.898 218.966L36.4755 237.041L31.8965 260.9H42.2595L43.103 238.848L46.5975 224.268L52.984 230.895L64.1905 251.38L65.8775 260.9H68.408L65.275 250.778L53.3455 229.57ZM186.739 230.293L174.93 251.621L172.038 260.9H174.448L176.014 252.224L187.221 231.618L195.897 222.701L186.739 230.293Z" fill="#054548"/>
<path d="M76.2405 106.418C76.2405 106.418 69.0105 105.575 63.4675 101.96C63.4675 101.96 59.25 113.287 58.6475 119.312C58.6475 119.312 66.721 134.977 70.6975 141.604C70.6975 141.604 76.9635 140.761 78.289 139.917L79.976 129.795L76.2405 106.418Z" fill="#F0C7B1"/>
<path d="M64.4318 104.249C64.1908 103.767 63.4678 101.96 63.4678 101.96C69.7338 102.442 76.3613 103.647 76.3613 103.647L79.9763 129.795L78.2893 139.917C76.9638 140.761 70.6978 141.604 70.6978 141.604C69.9748 140.399 69.1313 138.712 68.1673 137.146L71.3003 138.351L74.9153 136.423C74.9153 136.423 75.7588 122.927 75.5178 122.565C75.3973 122.204 64.6728 104.731 64.4318 104.249Z" fill="#E4B3AB"/>
<path d="M60.8174 117.384L64.1914 110.757L70.4574 118.951L73.1084 130.398L71.4214 132.688L66.2399 123.53L67.4449 117.866L64.3119 113.046L60.8174 117.384Z" fill="#D19271"/>
<path d="M162.76 106.418C162.76 106.418 169.99 105.575 175.533 101.96C175.533 101.96 179.75 113.287 180.353 119.312C180.353 119.312 172.279 134.977 168.303 141.604C168.303 141.604 162.037 140.761 160.711 139.917L159.024 129.795L162.76 106.418Z" fill="#F0C7B1"/>
<path d="M174.569 104.249C174.81 103.767 175.533 101.96 175.533 101.96C169.267 102.442 162.639 103.647 162.639 103.647L159.024 129.832L160.711 139.917C162.037 140.761 168.303 141.604 168.303 141.604C169.026 140.399 169.869 138.712 170.833 137.146L167.7 138.351L164.085 136.423C164.085 136.423 163.242 122.927 163.483 122.565C163.603 122.204 174.328 104.731 174.569 104.249Z" fill="#E4B3AB"/>
<path d="M178.184 117.384L174.81 110.757L168.544 118.951L165.893 130.398L167.58 132.688L172.761 123.53L171.556 117.866L174.689 113.046L178.184 117.384Z" fill="#D19271"/>
<path d="M163.845 69.3054C155.771 55.8094 140.95 46.5309 140.95 46.5309C132.515 44.7234 119.501 43.8799 119.501 43.8799C119.501 43.8799 106.487 44.8439 98.0516 46.5309C98.0516 46.5309 83.1096 55.6889 75.1566 69.3054C75.1566 69.3054 69.1316 86.1754 68.8906 98.1049C68.8906 98.1049 72.0236 126.663 75.8796 139.075C75.8796 139.075 87.8091 162.934 99.4976 174.863C99.4976 174.863 113.355 182.455 119.501 182.455C125.646 182.455 139.504 174.863 139.504 174.863C151.192 162.934 163.122 139.075 163.122 139.075C166.857 126.663 170.111 98.1049 170.111 98.1049C169.749 86.2959 163.845 69.3054 163.845 69.3054Z" fill="#F0C7B1"/>
<path d="M102.39 50.7484L137.094 49.7844L163.845 69.3054C155.771 55.8094 140.95 46.5309 140.95 46.5309C132.515 44.7234 119.501 43.8799 119.501 43.8799C119.501 43.8799 106.487 44.8439 98.0516 46.5309C98.0516 46.5309 83.1096 55.6889 75.1566 69.3054C75.1566 69.3054 69.1316 86.1754 68.8906 98.1049C68.8906 98.1049 72.0236 126.663 75.8796 139.075C75.8796 139.075 87.8091 162.934 99.4976 174.863C99.4976 174.863 113.355 182.455 119.501 182.455C114.56 181.852 101.064 172.092 101.064 172.092C97.0876 166.428 82.7481 138.352 82.7481 138.352C79.7356 130.64 74.7951 96.2974 74.7951 96.2974C75.1566 92.3209 80.0971 71.5949 80.0971 70.6309C80.0971 69.6669 102.39 50.7484 102.39 50.7484Z" fill="#D19271"/>
<path d="M106.306 157.885L111.041 164.91L120.513 167.067L130.189 165.043L135.274 158.439L123.224 154.752L110.559 156.065L106.306 157.885Z" fill="#DA7C87"/>
<path d="M103.257 159.126L114.295 151.715L119.814 153.908C119.814 153.908 125.043 151.787 125.26 151.787C125.477 151.787 137.25 159.415 137.25 159.415L124.814 157.752L119.958 160.319L114.957 157.451L103.257 159.126Z" fill="#CB5F6C"/>
<path d="M120.813 165.789L129.261 164.186L132.61 160.125L128.706 163.475L120.813 165.789Z" fill="#F9BFC6"/>
<path d="M108.776 121.602L105.764 113.408L92.6291 109.673L83.9531 112.203L90.5806 121.964L108.776 121.602Z" fill="white"/>
<path d="M98.5216 121.758L92.5448 119.565L91.4482 113.287L96.3405 109.202L102.317 111.395L103.414 117.673L98.5216 121.758Z" fill="#05555B"/>
<path d="M94.1709 116.541L94.8818 113.191L98.1474 112.131L100.69 114.42L99.979 117.77L96.7134 118.831L94.1709 116.541Z" fill="#21222F"/>
<path d="M94.0498 112.541L96.4116 114.806L97.0744 114.336L95.7489 111.408L94.0498 112.541Z" fill="white"/>
<path d="M98.4004 117.65L98.9667 118.686L99.9066 118.313L99.4367 117.168L98.4004 117.65Z" fill="white"/>
<path d="M80.9404 109.673V123.048L90.2189 132.568H103.353L112.632 123.048V109.673L103.353 100.153H90.2189L80.9404 109.673ZM83.9529 112.203L92.5084 109.673L105.763 113.408L108.776 121.602L90.5804 121.964L83.9529 112.203Z" fill="#F0C7B1"/>
<path d="M85.0382 112.564L90.9427 121.843L99.6187 121.722L90.5812 122.204L83.4717 112.685L85.0382 112.564Z" fill="#D19271"/>
<path d="M109.74 123.409L106.727 112.564L93.4722 107.021L77.3252 109.913L82.2657 113.046H85.2782L93.7132 110.034L105.643 113.528L108.294 121.481L109.74 123.409Z" fill="#21222F"/>
<path d="M130.225 121.602L133.237 113.408L146.372 109.673L155.048 112.203L148.42 121.964L130.225 121.602Z" fill="white"/>
<path d="M142.66 121.758L136.683 119.565L135.587 113.287L140.479 109.202L146.456 111.395L147.553 117.673L142.66 121.758Z" fill="#05555B"/>
<path d="M138.311 116.541L139.021 113.191L142.287 112.131L144.83 114.42L144.119 117.77L140.853 118.831L138.311 116.541Z" fill="#21222F"/>
<path d="M138.19 112.541L140.552 114.806L141.215 114.336L139.889 111.408L138.19 112.541Z" fill="white"/>
<path d="M142.54 117.65L143.106 118.686L144.046 118.313L143.576 117.168L142.54 117.65Z" fill="white"/>
<path d="M148.782 100.153H135.648L126.369 109.673V123.048L135.648 132.568H148.782L158.061 123.048V109.673L148.782 100.153ZM148.421 121.964L130.225 121.602L133.238 113.408L146.493 109.673L155.048 112.203L148.421 121.964Z" fill="#F0C7B1"/>
<path d="M153.963 112.564L148.059 121.843L139.383 121.722L148.42 122.204L155.53 112.685L153.963 112.564Z" fill="#D19271"/>
<path d="M129.261 123.409L132.273 112.564L145.528 107.021L161.675 109.913L156.735 113.046H153.722L145.287 110.034L133.358 113.528L130.707 121.481L129.261 123.409Z" fill="#21222F"/>
<path d="M110.102 100.876L108.053 105.094L90.4601 100.153L80.5791 102.563L87.6886 96.5384L91.3036 95.8154L110.102 100.876Z" fill="#21222F"/>
<path d="M102.269 98.8279L103.956 99.3099L104.558 102.443L102.269 98.8279ZM91.3034 95.8154L94.9184 100.153L89.7369 96.0564L91.3034 95.8154ZM99.0154 97.8639L100.22 101.599L97.0874 97.3819L99.0154 97.8639ZM84.5554 99.1894L86.8449 99.1894L83.7119 99.9124L84.5554 99.1894ZM101.305 98.4664L101.546 99.7919L100.1 98.2254L101.305 98.4664ZM87.6884 96.5384L90.8214 98.2254L86.9654 97.2614L87.6884 96.5384ZM106.607 99.9124L107.209 103.648L104.438 99.4304L106.607 99.9124Z" fill="#21222F"/>
<path d="M128.899 100.876L130.948 105.094L148.541 100.153L158.422 102.563L151.312 96.5384L147.697 95.8154L128.899 100.876Z" fill="#21222F"/>
<path d="M136.732 98.8279L135.045 99.3099L134.442 102.443L136.732 98.8279ZM147.697 95.8154L144.082 100.153L149.264 96.0564L147.697 95.8154ZM139.985 97.8639L138.78 101.599L141.913 97.3819L139.985 97.8639ZM154.445 99.1894L152.156 99.1894L155.289 99.9124L154.445 99.1894ZM137.696 98.4664L137.455 99.7919L138.78 98.1049L137.696 98.4664ZM151.312 96.5384L148.179 98.2254L152.035 97.2614L151.312 96.5384ZM132.394 99.9124L131.791 103.648L134.563 99.4304L132.394 99.9124Z" fill="#21222F"/>
<path d="M124.633 130.904L122.573 114.371L123.729 129.723L122.826 129.494L129.778 140.11L127.308 141.93L125.947 140.339L126.248 138.929L120.813 143.641H118.283L112.848 138.929L113.149 140.339L111.788 141.93L109.33 140.11L116.27 129.494L115.367 129.723L116.776 105.659L114.463 130.904L108.317 140.219L112.342 143.171L113.86 141.05L118.283 145.171H120.813L125.248 141.05L126.754 143.171L130.779 140.219L124.633 130.904Z" fill="#D19271"/>
<path d="M115.451 138.013L117.946 139.544L121.211 139.616L123.91 138.387L123.585 136.531L119.801 135.893L115.644 136.604L115.451 138.013Z" fill="#FBE5E2"/>
<path d="M172.037 92.6816L167.94 72.3171L159.867 59.3031L150.468 51.8321L154.203 49.4221L155.89 38.4566L148.178 24.7196L128.657 16.7666L104.437 18.3331L89.0129 28.8166L86.8439 46.1686L90.2179 50.5066L75.8784 64.4846L68.2869 83.4031L68.0459 102.442L72.5044 114.613L79.2524 89.9101L93.1099 70.2686L118.415 61.9541L146.612 69.3046L161.795 88.8256L168.422 114.854L172.76 102.683L172.037 92.6816Z" fill="#21222F"/>
<path d="M137.574 44.7226L136.851 44.6021L122.271 42.3126L119.499 30.2626L122.632 20.8636L128.778 16.7666L120.704 20.2611L116.848 30.5036L119.379 41.9511L118.535 41.8306L116.848 42.1921L116.487 42.3126L110.462 43.5176L105.28 31.4676L108.895 22.5506L114.077 18.3331L128.657 16.7666L104.437 18.2126L89.0129 28.6961L86.8439 46.0481L90.2179 50.3861L75.8784 64.4846L68.2869 83.2826L68.0459 102.322L72.5044 114.613L79.3729 89.9101L93.2304 70.2686L93.4714 70.1481L92.5074 65.0871V51.8321L97.3274 50.3861L100.581 61.8336L103.111 66.8946L103.834 66.6536L100.581 52.7961L98.6529 50.0246L115.884 44.9636L114.318 53.6396L115.161 63.0386L116.487 62.5566L117.571 53.8806L117.21 44.6021H117.33L131.067 45.2046L128.537 52.9166L126.85 64.1231H127.091L129.621 56.1701L131.549 45.2046L136.61 45.4456L133.116 54.4831L130.947 65.0871L131.911 65.3281L136.49 56.7726L137.695 45.4456L142.756 45.6866L142.394 45.4456L137.574 44.7226ZM98.0504 46.1686L93.3509 32.6726L105.16 19.4176L113.836 18.4536L107.329 21.7071L102.268 31.9496L108.775 43.9996L98.0504 46.1686ZM167.94 72.4376L161.072 74.8476L153.48 78.1011L153.842 78.4626L161.433 76.4141L168.181 73.0401L167.94 72.4376ZM164.566 66.8946L164.084 66.1716L157.216 69.4251L150.227 74.0041L150.588 74.4861L157.216 71.9556L164.566 66.8946ZM145.045 58.7006L142.635 68.2201L143.72 68.4611L147.335 62.5566L150.227 51.5911L149.383 50.9886L145.045 58.7006ZM144.925 48.6991L152.878 37.8541L140.346 22.0686L149.022 37.4926L144.925 48.6991ZM126.729 42.4331L136.369 34.9621L138.056 24.7196L135.405 20.1406L136.731 25.0811L134.562 32.5521L126.729 42.4331Z" fill="#21222F"/>
</g>
<defs>
<clipPath id="clip0_2077_3195">
<rect width="240" height="240" fill="white"/>
</clipPath>
</defs>
</svg>
