<svg width="159" height="159" viewBox="0 0 159 159" fill="none" xmlns="http://www.w3.org/2000/svg">
<mask id="mask0_2077_2708" style="mask-type:alpha" maskUnits="userSpaceOnUse" x="0" y="0" width="159" height="159">
<circle cx="79.5" cy="79.5" r="79.5" fill="#21222F"/>
</mask>
<g mask="url(#mask0_2077_2708)">
<path d="M-1 -4.2002H159V155.8H-1V-4.2002Z" fill="#E2F2EF"/>
<path d="M133.56 155.8L129.88 144.44L101.96 133.72L93.32 125.96L92.2 85.5596H65.8L64.68 125.96L56.04 133.72L28.12 144.44L24.44 155.8L22.04 171.8H135.96L133.56 155.8Z" fill="#F3D4CF"/>
<path d="M65.8 85.5596L64.68 125.96L56.04 133.72L28.12 144.44L24.44 155.8L22.04 171.8H30.2V155.8L31.56 145.16L57.24 134.84L68.52 127.24L70.12 85.5596H65.8Z" fill="#D4958A"/>
<path d="M92.9998 116.919L92.1198 85.4795H65.7998L64.8398 120.919C67.5598 122.279 73.6398 125.239 76.7598 125.239C80.9198 125.239 90.0398 120.199 90.0398 120.199C91.0798 119.239 92.0398 118.119 92.9998 116.919Z" fill="#C5796D"/>
<path d="M137.16 171.8L134.12 155.88L130.52 143.88L101.96 133.72L94.8398 142.84L83.6398 147.32H74.3598L63.1598 142.84L56.0398 133.72L27.4798 143.88L23.8798 155.88L20.8398 171.8H137.16Z" fill="#015D61"/>
<path d="M73.4799 150.52L60.7598 145.56L54.7598 137.56L60.1199 146.2L73.2399 151.4L84.1999 151.32L96.5999 145.72L84.1199 150.6H73.4799V150.52ZM35.0798 151L30.5998 147.32L30.8398 146.44L56.9999 135L56.0399 133.8L27.4798 143.96L23.8798 155.96L20.8398 171.8H27.7198L28.2798 157.16L30.5998 147.48L34.8398 151.88L42.2798 165.48L43.3998 171.8H45.0798L42.9998 165.08L35.0798 151ZM123.64 151.48L115.8 165.64L113.88 171.8H115.48L116.52 166.04L123.96 152.36L129.72 146.44L123.64 151.48Z" fill="#054548"/>
<path d="M50.2796 69.2403C50.2796 69.2403 45.4796 68.6803 41.7996 66.2803C41.7996 66.2803 38.9996 73.8003 38.5996 77.8003C38.5996 77.8003 43.9596 88.2003 46.5996 92.6003C46.5996 92.6003 50.7596 92.0403 51.6396 91.4803L52.7596 84.7603L50.2796 69.2403Z" fill="#F3D4CF"/>
<path d="M42.4398 67.8003C42.2798 67.4803 41.7998 66.2803 41.7998 66.2803C45.9598 66.6003 50.3598 67.4003 50.3598 67.4003L52.7598 84.7603L51.6398 91.4803C50.7598 92.0403 46.5998 92.6003 46.5998 92.6003C46.1198 91.8003 45.5598 90.6803 44.9198 89.6403L46.9998 90.4403L49.3998 89.1603C49.3998 89.1603 49.9598 80.2003 49.7998 79.9603C49.7198 79.7203 42.5998 68.1203 42.4398 67.8003Z" fill="#E4B3AB"/>
<path d="M40.04 76.5201L42.28 72.1201L46.44 77.5601L48.2 85.1601L47.08 86.6801L43.64 80.6001L44.44 76.8401L42.36 73.6401L40.04 76.5201Z" fill="#D4958A"/>
<path d="M107.72 69.2403C107.72 69.2403 112.52 68.6803 116.2 66.2803C116.2 66.2803 119 73.8003 119.4 77.8003C119.4 77.8003 114.04 88.2003 111.4 92.6003C111.4 92.6003 107.24 92.0403 106.36 91.4803L105.24 84.7603L107.72 69.2403Z" fill="#F3D4CF"/>
<path d="M115.56 67.8003C115.72 67.4803 116.2 66.2803 116.2 66.2803C112.04 66.6003 107.64 67.4003 107.64 67.4003L105.24 84.7843L106.36 91.4803C107.24 92.0403 111.4 92.6003 111.4 92.6003C111.88 91.8003 112.44 90.6803 113.08 89.6403L111 90.4403L108.6 89.1603C108.6 89.1603 108.04 80.2003 108.2 79.9603C108.28 79.7203 115.4 68.1203 115.56 67.8003Z" fill="#E4B3AB"/>
<path d="M117.96 76.5201L115.72 72.1201L111.56 77.5601L109.8 85.1601L110.92 86.6801L114.36 80.6001L113.56 76.8401L115.64 73.6401L117.96 76.5201Z" fill="#D4958A"/>
<path d="M108.439 44.5997C103.079 35.6397 93.2394 29.4797 93.2394 29.4797C87.6394 28.2797 78.9994 27.7197 78.9994 27.7197C78.9994 27.7197 70.3594 28.3597 64.7594 29.4797C64.7594 29.4797 54.8394 35.5597 49.5594 44.5997C49.5594 44.5997 45.5594 55.7997 45.3994 63.7197C45.3994 63.7197 47.4794 82.6797 50.0394 90.9197C50.0394 90.9197 57.9594 106.76 65.7194 114.68C65.7194 114.68 74.9194 119.72 78.9994 119.72C83.0794 119.72 92.2794 114.68 92.2794 114.68C100.039 106.76 107.959 90.9197 107.959 90.9197C110.439 82.6797 112.599 63.7197 112.599 63.7197C112.359 55.8797 108.439 44.5997 108.439 44.5997Z" fill="#F3D4CF"/>
<path d="M67.6394 32.2797L90.6794 31.6397L108.439 44.5997C103.079 35.6397 93.2394 29.4797 93.2394 29.4797C87.6394 28.2797 78.9994 27.7197 78.9994 27.7197C78.9994 27.7197 70.3594 28.3597 64.7594 29.4797C64.7594 29.4797 54.8394 35.5597 49.5594 44.5997C49.5594 44.5997 45.5594 55.7997 45.3994 63.7197C45.3994 63.7197 47.4794 82.6797 50.0394 90.9197C50.0394 90.9197 57.9594 106.76 65.7194 114.68C65.7194 114.68 74.9194 119.72 78.9994 119.72C75.7194 119.32 66.7594 112.84 66.7594 112.84C64.1194 109.08 54.5994 90.4397 54.5994 90.4397C52.5994 85.3197 49.3194 62.5197 49.3194 62.5197C49.5594 59.8797 52.8394 46.1197 52.8394 45.4797C52.8394 44.8397 67.6394 32.2797 67.6394 32.2797Z" fill="#D4958A"/>
<path d="M70.2402 103.407L73.3842 108.071L79.6722 109.503L86.0962 108.159L89.4722 103.775L81.4722 101.327L73.0642 102.199L70.2402 103.407Z" fill="#DA7C87"/>
<path d="M68.2158 104.232L75.5438 99.3115L79.2078 100.768C79.2078 100.768 82.6798 99.3595 82.8238 99.3595C82.9678 99.3595 90.7838 104.424 90.7838 104.424L82.5278 103.32L79.3038 105.024L75.9838 103.12L68.2158 104.232Z" fill="#CB5F6C"/>
<path d="M79.8721 108.656L85.4801 107.592L87.7041 104.896L85.1121 107.12L79.8721 108.656Z" fill="#F9BFC6"/>
<path d="M71.8804 79.3204L69.8804 73.8804L61.1604 71.4004L55.4004 73.0804L59.8004 79.5604L71.8804 79.3204Z" fill="white"/>
<path d="M65.0729 79.4239L61.105 77.9679L60.377 73.7999L63.625 71.0879L67.593 72.5439L68.321 76.7119L65.0729 79.4239Z" fill="#4E60A3"/>
<path d="M62.1846 75.9602L62.6566 73.7362L64.8246 73.0322L66.5126 74.5522L66.0406 76.7762L63.8726 77.4802L62.1846 75.9602Z" fill="black"/>
<path d="M62.1045 73.3038L63.6725 74.8078L64.1125 74.4958L63.2325 72.5518L62.1045 73.3038Z" fill="white"/>
<path d="M64.9932 76.696L65.3692 77.384L65.9932 77.136L65.6812 76.376L64.9932 76.696Z" fill="white"/>
<path d="M53.4004 71.4001V80.2801L59.5604 86.6001H68.2804L74.4404 80.2801V71.4001L68.2804 65.0801H59.5604L53.4004 71.4001ZM55.4004 73.0801L61.0804 71.4001L69.8804 73.8801L71.8804 79.3201L59.8004 79.5601L55.4004 73.0801Z" fill="#F3D4CF"/>
<path d="M56.1201 73.3203L60.0401 79.4803L65.8001 79.4003L59.8001 79.7203L55.0801 73.4003L56.1201 73.3203Z" fill="#D4958A"/>
<path d="M72.52 80.5196L70.52 73.3196L61.72 69.6396L51 71.5596L54.28 73.6396H56.28L61.88 71.6396L69.8 73.9596L71.56 79.2396L72.52 80.5196Z" fill="black"/>
<path d="M86.1191 79.3204L88.1191 73.8804L96.8391 71.4004L102.599 73.0804L98.1991 79.5604L86.1191 79.3204Z" fill="white"/>
<path d="M94.3757 79.4239L90.4077 77.9679L89.6797 73.7999L92.9277 71.0879L96.8957 72.5439L97.6237 76.7119L94.3757 79.4239Z" fill="#4E60A3"/>
<path d="M91.4873 75.9602L91.9593 73.7362L94.1273 73.0322L95.8153 74.5522L95.3433 76.7762L93.1753 77.4802L91.4873 75.9602Z" fill="black"/>
<path d="M91.4082 73.3038L92.9762 74.8078L93.4162 74.4958L92.5362 72.5518L91.4082 73.3038Z" fill="white"/>
<path d="M94.2959 76.696L94.6719 77.384L95.2959 77.136L94.9839 76.376L94.2959 76.696Z" fill="white"/>
<path d="M98.4396 65.0801H89.7196L83.5596 71.4001V80.2801L89.7196 86.6001H98.4396L104.6 80.2801V71.4001L98.4396 65.0801ZM98.1996 79.5601L86.1196 79.3201L88.1196 73.8801L96.9196 71.4001L102.6 73.0801L98.1996 79.5601Z" fill="#F3D4CF"/>
<path d="M101.879 73.3203L97.9592 79.4803L92.1992 79.4003L98.1992 79.7203L102.919 73.4003L101.879 73.3203Z" fill="#D4958A"/>
<path d="M85.4795 80.5196L87.4795 73.3196L96.2795 69.6396L106.999 71.5596L103.719 73.6396H101.719L96.1195 71.6396L88.1995 73.9596L86.4395 79.2396L85.4795 80.5196Z" fill="black"/>
<path d="M72.7602 65.5602L71.4002 68.3602L59.7202 65.0802L53.1602 66.6802L57.8802 62.6802L60.2802 62.2002L72.7602 65.5602Z" fill="#2A232B"/>
<path d="M67.5602 64.2002L68.6802 64.5202L69.0802 66.6002L67.5602 64.2002ZM60.2802 62.2002L62.6802 65.0802L59.2402 62.3602L60.2802 62.2002ZM65.4002 63.5602L66.2002 66.0402L64.1202 63.2402L65.4002 63.5602ZM55.8002 64.4402L57.3202 64.4402L55.2402 64.9202L55.8002 64.4402ZM66.9202 63.9602L67.0802 64.8402L66.1202 63.8002L66.9202 63.9602ZM57.8802 62.6802L59.9602 63.8002L57.4002 63.1602L57.8802 62.6802ZM70.4402 64.9202L70.8402 67.4002L69.0002 64.6002L70.4402 64.9202Z" fill="#3A353A"/>
<path d="M85.2402 65.5602L86.6002 68.3602L98.2802 65.0802L104.84 66.6802L100.12 62.6802L97.7202 62.2002L85.2402 65.5602Z" fill="#2A232B"/>
<path d="M90.4402 64.2002L89.3202 64.5202L88.9202 66.6002L90.4402 64.2002ZM97.7202 62.2002L95.3202 65.0802L98.7602 62.3602L97.7202 62.2002ZM92.6002 63.5602L91.8002 66.0402L93.8802 63.2402L92.6002 63.5602ZM102.2 64.4402L100.68 64.4402L102.76 64.9202L102.2 64.4402ZM91.0802 63.9602L90.9202 64.8402L91.8002 63.7202L91.0802 63.9602ZM100.12 62.6802L98.0402 63.8002L100.6 63.1602L100.12 62.6802ZM87.5602 64.9202L87.1602 67.4002L89.0002 64.6002L87.5602 64.9202Z" fill="#3A353A"/>
<path d="M82.4072 85.4963L81.0392 74.5203L81.8072 84.7123L81.2072 84.5603L85.8232 91.6083L84.1832 92.8163L83.2792 91.7603L83.4792 90.8243L79.8712 93.9523H78.1912L74.5832 90.8243L74.7832 91.7603L73.8792 92.8163L72.2472 91.6083L76.8552 84.5603L76.2552 84.7123L77.1912 68.7363L75.6552 85.4963L71.5752 91.6803L74.2472 93.6403L75.2552 92.2323L78.1912 94.9683H79.8712L82.8152 92.2323L83.8152 93.6403L86.4872 91.6803L82.4072 85.4963Z" fill="#D4958A"/>
<path d="M76.3115 90.2166L77.9675 91.2326L80.1355 91.2806L81.9275 90.4646L81.7115 89.2326L79.1995 88.8086L76.4395 89.2806L76.3115 90.2166Z" fill="#FBE5E2"/>
<path d="M113.88 60.1197L111.16 46.5997L105.8 37.9597L99.5598 32.9997L102.04 31.3997L103.16 24.1197L98.0398 14.9997L85.0798 9.71973L68.9998 10.7597L58.7598 17.7197L57.3198 29.2397L59.5598 32.1197L50.0398 41.3997L44.9998 53.9597L44.8398 66.5997L47.7998 74.6797L52.2798 58.2797L61.4798 45.2397L78.2798 39.7197L96.9998 44.5997L107.08 57.5597L111.48 74.8397L114.36 66.7597L113.88 60.1197Z" fill="#2A232B"/>
<path d="M90.9998 28.2797L90.5198 28.1997L80.8398 26.6797L78.9998 18.6797L81.0798 12.4397L85.1598 9.71973L79.7998 12.0397L77.2398 18.8397L78.9198 26.4397L78.3598 26.3597L77.2398 26.5997L76.9998 26.6797L72.9998 27.4797L69.5598 19.4797L71.9598 13.5597L75.3998 10.7597L85.0798 9.71973L68.9998 10.6797L58.7598 17.6397L57.3198 29.1597L59.5598 32.0397L50.0398 41.3997L44.9998 53.8797L44.8398 66.5197L47.7998 74.6797L52.3598 58.2797L61.5598 45.2397L61.7198 45.1597L61.0798 41.7997V32.9997L64.2798 32.0397L66.4398 39.6397L68.1198 42.9997L68.5998 42.8397L66.4398 33.6397L65.1598 31.7997L76.5998 28.4397L75.5598 34.1997L76.1198 40.4397L76.9998 40.1197L77.7198 34.3597L77.4798 28.1997H77.5598L86.6798 28.5997L84.9998 33.7197L83.8798 41.1597H84.0398L85.7198 35.8797L86.9998 28.5997L90.3598 28.7597L88.0398 34.7597L86.5998 41.7997L87.2398 41.9597L90.2798 36.2797L91.0798 28.7597L94.4398 28.9197L94.1998 28.7597L90.9998 28.2797ZM64.7598 29.2397L61.6398 20.2797L69.4798 11.4797L75.2398 10.8397L70.9198 12.9997L67.5598 19.7997L71.8798 27.7997L64.7598 29.2397ZM111.16 46.6797L106.6 48.2797L101.56 50.4397L101.8 50.6797L106.84 49.3197L111.32 47.0797L111.16 46.6797ZM108.92 42.9997L108.6 42.5197L104.04 44.6797L99.3998 47.7197L99.6398 48.0397L104.04 46.3597L108.92 42.9997ZM95.9598 37.5597L94.3598 43.8797L95.0798 44.0397L97.4798 40.1197L99.3998 32.8397L98.8398 32.4397L95.9598 37.5597ZM95.8798 30.9197L101.16 23.7197L92.8398 13.2397L98.5998 23.4797L95.8798 30.9197ZM83.7998 26.7597L90.1998 21.7997L91.3198 14.9997L89.5598 11.9597L90.4398 15.2397L88.9998 20.1997L83.7998 26.7597Z" fill="#221B23"/>
</g>
</svg>
