<svg width="240" height="240" viewBox="0 0 240 240" fill="none" xmlns="http://www.w3.org/2000/svg">
<g clip-path="url(#clip0_2077_3280)">
<path d="M0 0H240V240H0V0Z" fill="white"/>
<path d="M203.75 205.055L170.935 196.761L149.298 184.861L147.495 150.964H91.7218L89.9187 184.861L68.2824 196.761L35.4673 205.055L24.5289 228.735L20.9229 252.775H218.294L214.688 228.735L203.75 205.055Z" fill="#F0C7B1"/>
<path d="M91.7218 150.964L89.9188 184.861L68.2824 196.761L35.4673 205.055L24.5289 228.735L20.9229 252.775H38.4723V228.735L41.7178 207.459L70.3258 199.766L100.016 189.789L104.223 150.964H91.7218Z" fill="#D19271"/>
<path d="M145.452 167.552L148.096 162.984L147.495 150.964H91.7214L90.7598 170.076L107.348 181.615H125.138L145.452 167.552Z" fill="#C27B55"/>
<path d="M110.954 190.631L113.358 200.127L121.652 205.656C121.652 205.656 111.435 202.05 111.195 201.329C110.954 200.608 110.954 190.631 110.954 190.631Z" fill="#D19271"/>
<path d="M220.218 252.775L216.372 228.134L204.832 203.973L171.536 195.559L150.381 183.9L149.179 182.337L149.299 184.861L150.14 188.347L139.563 200.608L128.264 205.656H110.954L99.6555 200.608L89.0777 188.347L89.9191 184.861L90.0393 182.337L88.8373 183.9L67.6818 195.559L34.2656 203.973L22.8465 228.134L19 252.775H220.218Z" fill="#015D61"/>
<path d="M85.9525 185.582L84.6303 190.15L94.1262 204.093L110.834 212.027L121.652 213.469H110.954L94.1262 205.656L83.6686 190.631L85.4717 185.823L85.9525 185.582ZM34.9869 237.149L39.1939 219.72L42.6798 220.561L45.6848 231.74L43.7616 220.441L39.7949 209.743L72.9707 202.771L87.3949 195.319L92.4434 192.314L89.0777 188.467L89.9192 184.981L90.0394 182.457L88.8373 184.02L67.5616 195.679L34.2656 204.093L22.7263 228.254L19 252.775H34.8667L34.9869 237.149ZM51.3343 247.606L49.1707 239.793L49.4111 252.775H51.9353L51.3343 247.606ZM153.266 185.582L154.588 190.15L145.092 204.093L128.384 212.027L117.566 213.469H128.264L145.092 205.656L155.549 190.631L153.746 185.823L153.266 185.582ZM187.884 247.606L190.047 239.793L189.807 252.775H187.283L187.884 247.606Z" fill="#035457"/>
<path d="M75.2546 98.676C75.2546 98.676 68.0424 97.8346 62.5132 94.2285C62.5132 94.2285 58.3061 105.527 57.7051 111.538C57.7051 111.538 65.7586 127.164 69.7253 133.775C69.7253 133.775 75.9758 132.934 77.298 132.092L78.9808 121.995L75.2546 98.676Z" fill="#F0C7B1"/>
<path d="M63.4743 96.5124C63.2339 96.0315 62.5127 94.2285 62.5127 94.2285C68.7632 94.7093 75.3743 95.9113 75.3743 95.9113L78.9804 121.875L77.2975 131.972C75.9753 132.813 69.7248 133.655 69.7248 133.655C69.0036 132.453 68.1622 130.89 67.2006 129.327L70.3258 130.53L73.9319 128.606C73.9319 128.606 74.7733 115.144 74.5329 114.783C74.4127 114.422 63.7147 96.9932 63.4743 96.5124Z" fill="#E1AC8F"/>
<path d="M59.8691 109.614L63.2348 103.003L69.4853 111.177L72.1297 122.596L70.4469 124.88L65.2782 115.744L66.4802 110.095L63.355 105.287L59.8691 109.614Z" fill="#D19271"/>
<path d="M163.964 98.676C163.964 98.676 171.176 97.8346 176.705 94.2285C176.705 94.2285 180.912 105.527 181.513 111.538C181.513 111.538 173.46 127.164 169.493 133.775C169.493 133.775 163.242 132.934 161.92 132.092L160.237 121.995L163.964 98.676Z" fill="#F0C7B1"/>
<path d="M175.743 96.5124C175.984 96.0315 176.705 94.2285 176.705 94.2285C170.454 94.7093 163.843 95.9113 163.843 95.9113L160.237 121.875L161.92 131.972C163.242 132.813 169.493 133.655 169.493 133.655C170.214 132.453 171.055 130.89 172.017 129.327L168.892 130.53L165.286 128.606C165.286 128.606 164.444 115.144 164.685 114.783C164.805 114.422 175.503 96.9932 175.743 96.5124Z" fill="#E1AC8F"/>
<path d="M179.349 109.614L175.984 103.003L169.733 111.177L167.089 122.596L168.772 124.88L173.94 115.744L172.738 110.095L175.864 105.287L179.349 109.614Z" fill="#D19271"/>
<path d="M165.406 60.4511C157.112 46.5077 141.726 37.0117 141.726 37.0117C133.072 35.2087 119.609 34.2471 119.609 34.2471C119.609 34.2471 106.267 35.2087 97.4919 37.0117C97.4919 37.0117 82.106 46.5077 73.8121 60.4511C73.8121 60.4511 67.6818 77.8804 67.4414 90.2612L73.3313 131.01L90.4 160.82L110.714 174.883H128.624L148.938 160.82L166.007 131.01L171.897 90.2612C171.536 77.8804 165.406 60.4511 165.406 60.4511Z" fill="#F0C7B1"/>
<path d="M110.834 171.878L93.2848 157.093C93.2848 157.093 79.5818 131.971 79.101 131.01C78.6202 129.928 73.0909 89.7804 73.0909 89.7804C73.3313 84.0107 78.5 63.9369 79.101 63.0955C81.6252 59.2491 98.9343 41.4592 98.9343 41.4592L119.489 36.5309L141.726 37.0117C133.072 35.2087 119.609 34.2471 119.609 34.2471C119.609 34.2471 106.267 35.2087 97.4919 37.0117C97.4919 37.0117 82.106 46.5077 73.8121 60.4511C73.8121 60.4511 67.6818 77.8804 67.4414 90.2612L73.3313 131.01L90.4 160.82L110.714 174.883H128.624L148.938 160.82L127.302 173.321L110.834 171.878Z" fill="#D19271"/>
<path d="M108.852 152.406L112.578 155.051L119.309 154.81L127.242 155.532L130.488 153.127L127.002 154.329L119.189 153.728L112.578 153.969L108.852 152.406Z" fill="#D19271"/>
<path d="M106.591 145.29L104.464 148.404L113.936 145.831L116.929 147.646L121.533 147.971L124.381 146.228L136.041 148.704L133.913 146.396L123.275 139.917L119.357 141.107L115.883 139.749L106.591 145.29Z" fill="#DA7C87"/>
<path d="M101.939 146.877L104.704 149.161L113.719 146.276L117.085 148.2L121.532 148.32L124.658 146.517L136.077 149.282L138.325 147.659L135.836 148.2L124.297 144.954L121.292 147.238L117.085 147.118L113.839 144.714L104.464 147.959L101.939 146.877Z" fill="#CB5F6C"/>
<path d="M109.031 103.364L102.78 97.835L91.962 97.9552L83.5479 102.523C83.5479 102.523 90.5196 107.692 92.2024 108.413L102.78 107.932L109.031 103.364Z" fill="white"/>
<path d="M98.2125 108.774L91.6014 106.369L90.3994 99.3978L95.8085 94.8301L102.42 97.3543L103.622 104.206L98.2125 108.774Z" fill="#015D61"/>
<path d="M93.4043 103.004L94.1255 99.2782L97.7316 98.0762L100.616 100.6L99.775 104.327L96.1689 105.529L93.4043 103.004Z" fill="#21222F"/>
<path d="M93.1641 98.5565L95.8085 101.081L96.5297 100.6L95.0873 97.3545L93.1641 98.5565Z" fill="white"/>
<path d="M98.0928 104.206L98.6938 105.408L99.6554 104.928L99.1746 103.726L98.0928 104.206Z" fill="white"/>
<path d="M80.0625 95.6712V109.975L89.5585 120.072H103.021L112.517 109.975V95.6712L103.021 85.5742H89.5585L80.0625 95.6712ZM83.6686 102.523L92.0827 97.955L102.901 97.8348L109.031 103.364L102.781 108.052L92.2029 108.533C90.6403 107.571 83.6686 102.523 83.6686 102.523Z" fill="#F0C7B1"/>
<path d="M109.632 103.846L108.189 103.124L102.54 98.1961H91.962L83.3075 103.004L82.1055 103.245L91.6014 97.2345L103.141 97.1143L109.632 103.846Z" fill="#21222F"/>
<path d="M108.55 101.321L103.742 96.3927L91.9619 96.2725L82.2256 100.6L91.9619 96.8735H103.622L108.55 101.321Z" fill="#E1AC8F"/>
<path d="M130.188 103.363L136.318 97.834L147.136 97.9542L155.55 102.522C155.55 102.522 148.578 107.691 146.896 108.412L136.318 107.931L130.188 103.363Z" fill="white"/>
<path d="M143.409 108.774L136.798 106.369L135.596 99.3978L141.005 94.8301L147.616 97.3543L148.818 104.206L143.409 108.774Z" fill="#015D61"/>
<path d="M138.602 103.003L139.443 99.2772L143.049 98.0752L145.814 100.599L145.092 104.326L141.486 105.528L138.602 103.003Z" fill="#21222F"/>
<path d="M138.48 98.5565L141.125 101.081L141.846 100.6L140.404 97.3545L138.48 98.5565Z" fill="white"/>
<path d="M143.289 104.205L144.01 105.407L144.972 104.927L144.491 103.725L143.289 104.205Z" fill="white"/>
<path d="M149.66 85.4541H136.197L126.701 95.5511V109.855L136.197 119.952H149.66L159.156 109.855V95.6713L149.66 85.4541ZM146.895 108.413L136.317 107.932L130.187 103.364L136.317 97.8349L147.135 97.9551L155.55 102.523C155.55 102.523 148.578 107.571 146.895 108.413Z" fill="#F0C7B1"/>
<path d="M129.586 103.845L131.028 103.123L136.678 98.1951H147.256L155.91 103.003L157.112 103.244L147.616 97.2335L136.077 97.1133L129.586 103.845Z" fill="#21222F"/>
<path d="M130.668 101.32L135.476 96.3917L147.256 96.2715L156.992 100.599L147.256 96.8725H135.596L130.668 101.32Z" fill="#E1AC8F"/>
<path d="M88.5968 81.6074L84.7503 83.2903L78.7402 94.1084L88.9574 88.5791L109.752 93.0266L110.834 85.8145L88.5968 81.6074Z" fill="#21222F"/>
<path d="M105.065 89.3003L103.622 84.4923L101.579 84.0115L105.065 89.3003ZM87.1545 82.3286L93.8858 87.8579L88.5969 81.6074L87.1545 82.3286ZM95.4484 82.9296L100.016 88.9397L97.7322 83.4105L95.4484 82.9296ZM81.3848 89.4205L84.6302 87.6175L82.106 88.2185L81.3848 89.4205ZM99.0545 83.6509L101.098 85.9347L100.497 83.8913L99.0545 83.6509ZM84.1494 84.4923L88.7171 85.4539L84.7504 83.2903L84.1494 84.4923ZM104.103 84.6125L108.31 90.863L106.627 85.2135L104.103 84.6125Z" fill="#3A353A"/>
<path d="M128.384 85.8145L129.466 93.0266L150.261 88.5791L160.478 94.1084L154.468 83.2903L150.621 81.6074L128.384 85.8145Z" fill="#21222F"/>
<path d="M137.64 84.0115L135.596 84.3721L134.154 89.1801L137.64 84.0115ZM150.621 81.6074L145.332 87.8579L152.064 82.3286L150.621 81.6074ZM141.486 83.4105L139.202 88.9397L143.77 82.9296L141.486 83.4105ZM156.992 88.2185L154.468 87.6175L157.713 89.4205L156.992 88.2185ZM138.721 83.8913L138.12 85.9347L140.164 83.6509L138.721 83.8913ZM154.468 83.2903L150.621 85.4539L155.189 84.4923L154.468 83.2903ZM132.591 85.0933L130.908 90.7428L135.115 84.4923L132.591 85.0933Z" fill="#3A353A"/>
<path d="M114.946 109.627L114.405 117.32L107.457 127.982L111.039 130.686L112.998 128.258L118.191 132.85H121.088L126.221 128.258L128.108 130.614L131.894 127.982L124.934 117.259L124.261 109.494L119.67 107.535L114.946 109.627Z" fill="#F0C7B1"/>
<path d="M125.451 117.476L123.107 98.6406L124.43 116.13L123.396 115.866L131.305 127.958L128.492 130.037L126.954 128.222L127.29 126.612L121.1 131.985H118.215L112.025 126.612L112.373 128.222L110.823 130.037L108.01 127.958L115.931 115.866L114.898 116.13L116.496 88.7119L113.864 117.476L106.868 128.09L111.448 131.444L113.179 129.028L118.215 133.728H121.1L126.149 129.028L127.867 131.444L132.447 128.09L125.451 117.476Z" fill="#D19271"/>
<path d="M114.981 125.566L117.83 127.321L121.556 127.393L124.622 125.999L124.261 123.883L119.946 123.162L115.21 123.955L114.981 125.566Z" fill="#F8D5C3"/>
<path d="M171.309 65.2358C168.255 58.2281 148.29 36.5797 148.29 36.5797L119.61 32L90.9295 36.5677C90.9295 36.5677 70.964 58.204 67.9108 65.2238L66.793 94.4329L72.2982 99.277H75.3754L76.2529 69.3467L96.9396 49.1047L105.738 59.0094L119.61 61.1129L133.481 59.0094L142.28 49.1047L162.967 69.3467L163.844 99.277H166.921L172.426 94.4329L171.309 65.2358Z" fill="#1B141C"/>
<path d="M148.29 36.5797L119.61 32L108.684 33.7429L95.1973 39.2362C95.1973 39.2362 105.679 55.9202 106.881 55.9202C108.071 55.9202 121.894 58.0598 123.084 57.8314C124.274 57.591 133.097 56.6414 133.097 56.6414L143.11 47.5902L164.794 69.515L165.9 99.289H166.934L172.439 94.4449L171.321 65.2358C168.256 58.216 148.29 36.5797 148.29 36.5797Z" fill="#21222F"/>
</g>
<defs>
<clipPath id="clip0_2077_3280">
<rect width="240" height="240" fill="white"/>
</clipPath>
</defs>
</svg>
