<svg width="159" height="159" viewBox="0 0 159 159" fill="none" xmlns="http://www.w3.org/2000/svg">
<mask id="mask0_2077_2608" style="mask-type:alpha" maskUnits="userSpaceOnUse" x="0" y="0" width="159" height="159">
<circle cx="79.5" cy="79.5" r="79.5" fill="#21222F"/>
</mask>
<g mask="url(#mask0_2077_2608)">
<path d="M-1 -13H160.818V163.072H-1V-13Z" fill="#E2F2EF"/>
<path d="M136.546 132.879L114.458 127.296L99.8943 119.286L98.6807 96.4697H61.1388L59.9252 119.286L45.3616 127.296L23.2734 132.879L15.9107 148.818L13.4834 165H146.336L143.909 148.818L136.546 132.879Z" fill="#F0C7B1"/>
<path d="M61.1389 96.4697L59.9252 119.286L45.3616 127.296L23.2734 132.879L15.9107 148.818L13.4834 165H25.2961V148.818L27.4807 134.497L46.737 129.319L66.7216 122.603L69.5534 96.4697H61.1389Z" fill="#D19271"/>
<path d="M97.3049 107.635L99.0848 104.561L98.6803 96.4697H61.1385L60.4912 109.334L71.6567 117.102H83.6312L97.3049 107.635Z" fill="#C27B55"/>
<path d="M74.084 123.17L75.7022 129.562L81.2849 133.284C81.2849 133.284 74.4076 130.856 74.2458 130.371C74.084 129.885 74.084 123.17 74.084 123.17Z" fill="#D19271"/>
<path d="M147.63 165.001L145.041 148.414L137.274 132.152L114.862 126.488L100.622 118.64L99.813 117.588L99.8939 119.287L100.46 121.633L93.3403 129.886L85.7348 133.284H74.0839L66.4785 129.886L59.3585 121.633L59.9248 119.287L60.0057 117.588L59.1967 118.64L44.9567 126.488L22.4639 132.152L14.7776 148.414L12.1885 165.001H147.63Z" fill="#015D61"/>
<path d="M57.2548 119.773L56.3648 122.847L62.7567 132.233L74.003 137.573L81.2848 138.543H74.0839L62.7567 133.284L55.7176 123.171L56.9312 119.934L57.2548 119.773ZM22.9494 154.483L25.7812 142.751L28.1276 143.317L30.1503 150.842L28.8558 143.236L26.1858 136.035L48.5167 131.343L58.2257 126.326L61.6239 124.303L59.3585 121.714L59.9248 119.368L60.0058 117.669L59.1967 118.721L44.8758 126.569L22.4639 132.233L14.6967 148.495L12.1885 165.001H22.8685L22.9494 154.483ZM33.953 161.522L32.4967 156.263L32.6585 165.001H34.3576L33.953 161.522ZM102.564 119.773L103.454 122.847L97.0621 132.233L85.8158 137.573L78.5339 138.543H85.7348L97.0621 133.284L104.101 123.171L102.888 119.934L102.564 119.773ZM125.866 161.522L127.322 156.263L127.16 165.001H125.461L125.866 161.522Z" fill="#035457"/>
<path d="M50.0539 61.2749C50.0539 61.2749 45.1994 60.7085 41.4776 58.2812C41.4776 58.2812 38.6458 65.8867 38.2412 69.9322C38.2412 69.9322 43.6621 80.4503 46.3321 84.9003C46.3321 84.9003 50.5394 84.334 51.4294 83.7676L52.5621 76.9712L50.0539 61.2749Z" fill="#F0C7B1"/>
<path d="M42.1248 59.8185C41.963 59.4949 41.4775 58.2812 41.4775 58.2812C45.6848 58.6049 50.1348 59.414 50.1348 59.414L52.5621 76.8903L51.4294 83.6867C50.5394 84.2531 46.3321 84.8194 46.3321 84.8194C45.8466 84.0103 45.2803 82.9585 44.633 81.9067L46.7366 82.7158L49.1639 81.4212C49.1639 81.4212 49.7303 72.3594 49.5684 72.1167C49.4875 71.874 42.2866 60.1422 42.1248 59.8185Z" fill="#E1AC8F"/>
<path d="M39.6973 68.6375L41.9627 64.1875L46.17 69.6893L47.95 77.3757L46.8173 78.913L43.3382 72.7639L44.1473 68.9611L42.0436 65.7248L39.6973 68.6375Z" fill="#D19271"/>
<path d="M109.765 61.2749C109.765 61.2749 114.62 60.7085 118.341 58.2812C118.341 58.2812 121.173 65.8867 121.578 69.9322C121.578 69.9322 116.157 80.4503 113.487 84.9003C113.487 84.9003 109.28 84.334 108.39 83.7676L107.257 76.9712L109.765 61.2749Z" fill="#F0C7B1"/>
<path d="M117.694 59.8185C117.856 59.4949 118.341 58.2812 118.341 58.2812C114.134 58.6049 109.684 59.414 109.684 59.414L107.257 76.8903L108.39 83.6867C109.28 84.2531 113.487 84.8194 113.487 84.8194C113.972 84.0103 114.539 82.9585 115.186 81.9067L113.082 82.7158L110.655 81.4212C110.655 81.4212 110.089 72.3594 110.25 72.1167C110.331 71.874 117.532 60.1422 117.694 59.8185Z" fill="#E1AC8F"/>
<path d="M120.121 68.6375L117.855 64.1875L113.648 69.6893L111.868 77.3757L113.001 78.913L116.48 72.7639L115.671 68.9611L117.775 65.7248L120.121 68.6375Z" fill="#D19271"/>
<path d="M110.736 35.5454C105.153 26.16 94.7967 19.7681 94.7967 19.7681C88.9713 18.5545 79.9095 17.9072 79.9095 17.9072C79.9095 17.9072 70.9286 18.5545 65.0222 19.7681C65.0222 19.7681 54.6658 26.16 49.0831 35.5454C49.0831 35.5454 44.9567 47.2772 44.7949 55.6109L48.7595 83.039L60.2486 103.104L73.9222 112.571H85.9777L99.6513 103.104L111.14 83.039L115.105 55.6109C114.862 47.2772 110.736 35.5454 110.736 35.5454Z" fill="#F0C7B1"/>
<path d="M74.0031 110.548L62.1904 100.596C62.1904 100.596 52.9667 83.6863 52.6431 83.039C52.3195 82.3109 48.5976 55.2872 48.5976 55.2872C48.7595 51.4036 52.2386 37.8918 52.6431 37.3254C54.3422 34.7363 65.9931 22.7618 65.9931 22.7618L79.8286 19.4445L94.7967 19.7681C88.9713 18.5545 79.9095 17.9072 79.9095 17.9072C79.9095 17.9072 70.9286 18.5545 65.0222 19.7681C65.0222 19.7681 54.6658 26.16 49.0831 35.5454C49.0831 35.5454 44.9567 47.2772 44.7949 55.6109L48.7595 83.039L60.2486 103.104L73.9222 112.571H85.9776L99.6513 103.104L85.0876 111.519L74.0031 110.548Z" fill="#D19271"/>
<path d="M72.668 97.4414L75.1761 99.2214L79.7071 99.0596L85.0471 99.545L87.2316 97.9269L84.8852 98.736L79.6261 98.3314L75.1761 98.4932L72.668 97.4414Z" fill="#D19271"/>
<path d="M71.1469 92.6518L69.7148 94.7473L76.0905 93.0159L78.1051 94.2376L81.2039 94.4561L83.1215 93.2829L90.9697 94.9496L89.5376 93.3961L82.3771 89.0351L79.7395 89.8361L77.4012 88.9219L71.1469 92.6518Z" fill="#DA7C87"/>
<path d="M68.0156 93.72L69.8765 95.2573L75.9447 93.3155L78.2102 94.61L81.2038 94.6909L83.3074 93.4773L90.9938 95.3382L92.5068 94.2459L90.832 94.61L83.0647 92.4255L81.042 93.9628L78.2102 93.8819L76.0256 92.2637L69.7147 94.4482L68.0156 93.72Z" fill="#CB5F6C"/>
<path d="M72.7894 64.4308L68.5822 60.709L61.3004 60.7899L55.6367 63.8644C55.6367 63.8644 60.3294 67.3435 61.4622 67.829L68.5822 67.5053L72.7894 64.4308Z" fill="white"/>
<path d="M65.5071 68.071L61.0571 66.4528L60.248 61.7601L63.889 58.6855L68.339 60.3846L69.148 64.9965L65.5071 68.071Z" fill="#015D61"/>
<path d="M62.2705 64.1874L62.756 61.6792L65.1832 60.8701L67.1251 62.5692L66.5587 65.0774L64.1314 65.8865L62.2705 64.1874Z" fill="#21222F"/>
<path d="M62.1084 61.1939L63.8884 62.893L64.3739 62.5693L63.4029 60.3848L62.1084 61.1939Z" fill="white"/>
<path d="M65.4258 64.9965L65.8303 65.8056L66.4776 65.4819L66.154 64.6729L65.4258 64.9965Z" fill="white"/>
<path d="M53.29 59.2524V68.8806L59.6819 75.677H68.7437L75.1355 68.8806V59.2524L68.7437 52.4561H59.6819L53.29 59.2524ZM55.7173 63.8642L61.3809 60.7897L68.6628 60.7088L72.7891 64.4306L68.5819 67.5861L61.4619 67.9097C60.41 67.2624 55.7173 63.8642 55.7173 63.8642Z" fill="#F0C7B1"/>
<path d="M73.1942 64.7545L72.2233 64.2691L68.4206 60.9518H61.3006L55.4751 64.1882L54.666 64.35L61.0578 60.3045L68.8251 60.2236L73.1942 64.7545Z" fill="#21222F"/>
<path d="M72.4652 63.0554L69.2288 59.7381L61.2997 59.6572L54.7461 62.57L61.2997 60.0618H69.1479L72.4652 63.0554Z" fill="#E1AC8F"/>
<path d="M87.0293 64.4308L91.1557 60.709L98.4375 60.7899L104.101 63.8644C104.101 63.8644 99.4084 67.3435 98.2757 67.829L91.1557 67.5053L87.0293 64.4308Z" fill="white"/>
<path d="M95.929 68.071L91.479 66.4528L90.6699 61.7601L94.3108 58.6855L98.7608 60.3846L99.5699 64.9965L95.929 68.071Z" fill="#015D61"/>
<path d="M92.6924 64.1874L93.2587 61.6792L95.686 60.8701L97.5469 62.5692L97.0615 65.0774L94.6342 65.8865L92.6924 64.1874Z" fill="#21222F"/>
<path d="M92.6113 61.1939L94.3913 62.893L94.8768 62.5693L93.9059 60.3848L92.6113 61.1939Z" fill="white"/>
<path d="M95.8477 64.9965L96.3331 65.8056L96.9804 65.4819L96.6567 64.6729L95.8477 64.9965Z" fill="white"/>
<path d="M100.136 52.375H91.0744L84.6826 59.1714V68.7995L91.0744 75.5959H100.136L106.528 68.7995V59.2523L100.136 52.375ZM98.2753 67.8286L91.1553 67.505L87.029 64.4304L91.1553 60.7086L98.4372 60.7895L104.101 63.8641C104.101 63.8641 99.4081 67.2623 98.2753 67.8286Z" fill="#F0C7B1"/>
<path d="M86.624 64.7545L87.5949 64.2691L91.3977 60.9518H98.5177L104.343 64.1882L105.152 64.35L98.7604 60.3045L90.9931 60.2236L86.624 64.7545Z" fill="#21222F"/>
<path d="M87.3525 63.0554L90.5889 59.7381L98.518 59.6572L105.072 62.57L98.518 60.0618H90.6698L87.3525 63.0554Z" fill="#E1AC8F"/>
<path d="M59.0349 49.7852L56.4458 50.9179L52.4004 58.1997L59.2777 54.4779L73.2749 57.4715L74.0031 52.617L59.0349 49.7852Z" fill="#21222F"/>
<path d="M70.1198 54.9633L69.1488 51.727L67.7734 51.4033L70.1198 54.9633ZM58.0643 50.2706L62.5952 53.9924L59.0352 49.7852L58.0643 50.2706ZM63.647 50.6752L66.7216 54.7206L65.1843 50.9988L63.647 50.6752ZM54.1807 55.0442L56.3652 53.8306L54.6661 54.2352L54.1807 55.0442ZM66.0743 51.1606L67.4498 52.6979L67.0452 51.3224L66.0743 51.1606ZM56.0416 51.727L59.1161 52.3743L56.4461 50.9179L56.0416 51.727ZM69.4725 51.8079L72.3043 56.0152L71.1716 52.2124L69.4725 51.8079Z" fill="#3A353A"/>
<path d="M85.8154 52.617L86.5436 57.4715L100.541 54.4779L107.418 58.1997L103.373 50.9179L100.784 49.7852L85.8154 52.617Z" fill="#21222F"/>
<path d="M92.0456 51.4033L90.6701 51.6461L89.6992 54.8824L92.0456 51.4033ZM100.784 49.7852L97.2237 53.9924L101.755 50.2706L100.784 49.7852ZM94.6346 50.9988L93.0974 54.7206L96.1719 50.6752L94.6346 50.9988ZM105.072 54.2352L103.373 53.8306L105.557 55.0442L105.072 54.2352ZM92.7737 51.3224L92.3692 52.6979L93.7446 51.1606L92.7737 51.3224ZM103.373 50.9179L100.784 52.3743L103.858 51.727L103.373 50.9179ZM88.6474 52.1315L87.5146 55.9342L90.3465 51.727L88.6474 52.1315Z" fill="#3A353A"/>
<path d="M76.7701 68.6451L76.406 73.8233L71.7295 80.9999L74.1406 82.8204L75.4594 81.186L78.9547 84.2768H80.9046L84.3594 81.186L85.6297 82.7719L88.1783 80.9999L83.4937 73.7829L83.0406 68.5561L79.9499 67.2373L76.7701 68.6451Z" fill="#F0C7B1"/>
<path d="M83.8416 73.9289L82.2638 61.2505L83.1538 73.0227L82.458 72.8447L87.7818 80.9842L85.8886 82.3839L84.8529 81.1622L85.0795 80.078L80.9126 83.6947H78.9708L74.804 80.078L75.0386 81.1622L73.9949 82.3839L72.1016 80.9842L77.4336 72.8447L76.7377 73.0227L77.8138 54.5674L76.0419 73.9289L71.333 81.0732L74.4156 83.3306L75.5807 81.7043L78.9708 84.8678H80.9126L84.3108 81.7043L85.4678 83.3306L88.5505 81.0732L83.8416 73.9289Z" fill="#D19271"/>
<path d="M76.7939 79.374L78.7115 80.5553L81.2197 80.6039L83.2829 79.6653L83.0401 78.2413L80.1355 77.7559L76.9477 78.2899L76.7939 79.374Z" fill="#F8D5C3"/>
<path d="M114.708 38.7659C112.653 34.0489 99.2138 19.4772 99.2138 19.4772L79.9089 16.3945L60.604 19.4691C60.604 19.4691 47.165 34.0327 45.1099 38.7578L44.3574 58.4187L48.0631 61.6793H50.1343L50.725 41.533L64.6494 27.9079L70.572 34.5748L79.9089 35.9907L89.2458 34.5748L95.1683 27.9079L109.093 41.533L109.683 61.6793H111.755L115.46 58.4187L114.708 38.7659Z" fill="#1B141C"/>
<path d="M99.2141 19.4772L79.9092 16.3945L72.5546 17.5677L63.4766 21.2653C63.4766 21.2653 70.5318 32.4954 71.3409 32.4954C72.1419 32.4954 81.4465 33.9356 82.2475 33.7819C83.0485 33.6201 88.9872 32.9809 88.9872 32.9809L95.7269 26.8884L110.323 41.6463L111.067 61.6874H111.763L115.469 58.4268L114.716 38.7659C112.653 34.0408 99.2141 19.4772 99.2141 19.4772Z" fill="#21222F"/>
</g>
</svg>
