<svg width="100" height="100" viewBox="0 0 100 100" fill="none" xmlns="http://www.w3.org/2000/svg">
<mask id="mask0_2088_1228" style="mask-type:alpha" maskUnits="userSpaceOnUse" x="0" y="0" width="100" height="100">
<circle cx="50" cy="50" r="50" fill="#21222F"/>
</mask>
<g mask="url(#mask0_2088_1228)">
<path d="M-13.2076 -14.0928H113.836V108.549H-13.2076V-14.0928Z" fill="white"/>
<path d="M81.9184 86.8353L69.4702 83.689L61.2627 79.1749L60.5787 66.3164H39.4215L38.7375 79.1749L30.53 83.689L18.0819 86.8353L13.9325 95.818L12.5646 104.937H87.4356L86.0677 95.818L81.9184 86.8353Z" fill="#F0C7B1"/>
<path d="M39.4215 66.3164L38.7375 79.1749L30.53 83.689L18.0819 86.8353L13.9325 95.818L12.5646 104.937H19.2218V95.818L20.4529 87.7472L31.3051 84.829L42.5677 81.0444L44.1636 66.3164H39.4215Z" fill="#D19271"/>
<path d="M59.8034 72.6089L60.8065 70.8762L60.5785 66.3164H39.4213L39.0565 73.5664L45.349 77.9438H52.0974L59.8034 72.6089Z" fill="#C27B55"/>
<path d="M46.7169 81.3628L47.6289 84.965L50.7751 87.0625C50.7751 87.0625 46.8993 85.6946 46.8081 85.421C46.7169 85.1474 46.7169 81.3628 46.7169 81.3628Z" fill="#D19271"/>
<path d="M88.1652 104.937L86.706 95.5899L82.3287 86.4248L69.6982 83.233L61.673 78.8101L61.217 78.2173L61.2626 79.1748L61.5818 80.4972L57.5692 85.1481L53.2831 87.0632H46.717L42.4309 85.1481L38.4183 80.4972L38.7375 79.1748L38.7831 78.2173L38.3271 78.8101L30.3019 83.233L17.6258 86.4248L13.2941 95.5899L11.835 104.937H88.1652Z" fill="#015D61"/>
<path d="M37.2326 79.4485L36.7311 81.1812L40.3333 86.4705L46.6713 89.4799L50.7751 90.0271H46.7169L40.3333 87.0633L36.3663 81.3636L37.0502 79.5397L37.2326 79.4485ZM17.8993 99.0098L19.4952 92.3982L20.8175 92.7173L21.9575 96.9579L21.2279 92.6717L19.7232 88.6136L32.3081 85.9689L37.7798 83.1419L39.6949 82.0019L38.4182 80.5428L38.7374 79.2205L38.783 78.2629L38.327 78.8557L30.2562 83.2787L17.6257 86.4705L13.2484 95.6356L11.8348 104.937H17.8537L17.8993 99.0098ZM24.1006 102.977L23.2798 100.013L23.371 104.937H24.3286L24.1006 102.977ZM62.7672 79.4485L63.2688 81.1812L59.6666 86.4705L53.3285 89.4799L49.2248 90.0271H53.283L59.6666 87.0633L63.6336 81.3636L62.9496 79.5397L62.7672 79.4485ZM75.8993 102.977L76.7201 100.013L76.6289 104.937H75.6713L75.8993 102.977Z" fill="#004E52"/>
<path d="M33.1746 46.4813C33.1746 46.4813 30.4387 46.1621 28.3412 44.7942C28.3412 44.7942 26.7453 49.0804 26.5173 51.3602C26.5173 51.3602 29.5724 57.2879 31.0771 59.7958C31.0771 59.7958 33.4482 59.4766 33.9497 59.1574L34.5881 55.3272L33.1746 46.4813Z" fill="#F0C7B1"/>
<path d="M28.7061 45.6605C28.6149 45.4782 28.3413 44.7942 28.3413 44.7942C30.7124 44.9766 33.2202 45.4326 33.2202 45.4326L34.5882 55.2816L33.9498 59.1118C33.4482 59.431 31.0772 59.7502 31.0772 59.7502C30.8036 59.2942 30.4844 58.7014 30.1196 58.1087L31.3051 58.5646L32.6731 57.8351C32.6731 57.8351 32.9923 52.7282 32.9011 52.5914C32.8555 52.4546 28.7973 45.8429 28.7061 45.6605Z" fill="#E1AC8F"/>
<path d="M27.3381 50.6309L28.6149 48.123L30.9859 51.2237L31.9891 55.5554L31.3507 56.4218L29.39 52.9564L29.846 50.8133L28.6605 48.9894L27.3381 50.6309Z" fill="#D19271"/>
<path d="M66.8255 46.4813C66.8255 46.4813 69.5614 46.1621 71.6588 44.7942C71.6588 44.7942 73.2548 49.0804 73.4827 51.3602C73.4827 51.3602 70.4277 57.2879 68.923 59.7958C68.923 59.7958 66.5519 59.4766 66.0503 59.1574L65.412 55.3272L66.8255 46.4813Z" fill="#F0C7B1"/>
<path d="M71.2941 45.6605C71.3853 45.4782 71.6588 44.7942 71.6588 44.7942C69.2878 44.9766 66.7799 45.4326 66.7799 45.4326L65.412 55.2816L66.0503 59.1118C66.5519 59.431 68.923 59.7502 68.923 59.7502C69.1966 59.2942 69.5158 58.7014 69.8805 58.1087L68.695 58.5646L67.3271 57.8351C67.3271 57.8351 67.0079 52.7282 67.0991 52.5914C67.1447 52.4546 71.2029 45.8429 71.2941 45.6605Z" fill="#E1AC8F"/>
<path d="M72.6621 50.6309L71.3853 48.123L69.0143 51.2237L68.0111 55.5554L68.6495 56.4218L70.6102 52.9564L70.1542 50.8133L71.3397 48.9894L72.6621 50.6309Z" fill="#D19271"/>
<path d="M67.3726 31.9805C64.2264 26.6912 58.3899 23.089 58.3899 23.089C55.1069 22.4051 50 22.0403 50 22.0403C50 22.0403 44.9387 22.4051 41.6101 23.089C41.6101 23.089 35.7736 26.6912 32.6274 31.9805C32.6274 31.9805 30.3019 38.5922 30.2107 43.2887L32.445 58.7463L38.9198 70.0544L46.6258 75.3893H53.4198L61.1258 70.0544L67.6006 58.7463L69.8349 43.2887C69.6981 38.5922 67.3726 31.9805 67.3726 31.9805Z" fill="#F0C7B1"/>
<path d="M46.6714 74.2494L40.0142 68.6409C40.0142 68.6409 34.816 59.111 34.6337 58.7463C34.4513 58.3359 32.3538 43.1063 32.3538 43.1063C32.445 40.9176 34.4057 33.3029 34.6337 32.9837C35.5912 31.5246 42.1572 24.7761 42.1572 24.7761L49.9544 22.9066L58.3899 23.089C55.1069 22.4051 50 22.0403 50 22.0403C50 22.0403 44.9387 22.4051 41.6101 23.089C41.6101 23.089 35.7736 26.6912 32.6274 31.9805C32.6274 31.9805 30.3019 38.5922 30.2107 43.2887L32.445 58.7463L38.9198 70.0544L46.6258 75.3893H53.4198L61.1258 70.0544L52.9182 74.7966L46.6714 74.2494Z" fill="#D19271"/>
<path d="M42.8138 63.4979L47.3098 63.9904L50.2736 64.9935L53.0094 63.7624L57.4962 63.7259L52.827 62.9417H46.945L42.8138 63.4979Z" fill="#DA7C87"/>
<path d="M44.9479 65.3904L47.857 66.4984L52.6447 66.6352L54.7057 65.436L52.7359 67.0912H47.8114L44.9479 65.3904Z" fill="#D19271"/>
<path d="M46.5802 48.6715L44.5283 46.8932C44.5283 46.8932 38.6006 46.574 38.4639 46.574C38.3271 46.574 35.5912 48.4891 35.6824 48.5803C35.7736 48.6715 38.6462 49.9482 39.7862 50.1762C39.7862 50.1762 41.5189 50.1762 43.2972 49.8114C44.5739 49.4466 45.8962 48.945 46.5802 48.6715Z" fill="white"/>
<path d="M39.6035 49.1713L39.2388 46.8914L40.9715 45.3867L43.1602 46.2075L43.5705 48.4873L41.7922 49.9465L39.6035 49.1713Z" fill="#4E60A3"/>
<path d="M41.0172 45.6142L42.9778 46.3437L43.3426 48.3956L41.7467 49.718L39.786 48.9884L39.4212 46.9365L41.0172 45.6142ZM40.9716 45.1582L39.0109 46.7997L39.4212 49.3076L41.7923 50.1739L43.753 48.5324L43.3426 46.0246L40.9716 45.1582Z" fill="#43559B"/>
<path d="M40.9715 45.2954L43.2058 46.1161L43.6162 48.4872L41.7923 50.0375L39.558 49.2168L39.1476 46.8457L40.9715 45.2954ZM40.9259 45.0674L38.874 46.8001L39.33 49.4447L41.8379 50.3567L43.8897 48.624L43.4338 45.9793L40.9259 45.0674Z" fill="#253984"/>
<path d="M40.0139 48.1222L40.3331 46.7087L41.701 46.2527L42.7498 47.2558L42.4762 48.6238L41.1083 49.0797L40.0139 48.1222Z" fill="black"/>
<path d="M40.4698 46.5266H41.2906V47.3474H40.4698V46.5266Z" fill="white"/>
<path d="M41.5642 48.5327H42.0202V48.9887H41.5642V48.5327Z" fill="white"/>
<path d="M34.9983 45.3426V50.7687L38.6005 54.5989H43.7074L47.3096 50.7687V45.3426L43.7074 41.5125H38.6005L34.9983 45.3426ZM35.6823 48.5345C35.5911 48.4433 38.3725 46.5282 38.4637 46.5282C38.5549 46.5282 44.5282 46.893 44.5282 46.893L46.5801 48.6713C45.8961 48.9904 44.5738 49.492 43.297 49.7656C41.5187 50.176 39.786 50.1304 39.786 50.1304C38.6461 49.948 35.819 48.6257 35.6823 48.5345Z" fill="#F0C7B1"/>
<path d="M46.8081 48.7627L46.261 48.5347L44.3915 46.9844L38.5094 46.7108L36.4575 48.1243L35.9559 48.5803L38.8286 49.857L37.5062 49.5378L35.3632 48.5803L36.1839 47.7595L38.4638 46.3916L44.5283 46.802L46.8081 48.7627Z" fill="black"/>
<path d="M46.1242 47.8048L44.3915 45.7529L39.9686 45.7073L38.6462 46.3L40.1966 45.8897L44.3459 45.9809L46.1242 47.8048Z" fill="#E1AC8F"/>
<path d="M53.4199 48.67L55.4718 46.8917C55.4718 46.8917 61.3995 46.5725 61.5363 46.5725C61.6731 46.5725 64.4089 48.4876 64.3177 48.5788C64.2265 48.67 61.3539 49.9467 60.2139 50.1747C60.2139 50.1747 58.4812 50.1747 56.7029 49.8099C55.4262 49.4452 54.1039 48.9436 53.4199 48.67Z" fill="white"/>
<path d="M56.8398 49.1718L56.4294 46.8919L58.2077 45.3872L60.3964 46.208L60.7612 48.4878L59.0285 49.947L56.8398 49.1718Z" fill="#4E60A3"/>
<path d="M58.2532 45.6147L60.2139 46.3442L60.5787 48.3961L58.9827 49.7184L57.0221 48.9889L56.6573 46.937L58.2532 45.6147ZM58.162 45.1587L56.2013 46.8002L56.6117 49.3081L58.9827 50.1744L60.9434 48.5329L60.5331 46.025L58.162 45.1587Z" fill="#43559B"/>
<path d="M58.2077 45.2959L60.442 46.1166L60.8524 48.4877L59.0285 50.038L56.7942 49.2172L56.3838 46.8462L58.2077 45.2959ZM58.1621 45.0679L56.1102 46.8006L56.5662 49.4452L59.0741 50.3572L61.126 48.6245L60.67 45.9798L58.1621 45.0679Z" fill="#152975"/>
<path d="M57.2501 48.1227L57.5237 46.7091L58.8916 46.2532L59.986 47.2563L59.6668 48.6242L58.2989 49.0802L57.2501 48.1227Z" fill="black"/>
<path d="M57.7061 46.5271H58.5268V47.3479H57.7061V46.5271Z" fill="white"/>
<path d="M58.7548 48.533H59.2107V48.9889H58.7548V48.533Z" fill="white"/>
<path d="M61.3995 41.4653H56.2926L52.6904 45.2955V50.7216L56.2926 54.5518H61.3995L65.0017 50.7216V45.3411L61.3995 41.4653ZM60.214 50.1289C60.214 50.1289 58.4813 50.1289 56.703 49.7641C55.4263 49.4905 54.104 48.9889 53.42 48.6697L55.4719 46.8914C55.4719 46.8914 61.3995 46.5722 61.5363 46.5722C61.6731 46.5722 64.409 48.4873 64.3178 48.5785C64.2266 48.6697 61.354 49.9465 60.214 50.1289Z" fill="#F0C7B1"/>
<path d="M53.1919 48.7612L53.7391 48.5332L55.6086 46.9829L61.4906 46.7093L63.5425 48.1228L64.0441 48.5788L61.1715 49.8555L62.4938 49.5364L64.6369 48.5788L63.8161 47.7581L61.5362 46.3901L55.4718 46.8005L53.1919 48.7612Z" fill="black"/>
<path d="M53.876 47.8033L55.6087 45.7514L60.0316 45.7058L61.354 46.2986L59.8036 45.8882L55.6543 45.9794L53.876 47.8033Z" fill="#E1AC8F"/>
<path d="M38.2358 40.0051L36.7767 40.6435L34.4968 44.7473L38.3726 42.6498L46.261 44.3369L46.6714 41.601L38.2358 40.0051Z" fill="#2A232B"/>
<path d="M44.4827 42.9234L43.9355 41.0995L43.1604 40.9171L44.4827 42.9234ZM37.6887 40.2787L40.2421 42.3762L38.2358 40.0051L37.6887 40.2787ZM40.8349 40.5067L42.5676 42.7866L41.7013 40.6891L40.8349 40.5067ZM35.5 42.969L36.7311 42.285L35.7736 42.513L35.5 42.969ZM42.2028 40.7803L42.978 41.6466L42.75 40.8715L42.2028 40.7803ZM36.5487 41.0995L38.2814 41.4642L36.7767 40.6435L36.5487 41.0995ZM44.1179 41.1451L45.7138 43.5161L45.0755 41.3731L44.1179 41.1451Z" fill="#3A353A"/>
<path d="M53.3285 41.601L53.7389 44.3369L61.6272 42.6498L65.503 44.7473L63.2231 40.6435L61.764 40.0051L53.3285 41.601Z" fill="#2A232B"/>
<path d="M56.8396 40.9171L56.0644 41.0539L55.5173 42.8778L56.8396 40.9171ZM61.7641 40.0051L59.7578 42.3762L62.3113 40.2787L61.7641 40.0051ZM58.2987 40.6891L57.4324 42.7866L59.1651 40.5067L58.2987 40.6891ZM64.1808 42.513L63.2232 42.285L64.4544 42.969L64.1808 42.513ZM57.25 40.8715L57.022 41.6466L57.7971 40.7803L57.25 40.8715ZM63.2232 40.6435L61.7641 41.4642L63.4968 41.0995L63.2232 40.6435ZM54.9245 41.3275L54.2861 43.4705L55.882 41.0995L54.9245 41.3275Z" fill="#3A353A"/>
<path d="M48.231 50.6345L48.0258 53.5527L45.3903 57.5972L46.7491 58.6231L47.4923 57.7021L49.4621 59.4439H50.561L52.508 57.7021L53.2239 58.5958L54.6602 57.5972L52.0201 53.5299L51.7648 50.5843L50.023 49.8411L48.231 50.6345Z" fill="#F0C7B1"/>
<path d="M52.2162 53.6119L51.3271 46.4668L51.8287 53.1012L51.4365 53.0009L54.4368 57.588L53.3699 58.3769L52.7862 57.6883L52.9139 57.0773L50.5656 59.1155H49.4713L47.123 57.0773L47.2552 57.6883L46.667 58.3769L45.6 57.588L48.6049 53.0009L48.2128 53.1012L48.8192 42.7004L47.8206 53.6119L45.1669 57.6382L46.9041 58.9103L47.5607 57.9938L49.4713 59.7767H50.5656L52.4807 57.9938L53.1328 58.9103L54.87 57.6382L52.2162 53.6119Z" fill="#D19271"/>
<path d="M48.2448 56.6805L49.3254 57.3462L50.7389 57.3736L51.9017 56.8447L51.7649 56.0421L50.1279 55.7686L48.3314 56.0695L48.2448 56.6805Z" fill="#F8D5C3"/>
<path d="M29.1346 43.4445L31.1181 48.6699L32.559 49.8372L34.7203 31.4614L37.064 28.2149L41.8381 27.043L49.8587 28.9353L57.4233 27.1342L62.3798 28.0371L65.1749 31.1879L67.7876 49.2992L69.3197 47.0467L70.487 43.1709L70.218 40.9184L70.7606 37.7676L70.0401 35.6017L70.3092 32.0907L69.3197 29.9294L69.0461 26.774L66.0732 23.6232L62.8312 17.4949L56.4339 14.2529L51.4774 15.3336L49.3161 14.0706L47.6928 14.791L41.6603 15.2424L39.1342 18.0375L35.3496 19.2048L34.8115 20.8281L30.4843 25.0641L30.3977 30.1984L29.317 33.8006L30.1241 34.9724L28.6832 38.219L29.4037 40.7405L29.1346 43.4445Z" fill="#21222F"/>
<path d="M67.7056 41.2239C67.6052 40.8135 65.6582 30.7775 65.6582 30.7775L62.585 27.499L57.2592 26.5779L49.576 28.3198L44.045 23.5047L44.7609 18.3841L49.2659 15.0053L51.4181 16.0312L56.4339 14.2529L51.4774 15.3336L49.3161 14.0706L47.6928 14.791L41.6557 15.2424L39.1342 18.0375L35.3496 19.2094L34.807 20.8327L30.4843 25.0687L30.3931 30.2029L29.3125 33.8051L30.1241 34.977L28.6832 38.219L29.4037 40.7405L29.1346 43.4445L31.1181 48.6699L32.559 49.8418L32.7232 48.4511L30.115 43.9962V41.5385L33.0925 45.2866L33.2612 43.8685L29.7046 38.1597L30.7306 35.9072L33.6716 40.4031L34.0592 37.1201L31.7565 32.4235L31.3461 25.8666L35.035 22.2827L34.009 25.9715L34.7203 31.466L37.064 28.224L35.7508 25.2556L39.6449 18.6987L43.7395 15.8306L40.7711 24.9456L42.5129 27.2072L49.8587 28.9399L57.4279 27.1388L62.3843 28.0416L65.1794 31.197L67.7922 49.3083C67.7876 49.2992 67.8059 41.6342 67.7056 41.2239Z" fill="#131420"/>
<path d="M51.0352 17.0071L50.5837 21.731L56.7348 26.3774L51.4091 21.3525L51.0352 17.0071Z" fill="#131420"/>
<path d="M65.6081 24.1199L65.6765 28.3057L65.4622 29.8196L66.2556 27.7996L66.5428 25.0546L65.6081 24.1199Z" fill="#131420"/>
<path d="M68.5674 31.4067C68.4215 31.621 67.4138 35.3053 67.4138 35.3053L66.6934 36.5319L67.9929 35.5196L69.0735 31.767L68.5674 31.4067Z" fill="#131420"/>
</g>
</svg>
