<svg width="80" height="80" viewBox="0 0 80 80" fill="none" xmlns="http://www.w3.org/2000/svg">
<mask id="mask0_2077_2018" style="mask-type:alpha" maskUnits="userSpaceOnUse" x="0" y="0" width="80" height="80">
<circle cx="40" cy="40" r="40" fill="#222547"/>
</mask>
<g mask="url(#mask0_2077_2018)">
<rect x="-15" y="-4" width="111" height="110" fill="#E2F2EF"/>
<path d="M64.1326 67.0509L55.228 64.8003L49.3569 61.5712L48.8676 52.373H33.7331L33.2439 61.5712L27.3727 64.8003L18.4682 67.0509L15.5 73.4765L14.5215 80H68.0793L67.1008 73.4765L64.1326 67.0509Z" fill="#F0C7B1"/>
<path d="M33.7331 52.373L33.2439 61.5712L27.3728 64.8003L18.4682 67.0509L15.5 73.4765L14.5215 80H19.2836V73.4765L20.1643 67.7032L27.9272 65.6157L35.9837 62.9085L37.1254 52.373H33.7331Z" fill="#D19271"/>
<path d="M48.3136 56.8743L49.0312 55.6348L48.8681 52.373H33.7336L33.4727 57.5592L37.9739 60.6905H42.8012L48.3136 56.8743Z" fill="#C27B55"/>
<path d="M38.9521 63.1367L39.6045 65.7135L41.8551 67.2139C41.8551 67.2139 39.0826 66.2354 39.0174 66.0397C38.9521 65.844 38.9521 63.1367 38.9521 63.1367Z" fill="#D19271"/>
<path d="M68.6016 79.9996L67.5578 73.313L64.4265 66.7569L55.3915 64.4737L49.6508 61.3098L49.3247 60.8857L49.3573 61.5707L49.5856 62.5166L46.7153 65.8436L43.6492 67.2135H38.9523L35.8863 65.8436L33.016 62.5166L33.2443 61.5707L33.2769 60.8857L32.9507 61.3098L27.2101 64.4737L18.1424 66.7569L15.0438 73.313L14 79.9996H68.6016Z" fill="#015D61"/>
<path d="M32.1679 61.767L31.8091 63.0065L34.3859 66.7901L38.9197 68.9428L41.8553 69.3342H38.9523L34.3859 67.2141L31.5482 63.1369L32.0374 61.8322L32.1679 61.767ZM18.3381 75.7599L19.4797 71.0303L20.4256 71.2587L21.2411 74.2921L20.7192 71.2261L19.6428 68.3231L28.6452 66.4313L32.5593 64.409L33.9292 63.5936L33.016 62.5498L33.2443 61.6039L33.2769 60.9189L32.9507 61.343L27.1774 64.5069L18.1424 66.7901L15.0111 73.3462L14 80.0001H18.3055L18.3381 75.7599ZM22.7741 78.5976L22.187 76.4775L22.2522 80.0001H22.9372L22.7741 78.5976ZM50.4337 61.767L50.7925 63.0065L48.2157 66.7901L43.6819 68.9428L40.7463 69.3342H43.6492L48.2157 67.2141L51.0534 63.1369L50.5641 61.8322L50.4337 61.767ZM59.8275 78.5976L60.4146 76.4775L60.3494 80.0001H59.6644L59.8275 78.5976Z" fill="#004E52"/>
<path d="M29.2651 38.1844C29.2651 38.1844 27.308 37.9561 25.8076 36.9775C25.8076 36.9775 24.666 40.0436 24.5029 41.6744C24.5029 41.6744 26.6883 45.9147 27.7647 47.7087C27.7647 47.7087 29.4608 47.4804 29.8196 47.252L30.2762 44.5122L29.2651 38.1844Z" fill="#F0C7B1"/>
<path d="M26.0686 37.5973C26.0033 37.4668 25.8076 36.9775 25.8076 36.9775C27.5037 37.108 29.2977 37.4342 29.2977 37.4342L30.2762 44.4795L29.8196 47.2194C29.4608 47.4477 27.7647 47.6761 27.7647 47.6761C27.569 47.3499 27.3406 46.9259 27.0797 46.5018L27.9277 46.828L28.9063 46.3061C28.9063 46.3061 29.1346 42.653 29.0694 42.5551C29.0367 42.4573 26.1338 37.7277 26.0686 37.5973Z" fill="#E1AC8F"/>
<path d="M25.0898 41.1524L26.0031 39.3584L27.6992 41.5764L28.4168 44.675L27.9602 45.2948L26.5576 42.8158L26.8838 41.2828L26.0357 39.9781L25.0898 41.1524Z" fill="#D19271"/>
<path d="M53.3363 38.1844C53.3363 38.1844 55.2934 37.9561 56.7938 36.9775C56.7938 36.9775 57.9354 40.0436 58.0985 41.6744C58.0985 41.6744 55.9131 45.9147 54.8367 47.7087C54.8367 47.7087 53.1406 47.4804 52.7818 47.252L52.3252 44.5122L53.3363 38.1844Z" fill="#F0C7B1"/>
<path d="M56.5328 37.5973C56.5981 37.4668 56.7938 36.9775 56.7938 36.9775C55.0977 37.108 53.3037 37.4342 53.3037 37.4342L52.3252 44.4795L52.7818 47.2194C53.1406 47.4477 54.8367 47.6761 54.8367 47.6761C55.0324 47.3499 55.2608 46.9259 55.5217 46.5018L54.6736 46.828L53.6951 46.3061C53.6951 46.3061 53.4668 42.653 53.532 42.5551C53.5647 42.4573 56.4676 37.7277 56.5328 37.5973Z" fill="#E1AC8F"/>
<path d="M57.5115 41.1524L56.5983 39.3584L54.9022 41.5764L54.1846 44.675L54.6412 45.2948L56.0438 42.8158L55.7176 41.2828L56.5656 39.9781L57.5115 41.1524Z" fill="#D19271"/>
<path d="M53.7277 27.8118C51.4771 24.0281 47.3021 21.4514 47.3021 21.4514C44.9536 20.9621 41.3005 20.7012 41.3005 20.7012C41.3005 20.7012 37.68 20.9621 35.2989 21.4514C35.2989 21.4514 31.1239 24.0281 28.8733 27.8118C28.8733 27.8118 27.2098 32.5413 27.1445 35.9009L28.7428 46.9582L33.3745 55.0473L38.8868 58.8636H43.7468L49.2591 55.0473L53.8908 46.9582L55.4891 35.9009C55.3912 32.5413 53.7277 27.8118 53.7277 27.8118Z" fill="#F0C7B1"/>
<path d="M38.9194 58.0481L34.1573 54.0362C34.1573 54.0362 30.4389 47.2191 30.3084 46.9582C30.178 46.6646 28.6776 35.7704 28.6776 35.7704C28.7428 34.2048 30.1453 28.7577 30.3084 28.5294C30.9934 27.4856 35.6903 22.6582 35.6903 22.6582L41.2679 21.3209L47.3021 21.4514C44.9536 20.9621 41.3005 20.7012 41.3005 20.7012C41.3005 20.7012 37.68 20.9621 35.2989 21.4514C35.2989 21.4514 31.1239 24.0281 28.8733 27.8118C28.8733 27.8118 27.2098 32.5413 27.1445 35.9009L28.7428 46.9582L33.3745 55.0473L38.8868 58.8636H43.7468L49.2591 55.0473L43.388 58.4395L38.9194 58.0481Z" fill="#D19271"/>
<path d="M36.1602 50.3569L39.3762 50.7092L41.4964 51.4268L43.4534 50.5461L46.663 50.52L43.3229 49.959H39.1153L36.1602 50.3569Z" fill="#DA7C87"/>
<path d="M37.6865 51.7109L39.7675 52.5035L43.1923 52.6014L44.6667 51.7436L43.2576 52.9276H39.7349L37.6865 51.7109Z" fill="#D19271"/>
<path d="M38.8538 39.7504L37.386 38.4783C37.386 38.4783 33.1458 38.25 33.0479 38.25C32.95 38.25 30.993 39.6199 31.0582 39.6852C31.1235 39.7504 33.1784 40.6637 33.9938 40.8268C33.9938 40.8268 35.2333 40.8268 36.5053 40.5658C37.4186 40.3049 38.3645 39.9461 38.8538 39.7504Z" fill="white"/>
<path d="M33.8635 40.1086L33.6025 38.4777L34.842 37.4014L36.4076 37.9885L36.7012 39.6194L35.4291 40.6631L33.8635 40.1086Z" fill="#4E60A3"/>
<path d="M34.8746 37.5635L36.2772 38.0854L36.5381 39.5531L35.3965 40.499L33.9939 39.9772L33.733 38.5094L34.8746 37.5635ZM34.842 37.2373L33.4395 38.4115L33.733 40.2055L35.4291 40.8252L36.8317 39.651L36.5381 37.857L34.842 37.2373Z" fill="#43559B"/>
<path d="M34.8422 37.3359L36.4405 37.9231L36.734 39.6192L35.4293 40.7282L33.8311 40.141L33.5375 38.4449L34.8422 37.3359ZM34.8096 37.1729L33.3418 38.4123L33.668 40.3041L35.4619 40.9565L36.9297 39.717L36.6035 37.8252L34.8096 37.1729Z" fill="#253984"/>
<path d="M34.1572 39.3578L34.3856 38.3467L35.3641 38.0205L36.1143 38.7381L35.9186 39.7166L34.94 40.0428L34.1572 39.3578Z" fill="black"/>
<path d="M34.4834 38.2168H35.0705V38.8039H34.4834V38.2168Z" fill="white"/>
<path d="M35.2666 39.6514H35.5928V39.9775H35.2666V39.6514Z" fill="white"/>
<path d="M30.5693 37.3688V41.2502L33.1461 43.9901H36.7993L39.376 41.2502V37.3688L36.7993 34.6289H33.1461L30.5693 37.3688ZM31.0586 39.652C30.9934 39.5868 32.983 38.2168 33.0483 38.2168C33.1135 38.2168 37.3864 38.4778 37.3864 38.4778L38.8542 39.7498C38.3649 39.9782 37.419 40.337 36.5057 40.5327C35.2336 40.8262 33.9942 40.7936 33.9942 40.7936C33.1787 40.6631 31.1564 39.7172 31.0586 39.652Z" fill="#F0C7B1"/>
<path d="M39.0171 39.8152L38.6256 39.6522L37.2883 38.5432L33.0807 38.3475L31.6129 39.3586L31.2541 39.6848L33.309 40.5981L32.3631 40.3697L30.8301 39.6848L31.4172 39.0977L33.0481 38.1191L37.3862 38.4127L39.0171 39.8152Z" fill="black"/>
<path d="M38.528 39.1303L37.2885 37.6625L34.1246 37.6299L33.1787 38.0539L34.2877 37.7604L37.2559 37.8256L38.528 39.1303Z" fill="#E1AC8F"/>
<path d="M43.7471 39.7504L45.2149 38.4783C45.2149 38.4783 49.4551 38.25 49.553 38.25C49.6508 38.25 51.6079 39.6199 51.5426 39.6852C51.4774 39.7504 49.4225 40.6637 48.6071 40.8268C48.6071 40.8268 47.3676 40.8268 46.0955 40.5658C45.1822 40.3049 44.2363 39.9461 43.7471 39.7504Z" fill="white"/>
<path d="M46.1939 40.1086L45.9004 38.4777L47.1725 37.4014L48.7381 37.9885L48.999 39.6194L47.7596 40.6631L46.1939 40.1086Z" fill="#4E60A3"/>
<path d="M47.2051 37.5635L48.6076 38.0854L48.8686 39.5531L47.727 40.499L46.3244 39.9772L46.0635 38.5094L47.2051 37.5635ZM47.1399 37.2373L45.7373 38.4115L46.0309 40.2055L47.727 40.8252L49.1295 39.651L48.836 37.857L47.1399 37.2373Z" fill="#43559B"/>
<path d="M47.1723 37.3359L48.7705 37.9231L49.0641 39.6192L47.7594 40.7282L46.1611 40.141L45.8676 38.4449L47.1723 37.3359ZM47.1397 37.1729L45.6719 38.4123L45.998 40.3041L47.792 40.9565L49.2598 39.717L48.9336 37.8252L47.1397 37.1729Z" fill="#152975"/>
<path d="M46.4873 39.3578L46.683 38.3467L47.6615 38.0205L48.4444 38.7381L48.216 39.7166L47.2375 40.0428L46.4873 39.3578Z" fill="black"/>
<path d="M46.8135 38.2168H47.4006V38.8039H46.8135V38.2168Z" fill="white"/>
<path d="M47.5635 39.6514H47.8897V39.9775H47.5635V39.6514Z" fill="white"/>
<path d="M49.4555 34.5967H45.8024L43.2256 37.3365V41.218L45.8024 43.9579H49.4555L52.0323 41.218V37.3692L49.4555 34.5967ZM48.6075 40.794C48.6075 40.794 47.368 40.794 46.0959 40.5331C45.1826 40.3373 44.2367 39.9786 43.7475 39.7502L45.2152 38.4782C45.2152 38.4782 49.4555 38.2498 49.5534 38.2498C49.6512 38.2498 51.6083 39.6198 51.543 39.685C51.4778 39.7502 49.4229 40.6635 48.6075 40.794Z" fill="#F0C7B1"/>
<path d="M43.584 39.8152L43.9754 39.6522L45.3127 38.5432L49.5204 38.3475L50.9881 39.3586L51.3469 39.6848L49.292 40.5981L50.2379 40.3697L51.771 39.6848L51.1838 39.0977L49.553 38.1191L45.2149 38.4127L43.584 39.8152Z" fill="black"/>
<path d="M44.0732 39.1303L45.3127 37.6625L48.4766 37.6299L49.4225 38.0539L48.3135 37.7604L45.3453 37.8256L44.0732 39.1303Z" fill="#E1AC8F"/>
<path d="M32.8856 33.5527L31.8418 34.0094L30.2109 36.9449L32.9834 35.4445L38.6262 36.6514L38.9198 34.6943L32.8856 33.5527Z" fill="#2A232B"/>
<path d="M37.3543 35.6402L36.9629 34.3356L36.4084 34.2051L37.3543 35.6402ZM32.4943 33.7484L34.3209 35.2488L32.8858 33.5527L32.4943 33.7484ZM34.745 33.9115L35.9844 35.5424L35.3647 34.042L34.745 33.9115ZM30.9287 35.6729L31.8094 35.1836L31.1244 35.3467L30.9287 35.6729ZM35.7235 34.1072L36.278 34.727L36.1149 34.1725L35.7235 34.1072ZM31.6789 34.3356L32.9184 34.5965L31.842 34.0094L31.6789 34.3356ZM37.0934 34.3682L38.235 36.0643L37.7784 34.5313L37.0934 34.3682Z" fill="#3A353A"/>
<path d="M43.6816 34.6943L43.9752 36.6514L49.618 35.4445L52.3905 36.9449L50.7596 34.0094L49.7159 33.5527L43.6816 34.6943Z" fill="#2A232B"/>
<path d="M46.1928 34.2051L45.6383 34.3029L45.2469 35.6076L46.1928 34.2051ZM49.7155 33.5527L48.2803 35.2488L50.1069 33.7484L49.7155 33.5527ZM47.2365 34.042L46.6168 35.5424L47.8563 33.9115L47.2365 34.042ZM51.4442 35.3467L50.7592 35.1836L51.6399 35.6729L51.4442 35.3467ZM46.4863 34.1725L46.3233 34.727L46.8778 34.1072L46.4863 34.1725ZM50.7592 34.0094L49.7155 34.5965L50.9549 34.3356L50.7592 34.0094ZM44.8229 34.4986L44.3662 36.0317L45.5078 34.3356L44.8229 34.4986Z" fill="#3A353A"/>
<path d="M40.036 41.1564L39.8892 43.2439L38.0039 46.1371L38.9759 46.871L39.5076 46.2121L40.9166 47.4581H41.7027L43.0955 46.2121L43.6076 46.8514L44.635 46.1371L42.7465 43.2276L42.5638 41.1205L41.3178 40.5889L40.036 41.1564Z" fill="#F0C7B1"/>
<path d="M42.8864 43.2858L42.2504 38.1747L42.6092 42.9205L42.3286 42.8487L44.4749 46.1301L43.7116 46.6943L43.2941 46.2018L43.3854 45.7647L41.7057 47.2227H40.9228L39.243 45.7647L39.3376 46.2018L38.9169 46.6943L38.1536 46.1301L40.3031 42.8487L40.0226 42.9205L40.4564 35.4805L39.7421 43.2858L37.8438 46.1659L39.0865 47.076L39.5562 46.4204L40.9228 47.6957H41.7057L43.0756 46.4204L43.542 47.076L44.7847 46.1659L42.8864 43.2858Z" fill="#D19271"/>
<path d="M40.0459 45.4815L40.8189 45.9577L41.8301 45.9772L42.6618 45.5989L42.564 45.0248L41.393 44.8291L40.1079 45.0444L40.0459 45.4815Z" fill="#F8D5C3"/>
<path d="M26.3756 36.0121L27.7945 39.7501L28.8252 40.5851L30.3713 27.4403L32.0478 25.1179L35.4629 24.2797L41.2003 25.6333L46.6115 24.3449L50.157 24.9907L52.1565 27.2446L54.0254 40.2002L55.1214 38.5889L55.9564 35.8164L55.7639 34.2051L56.1521 31.9513L55.6367 30.4019L55.8292 27.8904L55.1214 26.3443L54.9257 24.0872L52.799 21.8333L50.4799 17.4496L45.9037 15.1305L42.3582 15.9035L40.8121 15L39.6509 15.5154L35.3357 15.8383L33.5286 17.8377L30.8214 18.6727L30.4365 19.8339L27.3411 22.8641L27.2791 26.5368L26.5061 29.1136L27.0834 29.9518L26.0527 32.2742L26.5681 34.0779L26.3756 36.0121Z" fill="#21222F"/>
<path d="M53.9667 34.4237C53.895 34.1301 52.5022 26.951 52.5022 26.951L50.3038 24.6058L46.4941 23.947L40.998 25.1929L37.0415 21.7485L37.5536 18.0856L40.7762 15.6687L42.3158 16.4025L45.9037 15.1305L42.3582 15.9035L40.8121 15L39.6509 15.5154L35.3324 15.8383L33.5286 17.8377L30.8214 18.676L30.4333 19.8372L27.3411 22.8673L27.2759 26.54L26.5029 29.1168L27.0834 29.9551L26.0527 32.2742L26.5681 34.0779L26.3756 36.0121L27.7945 39.7501L28.8252 40.5884L28.9426 39.5935L27.0769 36.4068V34.6487L29.2068 37.3299L29.3275 36.3155L26.7834 32.2318L27.5173 30.6205L29.6211 33.8366L29.8983 31.4881L28.2511 28.1285L27.9576 23.4381L30.5963 20.8744L29.8624 23.5131L30.3713 27.4435L32.0478 25.1244L31.1084 23.0011L33.894 18.3107L36.823 16.259L34.6996 22.7793L35.9456 24.3971L41.2003 25.6365L46.6148 24.3482L50.1603 24.994L52.1597 27.2511L54.0287 40.2067C54.0254 40.2002 54.0385 34.7172 53.9667 34.4237Z" fill="#131420"/>
<path d="M42.0417 17.1006L41.7188 20.4798L46.1188 23.8035L42.3091 20.209L42.0417 17.1006Z" fill="#131420"/>
<path d="M52.4667 22.1885L52.5156 25.1828L52.3623 26.2657L52.9298 24.8207L53.1353 22.8571L52.4667 22.1885Z" fill="#131420"/>
<path d="M54.5828 27.4014C54.4784 27.5547 53.7575 30.1902 53.7575 30.1902L53.2422 31.0676L54.1718 30.3435L54.9448 27.659L54.5828 27.4014Z" fill="#131420"/>
</g>
</svg>
