<svg width="190" height="210" viewBox="0 0 190 210" fill="none" xmlns="http://www.w3.org/2000/svg">
<g clip-path="url(#clip0_2077_1932)">
<path d="M0 -17H193V220H0V-17Z" fill="#E2F2EF"/>
<path d="M166.747 170.271L139.261 163.324L121.138 153.356L119.628 124.964H72.9118L71.4016 153.356L53.2789 163.324L25.7928 170.271L16.6308 190.105L13.6104 210.241H178.93L175.909 190.105L166.747 170.271Z" fill="#F0C7B1"/>
<path d="M72.9118 124.964L71.4016 153.356L53.2789 163.324L25.7928 170.271L16.6308 190.105L13.6104 210.241H28.3099V190.105L31.0283 172.284L54.9905 165.841L79.8588 157.484L83.3827 124.964H72.9118Z" fill="#D19271"/>
<path d="M117.918 138.858L120.133 135.032L119.629 124.964H72.9129L72.1074 140.972L86.0015 150.638H100.902L117.918 138.858Z" fill="#C27B55"/>
<path d="M89.0205 158.188L91.0341 166.142L97.9812 170.774C97.9812 170.774 89.4232 167.753 89.2219 167.149C89.0205 166.545 89.0205 158.188 89.0205 158.188Z" fill="#D19271"/>
<path d="M180.541 210.242L177.319 189.602L167.654 169.365L139.765 162.317L122.045 152.551L121.038 151.242L121.139 153.357L121.844 156.276L112.984 166.546L103.52 170.774H89.0214L79.5574 166.546L70.6974 156.276L71.4021 153.357L71.5028 151.242L70.496 152.551L52.776 162.317L24.7866 169.365L15.2218 189.602L12 210.242H180.541Z" fill="#015D61"/>
<path d="M68.0797 153.961L66.9722 157.786L74.926 169.465L88.9207 176.11L97.9821 177.319H89.0214L74.926 170.774L66.1667 158.189L67.6769 154.162L68.0797 153.961ZM25.3907 197.153L28.9145 182.554L31.8343 183.259L34.3513 192.622L32.7404 183.158L29.4179 174.197L57.206 168.358L69.2878 162.116L73.5165 159.599L70.6974 156.377L71.4022 153.457L71.5028 151.343L70.496 152.652L52.6754 162.418L24.7866 169.465L15.1211 189.702L12 210.242H25.29L25.3907 197.153ZM39.0834 205.912L37.2711 199.368L37.4724 210.242H39.5868L39.0834 205.912ZM124.461 153.961L125.569 157.786L117.615 169.465L103.62 176.11L94.5589 177.319H103.52L117.615 170.774L126.374 158.189L124.864 154.162L124.461 153.961ZM153.458 205.912L155.27 199.368L155.069 210.242H152.954L153.458 205.912Z" fill="#035457"/>
<path d="M59.1194 81.1676C59.1194 81.1676 53.0785 80.4628 48.4472 77.4424C48.4472 77.4424 44.9233 86.9065 44.4199 91.9405C44.4199 91.9405 51.1656 105.029 54.4881 110.567C54.4881 110.567 59.7235 109.862 60.831 109.157L62.2406 100.7L59.1194 81.1676Z" fill="#F0C7B1"/>
<path d="M49.2527 79.3553C49.0514 78.9526 48.4473 77.4424 48.4473 77.4424C53.6827 77.8451 59.2202 78.8519 59.2202 78.8519L62.2406 100.599L60.8311 109.056C59.7236 109.761 54.4882 110.466 54.4882 110.466C53.8841 109.459 53.1793 108.15 52.3738 106.841L54.9916 107.848L58.012 106.237C58.012 106.237 58.7168 94.961 58.5154 94.6589C58.4147 94.3569 49.4541 79.7581 49.2527 79.3553Z" fill="#E1AC8F"/>
<path d="M46.2324 90.3305L49.0515 84.793L54.2869 91.6393L56.5019 101.204L55.0924 103.117L50.7631 95.4652L51.7699 90.7332L49.1522 86.7059L46.2324 90.3305Z" fill="#D19271"/>
<path d="M133.423 81.1686C133.423 81.1686 139.464 80.4638 144.095 77.4434C144.095 77.4434 147.619 86.9074 148.122 91.9415C148.122 91.9415 141.377 105.03 138.054 110.568C138.054 110.568 132.819 109.863 131.711 109.158L130.302 100.701L133.423 81.1686Z" fill="#F0C7B1"/>
<path d="M143.29 79.3563C143.491 78.9536 144.095 77.4434 144.095 77.4434C138.86 77.8461 133.322 78.8529 133.322 78.8529L130.302 100.6L131.711 109.057C132.819 109.762 138.054 110.467 138.054 110.467C138.658 109.46 139.363 108.151 140.169 106.842L137.551 107.849L134.53 106.238C134.53 106.238 133.826 94.962 134.027 94.6599C134.128 94.3579 143.088 79.759 143.29 79.3563Z" fill="#E1AC8F"/>
<path d="M146.311 90.3314L143.491 84.7939L138.256 91.6403L136.041 101.205L137.451 103.118L141.78 95.4662L140.773 90.7342L143.391 86.7069L146.311 90.3314Z" fill="#D19271"/>
<path d="M134.63 49.1527C127.683 37.4736 114.795 29.5198 114.795 29.5198C107.546 28.0096 96.27 27.2041 96.27 27.2041C96.27 27.2041 85.0944 28.0096 77.7446 29.5198C77.7446 29.5198 64.8574 37.4736 57.9103 49.1527C57.9103 49.1527 52.7756 63.7515 52.5742 74.1217L57.5076 108.253L71.8044 133.222L88.8196 145.002H103.821L120.836 133.222L135.133 108.253L140.067 74.1217C139.764 63.7515 134.63 49.1527 134.63 49.1527Z" fill="#F0C7B1"/>
<path d="M88.9203 142.485L74.2208 130.101C74.2208 130.101 62.7431 109.058 62.3403 108.253C61.9376 107.347 57.3063 73.719 57.3063 73.719C57.5076 68.8863 61.8369 52.0725 62.3403 51.3677C64.4547 48.1459 78.9528 33.245 78.9528 33.245L96.1693 29.117L114.795 29.5198C107.546 28.0096 96.27 27.2041 96.27 27.2041C96.27 27.2041 85.0944 28.0096 77.7446 29.5198C77.7446 29.5198 64.8574 37.4736 57.9103 49.1527C57.9103 49.1527 52.7756 63.7515 52.5742 74.1217L57.5076 108.253L71.8044 133.222L88.8196 145.002H103.821L120.836 133.222L102.714 143.693L88.9203 142.485Z" fill="#D19271"/>
<path d="M87.2588 126.172L90.3799 128.387L96.0181 128.186L102.663 128.79L105.381 126.776L102.462 127.783L95.9174 127.279L90.3799 127.481L87.2588 126.172Z" fill="#D19271"/>
<path d="M85.366 120.212L83.584 122.819L91.5177 120.665L94.0247 122.185L97.8808 122.457L100.267 120.997L110.033 123.071L108.251 121.138L99.3407 115.711L96.0584 116.708L93.1487 115.57L85.366 120.212Z" fill="#DA7C87"/>
<path d="M81.4697 121.541L83.7854 123.454L91.3365 121.037L94.1556 122.648L97.8808 122.749L100.499 121.239L110.063 123.554L111.946 122.195L109.862 122.648L100.197 119.93L97.6795 121.843L94.1556 121.742L91.4372 119.729L83.584 122.447L81.4697 121.541Z" fill="#CB5F6C"/>
<path d="M87.4119 85.0923L82.1764 80.4609L73.1151 80.5616L66.0674 84.3875C66.0674 84.3875 71.9069 88.7168 73.3165 89.3209L82.1764 88.9182L87.4119 85.0923Z" fill="white"/>
<path d="M78.3509 89.6254L72.8135 87.6117L71.8066 81.7722L76.3373 77.9463L81.8748 80.0606L82.8816 85.7995L78.3509 89.6254Z" fill="#015D61"/>
<path d="M74.3232 84.793L74.9273 81.6719L77.9478 80.665L80.3641 82.7794L79.6594 85.9005L76.6389 86.9073L74.3232 84.793Z" fill="#21222F"/>
<path d="M74.1221 81.0674L76.3371 83.1817L76.9412 82.779L75.733 80.0605L74.1221 81.0674Z" fill="white"/>
<path d="M78.25 85.7992L78.7534 86.806L79.5589 86.4033L79.1561 85.3965L78.25 85.7992Z" fill="white"/>
<path d="M63.1475 78.6496V90.6307L71.1013 99.088H82.3776L90.3315 90.6307V78.6496L82.3776 70.1924H71.1013L63.1475 78.6496ZM66.1679 84.3885L73.2156 80.5626L82.277 80.4619L87.4117 85.0933L82.1763 89.0198L73.3163 89.4226C72.0074 88.6171 66.1679 84.3885 66.1679 84.3885Z" fill="#F0C7B1"/>
<path d="M87.9155 85.4956L86.7073 84.8915L81.9752 80.7636H73.1153L65.8662 84.7908L64.8594 84.9922L72.8132 79.9581L82.4787 79.8574L87.9155 85.4956Z" fill="#21222F"/>
<path d="M87.0092 83.3819L82.982 79.254L73.1152 79.1533L64.96 82.7779L73.1152 79.6567H82.8813L87.0092 83.3819Z" fill="#E1AC8F"/>
<path d="M105.13 85.0942L110.265 80.4629L119.326 80.5636L126.374 84.3895C126.374 84.3895 120.534 88.7188 119.125 89.3229L110.265 88.9201L105.13 85.0942Z" fill="white"/>
<path d="M116.206 89.6273L110.669 87.6137L109.662 81.7741L114.193 77.9482L119.73 80.0626L120.737 85.8014L116.206 89.6273Z" fill="#015D61"/>
<path d="M112.179 84.7949L112.883 81.6738L115.904 80.667L118.22 82.7813L117.616 85.9024L114.595 86.9092L112.179 84.7949Z" fill="#21222F"/>
<path d="M112.079 81.0693L114.294 83.1836L114.898 82.7809L113.69 80.0625L112.079 81.0693Z" fill="white"/>
<path d="M116.105 85.8012L116.71 86.808L117.515 86.4053L117.112 85.3984L116.105 85.8012Z" fill="white"/>
<path d="M121.44 70.0938H110.164L102.21 78.551V90.5321L110.164 98.9894H121.44L129.394 90.5321V78.6517L121.44 70.0938ZM119.124 89.3239L110.264 88.9212L105.13 85.0953L110.264 80.4639L119.326 80.5646L126.374 84.3905C126.374 84.3905 120.534 88.6192 119.124 89.3239Z" fill="#F0C7B1"/>
<path d="M104.627 85.4975L105.835 84.8935L110.567 80.7655H119.427L126.676 84.7928L127.683 84.9941L119.729 79.9601L110.064 79.8594L104.627 85.4975Z" fill="#21222F"/>
<path d="M105.532 83.3829L109.559 79.255L119.426 79.1543L127.582 82.7788L119.426 79.6577H109.66L105.532 83.3829Z" fill="#E1AC8F"/>
<path d="M70.2959 66.8721L67.0741 68.2816L62.04 77.343L70.598 72.7116L88.0159 76.4368L88.922 70.3959L70.2959 66.8721Z" fill="#21222F"/>
<path d="M84.0892 73.3157L82.881 69.2884L81.1694 68.8857L84.0892 73.3157ZM69.0876 67.4762L74.7258 72.1075L70.2958 66.8721L69.0876 67.4762ZM76.0346 67.9796L79.8605 73.0136L77.9476 68.3823L76.0346 67.9796ZM64.2549 73.4164L66.9733 71.9062L64.859 72.4096L64.2549 73.4164ZM79.0551 68.5837L80.7667 70.4966L80.2633 68.785L79.0551 68.5837ZM66.5706 69.2884L70.3965 70.0939L67.074 68.2816L66.5706 69.2884ZM83.2837 69.3891L86.8076 74.6246L85.398 69.8925L83.2837 69.3891Z" fill="#3A353A"/>
<path d="M103.62 70.3959L104.526 76.4368L121.944 72.7116L130.502 77.343L125.468 68.2816L122.246 66.8721L103.62 70.3959Z" fill="#21222F"/>
<path d="M111.373 68.8857L109.661 69.1877L108.453 73.215L111.373 68.8857ZM122.246 66.8721L117.816 72.1075L123.454 67.4762L122.246 66.8721ZM114.594 68.3823L112.681 73.0136L116.507 67.9796L114.594 68.3823ZM127.582 72.4096L125.468 71.9061L128.186 73.4164L127.582 72.4096ZM112.279 68.785L111.775 70.4966L113.487 68.5837L112.279 68.785ZM125.468 68.2816L122.246 70.0939L126.072 69.2884L125.468 68.2816ZM107.144 69.7918L105.734 74.5239L109.258 69.2884L107.144 69.7918Z" fill="#3A353A"/>
<path d="M92.3652 90.3398L91.9122 96.7834L86.0928 105.714L89.0931 107.979L90.7342 105.945L95.0836 109.791H97.5101L101.809 105.945L103.39 107.919L106.561 105.714L100.732 96.733L100.168 90.229L96.322 88.5879L92.3652 90.3398Z" fill="#F0C7B1"/>
<path d="M101.165 96.9134L99.2017 81.1366L100.309 95.7858L99.4433 95.5643L106.068 105.693L103.712 107.435L102.424 105.914L102.705 104.565L97.5203 109.066H95.1039L89.9189 104.565L90.2108 105.914L88.912 107.435L86.5561 105.693L93.191 95.5643L92.3251 95.7858L93.6642 72.8203L91.4593 96.9134L85.5996 105.804L89.4356 108.613L90.8854 106.589L95.1039 110.526H97.5203L101.749 106.589L103.189 108.613L107.025 105.804L101.165 96.9134Z" fill="#D19271"/>
<path d="M92.3955 103.689L94.7817 105.159L97.9028 105.22L100.47 104.052L100.168 102.28L96.5537 101.676L92.5868 102.34L92.3955 103.689Z" fill="#F8D5C3"/>
<path d="M139.574 53.1588C137.017 47.289 120.293 29.1563 120.293 29.1563L96.2707 25.3203L72.2481 29.1462C72.2481 29.1462 55.5249 47.2689 52.9676 53.1487L52.0312 77.6143L56.6425 81.6718H59.2199L59.9549 56.6021L77.2822 39.6473L84.6521 47.9435L96.2707 49.7054L107.889 47.9435L115.259 39.6473L132.587 56.6021L133.322 81.6718H135.899L140.51 77.6143L139.574 53.1588Z" fill="#1B141C"/>
<path d="M120.293 29.1563L96.2707 25.3203L87.1187 26.7802L75.8223 31.3813C75.8223 31.3813 84.6017 45.356 85.6085 45.356C86.6053 45.356 98.1836 47.1481 99.1804 46.9568C100.177 46.7554 107.567 45.96 107.567 45.96L115.954 38.3787L134.117 56.743L135.043 81.6819H135.909L140.52 77.6244L139.584 53.1588C137.017 47.279 120.293 29.1563 120.293 29.1563Z" fill="#21222F"/>
</g>
<defs>
<clipPath id="clip0_2077_1932">
<rect width="190" height="210" fill="white"/>
</clipPath>
</defs>
</svg>
