<svg width="190" height="210" viewBox="0 0 190 210" fill="none" xmlns="http://www.w3.org/2000/svg">
<path d="M0 0H190V210H0V0Z" fill="#E2F2EF"/>
<path d="M161.5 172.029L135.565 165.433L118.465 155.97L117.04 129.014H72.9599L71.5349 155.97L54.4349 165.433L28.4999 172.029L19.8549 190.86L17.0049 209.978H172.995L170.145 190.86L161.5 172.029Z" fill="#F0C7B1"/>
<path d="M72.9599 129.014L71.5349 155.97L54.4349 165.433L28.4999 172.029L19.8549 190.86L17.0049 209.978H30.8749V190.86L33.4399 173.941L56.0499 167.823L79.5149 159.889L82.8399 129.014H72.9599Z" fill="#D19271"/>
<path d="M115.424 142.205L117.514 138.573L117.039 129.014H72.9592L72.1992 144.212L85.3092 153.389H99.3692L115.424 142.205Z" fill="#C27B55"/>
<path d="M88.1592 160.559L90.0592 168.11L96.6142 172.507C96.6142 172.507 88.5392 169.64 88.3492 169.066C88.1592 168.493 88.1592 160.559 88.1592 160.559Z" fill="#D19271"/>
<path d="M174.514 209.977L171.474 190.382L162.354 171.168L136.039 164.477L119.319 155.205L118.369 153.962L118.464 155.969L119.129 158.741L110.769 168.492L101.839 172.506H88.1594L79.2294 168.492L70.8694 158.741L71.5344 155.969L71.6294 153.962L70.6794 155.205L53.9594 164.477L27.5494 171.168L18.5244 190.382L15.4844 209.977H174.514Z" fill="#015D61"/>
<path d="M68.3994 156.543L67.3544 160.175L74.8594 171.264L88.0644 177.573L96.6144 178.72H88.1594L74.8594 172.506L66.5944 160.558L68.0194 156.734L68.3994 156.543ZM28.1194 197.551L31.4444 183.69L34.1994 184.36L36.5744 193.249L35.0544 184.264L31.9194 175.756L58.1394 170.212L69.5394 164.286L73.5294 161.896L70.8694 158.837L71.5344 156.065L71.6294 154.058L70.6794 155.3L53.8644 164.572L27.5494 171.264L18.4294 190.477L15.4844 209.978H28.0244L28.1194 197.551ZM41.0394 205.867L39.3294 199.654L39.5194 209.978H41.5144L41.0394 205.867ZM121.599 156.543L122.644 160.175L115.139 171.264L101.934 177.573L93.3844 178.72H101.839L115.139 172.506L123.404 160.558L121.979 156.734L121.599 156.543ZM148.959 205.867L150.669 199.654L150.479 209.978H148.484L148.959 205.867Z" fill="#004E52"/>
<path d="M59.9452 87.4323C59.9452 87.4323 54.2452 86.7632 49.8752 83.8955C49.8752 83.8955 46.5502 92.8809 46.0752 97.6604C46.0752 97.6604 52.4402 110.087 55.5752 115.344C55.5752 115.344 60.5152 114.675 61.5602 114.006L62.8902 105.977L59.9452 87.4323Z" fill="#F0C7B1"/>
<path d="M50.636 85.7117C50.446 85.3294 49.876 83.8955 49.876 83.8955C54.816 84.2779 60.041 85.2338 60.041 85.2338L62.891 105.881L61.561 113.911C60.516 114.58 55.576 115.249 55.576 115.249C55.006 114.293 54.341 113.05 53.581 111.808L56.051 112.764L58.901 111.234C58.901 111.234 59.566 100.528 59.376 100.241C59.281 99.9546 50.826 86.0941 50.636 85.7117Z" fill="#E1AC8F"/>
<path d="M47.7852 96.1315L50.4452 90.874L55.3852 97.3741L57.4752 106.455L56.1452 108.271L52.0602 101.007L53.0102 96.5138L50.5402 92.6902L47.7852 96.1315Z" fill="#D19271"/>
<path d="M130.055 87.4323C130.055 87.4323 135.755 86.7632 140.125 83.8955C140.125 83.8955 143.45 92.8809 143.925 97.6604C143.925 97.6604 137.56 110.087 134.425 115.344C134.425 115.344 129.485 114.675 128.44 114.006L127.11 105.977L130.055 87.4323Z" fill="#F0C7B1"/>
<path d="M139.365 85.7117C139.555 85.3294 140.125 83.8955 140.125 83.8955C135.185 84.2779 129.96 85.2338 129.96 85.2338L127.11 105.881L128.44 113.911C129.485 114.58 134.425 115.249 134.425 115.249C134.995 114.293 135.66 113.05 136.42 111.808L133.95 112.764L131.1 111.234C131.1 111.234 130.435 100.528 130.625 100.241C130.72 99.9546 139.175 86.0941 139.365 85.7117Z" fill="#E1AC8F"/>
<path d="M142.215 96.1315L139.555 90.874L134.615 97.3741L132.525 106.455L133.855 108.271L137.94 101.007L136.99 96.5138L139.46 92.6902L142.215 96.1315Z" fill="#D19271"/>
<path d="M131.195 57.0348C124.64 45.9464 112.48 38.3948 112.48 38.3948C105.64 36.961 94.9995 36.1963 94.9995 36.1963C94.9995 36.1963 84.4545 36.961 77.5195 38.3948C77.5195 38.3948 65.3595 45.9464 58.8045 57.0348C58.8045 57.0348 53.9595 70.8953 53.7695 80.7411L58.4245 113.146L71.9145 136.852L87.9695 148.036H102.125L118.18 136.852L131.67 113.146L136.325 80.7411C136.04 70.8953 131.195 57.0348 131.195 57.0348Z" fill="#F0C7B1"/>
<path d="M88.0645 145.646L74.1945 133.889C74.1945 133.889 63.3645 113.911 62.9845 113.146C62.6045 112.286 58.2345 80.3587 58.2345 80.3587C58.4245 75.7704 62.5095 59.8069 62.9845 59.1378C64.9795 56.0789 78.6595 41.9317 78.6595 41.9317L94.9045 38.0125L112.48 38.3948C105.64 36.961 94.9995 36.1963 94.9995 36.1963C94.9995 36.1963 84.4545 36.961 77.5195 38.3948C77.5195 38.3948 65.3595 45.9464 58.8045 57.0348C58.8045 57.0348 53.9595 70.8953 53.7695 80.7411L58.4245 113.146L71.9145 136.852L87.9695 148.036H102.125L118.18 136.852L101.08 146.793L88.0645 145.646Z" fill="#D19271"/>
<path d="M80.0283 123.107L89.3953 124.139L95.5703 126.242L101.27 123.661L110.618 123.585L100.89 121.94H88.6353L80.0283 123.107Z" fill="#DA7C87"/>
<path d="M84.4746 127.073L90.5356 129.396L100.511 129.683L104.805 127.169L100.701 130.639H90.4406L84.4746 127.073Z" fill="#D19271"/>
<path d="M87.8757 92.0211L83.6007 88.2931C83.6007 88.2931 71.2507 87.624 70.9657 87.624C70.6807 87.624 64.9807 91.6388 65.1707 91.83C65.3607 92.0211 71.3457 94.6977 73.7207 95.1756C73.7207 95.1756 77.3307 95.1756 81.0357 94.4109C83.6957 93.6462 86.4507 92.5947 87.8757 92.0211Z" fill="white"/>
<path d="M73.3401 93.0726L72.5801 88.2931L76.1901 85.1387L80.7501 86.8593L81.6051 91.6388L77.9001 94.6976L73.3401 93.0726Z" fill="#4E8FA3"/>
<path d="M76.2845 85.6161L80.3695 87.1455L81.1295 91.447L77.8045 94.2191L73.7195 92.6897L72.9595 88.3882L76.2845 85.6161ZM76.1895 84.6602L72.1045 88.1014L72.9595 93.3588L77.8995 95.175L81.9845 91.7338L81.1295 86.4764L76.1895 84.6602Z" fill="#439B86"/>
<path d="M76.1903 84.9467L80.8453 86.6673L81.7003 91.638L77.9003 94.888L73.2453 93.1674L72.3903 88.1967L76.1903 84.9467ZM76.0953 84.4688L71.8203 88.1012L72.7703 93.6454L77.9953 95.5572L82.2703 91.9247L81.3203 86.3805L76.0953 84.4688Z" fill="#253984"/>
<path d="M74.1943 90.8733L74.8593 87.91L77.7093 86.9541L79.8943 89.0571L79.3243 91.9248L76.4743 92.8807L74.1943 90.8733Z" fill="black"/>
<path d="M75.1455 87.5273H76.8555V89.248H75.1455V87.5273Z" fill="white"/>
<path d="M77.4248 91.7334H78.3748V92.6893H77.4248V91.7334Z" fill="white"/>
<path d="M63.7461 85.0422V96.4174L71.2511 104.447H81.8911L89.3961 96.4174V85.0422L81.8911 77.0127H71.2511L63.7461 85.0422ZM65.1711 91.7335C64.9811 91.5423 70.7761 87.5276 70.9661 87.5276C71.1561 87.5276 83.6011 88.2923 83.6011 88.2923L87.8761 92.0203C86.4511 92.6894 83.6961 93.7409 81.0361 94.3144C77.3311 95.1747 73.7211 95.0791 73.7211 95.0791C71.3461 94.6968 65.4561 91.9247 65.1711 91.7335Z" fill="#F0C7B1"/>
<path d="M88.3518 92.2109L87.2118 91.733L83.3168 88.4829L71.0618 87.9094L66.7868 90.8726L65.7418 91.8285L71.7268 94.505L68.9718 93.8359L64.5068 91.8285L66.2168 90.1079L70.9668 87.2402L83.6018 88.1005L88.3518 92.2109Z" fill="black"/>
<path d="M86.9257 90.2038L83.3157 85.9022L74.1007 85.8066L71.3457 87.0493L74.5757 86.189L83.2207 86.3802L86.9257 90.2038Z" fill="#E1AC8F"/>
<path d="M102.126 92.0211L106.401 88.2931C106.401 88.2931 118.751 87.624 119.036 87.624C119.321 87.624 125.021 91.6388 124.831 91.83C124.641 92.0211 118.656 94.6977 116.281 95.1756C116.281 95.1756 112.671 95.1756 108.966 94.4109C106.306 93.6462 103.551 92.5947 102.126 92.0211Z" fill="white"/>
<path d="M109.251 93.0726L108.396 88.2931L112.101 85.1387L116.661 86.8593L117.421 91.6388L113.811 94.6976L109.251 93.0726Z" fill="#4E8FA3"/>
<path d="M112.196 85.6161L116.281 87.1455L117.041 91.447L113.716 94.2191L109.631 92.6897L108.871 88.3882L112.196 85.6161ZM112.006 84.6602L107.921 88.1014L108.776 93.3588L113.716 95.175L117.801 91.7338L116.946 86.4764L112.006 84.6602Z" fill="#439B86"/>
<path d="M112.1 84.9467L116.755 86.6673L117.61 91.638L113.81 94.888L109.155 93.1674L108.3 88.1967L112.1 84.9467ZM112.005 84.4688L107.73 88.1012L108.68 93.6454L113.905 95.5572L118.18 91.9247L117.23 86.3805L112.005 84.4688Z" fill="#152975"/>
<path d="M110.105 90.8733L110.675 87.91L113.525 86.9541L115.805 89.0571L115.14 91.9248L112.29 92.8807L110.105 90.8733Z" fill="black"/>
<path d="M111.056 87.5273H112.766V89.248H111.056V87.5273Z" fill="white"/>
<path d="M113.24 91.7334H114.19V92.6893H113.24V91.7334Z" fill="white"/>
<path d="M118.751 76.918H108.111L100.606 84.9475V96.3227L108.111 104.352H118.751L126.256 96.3227V85.0431L118.751 76.918ZM116.281 95.08C116.281 95.08 112.671 95.08 108.966 94.3153C106.306 93.7417 103.551 92.6903 102.126 92.0211L106.401 88.2931C106.401 88.2931 118.751 87.624 119.036 87.624C119.321 87.624 125.021 91.6388 124.831 91.8299C124.641 92.0211 118.656 94.6976 116.281 95.08Z" fill="#F0C7B1"/>
<path d="M101.651 92.2119L102.791 91.7339L106.686 88.4839L118.941 87.9103L123.216 90.8736L124.261 91.8295L118.276 94.506L121.031 93.8369L125.496 91.8295L123.786 90.1089L119.036 87.2412L106.401 88.1015L101.651 92.2119Z" fill="black"/>
<path d="M103.076 90.2047L106.686 85.9032L115.901 85.8076L118.656 87.0503L115.426 86.19L106.781 86.3812L103.076 90.2047Z" fill="#E1AC8F"/>
<path d="M70.4902 73.8584L67.4502 75.1967L62.7002 83.7997L70.7752 79.4026L87.2102 82.9394L88.0652 77.204L70.4902 73.8584Z" fill="#2A232B"/>
<path d="M83.505 79.9761L82.365 76.1526L80.75 75.7702L83.505 79.9761ZM69.35 74.4319L74.67 78.8291L70.49 73.8584L69.35 74.4319ZM75.905 74.9099L79.515 79.6894L77.71 75.2922L75.905 74.9099ZM64.79 80.0717L67.355 78.6379L65.36 79.1158L64.79 80.0717ZM78.755 75.4834L80.37 77.2996L79.895 75.6746L78.755 75.4834ZM66.975 76.1526L70.585 76.9173L67.45 75.1967L66.975 76.1526ZM82.745 76.2481L86.07 81.2188L84.74 76.7261L82.745 76.2481Z" fill="#3A353A"/>
<path d="M101.936 77.204L102.791 82.9394L119.226 79.4026L127.301 83.7997L122.551 75.1967L119.511 73.8584L101.936 77.204Z" fill="#2A232B"/>
<path d="M109.251 75.7702L107.636 76.057L106.496 79.8805L109.251 75.7702ZM119.511 73.8584L115.331 78.8291L120.651 74.4319L119.511 73.8584ZM112.291 75.2922L110.486 79.6894L114.096 74.9099L112.291 75.2922ZM124.546 79.1158L122.551 78.6379L125.116 80.0717L124.546 79.1158ZM110.106 75.6746L109.631 77.2996L111.246 75.4834L110.106 75.6746ZM122.551 75.1967L119.511 76.9173L123.121 76.1526L122.551 75.1967ZM105.261 76.6305L103.931 81.1232L107.256 76.1526L105.261 76.6305Z" fill="#3A353A"/>
<path d="M91.314 96.1408L90.8865 102.259L85.3955 110.737L88.2265 112.888L89.775 110.957L93.879 114.609H96.1685L100.225 110.957L101.717 112.831L104.709 110.737L99.2085 102.211L98.6765 96.0357L95.0475 94.4775L91.314 96.1408Z" fill="#F0C7B1"/>
<path d="M99.6177 102.382L97.7652 87.4035L98.8102 101.312L97.9932 101.102L104.244 110.718L102.021 112.372L100.805 110.928L101.071 109.647L96.1787 113.92H93.8987L89.0062 109.647L89.2817 110.928L88.0562 112.372L85.8332 110.718L92.0937 101.102L91.2767 101.312L92.5402 79.5078L90.4597 102.382L84.9307 110.823L88.5502 113.49L89.9182 111.569L93.8987 115.306H96.1787L100.169 111.569L101.527 113.49L105.147 110.823L99.6177 102.382Z" fill="#D19271"/>
<path d="M91.3428 108.816L93.5943 110.212L96.5393 110.269L98.9618 109.16L98.6768 107.478L95.2663 106.904L91.5233 107.535L91.3428 108.816Z" fill="#F8D5C3"/>
<path d="M51.5284 81.0661L55.6609 92.0207L58.6629 94.4678L63.1659 55.9452L68.0489 49.1392L77.9954 46.6825L94.7059 50.6495L110.466 46.8737L120.793 48.7664L126.616 55.3716L132.06 93.3398L135.252 88.6177L137.684 80.4926L137.123 75.7705L138.254 69.1652L136.753 64.6247L137.313 57.2643L135.252 52.7334L134.682 46.1186L128.488 39.5133L121.733 26.6661L108.405 19.8697L98.0784 22.1351L93.5754 19.4873L90.1934 20.9976L77.6249 21.944L72.3619 27.8036L64.4769 30.2507L63.3559 33.6537L54.3404 42.534L54.1599 53.2974L51.9084 60.8489L53.5899 63.3056L50.5879 70.1116L52.0889 75.3977L51.5284 81.0661Z" fill="#21222F"/>
<path d="M131.889 76.4109C131.68 75.5506 127.623 54.5113 127.623 54.5113L121.22 47.6384L110.124 45.7075L94.1169 49.3591L82.5934 39.2648L84.0849 28.5301L93.4709 21.4469L97.9549 23.5977L108.405 19.8697L98.0784 22.1351L93.5754 19.4873L90.1934 20.9976L77.6154 21.944L72.3619 27.8036L64.4769 30.2603L63.3464 33.6632L54.3404 42.5435L54.1504 53.3069L51.8989 60.8585L53.5899 63.3151L50.5879 70.1116L52.0889 75.3977L51.5284 81.0661L55.6609 92.0207L58.6629 94.4774L59.0049 91.5619L53.5709 82.2228V77.0705L59.7744 84.928L60.1259 81.9551L52.7159 69.9873L54.8534 65.2652L60.9809 74.6903L61.7884 67.8079L56.9909 57.9621L56.1359 44.2163L63.8214 36.703L61.6839 44.4362L63.1659 55.9548L68.0489 49.1583L65.3129 42.9354L73.4259 29.1897L81.9569 23.1771L75.7724 42.2854L79.4014 47.0267L94.7059 50.6591L110.476 46.8833L120.802 48.776L126.626 55.3908L132.069 93.359C132.06 93.3399 132.098 77.2712 131.889 76.4109Z" fill="#131420"/>
<path d="M97.1563 25.6436L96.2158 35.5466L109.031 45.2872L97.9353 34.7532L97.1563 25.6436Z" fill="#131420"/>
<path d="M127.519 40.5547L127.661 49.3298L127.215 52.5034L128.868 48.2688L129.466 42.5143L127.519 40.5547Z" fill="#131420"/>
<path d="M133.685 55.8311C133.381 56.2803 131.281 64.004 131.281 64.004L129.78 66.5753L132.488 64.4532L134.739 56.5862L133.685 55.8311Z" fill="#131420"/>
</svg>
