<svg width="17" height="13" viewBox="0 0 17 13" fill="none" xmlns="http://www.w3.org/2000/svg">
<path d="M16.3607 1.71145C15.7868 1.95898 15.1624 2.13713 14.5192 2.20651C15.187 1.80978 15.6871 1.18301 15.9256 0.44379C15.299 0.816567 14.6125 1.07796 13.8966 1.21639C13.5974 0.896522 13.2355 0.641702 12.8335 0.467807C12.4316 0.293912 11.9981 0.204668 11.5601 0.205635C9.78797 0.205635 8.36279 1.64207 8.36279 3.40479C8.36279 3.65232 8.3928 3.89985 8.44155 4.13801C5.78809 3.99924 3.42155 2.73158 1.84822 0.790709C1.56155 1.28036 1.41132 1.83789 1.41317 2.40529C1.41317 3.51543 1.97761 4.4943 2.83835 5.07C2.3311 5.05002 1.83574 4.9106 1.39254 4.66307V4.70245C1.39254 6.25702 2.49143 7.54531 3.95599 7.8416C3.681 7.91303 3.39812 7.94957 3.11401 7.95036C2.90586 7.95036 2.70896 7.92973 2.51018 7.9016C2.91523 9.16926 4.09476 10.09 5.49931 10.12C4.40042 10.9807 3.024 11.4871 1.52943 11.4871C1.26127 11.4871 1.01374 11.4777 0.756836 11.4477C2.17451 12.3572 3.8566 12.8822 5.66808 12.8822C11.5488 12.8822 14.7667 8.01037 14.7667 3.78171C14.7667 3.64294 14.7667 3.50418 14.7573 3.36541C15.3799 2.90973 15.9256 2.34528 16.3607 1.71145Z" fill="#575B7A"/>
</svg>
