<?xml version="1.0" encoding="UTF-8"?> <svg xmlns="http://www.w3.org/2000/svg" width="28" height="28" viewBox="0 0 28 28" fill="none"><path d="M13.9998 3.83329C15.9332 3.83329 17.4998 5.39996 17.4998 7.33329C17.4998 9.26663 15.9332 10.8333 13.9998 10.8333C12.0665 10.8333 10.4998 9.26663 10.4998 7.33329C10.4998 5.39996 12.0665 3.83329 13.9998 3.83329ZM13.9998 18.8333C18.9498 18.8333 24.1665 21.2666 24.1665 22.3333V24.1666H3.83317V22.3333C3.83317 21.2666 9.04984 18.8333 13.9998 18.8333ZM13.9998 0.666626C10.3165 0.666626 7.33317 3.64996 7.33317 7.33329C7.33317 11.0166 10.3165 14 13.9998 14C17.6832 14 20.6665 11.0166 20.6665 7.33329C20.6665 3.64996 17.6832 0.666626 13.9998 0.666626ZM13.9998 15.6666C9.54984 15.6666 0.666504 17.9 0.666504 22.3333V27.3333H27.3332V22.3333C27.3332 17.9 18.4498 15.6666 13.9998 15.6666Z" fill="#3F6DE4"></path></svg> 