<svg width="40" height="40" viewBox="0 0 40 40" fill="none" xmlns="http://www.w3.org/2000/svg">
<path d="M35.3536 31.6678C35.5899 27.9017 35.7142 23.9989 35.7142 19.9998C35.7142 18.3801 35.6939 16.7763 35.6539 15.1909C35.6259 14.0771 35.2645 12.9948 34.6054 12.0966C32.0925 8.67345 30.0908 6.54528 26.7916 3.99913C25.885 3.29942 24.7725 2.91979 23.6276 2.89476C22.4795 2.86968 21.2806 2.85693 19.9999 2.85693C16.1229 2.85693 12.9955 2.9737 9.75907 3.19622C7.00582 3.38553 4.81916 5.57733 4.64627 8.33168C4.4099 12.0979 4.28564 16.0007 4.28564 19.9998C4.28564 23.9989 4.4099 27.9017 4.64627 31.6678C4.81916 34.4224 7.00582 36.6141 9.75907 36.8032C12.9955 37.0258 16.1229 37.1426 19.9999 37.1426C23.8769 37.1426 27.0044 37.0258 30.2408 36.8032C32.9939 36.6141 35.1808 34.4224 35.3536 31.6678Z" stroke="#0DA88C" stroke-width="2"/>
<path d="M11.4287 3.09059V19.408C11.4287 20.6808 12.9675 21.3182 13.8674 20.4182L17.143 17.1426L20.4186 20.4182C21.3185 21.3182 22.8573 20.6808 22.8573 19.408V2.8799C21.9447 2.86465 20.9972 2.85693 20.0001 2.85693C16.7919 2.85693 14.0969 2.9369 11.4287 3.09059Z" stroke="#0DA88C" stroke-width="2" stroke-linejoin="round"/>
<path d="M13.6001 5.35092V15.8768C13.6001 16.6978 14.5695 17.109 15.1365 16.5284L17.2001 14.4155L19.2637 16.5284C19.8307 17.109 20.8001 16.6978 20.8001 15.8768V5.21501C20.2252 5.20517 19.6283 5.2002 19.0001 5.2002C16.9789 5.2002 15.2811 5.25178 13.6001 5.35092Z" fill="#F6B642"/>
</svg>
