<svg width="144" height="35" viewBox="0 0 144 35" fill="none" xmlns="http://www.w3.org/2000/svg">
<path d="M53.508 19.4085H60.284C60.2 20.1365 60.004 20.8085 59.696 21.3965C59.388 22.0125 59.052 22.5165 58.66 22.8805C58.128 23.4125 57.456 23.8605 56.672 24.2525C55.86 24.6445 54.824 24.8405 53.536 24.8405C52.556 24.8405 51.632 24.6725 50.764 24.3085C49.896 23.9445 49.112 23.4405 48.44 22.7965C47.768 22.1525 47.236 21.3965 46.844 20.4725C46.452 19.5485 46.256 18.5405 46.256 17.3925C46.256 16.2445 46.452 15.2365 46.844 14.3125C47.236 13.3885 47.768 12.6045 48.44 11.9605C49.112 11.3165 49.896 10.8405 50.764 10.4765C51.632 10.1125 52.556 9.9445 53.508 9.9445C54.628 9.9445 55.636 10.1405 56.532 10.5325C57.4 10.9245 58.184 11.4845 58.828 12.2125L61.04 10.0005C60.172 9.0205 59.08 8.2645 57.792 7.7325C56.476 7.2005 55.076 6.9205 53.536 6.9205C52.108 6.9205 50.736 7.1725 49.476 7.7045C48.188 8.2365 47.068 8.9645 46.116 9.8885C45.164 10.8125 44.408 11.9325 43.876 13.1925C43.316 14.4805 43.036 15.8805 43.036 17.3925C43.036 18.9045 43.316 20.3045 43.876 21.5645C44.408 22.8525 45.164 23.9725 46.116 24.8965C47.068 25.8205 48.188 26.5485 49.476 27.0805C50.736 27.6125 52.108 27.8645 53.536 27.8645C55.132 27.8645 56.532 27.6125 57.764 27.0805C58.996 26.5485 60.06 25.8205 60.984 24.8685C61.88 23.9445 62.524 22.9085 62.888 21.7325C63.252 20.5565 63.448 19.3805 63.448 18.1765C63.448 17.8685 63.42 17.5885 63.392 17.3085C63.364 17.0565 63.308 16.8045 63.28 16.5525H53.508V19.4085ZM75.3946 27.4165H78.3346V13.6965H75.2266V20.8645C75.2266 21.3965 75.1426 21.9285 75.0026 22.4045C74.8626 22.9085 74.6386 23.3565 74.3306 23.7205C74.0226 24.1125 73.6866 24.4205 73.2666 24.6445C72.8466 24.8685 72.3706 24.9805 71.8386 24.9805C70.9426 24.9805 70.2146 24.7285 69.6826 24.2525C69.1226 23.7765 68.8426 22.9645 68.8426 21.7605V13.6965H65.7346V22.1805C65.7346 23.8885 66.1546 25.2605 67.0226 26.2965C67.8906 27.3325 69.1786 27.8645 70.9146 27.8645C71.8666 27.8645 72.7346 27.6405 73.4906 27.1925C74.2466 26.7725 74.8066 26.2125 75.2266 25.5685H75.3946V27.4165ZM82.6919 23.2165C82.6919 24.5885 83.0839 25.6805 83.8959 26.4925C84.2599 26.8565 84.7079 27.1365 85.2119 27.3325C85.7159 27.5285 86.3039 27.6405 86.9479 27.6405C87.4799 27.6405 87.9839 27.5845 88.4039 27.5005C88.8239 27.4165 89.2439 27.3045 89.6359 27.1645V24.4205C89.6359 24.4205 88.3199 24.5885 88.1519 24.6165C87.9839 24.6725 87.7599 24.7005 87.4519 24.7005C86.9759 24.7005 86.5559 24.5325 86.2479 24.1685C86.1079 23.9725 85.9959 23.7485 85.9119 23.4685C85.8279 23.1885 85.7999 22.8805 85.7999 22.5445V16.4405H89.1879V13.6965H85.7999V9.4965H82.6919V13.6965H80.2839V16.4405H82.6919V23.2165ZM101.534 22.8245C101.17 23.4685 100.694 24.0005 100.106 24.4205C99.5179 24.8405 98.7899 25.0645 97.8939 25.0645C97.4459 25.0645 96.9979 24.9805 96.5219 24.8405C96.0459 24.7005 95.6259 24.4485 95.2619 24.1405C94.8699 23.8325 94.5339 23.4125 94.2819 22.9365C94.0299 22.4605 93.8619 21.8725 93.8059 21.2285H104.362C104.362 21.1445 104.362 21.0885 104.39 21.0045C104.39 20.9205 104.39 20.8365 104.418 20.7525C104.418 20.6685 104.418 20.5845 104.418 20.5005C104.418 19.4365 104.278 18.4565 103.97 17.5605C103.662 16.6645 103.214 15.9085 102.626 15.2645C102.038 14.6205 101.338 14.1445 100.526 13.7805C99.6859 13.4165 98.7339 13.2485 97.6699 13.2485C96.6339 13.2485 95.6819 13.4445 94.8139 13.8365C93.9459 14.2285 93.2179 14.7605 92.6299 15.4045C92.0139 16.0765 91.5379 16.8605 91.2019 17.7285C90.8659 18.6245 90.6979 19.5765 90.6979 20.5565C90.6979 21.6205 90.8659 22.6005 91.2299 23.4685C91.5939 24.3645 92.0699 25.1485 92.7139 25.7925C93.3579 26.4365 94.1139 26.9405 94.9819 27.3045C95.8499 27.6685 96.7739 27.8645 97.8099 27.8645C99.3499 27.8645 100.666 27.5005 101.73 26.8005C102.794 26.1005 103.606 25.2045 104.194 24.1405L101.534 22.8245ZM94.0019 18.8485C94.2259 17.9525 94.6739 17.2245 95.3179 16.6925C95.9619 16.1605 96.7179 15.9085 97.6139 15.9085C98.2579 15.9085 98.8179 16.0205 99.2939 16.2165C99.7419 16.4125 100.106 16.6645 100.414 16.9445C100.694 17.2525 100.918 17.5605 101.058 17.8965C101.198 18.2605 101.282 18.5685 101.31 18.8485H94.0019ZM109.427 13.6965H106.487V27.4165H109.595V20.2485C109.595 19.7165 109.679 19.1845 109.819 18.6805C109.959 18.2045 110.183 17.7565 110.491 17.3645C110.799 17.0005 111.135 16.6925 111.555 16.4685C111.975 16.2445 112.451 16.1325 112.983 16.1325C113.879 16.1325 114.607 16.3565 115.167 16.8325C115.699 17.3085 115.979 18.1485 115.979 19.3525V27.4165H119.087V18.9325C119.087 17.2245 118.667 15.8245 117.799 14.7885C116.931 13.7525 115.643 13.2485 113.907 13.2485C112.955 13.2485 112.115 13.4725 111.359 13.8925C110.603 14.3405 110.015 14.9005 109.595 15.5445H109.427V13.6965ZM132.208 27.4165H135.148V13.2485H132.04V13.5565V15.4605C131.676 14.8725 131.088 14.3405 130.332 13.8925C129.576 13.4725 128.652 13.2485 127.588 13.2485C126.72 13.2485 125.88 13.4165 125.096 13.7805C124.284 14.1445 123.584 14.6765 122.996 15.3205C122.408 15.9645 121.932 16.7485 121.568 17.6165C121.204 18.5125 121.036 19.4925 121.036 20.5565C121.036 21.6205 121.204 22.6005 121.568 23.4685C121.932 24.3645 122.408 25.1485 122.996 25.7925C123.584 26.4365 124.284 26.9405 125.096 27.3045C125.88 27.6685 126.72 27.8645 127.588 27.8645C128.652 27.8645 129.576 27.6405 130.332 27.1925C131.088 26.7725 131.676 26.2405 132.04 25.6525H132.208V27.4165ZM128.176 24.9805C127.644 24.9805 127.112 24.8685 126.636 24.6725C126.16 24.4765 125.74 24.1685 125.376 23.7765C125.012 23.4125 124.704 22.9365 124.48 22.4045C124.256 21.8725 124.144 21.2565 124.144 20.5565C124.144 19.8565 124.256 19.2405 124.48 18.7085C124.704 18.1765 125.012 17.7005 125.376 17.3085C125.74 16.9445 126.16 16.6365 126.636 16.4405C127.112 16.2445 127.644 16.1325 128.176 16.1325C128.708 16.1325 129.212 16.2445 129.716 16.4405C130.192 16.6365 130.64 16.9445 131.004 17.3085C131.368 17.6725 131.648 18.1485 131.872 18.6805C132.096 19.2405 132.208 19.8565 132.208 20.5565C132.208 21.2565 132.096 21.8725 131.872 22.4045C131.648 22.9645 131.368 23.4405 131.004 23.8045C130.64 24.1685 130.192 24.4765 129.716 24.6725C129.212 24.8685 128.708 24.9805 128.176 24.9805ZM139.933 27.5845C140.521 27.5845 141.053 27.3605 141.473 26.9405C141.893 26.5205 142.117 26.0165 142.117 25.4285C142.117 24.8405 141.893 24.3085 141.473 23.8885C141.053 23.4685 140.521 23.2445 139.933 23.2445C139.345 23.2445 138.841 23.4685 138.421 23.8885C138.001 24.3085 137.777 24.8405 137.777 25.4285C137.777 26.0165 138.001 26.5205 138.421 26.9405C138.841 27.3605 139.345 27.5845 139.933 27.5845Z" fill="#252740"/>
<path d="M17.8948 18.0938H33.9999L17.8948 34.0031V18.0938Z" fill="url(#paint0_linear_3828_196)"/>
<path d="M16.1052 18.0938H6.10352e-05L16.1052 34.0031V18.0938Z" fill="url(#paint1_linear_3828_196)"/>
<path d="M17.8948 16.3262H33.9999L17.8948 0.416801V16.3262Z" fill="url(#paint2_linear_3828_196)"/>
<path d="M16.1052 16.3262H6.10352e-05L16.1052 0.416801V16.3262Z" fill="url(#paint3_linear_3828_196)"/>
<rect width="16.7309" height="16.7309" transform="matrix(0.711418 0.702769 -0.711418 0.702769 16.8357 5.55762)" fill="white"/>
<rect x="17.1389" y="18.0938" width="12.5262" height="3.73183" fill="#3F6DE4"/>
<defs>
<linearGradient id="paint0_linear_3828_196" x1="25.9474" y1="18.0938" x2="25.9474" y2="34.0031" gradientUnits="userSpaceOnUse">
<stop stop-color="#3F6DE4"/>
<stop offset="1" stop-color="#467AFF"/>
</linearGradient>
<linearGradient id="paint1_linear_3828_196" x1="8.05264" y1="18.0938" x2="8.05264" y2="34.0031" gradientUnits="userSpaceOnUse">
<stop stop-color="#3F6DE4"/>
<stop offset="1" stop-color="#467AFF"/>
</linearGradient>
<linearGradient id="paint2_linear_3828_196" x1="25.9474" y1="16.3262" x2="25.9474" y2="0.416801" gradientUnits="userSpaceOnUse">
<stop stop-color="#3F6DE4"/>
<stop offset="1" stop-color="#467AFF"/>
</linearGradient>
<linearGradient id="paint3_linear_3828_196" x1="8.05264" y1="16.3262" x2="8.05264" y2="0.416801" gradientUnits="userSpaceOnUse">
<stop stop-color="#3F6DE4"/>
<stop offset="1" stop-color="#467AFF"/>
</linearGradient>
</defs>
</svg>
